<svg xmlns="http://www.w3.org/2000/svg" width="733.918" height="479.119"><path d="M469.967 478.636c-7.922-.568-13-1.43-13-2.204 0-.414 8.887-1.314 19.75-1.999 10.862-.685 21.31-1.572 23.216-1.97l3.465-.723-2.215-2.216c-1.9-1.899-3.303-2.216-9.815-2.216-4.768 0-8.807-.573-10.842-1.538-3.414-1.62-10.265-8.09-9.44-8.915.266-.266 2.935.799 5.932 2.365 2.997 1.567 8.824 3.605 12.949 4.529 7.456 1.67 10.223 2.926 13.36 6.062 4.321 4.322-.396 7.163-14.11 8.497-5.363.522-10.875.881-12.25.8a753.247 753.247 0 0 1-7-.472zm-25.678-5.024c-3.264-.636-4.592-2.8-3.834-6.251.917-4.175 2.512-4.845 2.512-1.056 0 2.73.555 3.361 4.5 5.106 2.475 1.095 4.5 2.195 4.5 2.444 0 .522-4.477.38-7.678-.243zm-335.05-2.262c-6.617-.407-9.688-1.03-10.858-2.199-1.509-1.508-1.303-1.822 2.727-4.156 2.397-1.388 6.609-3.578 9.359-4.867l5-2.343.6-13.988c.33-7.694 1.216-16.239 1.968-18.989l1.367-5 .708 4.5c1.398 8.884.933 21.576-1.02 27.851-1.668 5.36-1.705 6.096-.331 6.623 1.025.393 3.506-1.424 7.376-5.404 3.207-3.298 5.832-6.42 5.832-6.94 0-.518-2.363-1.272-5.25-1.674-8.33-1.162-3.082-2.368 10.25-2.356 6.325.006 11.99-.014 12.591-.045.6-.03 1.725-1.967 2.498-4.305l1.407-4.25.31 5.407c.411 7.19-.929 8.496-8.515 8.296-3.18-.083-6.989-.417-8.462-.74-2.405-.528-2.878-.142-4.603 3.757-1.057 2.39-3.432 5.617-5.278 7.17-2.846 2.394-4.007 2.75-7.634 2.342-2.981-.336-4.64-.046-5.473.959-1.363 1.642-6.132 4.248-9.835 5.375-2.015.613-1.624.768 1.994.794 9.78.068 32.705-1.801 36.212-2.953 3.41-1.12 3.762-1.593 4.328-5.813 1.281-9.543 2.11-10.046 2.9-1.758.693 7.272.586 8.007-1.48 10.207-3.667 3.902-19.14 5.702-38.688 4.499zm357.735-.68c-4.701-1.978-7.774-5.02-8.525-8.443l-.622-2.83-6.43.6c-7.016.655-8.729-.692-3.291-2.588 3.903-1.36 20.82-3.474 21.597-2.698.675.675-5.99 3.597-8.204 3.597-.843 0-1.532.643-1.532 1.429 0 1.588 5.164 7.284 8.94 9.86 3.34 2.28 2.304 2.855-1.933 1.073zm-26.184-13.862c-.34-.55-.944-4.15-1.34-8-.397-3.85-1.343-8.517-2.103-10.372-1.887-4.61-1.765-4.838 1.136-2.112 1.385 1.3 3.03 4.073 3.655 6.161 1.133 3.782 1.154 3.794 5.233 3.06 2.253-.405 7.312-.737 11.242-.737 7.51 0 11.393 1.854 11.322 5.405-.028 1.4-.191 1.386-1.336-.122-1.08-1.422-3.351-1.765-13.218-2l-11.914-.283-1.028 5c-.566 2.75-1.307 4.55-1.649 4zm23.147-14.554c-.604-1.13-.972-3.043-.816-4.25.156-1.208-.056-2.742-.472-3.41-.529-.849.3-.773 2.748.25 1.928.805 3.636 1.464 3.795 1.464.16 0 .358-3.487.442-7.75.084-4.262 1.08-11.65 2.214-16.415 3.305-13.897 5.242-35.35 5.831-64.593.614-30.47-.445-47.55-4.282-69.03-5.266-29.485-2.747-39.47 15.363-60.873 10.468-12.374 7.633-4.14-5.136 14.912-9.234 13.778-9.655 17.464-5.235 45.87 1.402 9.008 3.056 24.254 3.675 33.88 1.844 28.647-.461 73.168-5.147 99.424-1.073 6.009-1.95 15.135-1.95 20.281 0 10.968-.964 12.085-6.67 7.733l-3.648-2.783.596 3.672c.673 4.149.296 4.615-1.308 1.618zm-325.47-7.644c-5.01-.667-12.268-3.317-13.654-4.987-1.152-1.388-.953-1.508 1.673-1.012 1.64.31 4.556.817 6.48 1.129l3.5.566-.127-5.249-.128-5.249-6.062-.683c-8.953-1.008-10.182-1.935-10.182-7.678 0-14.502 4.25-43.246 9.482-64.139 4.14-16.526 13.395-45.215 18.163-56.298 1.94-4.511 5.57-13.827 8.067-20.702 4.447-12.252 11.02-26.6 11.82-25.8.649.648-4.143 18.43-7.895 29.3-1.899 5.5-6.618 18.325-10.486 28.5-3.868 10.175-8.179 22.44-9.58 27.254-1.4 4.814-3.654 12.55-5.009 17.19-1.354 4.639-3.88 17.575-5.612 28.746-1.733 11.17-4.227 24.56-5.543 29.756-2.536 10.015-2.192 11.742 2.093 10.5 1.1-.318 10.775-.793 21.5-1.054 26.08-.636 25.416-.5 26.915-5.504.672-2.243 2.766-7.467 4.653-11.608 1.887-4.141 3.432-8.71 3.432-10.155.001-2.926 9.524-31.046 15.885-46.905 2.267-5.655 8.88-20.921 14.696-33.926 5.816-13.005 12.176-27.504 14.134-32.22 3.904-9.402 9.443-25.249 8.985-25.706-.158-.16-2.286 2.28-4.727 5.422-7.125 9.165-20.954 23.08-27.801 27.974-7.942 5.676-16.36 9.182-22.122 9.212-5.37.029-4.482-1.103 2.689-3.43 6.483-2.103 17.86-9.462 25.605-16.561 3.214-2.947 11.234-11.348 17.821-18.67l11.978-13.31 2.467-9.222c3.462-12.935 5.703-16.828 13.948-24.237 8.423-7.568 7.984-7.359 25.265-12.085 17-4.65 20.406-4.722 27.144-.576 2.859 1.759 6.427 3.444 7.93 3.745 3.886.777 10.916-1.352 13.718-4.154 1.8-1.801 2.385-2.004 2.385-.83 0 2.544-6.3 8.066-10.547 9.245-5.79 1.608-6.628 1.459-14.103-2.507-5.968-3.166-7.44-3.55-11.833-3.089-9.578 1.005-33.892 8.493-39.612 12.199-3.914 2.536-3.212.592-13.363 37.006-2.421 8.688-7.73 22.453-16.002 41.5-22.544 51.906-31.597 74.767-40.676 102.713-2.36 7.268-4.594 12.724-4.964 12.126-.37-.599-1.002 2.192-1.404 6.2-1.03 10.245-2.861 11.961-12.767 11.961h-7.361l-2.253 5.434c-2.679 6.464-5.582 9.68-4.112 4.555.501-1.749 1.816-4.712 2.92-6.584l2.01-3.405h-19.688l.456 4.75c.653 6.799.57 6.69 6.25 8.237 2.846.775 5.398 1.77 5.67 2.211.495.8-6.436.86-12.121.104zm283.224-1.054c-3.13-3.458-3.937-8.039-4.798-27.248-1.587-35.407-2.831-47.197-7.965-75.5-4.98-27.449-5.895-35.207-7.438-63-2.631-47.404-3.635-62.95-4.199-65-1.18-4.295 1.483.172 2.981 5 3.05 9.829 3.819 16.328 4.736 40 1.356 35.012 2.9 49.042 10.845 98.5 2.99 18.613 4.437 33.803 6.07 63.7.535 9.779 1.421 17.309 2.237 19 1.206 2.5 1.83 2.78 5.828 2.619 2.463-.1 7.629-.63 11.479-1.178 7.142-1.016 18.174-.477 19.044.931.78 1.263-10.24 2.244-17.561 1.563-4.924-.457-7.727-.222-10.338.869-4.763 1.99-8.978 1.891-10.92-.256zm9.276-115.723c-1.375-.796-3.175-1.757-4-2.138-5.628-2.593-6.395-7.62-2.903-19.032 2.53-8.264 4.15-11.059 13.544-23.355 8.085-10.581 10.596-15.67 15.301-31 1.773-5.775 4.389-13.125 5.814-16.333 3.1-6.977 2.593-7.629-5.941-7.652-6.481-.017-10.33-1.224-13.565-4.256-2.5-2.34-3.135-4.738-.727-2.74.838.696 5.414 1.62 10.168 2.053 5.961.543 9.43 1.375 11.177 2.68l2.533 1.89 5.107-5.07c4.349-4.318 18.177-13.22 19.101-12.296.166.166-4.1 4.642-9.48 9.947-6.204 6.119-10.917 11.778-12.889 15.477-3.076 5.771-8.618 21.256-7.874 22 .212.212 6.151-8.446 13.198-19.24 10.93-16.745 19.686-27.543 21.147-26.082.963.963-36.451 58.738-39.09 60.363-.677.418-2.224 2.396-3.439 4.397-1.214 2-4.497 6.5-7.296 10-6.886 8.608-9.66 13.55-13.017 23.195-3.494 10.038-3.52 11.05-.322 12.507 4.181 1.905 5.453 1.469 5.453-1.871 0-4.777 7.192-24.12 8.483-22.816.626.633-4.754 28.323-5.75 29.597-1.23 1.573-1.66 1.552-4.733-.225zm-241.322-60.365c3.78-3.442 14.945-10.16 16.886-10.16 1.32 0-3.818 5.042-8.303 8.147-2.332 1.614-6.157 3.583-8.5 4.376l-4.261 1.443zm-8.678-6.517c0-.428 31.258-17.738 33.444-18.52 1.908-.684-5.844 6.963-10.67 10.524-2.599 1.918-7.099 4.303-10 5.3-5.61 1.928-12.774 3.44-12.774 2.696zm-24.696-7.394c-1.757-.962-6.932-4.293-11.5-7.402-4.567-3.11-15.504-9.577-24.304-14.372-21.482-11.706-22.954-13.201-19.559-19.86 1.139-2.234 1.44-3.968.868-4.99-1.277-2.283-4.898-16.87-4.328-17.44.437-.437 5.23 9.36 7.003 14.315.693 1.935.744 1.927 1.585-.254.478-1.24 1.307-5.749 1.843-10.02s1.266-8.527 1.623-9.458c.873-2.274 3.93-3.125 6.427-1.788 2.574 1.378 2.651 2.35.122 1.547-2.8-.889-3.356.769-3.476 10.357-.101 8.046-.363 9.068-3.95 15.442-2.112 3.754-3.687 6.943-3.5 7.088 3.16 2.43 11.93 7.767 22.342 13.595 7.15 4.002 16.92 9.912 21.711 13.134 4.792 3.221 9.7 5.857 10.906 5.857 2.492 0 7.01-3.199 14.633-10.358 6.125-5.754 6.705-8.759 2.625-13.607-3.49-4.148-2.612-4.679 1.767-1.069l3.531 2.91 3.379-6.984c3.18-6.572 11.443-16.73 12.639-15.534.783.783-6.202 13.25-10.75 19.184-2.69 3.51-3.695 5.683-3.31 7.155.896 3.426-2.198 8.42-8.963 14.467-6.948 6.21-12.345 9.827-14.668 9.83-.825.002-2.938-.784-4.696-1.745zM91.913 228.66c-4.179-2.031-9.828-7.092-24.273-21.75-18.885-19.162-30.048-31.562-29.187-32.422.253-.254 3.06 1.488 6.237 3.871 5.885 4.414 13.927 12.253 31.777 30.975 12.176 12.771 19.664 17.32 28.452 17.284 3.051-.012 7.314-.772 9.473-1.689l3.924-1.666-1.924 2.128c-5.703 6.306-15.531 7.618-24.48 3.269zm76.644-15.348c3.278-6.795 3.062-7.087-1.628-2.206-3.874 4.032-7.97 6.147-4.746 2.451.84-.962 2.284-4.078 3.21-6.923 2.29-7.037 3.926-8.284 7.035-5.363l2.402 2.257 1.115-4.142c.667-2.476 2.818-5.919 5.35-8.56 3.089-3.225 4.04-4.905 3.522-6.219-.39-.99-.742-3.752-.78-6.137l-.07-4.338 3.28 6.338c3.3 6.374 6.453 8.497 5.97 4.02-.251-2.322-4.437-8.617-7.25-10.901-1.325-1.076-1.314-1.222.095-1.25 2-.04 4.434 2.6 5.863 6.359.604 1.587 1.4 2.585 1.768 2.216.37-.37 4.784 3.425 9.812 8.43l9.14 9.103 1.66-2.535c.914-1.394 1.692-3.338 1.73-4.32.056-1.493.239-1.43 1.118.389.81 1.676.623 3.05-.818 6-2.916 5.97-4.99 5.531-12.752-2.698l-6.716-7.119-2.023 2.572c-2.46 3.127-4.283 3.258-6.252.447-1.446-2.064-1.508-2.014-2.194 1.75-1.167 6.408-4.524 12.496-8.03 14.564-1.786 1.055-4.888 3.918-6.892 6.364-2.004 2.445-4.023 4.446-4.486 4.446-.464 0 .241-2.248 1.567-4.995zm12.31-14.255c1.116-2.612 1.827-4.75 1.58-4.75-.537 0-5.48 9.62-5.48 10.667 0 1.59 1.975-1.407 3.9-5.917zm321.35 18.578c-.688-.272-1.215-1.47-1.171-2.661.043-1.192.305-1.604.583-.917.277.688.893 1.25 1.368 1.25.475 0 7.3-4.808 15.167-10.685 22.65-16.92 42.803-29.317 42.803-26.328 0 .557-.372 1.013-.826 1.013-.454 0-4.166 2.843-8.25 6.317-4.083 3.474-9.674 7.843-12.424 9.707-2.75 1.865-8.947 6.38-13.772 10.036-12.124 9.186-20.373 13.496-23.478 12.268zm-63.166-8.052c-1.879-.977-4.008-2.693-4.731-3.814-1.185-1.835-.81-2.662 3.765-8.317 2.794-3.453 5.294-6.066 5.555-5.805.922.923-2.619 6.405-6.126 9.484l-3.554 3.121 3.165 1.637c2.6 1.345 3.834 1.437 6.9.519 4.514-1.353 5.324-3.093 3.802-8.174-1.502-5.01-.232-6.606 5.971-7.506 6.82-.989 8.466-2.085 7.863-5.24-.475-2.483-.42-2.526.9-.72.773 1.056 1.406 2.703 1.406 3.658 0 2.17-4.19 5.544-7.896 6.358-2.672.587-2.781.834-2.35 5.329.397 4.122.11 5.057-2.287 7.454-1.507 1.507-3.241 2.746-3.854 2.754-.612.008-2.013.244-3.113.526-1.1.281-3.538-.287-5.416-1.264zm60.398-2.315c-1.657-3.675-7.49-9.95-9.267-9.968-3.765-.04-14.862-2.454-19.465-4.234-5.709-2.208-6.672-3.072-4.75-4.259 1.662-1.028 1.136-3.455-1.5-6.911-1.844-2.418-2.519-4.565-2.57-8.183-.047-3.246-.323-4.263-.817-3.005-.657 1.676-.897 1.537-2.02-1.177-1.723-4.157-3.761-5.792-9.093-7.294-7.15-2.013-7.275-3.2-.288-2.728 4.229.286 6.877 1.021 8.293 2.303 2.04 1.847 2.067 1.846 1.36-.061-.395-1.07-1.834-3.733-3.197-5.919-1.362-2.186-3.533-6.361-4.823-9.278-2.86-6.469-3.178-10.119-.5-5.747 1.01 1.65 4.229 6.15 7.152 10 7.182 9.461 8.954 13.663 8.98 21.3.014 3.774.663 7.538 1.62 9.388 1.27 2.456 1.365 3.6.462 5.58-.624 1.37-.934 2.691-.689 2.936.245.245 4.874.676 10.288.958 12.233.637 15.734 1.676 18.435 5.47 2.028 2.847 5.47 13.637 4.622 14.486-.221.221-1.226-1.424-2.233-3.657zm-350.336-9.987c1.653-3.935 2.79-7.37 2.528-7.633-.263-.263-2.097 1.643-4.076 4.234-3.84 5.03-4.537 4.608-2.085-1.26.832-1.992 1.394-3.7 1.25-3.796-.145-.095-1.814-.792-3.71-1.549-1.894-.756-4.937-2.685-6.76-4.286-3.774-3.313-4.72-2.966-8.472 3.106-2.948 4.769-3.307 2.936-.835-4.251 1.11-3.227 1.86-6.026 1.665-6.221-.195-.195-1.613 1.462-3.151 3.682-1.539 2.22-3.002 3.832-3.25 3.583-.25-.25.305-2.74 1.233-5.533 1.157-3.484 1.472-6.41 1.003-9.315-1.014-6.275-4.208-19.874-5.411-23.037-1.048-2.755-1.059-2.758-4.275-1.095l-3.224 1.667 1.576-2.385c2.12-3.208 6.698-4.863 7.904-2.858 2.656 4.415 2.468 4.407 9.087.384 3.496-2.125 9.02-4.782 12.274-5.903 4.7-1.62 6.242-2.7 7.5-5.251 2.142-4.345 3.238-4.083 2.49.596-.503 3.147-.284 3.98 1.197 4.549 1.25.48 2.395-.02 3.683-1.603l1.87-2.299-.557 2.59c-.5 2.323-.03 2.835 4.591 5 5.663 2.65 4.218 3.944-1.663 1.487l-3.667-1.533.695 5.728c.381 3.15.793 5.846.914 5.99.121.144 2.352-.68 4.958-1.833 2.606-1.153 4.96-1.873 5.233-1.6.582.582-7.846 5.671-9.392 5.671-1.264 0-2.27 2.355-2.27 5.314 0 1.8.402 1.56 2.467-1.48 2.331-3.43 9.128-8.572 10.078-7.623.24.241-2.707 3.555-6.551 7.364-3.845 3.809-6.99 7.655-6.992 8.547 0 .893-1.115 5.033-2.475 9.2l-2.473 7.577 3.082 3.083c2.461 2.46 3.368 2.845 4.498 1.908.778-.646 1.688-.902 2.022-.568 1.542 1.543 4.155-1.574 4.773-5.692.365-2.435 2.377-10.435 4.471-17.778 3.658-12.828 3.735-13.403 1.954-14.659-2.252-1.587-2.36-4.311-.328-8.243 2.03-3.926 2.784-3.722 2.277.618-.327 2.802.011 3.797 1.577 4.635 1.668.893 2.37.596 4.302-1.818 1.805-2.255 2.31-2.496 2.314-1.103.003.98-.67 3.398-1.495 5.372-.825 1.975-1.5 5.785-1.5 8.467v4.876l5-3.592c2.75-1.976 5-3.73 5-3.9 0-.169-1.632-1.27-3.626-2.447-5.023-2.963-3.599-3.644 2.06-.984 4.437 2.086 4.714 2.105 5.96.403 1.155-1.581 1.251-1.424.842 1.369-.381 2.594-.126 3.154 1.434 3.154 1.058 0 2.7-1.358 3.711-3.07 2.268-3.838 3.066-3.21 1.79 1.409-.535 1.94-.718 3.782-.406 4.094.313.312 2.787.567 5.5.567h4.93l-.698-6.25c-.385-3.437-.992-6.529-1.349-6.87-.357-.341-4.023-1.62-8.148-2.84-10.062-2.979-24.421-10.265-37.432-18.994-7.4-4.964-11.067-6.883-11.885-6.217-.651.53-4.504 1.946-8.562 3.148l-7.38 2.185 4.338 4.419c2.385 2.43 4.003 4.42 3.596 4.42-1.951 0-10.724-5.223-11.636-6.927-2.402-4.488 1.507-6.79 13.584-8.001 9.54-.957 12.237-.108 29.196 9.195 6.424 3.523 16.926 8.964 23.336 12.09l11.656 5.684 3.228 6.694c2.96 6.139 3.111 6.906 1.811 9.23-1.857 3.32-4.727 3.624-10.42 1.107-2.556-1.131-4.97-1.857-5.365-1.613-.394.243-2.224 3.412-4.065 7.04-1.842 3.629-3.79 6.87-4.33 7.204-1.785 1.103.197-5.614 2.774-9.407l2.485-3.658-2.147-1.504c-1.946-1.363-2.247-1.333-3.215.314-2.417 4.116-8.69 11.546-10.62 12.58-2.042 1.092-2.047 1.063-.391-2.211.923-1.825 2.637-4.414 3.81-5.755l2.134-2.436-3.5 2.138c-3.144 1.92-3.724 3.002-5.69 10.61-2.313 8.941-5.31 15.783-8.394 19.158-1.022 1.118-2.276 3.818-2.787 6-.843 3.6-.938 3.24-1.029-3.886l-.1-7.854-3.75 3.138a906.386 906.386 0 0 1-5.16 4.292c-1.18.966-1.025 1.408.946 2.715 4.527 3.002 6.458 4.896 5.734 5.622-.401.403-2.622-.52-4.935-2.05l-4.206-2.783-2.065 2.419c-4.873 5.709-5.495 5.15-2.418-2.172zm20.713-10.974c0-.945-.318-.76-.86.5-.472 1.1-.859 2.675-.859 3.5 0 .946.318.76.86-.5.472-1.1.859-2.675.859-3.5zm-18.428-12.025c.404-4.111 1.82-13.55 3.147-20.975 2.595-14.517 2.735-15.647 1.83-14.742-.325.325-2.538.006-4.917-.71l-4.325-1.302-3.799 3.89c-2.09 2.14-6.996 5.536-10.905 7.548l-7.106 3.658.892 5.58c.49 3.068.648 7.153.35 9.078l-.542 3.5 4.222-.056c3.109-.042 5.724-1.03 9.924-3.75 3.136-2.032 6.036-3.694 6.446-3.694 1.496 0-5.994 6.9-8.712 8.027-1.679.695-2.596 1.697-2.288 2.499.686 1.788 11.242-6.261 11.836-9.026.237-1.1 1.182-6.05 2.1-11 2.304-12.414 3.353-13.66 3.365-4 .006 4.887-1.148 13.836-2.966 23-1.637 8.25-2.976 15.225-2.976 15.5 0 .275.83-.861 1.845-2.525 1.07-1.754 2.153-6.167 2.579-10.5zm-4.95-3.786c.462-1.204.015-1.068-1.676.51-1.268 1.184-4.228 3.24-6.578 4.57l-4.272 2.416 5.272 3.511 5.273 3.512.675-6.439c.372-3.541.96-7.177 1.306-8.08zm27.202-2.376c-.32-.798-.557-.561-.604.604-.044 1.054.192 1.645.525 1.312.332-.332.368-1.195.079-1.916zm4.14-17.943c-2.33-1.477-2.823-.955-2.823 2.99 0 2.124-.227 6.061-.505 8.75-.474 4.6-.351 4.422 2.074-3.005 2.078-6.36 2.322-8.058 1.255-8.735zm13.983 3.604c-.307-.308-.867.247-1.242 1.233-.543 1.425-.428 1.54.56.56.683-.679.99-1.485.682-1.793zm-58.438-10.64c.478-.37-1.322.076-4 .99-2.677.913-4.963 1.684-5.079 1.712-.115.028.057 1.074.384 2.324.588 2.25.632 2.239 4.21-1.04 1.99-1.823 4.008-3.617 4.485-3.986zm268.132 56.941c-3.88-8.15-10.262-15.562-18.212-21.152-6.913-4.86-16.641-13.623-15.124-13.623.314 0 5.566 2.518 11.672 5.595 12.409 6.253 16.874 10.347 20.917 19.179 2.173 4.746 4.263 14.249 3.127 14.215-.21-.006-1.28-1.903-2.38-4.214zm-309.93-.094c-3.058-4.01-5.21-9.84-6.035-16.348l-.613-4.833 2.179 3.976c2.16 3.941 8.127 20.524 7.386 20.524-.212 0-1.525-1.493-2.917-3.319zm521.202-5.236c-8.203-1.989-14.97-5.712-21.01-11.563-6.117-5.925-9.504-7.599-17.206-8.504-4.63-.544-5.94-.341-7.623 1.182-2.01 1.82-2.026 1.803-1.45-1.466.442-2.511-.074-4.422-2.15-7.95-2.26-3.844-2.721-5.79-2.677-11.303.065-8.131 1.995-11.859 8.798-17.002 9.86-7.452 19.157-10.77 30.296-10.814 6.999-.028 8.363 1.382 2.278 2.354-13.49 2.158-29.14 9.83-33.092 16.224-3.753 6.072-4.122 10.013-1.726 18.433l2.144 7.536 6.224-.396c8.624-.55 11.751.772 20.934 8.845 8.953 7.871 11.533 8.92 28.378 11.536 12.716 1.975 14.719 2.644 10.61 3.547-5.137 1.129-16.74.792-22.728-.659zm27.778-.332c2.25-2.1 40.523-10.348 54.12-11.663l7.17-.693-2.038-3.91c-2.491-4.781-2.207-14.637.509-17.638.929-1.027 1.689-2.135 1.689-2.462 0-.328-6.744-.337-14.987-.02-9.36.36-19.402.099-26.75-.695-11.189-1.208-21.096-.657-27.916 1.555-1.349.437-1.172.033.653-1.497 4.454-3.735 12.138-5.35 22.337-4.692 5.04.325 17.263 1.014 27.163 1.53 9.9.518 19.197 1.24 20.661 1.606 2.176.544 2.984.174 4.425-2.025 2.395-3.655 5.859-4.847 10.058-3.461 4.03 1.33 4.493 3.128.606 2.355-2.02-.4-3.947.265-7.25 2.507-2.475 1.68-5.24 3.062-6.143 3.072-2.2.024-2.86 2.08-2.844 8.85.018 7.316.858 10.431 2.63 9.751 1.052-.403 1.228.12.74 2.194-.353 1.498-.921 3.005-1.263 3.35-2.842 2.868-34.033 9.932-52.402 11.867-11.573 1.22-12.356 1.228-11.168.12zm-311.55-5.074c0-.539 1.239-1.895 2.754-3.015s5.962-5.544 9.883-9.83l7.13-7.794-6.378-5.417c-7.188-6.105-7.971-7.848-8.756-19.483-.501-7.438-.44-7.79.876-5 .779 1.65 2.155 5.545 3.059 8.657 2.072 7.134 11.441 18.843 15.079 18.843 1.294 0 2.353-.45 2.353-1s-.402-1-.892-1c-1.557 0-11.132-9.144-12.65-12.08-.802-1.551-1.458-4.215-1.458-5.92 0-3.5 2.313-8.581 4.229-9.289.699-.258-.955-1.049-3.676-1.758-3.94-1.027-4.55-1.444-3-2.05 1.07-.42 3.846-.794 6.168-.833 4.589-.076 19.24 2.766 20.65 4.005 1.28 1.127-7.833 2.267-12.346 1.545-5.125-.82-7.025 1.06-7.025 6.952 0 2.435.177 4.428.394 4.428.217 0 1.875-1.383 3.685-3.074 4.607-4.303 10.17-6.926 14.694-6.926 4.823 0 7.197-2.376 14.064-14.075 4.705-8.015 11.782-15.925 14.25-15.925.594 0-.225 1.688-1.822 3.75-1.596 2.063-4.385 6.45-6.198 9.75-1.813 3.3-4.422 7.501-5.798 9.336l-2.502 3.336 3.067-1.586c5.332-2.758 12.512-1.489 16.11 2.848 1.623 1.955 1.06 1.97-2.58.072-6.018-3.138-14.073-.495-19.001 6.235-4.212 5.751-4.4 5.875-3.346 2.192.54-1.888 1.923-4.707 3.073-6.265l2.09-2.832-3.84 1.946c-2.112 1.07-6.09 3.02-8.84 4.332-4.812 2.296-5.012 2.557-5.296 6.917-.163 2.493.301 6.318 1.031 8.5 1.234 3.69 1.567 3.95 4.743 3.689 4.479-.368 4.761-.794 2.3-3.474-2.96-3.224-3.68-7.85-1.886-12.142 1.902-4.554 2.644-4.602 1.917-.125-.755 4.653 3.882 14.521 6.823 14.521 3.904 0 .766 1.81-6.023 3.473-8.46 2.074-11.103 3.925-19.458 13.639-3.937 4.576-8.064 8.284-10.35 9.298-2.09.928-4.589 2.119-5.551 2.647-1.129.62-1.75.613-1.75-.018zm29.412-24.643c1.28-.492.991-1.15-1.538-3.513-2.94-2.746-3.089-3.24-2.682-8.86l.43-5.953-3.561 2.139c-1.959 1.176-3.732 2.268-3.94 2.427-.685.521 8.423 14.364 9.452 14.364.145 0 .972-.272 1.839-.604zm-152.17 20.666c-10.95-5.763-13.526-8.485-5.273-5.573 2.355.831 4.603 1.511 4.996 1.511.881 0 3.275-5.093 2.675-5.692-.238-.239-2.727-.518-5.53-.621-7.548-.277-6.17-2.536 1.721-2.818 3.363-.12 3.23-.216-1.612-1.146-4.88-.937-5.468-.838-7.75 1.306-3.277 3.079-3.054 1.773 1.03-6.029 3.318-6.337 4.372-6.534 2.645-.493l-.856 2.993 7.755.046 7.755.046 3.791-7.776 3.791-7.775-3.94-3.42c-2.167-1.882-3.715-3.64-3.44-3.906.275-.266 2.867.643 5.76 2.02 8.132 3.873 7.993 7.598-.646 17.402l-4.086 4.638 2.236 1.617c2.146 1.553 2.036 1.594-2.764 1.04l-5-.576 5.25 2.526c5.103 2.456 7.036 4.256 3.5 3.26-6.772-1.906-7.713-1.772-9.065 1.292-1.247 2.826-1.145 3.13 2 5.94 1.822 1.628 3.082 3.192 2.799 3.475-.284.283-3.767-1.196-7.741-3.287zm111.758 1.938c-1.1-1.1-2-2.45-2-3 0-.55-.408-1-.907-1-.498 0-.716 1.013-.483 2.25.233 1.238-1.398-1.377-3.624-5.81-2.226-4.434-4.408-10.284-4.85-13-.442-2.717-2.228-7.165-3.97-9.886-3.243-5.065-3.936-7.96-2.166-9.054.55-.34 1 .22 1 1.245 0 1.024 1.613 3.414 3.585 5.309 4.444 4.271 6.415 7.931 6.415 11.912 0 1.685.768 5.828 1.707 9.207 1.3 4.677 2.673 7.054 5.75 9.96 2.224 2.1 3.48 3.828 2.793 3.842-.688.014-2.15-.875-3.25-1.975zm-293-1.29c-3.263-1.644-3.598-4.603-1.057-9.344 1.131-2.11 2.057-4.455 2.057-5.211 0-3.594 6.775-13.47 14.538-21.193 4.654-4.63 8.448-7.978 8.43-7.44-.016.538-2.49 4.353-5.496 8.478-8.586 11.781-13.472 18.84-13.472 19.462 0 .315 2.137-.51 4.75-1.831 12.462-6.305 28.794-8.916 52.75-8.433l15 .302-5.71 1.81c-3.892 1.233-11.21 2.087-23 2.684-18.94.959-25.387 2.293-36.326 7.516-7.74 3.695-11.02 6.599-10.117 8.953.8 2.086 3.446 1.931 7.914-.463 2.052-1.1 4.036-2 4.41-2 1.555 0-4.427 5.367-7.39 6.629-3.903 1.663-4.138 1.666-7.281.081zm423.232-6.71c-2.197-12.227-2.448-15-1.356-15 .58 0 1.459.788 1.954 1.75 1.208 2.345 1.967 13.01 1.192 16.75-.538 2.598-.778 2.128-1.79-3.5zm-167.308-2.858c1.684-3.147 1.288-3.454-1.56-1.214-4.293 3.377-4.59 2.384-.778-2.61 1.966-2.574 5.343-8.2 7.505-12.5 2.162-4.3 4.178-7.818 4.481-7.818.716 0-.578 8.785-1.76 11.952-.879 2.352-.84 2.382.964.75 2.812-2.545 3.462-2.063 1.73 1.285-1.955 3.782-7.188 9.772-9.72 11.127-1.73.927-1.823.823-.862-.972zm447.076-2.142c0-1.867-.473-2.905-1.25-2.75-2.006.401-2.178-8.332-.213-10.75l1.626-2-.656 2c-.786 2.399-.774 2.288-.626 5.81.17 4.014 2.119 2.295 2.119-1.869 0-1.892.45-3.44 1-3.44 1.25 0 1.243.582-.063 5.283-1.156 4.166-.424 8.135 1.304 7.067.716-.443.865-.07.428 1.067-.368.96-.67 1.934-.67 2.164 0 .23-.674.418-1.5.418-1 0-1.5-1-1.5-3zm-609.34-6.952c-1.949-3.895-3.846-9.1-4.215-11.565-.37-2.466-1.184-4.473-1.809-4.46-.625.012-3.653 1.25-6.728 2.752-4.853 2.37-5.53 2.495-5.126.947.713-2.723 4.255-4.722 8.37-4.722 3.075 0 3.768-.384 4.06-2.25.304-1.944.657-1.67 2.597 2.014 2.342 4.448 7.695 23.065 6.869 23.891-.262.262-2.07-2.712-4.018-6.607zm588.34 3.966c1.375-1.084 4.075-2.264 6-2.623 1.925-.358 3.95-.987 4.5-1.398.55-.41 1.9-.383 3 .06 1.183.478 1.414.835.565.877-.789.039-3.264.92-5.5 1.96s-5.64 2.162-7.565 2.493l-3.5.602 2.5-1.97zm25.015-3.205c.011-3.15.276-3.906.985-2.809 1.268 1.963 1.268 5.716 0 6.5-.609.376-.994-1.07-.985-3.69zm-27.452-4.91c1.14-1.847 6.981-3.83 9.408-3.196 1.857.485 1.182.942-3.593 2.433-6.99 2.182-6.667 2.14-5.815.762zm16.467-.149a1.812 1.812 0 0 0-1.78-1.78c-1.61-.028-1.602-.117.096-1.104 2.523-1.467 4.254.264 2.788 2.788-.987 1.698-1.076 1.706-1.104.096zm-96.021-2c-3.816-4.461-9.185-12.612-9.705-14.734-.338-1.384-1.649-3.487-2.912-4.674-1.895-1.78-2.193-2.83-1.703-6 .78-5.051 1.163-5.33 1.946-1.415.418 2.09 1.519 3.642 3.09 4.358 1.677.764 4.03 4.34 7.512 11.414 4.696 9.54 5.285 10.301 7.975 10.301 1.683 0 2.645.421 2.288 1-.882 1.426-7.217 1.24-8.491-.25zm-250.01-.179c0-.236 2.417-1.131 5.37-1.99 4.939-1.436 5.986-2.32 13.077-11.047 4.24-5.218 9.024-10.593 10.631-11.946 3.185-2.68 3.598-3.573 1.673-3.616-2.098-.047-15.753-13.605-15.719-15.607.029-1.678.154-1.704 1.254-.261.672.882 3.081 2.553 5.354 3.712 2.273 1.16 5.572 3.925 7.33 6.146 1.76 2.221 4.034 4.038 5.056 4.038 2.966 0 3.11 1.525.384 4.085-1.391 1.307-4.958 5.985-7.926 10.396-7.026 10.439-7.335 10.8-11.89 13.89-2.99 2.03-5.094 2.63-9.233 2.63-2.948 0-5.36-.194-5.36-.43zm355.08-2.27c-1.882-1.283-5.23-2.621-7.44-2.974-3.747-.6-3.853-.704-1.578-1.547 3.499-1.298 8.258-.133 10.886 2.664 3.262 3.473 2.14 4.589-1.868 1.857zm-142.61.749c.313-.506 3.104-1.87 6.204-3.029 7.128-2.667 10.565-2.108 4.327.704-5.17 2.33-11.382 3.702-10.531 2.325zm-486.47-.511c0-.254 1.913-.956 4.25-1.56 2.338-.604 5.038-1.326 6-1.606 3.122-.906 1.848 1.397-1.399 2.53-3.148 1.097-8.85 1.507-8.85.636zm340.712-2.16c-1.828-1.828.432-18.379 2.51-18.379.706 0 .83 2.485.372 7.534-.738 8.146-1.755 11.971-2.882 10.844zm137.005-1.422c1.952-1.768 24.461-7.951 28.784-7.907 1.776.019 1.72.183-.5 1.474-3.876 2.252-14.791 5.329-22.284 6.281-3.731.474-6.431.543-6 .152zm-196.088-2.986c-2.951-3.508-4.435-9.565-2.754-11.246.834-.833 1.126-.591 1.126.934 0 1.133 1.28 4.598 2.845 7.7 3.147 6.24 2.68 7.243-1.217 2.612zm-148.628.26c-6.353-1.018-2.726-2.008 13.227-3.609 13.452-1.35 18.82-1.504 24.273-.697 3.85.57 10.825 1.089 15.5 1.154l8.5.119-4.5 1.545c-3.526 1.21-9.913 1.582-29.5 1.717-13.75.095-26.125-.008-27.5-.228zm78-13.23c7.332-5.296 8.848-5.996 12.904-5.962l4.596.04-3.043 1.325c-1.673.728-6.089 3.41-9.813 5.96-4.46 3.054-7.825 4.636-9.862 4.636-2.875 0-2.51-.42 5.218-6zm82.394 3.993c-.535-.535-3.43-1.844-6.434-2.91l-5.46-1.938 4.194-.073c3.064-.053 4.95.578 7 2.342 1.543 1.328 2.55 2.67 2.239 2.983-.312.313-1.004.131-1.54-.404zm-343.359-1.596c.02-.494.679-2.023 1.465-3.398 1.691-2.959 1.918-8.35.464-11.066-1.31-2.449.2-2.515 2.38-.105 2.08 2.298 2.117 6.377.095 10.288-1.475 2.853-1.462 2.966.25 2.063.996-.525 5.41-1.74 9.81-2.701 17.108-3.735 22.173-9.566 21.327-24.552-.452-7.983-1.627-9.88-4.761-7.685-2.62 1.835-6.199 1.215-9.208-1.593-3.008-2.807-20.241-11.443-24.387-12.22-4.114-.772-8.006 1.208-12.796 6.51-2.315 2.562-3.686 5.083-3.705 6.814-.026 2.387-.167 2.512-1.071.959-2.57-4.416 3.35-14.401 10.637-17.941 4.085-1.985 4.91-2.067 9.225-.917 2.607.695 8.104 3.357 12.216 5.916 4.112 2.56 9.512 5.209 12 5.886 3.864 1.053 4.196 1.33 2.274 1.905-3.786 1.131-2.503 2.572 2 2.247 3.992-.29 4.23-.475 3.926-3.071-.18-1.544.574-4.215 1.71-6.053 3.859-6.244 27.283-27.684 30.246-27.684.501 0 .558 1.859.13 4.25-.42 2.338-.756 8.975-.747 14.75l.015 10.5 5.649 12.586c6.408 14.277 7.642 19.909 5.803 26.478-1.364 4.871-3.759 7.666-2.595 3.028 1.172-4.67-1.305-14.298-6.946-27.003-6.82-15.362-8.198-21.615-6.473-29.389.696-3.135 1.92-6.98 2.722-8.543.801-1.563 1.311-2.96 1.133-3.104-.432-.348-22.444 23.299-24.487 26.306-1.478 2.175-1.466 2.643.146 6 2.307 4.802 3.192 18.567 1.52 23.635-2.049 6.207-8.706 12.025-16.521 14.44-7.242 2.236-23.505 3.945-23.446 2.464zm382.94-3.148c-.014-.412-2.68-3.562-5.927-7-5.931-6.28-6.121-7.811-.548-4.413 3.077 1.877 9.473 12.163 7.562 12.163-.584 0-1.074-.337-1.087-.75zm9.831-6.099c-1.105-1.564-9.01-5.787-12.306-6.575-4.678-1.118-10.478-3.033-12.762-4.212-2.161-1.117-2.636-1.925-2.185-3.72.67-2.667-1.717-5.179-4.064-4.278-1.242.477-1.34.224-.513-1.323 1.51-2.822 1.274-3.323-1.266-2.685-1.779.446-2.323.136-2.438-1.392-.168-2.235.773-2.52 2.528-.766.66.66 1.2.83 1.2.378 0-.453.648-.285 1.44.373.792.657 1.217 1.778.944 2.49-.283.737.423 1.537 1.633 1.853 1.172.307 2.375 1.491 2.673 2.632.48 1.836 1.303 2.074 7.176 2.071 3.649-.002 11.474.503 17.39 1.121l10.756 1.124 7.305-5.05c8.147-5.632 28.51-16.698 29.29-15.918.705.706-6.52 6.422-17.107 13.532-4.95 3.324-12.375 8.989-16.5 12.587-4.125 3.598-7.95 6.504-8.5 6.456-3.117-.268-3.747.149-2.5 1.651.788.95.853 1.5.179 1.5-.586 0-1.654-.832-2.373-1.849zm6.194-8.703 2.5-2.736-3.375.644c-1.857.354-5.424.644-7.929.644h-4.553l3.907 2.913c4.29 3.2 5.335 3.037 9.45-1.465zm-28.25-4.137c-.963-.252-2.538-.252-3.5 0-.963.251-.175.457 1.75.457s2.712-.206 1.75-.457zM35.69 131.466c-3.062-1.21-9.614-8.214-13.188-14.099-6.093-10.029-9.805-20.683-10.125-29.059-.158-4.125-.055-6.375.228-5 .62 3.001 12.733 28.849 16.17 34.5 5.053 8.31 10.483 12.5 16.2 12.5 1.818 0 2.852.415 2.49 1-.694 1.124-9.047 1.236-11.775.158zm31.386-6.336c3.514-3.477 7.84-9.022 9.613-12.322 2.625-4.887 3.228-5.517 3.25-3.4.059 5.738-4.48 14.223-9.29 17.37-1.2.785-3.934 2.158-6.073 3.05-3.874 1.617-3.864 1.598 2.5-4.698zm241.89 3.781c-10.786-3.292-15.939-5.527-35.793-15.52-9.739-4.903-22.64-10.765-28.667-13.026-11.325-4.25-20.798-9.138-18.921-9.763 3.09-1.03 38.247 12.693 53.292 20.803 4.077 2.197 12.504 6.212 18.728 8.921 22.941 9.989 27.675 13.566 11.36 8.585zm103.031-2.13c-.05-4.707-6.386-10.568-13.669-12.643-3.224-.918-4.905-1.706-3.735-1.75 1.17-.044 2.716-.79 3.436-1.656 1.084-1.306 1.062-1.742-.128-2.545-1.141-.77-1.025-.928.565-.77 1.1.11 2.787-.144 3.75-.562 2.44-1.06 4.84.054 4.126 1.915-.325.846-1.019 1.538-1.542 1.538-.524 0-.651-.488-.282-1.084.424-.687-.167-.962-1.613-.75-3.476.509-3.41 2.49.106 3.193 4.39.878 8.43 4.014 10.331 8.023 2.003 4.22 2.031 5.697.155 8.177-1.396 1.846-1.47 1.792-1.5-1.086zm197.969 2.028c0-.186 1.575-1.311 3.5-2.5 1.925-1.19 3.5-2.776 3.5-3.524 0-.748-4.163-3.822-9.25-6.832-5.088-3.01-11.662-7.546-14.609-10.081-8.855-7.618-10.456-7.96-11.657-2.493-.88 4.003-6.433 9.469-10.434 10.269-7.315 1.463-16.436-6.739-26.55-23.877C538.184 79.13 524.7 60.55 521.04 57.495c-2.247-1.875-13.741-7.187-15.551-7.187-.838 0-1.522-.508-1.522-1.129 0-1.576 9.358-.244 14.622 2.082 5.4 2.386 11.307 7.806 17.087 15.679 6.298 8.576 8.657 8.663 19.055.698 8.954-6.858 15.487-14.619 19.638-23.33 2.679-5.621 3.14-6.138 3.407-3.826.89 7.706-5.152 17.863-15.054 25.307-3.645 2.74-6.497 5.11-6.34 5.269.159.158 3.167-.616 6.686-1.719 8.087-2.534 7.901-2.551 7.883.72-.01 1.92-.274 2.34-.874 1.394-.715-1.128-1.257-1.1-3.235.171-6.276 4.035-17.905 5.529-24.209 3.11-1.513-.581-1.454-.18.447 3.042 1.204 2.041 2.684 3.887 3.288 4.102 2.066.735 23.768-4.226 24.73-5.654.71-1.052.88-.774.662 1.084-.47 4.008-6.368 6.287-16.433 6.35-4.598.03-8.36.343-8.36.697 0 1.29 7.935 12.875 11.591 16.923 6.51 7.205 12.723 8.93 17.794 4.942 2.93-2.305 5.89-7.303 4.908-8.285-1.356-1.356 4.43-.481 8.207 1.241 3.98 1.815 19.37 11.422 27 16.853 6.726 4.79 5.58 9.836-2.75 12.1-2.063.56-3.75.866-3.75.68zm-560.619-2.243c-.615-.995-3.659-2.61-6.763-3.59-6.303-1.986-8.427-4.36-9.23-10.312-.448-3.326-.354-3.581.683-1.856 2.334 3.884 5.48 6.724 9.991 9.021 5.255 2.675 7.242 4.72 6.77 6.965-.286 1.362-.488 1.33-1.451-.228zm127.619-12.919c-3.575-.803-9.503-1.307-13.172-1.12-7.217.365-7.914-.375-2.146-2.28 2.01-.662 5.041-2.005 6.736-2.982 3.18-1.834 9.83-4.191 15.082-5.348l3-.66-2.5 1.985c-1.375 1.093-4.686 2.552-7.357 3.243-4.693 1.214-4.76 1.282-2 2.021 5.722 1.533 19.805 2.047 24.103.88 4.02-1.091 16.333-9.514 18.97-12.975 1.107-1.455 1.223-1.442 1.252.136.05 2.745-10.01 13.769-14.953 16.387-3.712 1.965-5.865 2.357-12.5 2.274-4.408-.055-10.94-.758-14.515-1.56zm207.5-8.4c-10.325-4.061-33.436-10.128-45.5-11.944-25.5-3.837-29.541-5.142-39.255-12.673-4.265-3.307-8.664-5.44-17-8.241-6.185-2.08-13.057-4.706-15.272-5.837-4.219-2.155-37.473-32.617-37.473-34.327 0-1.86 3.842 1.028 8.203 6.166 2.475 2.916 6.628 6.27 9.797 7.913 3.025 1.568 9.173 5.81 13.662 9.428 5.369 4.326 11.017 7.777 16.5 10.082 10.423 4.38 13.283 5.948 18.491 10.133 2.285 1.836 5.399 3.81 6.92 4.389 3.262 1.24 22.427 5.83 22.427 5.372 0-.174-2.046-1.514-4.546-2.98-2.5-1.464-4.387-2.821-4.193-3.014 1.045-1.046 7.948 2.046 9.777 4.379 2.096 2.674 6.962 4.882 6.962 3.16 0-.486-2.525-2.498-5.61-4.472-3.085-1.973-5.422-3.775-5.193-4.003.228-.229 2.154.065 4.28.651 3.674 1.015 8.718 5.006 9.61 7.604.226.663 5.264 2.14 11.193 3.282 17.903 3.45 32.641 8.958 39.72 14.847 3.067 2.552 2.787 2.559-3.5.086zm179.46-7.077c1.104-2.907 3.164-6.427 4.577-7.823l2.569-2.539-1.115 3c-1.447 3.893-5.73 11.22-7.027 12.022-.557.344-.109-1.753.996-4.66zm-110.95 2.246c-1.764-.491-2.115-.925-1.204-1.488 1.567-.969 10.971.21 11.751 1.474.643 1.04-6.828 1.049-10.547.014zm42.99-6.024c3.656-2.987 9.766-5.677 15.8-6.959 7.195-1.528 10.847-3.514 16.45-8.945 5.24-5.08 5.698-4.959 2.793.734-3.832 7.513-9.712 10.905-24.488 14.13-4.961 1.083-9.928 2.22-11.038 2.525-1.72.474-1.649.255.483-1.485zm-35.148-.475c-2.007-.717-4.932-2.337-6.5-3.602-2.82-2.272-2.824-2.29-.352-1.624 1.375.37 7.225 1.322 13 2.114 14.914 2.045 17.422 2.62 15.83 3.629-2.067 1.31-17.906.938-21.978-.517zm119.84-.966c-1.315-3.428-.685-8.319 1.672-12.973 1.3-2.569 2.257-4.67 2.127-4.67-.13 0-2.357.938-4.947 2.084-2.591 1.146-4.919 1.875-5.174 1.62-.735-.736 7.1-6.585 11.01-8.218 4.05-1.693 11.197-1.98 12.12-.486.34.55-.323 1-1.474 1-1.15 0-3.547.609-5.328 1.353-2.79 1.166-3.54 2.304-5.435 8.25-1.21 3.793-2.576 8.46-3.038 10.371-.663 2.744-.985 3.095-1.532 1.669zm-360.455-3.395c-.885-12.626-19.72-31.748-34.237-34.759-1.925-.4-4.568-1.276-5.872-1.949-1.997-1.03-1.048-1.154 6-.788 9.927.515 14.672 2.458 21.475 8.794 5.245 4.884 5.397 4.977 5.397 3.298 0-1.781 4.94-7.844 6.392-7.844 1.381 0 3.003-4.699 4.142-12 .794-5.088 3.017-10 4.526-10 .67 0 .662.65-.025 1.934-.57 1.064-1.035 5.047-1.035 8.851 0 8.64-1.218 12.32-6.282 18.993l-4.005 5.279 2.536 4.721c3.198 5.954 4.1 10.191 3.247 15.244-.846 5.01-1.916 5.116-2.26.226zm-2.892-25.748c.843-2.475 1.395-4.5 1.227-4.5-.831 0-5.375 7.865-4.848 8.391 1.32 1.32 2.15.427 3.62-3.89zM82.967 86.942c0-7.848-17.232-30.493-24.804-32.596-2.033-.565-7.628-1.03-12.433-1.032l-8.737-.006-1.364 3.265c-1.63 3.902-7.125 8.926-12.94 11.833l-4.222 2.11 5.353-5.49c3.778-3.875 5.871-7.07 7.11-10.855l1.755-5.363 13.39.036c10.453.029 14.063.397 16.452 1.678 4.999 2.68 16.455 15.58 19.26 21.686 2.769 6.026 4.258 17.1 2.3 17.1-.616 0-1.12-1.065-1.12-2.366zm268.974.675c-.014-.995-1.061-4.846-2.326-8.559-1.266-3.712-1.956-6.75-1.534-6.75.422 0 1.017.403 1.321.896.323.522 2.122.532 4.31.024 5.777-1.342 11.011-1.097 23.384 1.093 6.254 1.107 18.57 2.287 27.37 2.622 18.247.695 22.983.07 54-7.124 21.362-4.954 35.196-7.503 40.75-7.508 4.31-.004 4.466-.403 1.75-4.503-1.954-2.95-2.719-7.526-1.25-7.473.413.015 1.872 2.49 3.242 5.5 2.408 5.288 2.626 5.473 6.446 5.473h3.954l-4.946-3.153c-2.72-1.735-4.419-3.335-3.775-3.557 1.588-.547 10.034 3.882 14.302 7.501l3.473 2.945-2.973-.04c-5.372-.072-35.275 4.254-46.738 6.76-6.18 1.352-18.434 4.16-27.234 6.242-15.811 3.74-16.231 3.782-35.5 3.667-17.596-.105-21.405-.457-39-3.613-10.725-1.923-19.621-3.396-19.768-3.273-.148.123.412 1.528 1.243 3.122 1.712 3.283 2.034 9.966.525 10.9-.55.339-1.012-.197-1.026-1.192zm-8.974-3.674c0-.75-.933-2.55-2.073-4-1.14-1.45-1.623-2.635-1.073-2.635 1.335 0 5.146 4.913 5.146 6.635 0 .75-.45 1.365-1 1.365s-1-.614-1-1.365zM116.65 80.549c2.368-1.73 8.108-3.231 12.317-3.222 3.283.007 31.062-3.75 33.717-4.56.927-.283.867-1.208-.25-3.883-1.683-4.027-1.942-10.165-.467-11.076.593-.367 1 .796 1 2.86 0 1.912.273 4.188.606 5.058.501 1.305.96 1.133 2.632-.993 2.01-2.557 6.569-4.95 7.553-3.967.283.283-.689 1.46-2.159 2.616-2.63 2.069-5.632 6.807-5.632 8.888 0 1.393 7.499.26 11.5-1.738 2.986-1.49 2.991-1.488 1.178.547-5.21 5.849-26.861 9.936-55.95 10.562-6.467.14-7.48-.044-6.045-1.092zm194.052-1.839c-.329-.328-.378-1.17-.11-1.868.272-.71-.532-1.597-1.819-2.008-1.98-.634-2.053-.805-.511-1.214 1.357-.36.746-1.006-2.5-2.644-4.713-2.379-5.628-4.98-1.934-5.502 1.451-.205 2.112.068 1.715.71-.39.63 2.15 1.895 6.389 3.182 7.768 2.36 9.035 3.906 3.285 4.009l-3.75.067 4.485 1.397c2.88.897 4.832 1.052 5.45.433 1.614-1.614 11.565-.837 11.565.903 0 .658-2.564.883-12.206 1.07-3.138.06-5.977.55-6.31 1.087-.67 1.085-2.825 1.303-3.749.378zM4.262 76.054c-1.125-1.235-2.552-3.229-3.17-4.43-3.47-6.737 1.722-18.541 10.075-22.905 3.39-1.77 10.53-1.766 13.735.009 2.3 1.273 2.148 1.349-2.695 1.349-12.513 0-22.119 13.83-16.778 24.158 2.074 4.01 1.56 4.812-1.167 1.819zm332.04-5.216c-4.49-1.242-11.832-2.83-16.317-3.527-9.588-1.492-9.37-2.838.595-3.674 6.232-.522 7.682-.264 14.541 2.592 4.19 1.744 8.415 4.05 9.387 5.125 2.117 2.339 2.116 2.339-8.205-.516zm-327.64.359c-2.979-1.732-3.877-5.518-2.24-9.437.793-1.898 1.931-3.452 2.529-3.452.764 0 .779.574.05 1.934-1.433 2.679-1.283 6.066.412 9.316.79 1.513 1.35 2.736 1.244 2.72-.105-.017-1.003-.503-1.996-1.081zm532.753-2.357c-2.008-4.806-2.091-10.427-.208-14.021 1.407-2.685 1.495-2.372 2.004 7.09.292 5.445.363 10.08.157 10.303-.206.222-1.085-1.296-1.953-3.372zm-386.198-3.616c-7.22-7.679-7.11-9.327 1.5-22.469 3.757-5.736 7.85-10.815 9.23-11.459 2.387-1.112 2.417-1.084.777.728-.938 1.036-2.404 3.864-3.258 6.286-.854 2.421-3.116 7.197-5.026 10.613-1.91 3.415-3.473 6.998-3.473 7.96 0 .963 1.386 3.91 3.08 6.55 4.63 7.215 3.15 8.152-2.83 1.79zM12.574 66.726c-.923-2.403-.725-7.418.292-7.418.494 0 1.06 2.025 1.257 4.5.357 4.49-.4 5.915-1.55 2.918zm590.06-4.348c3.91-9.828 5.424-20.595 4.902-34.861-.382-10.456-.737-12.619-2.262-13.774-1.708-1.296-1.688-1.373.371-1.403 3.72-.054 4.92 2.384 6.298 12.787 2.358 17.816-.273 30.816-7.963 39.349l-3.905 4.332zm-66.632 2.996c-2.69-5.025-.64-15.2 5.945-29.523 3.583-7.793 5.89-11.154 4.662-6.793-.271.963-.795 3.325-1.163 5.25l-.67 3.5 3.141-3.5c3.664-4.082 3.532-2.956-.88 7.502-1.624 3.849-3.234 6.773-3.578 6.498-1.206-.965-6.694 13.17-6.26 16.125.494 3.373.22 3.589-1.197.94zm42.895.35c-1.805-2.174-.237-4.391 4.102-5.801 3.418-1.11 3.468-1.207 3.468-6.817 0-3.13.464-6.156 1.03-6.725 2.165-2.173 6.89-2.2 10.332-.058 3.622 2.254 3.73 3.908.13 1.981-1.198-.641-3.276-.89-4.616-.554-2.29.574-2.399.91-1.788 5.511.581 4.384.379 5.17-1.924 7.474-1.828 1.827-3.635 2.573-6.236 2.573-3.17 0-3.591.269-3.139 2 .632 2.414.367 2.496-1.359.416zm9.07-.293c0-.483.725-1.48 1.612-2.216.886-.736 2.578-3.373 3.759-5.86 2.313-4.873 5.629-6.71 5.629-3.12 0 1.14-.45 2.073-1 2.073s-1 .866-1 1.923c0 2.654-4.76 8.077-7.09 8.077-1.05 0-1.91-.395-1.91-.877zM16.434 62.035c-.314-1.25-.126-3.388.418-4.75.866-2.17.996-1.89 1.051 2.273.068 5.105-.548 6.144-1.469 2.477zm5.563-3.286c-.017-1.132.668-2.932 1.521-4 1.491-1.865 1.526-1.843.88.56-.37 1.374-1.055 3.174-1.522 4-.678 1.197-.855 1.085-.879-.56zm184.47-2.831c-4.47-2.12-8.082-5.323-13.938-12.36-4.704-5.652 5.393.923 16.438 10.705 5.178 4.586 4.554 5-2.5 1.655zm-32.452-4.052c-.68-.82-1.045-2.067-.81-2.772.27-.81.885-.424 1.675 1.052 1.47 2.747.91 3.86-.865 1.72zm-3.416-10.073c-1.428-3.72 3.92-7.931 6.916-5.445 2.153 1.787 1.775 2.544-1.252 2.5-1.845-.027-3.075.693-3.871 2.268-.982 1.94-1.267 2.048-1.793.677zm14.868-2.123c-4.285-2.224-14.607-13.384-12.963-14.015 2.076-.796 5.033 1.282 9.11 6.402 2.081 2.613 4.924 5.747 6.318 6.965 2.951 2.578 1.823 2.875-2.465.648zm391.498-4.863c-2.706-2.881-7.635-4.485-13.806-4.493-6.37-.008-12.74-1.896-15.188-4.501l-2.16-2.3 2.684-5.673c3.942-8.334 11.19-12.88 27.18-17.044 6.575-1.713 9.981-.818 16.054 4.22 2.514 2.085 5.51 4.339 6.655 5.007 4.36 2.542-1.373 1.325-8.078-1.715-3.639-1.65-7.67-3-8.957-3-2.543 0-13.478 3.209-19.882 5.834-4.523 1.854-13.5 9.72-13.5 11.828 0 2.206 4.489 3.337 13.315 3.355 9.767.02 15.216 2.446 17.368 7.733 1.59 3.907 1.373 4.003-1.685.749zm-406.403-.888c.683-1.779 3.932-2.184 4.905-.61.34.55-.047 1-.86 1-.812 0-2.194.274-3.07.61-1.166.448-1.427.18-.975-1zm427.434-3.194c-4.403-1.91-7.034-4.281-7.014-6.322.01-1.032.274-1.2.75-.473.404.617 3.885 2.732 7.735 4.7 5.147 2.632 6.338 3.582 4.5 3.59-1.375.006-4.062-.668-5.97-1.495zm-428.53-.417c.34-.55 1.605-.968 2.81-.93 2.112.068 2.119.102.19.93-2.752 1.183-3.73 1.183-3 0zm430.476-9.25c-1.827-1.237-3.506-2.812-3.732-3.5-.747-2.275 1.316-1.3 4.757 2.25 3.93 4.056 3.64 4.411-1.025 1.25zm-20.975-2.25c-4.131-3.451-3.608-4.442 1.35-2.557 1.918.73 2.613.596 3.068-.59 1.12-2.917-.489-3.603-6.798-2.899-7.176.801-6.683-.376 1.231-2.945 6.278-2.038 9.521-1.144 10.537 2.903.79 3.15-1.722 9.588-3.743 9.588-.8 0-3.341-1.575-5.645-3.5z"/></svg>