<svg xmlns="http://www.w3.org/2000/svg" viewBox="0 0 453.821 383.71866" fill="currentColor"><path d="M280.855 381.697c-27.645-2.89-29.45-3.269-17.15-3.609 6.397-.177 18.933.683 32.822 2.251 12.36 1.395 23.677 2.275 25.15 1.955 2.072-.45 2.339-.34 1.178.484-2.247 1.596-21 1.113-42-1.081zm44.695-6.432c-2.083-2.784-8.788-6.346-16.695-8.87-5.166-1.648-21.29-9.565-20.694-10.161.15-.15 4.755 1.342 10.233 3.316 5.478 1.974 11.909 4.279 14.29 5.123 5.275 1.869 11.514 6.27 13.77 9.712 2.17 3.313 1.444 4.02-.904.88zm-74.459-2.89c0-2.2.344-5.35.764-7 .723-2.846.763-2.794.763 1 0 2.2-.344 5.35-.763 7-.724 2.844-.764 2.792-.764-1zm10.156-7.536c-2.26-1.118-5.097-3.086-6.305-4.372-2.087-2.222-1.912-2.195 3.498.534 3.133 1.58 7.102 2.873 8.82 2.873 3.329 0 9.756-2.982 13.159-6.105 3.877-3.558 3.851-1.905-.032 2.072-6.96 7.128-12.118 8.474-19.14 4.998zm-7.633-17.465c-.989-10.633-4.715-27.786-6.455-29.713-.851-.942-1.288-2.387-.972-3.212.317-.825-.708-7.48-2.277-14.787-4.044-18.834-2.958-18.643 2.606.458 1.561 5.36 3.186 9.748 3.61 9.75.424.002 3.574-2.171 7-4.83 3.426-2.66 8.479-6.333 11.229-8.163s5.184-3.476 5.41-3.659c.904-.73-3.706-4.756-8.66-7.562-2.888-1.635-5.25-3.505-5.25-4.156 0-1.14-5.241-2.098-27.32-4.996-4.85-.637-8.488-1.489-8.083-1.894 1.16-1.16 11.035-.851 21.403.67 5.225.767 14 1.767 19.5 2.223l10 .83-6.415.52-6.414.521 5.998 4.197c3.3 2.309 6.578 4.896 7.287 5.75 1.826 2.201 3.041 1.925 3.059-.697.008-1.237.436-2.916.951-3.73.592-.936.862 9.377.735 28-.198 28.985-.163 29.556 2.098 33.98l2.3 4.5-2.597-2.86c-1.428-1.574-2.86-4.179-3.182-5.79-.323-1.61-.864-2.774-1.203-2.586-3.812 2.11-8.85 3.714-14.74 4.692l-7.122 1.182-.923 4.181-.922 4.181zm7.69-8.57c.592-.58.152-.93-1.168-.93-1.165 0-2.83-.273-3.7-.607-1.149-.44-1.581 0-1.581 1.609 0 1.914.373 2.123 2.75 1.536 1.512-.374 3.177-1.098 3.7-1.609zm16.158-5.512c-.334-.87-.607-3.19-.607-5.155 0-3.321-.124-3.465-1.75-2.036-.963.845-2.803 1.858-4.09 2.25-1.286.393-4.436 1.678-7 2.854l-4.66 2.14 4.5.615c2.475.337 6.685.681 9.357.764 4.052.125 4.756-.112 4.25-1.432zm-16.107-5.381c4.85-2.316 5.496-2.882 3.375-2.951-1.443-.047-4.55-.766-6.906-1.597-2.355-.83-4.48-1.31-4.725-1.067-.658.659.823 8.586 1.593 8.529.365-.027 3.363-1.339 6.663-2.914zm15.57-12.287c.04-3.437.388-9.72.774-13.961.7-7.685.695-7.706-1.321-5.932-1.113.979-7.093 5.994-13.289 11.146-6.196 5.151-10.902 9.73-10.458 10.174 1.346 1.346 15.436 4.71 19.974 4.768l4.25.055.07-6.25zm1.786-44.835c-.975-3.253-.965-4.934.05-8.25.7-2.29 1.69-8.884 2.202-14.652.51-5.768 1.358-12.043 1.883-13.944.525-1.901.806-3.604.625-3.785-.721-.722-6.618 13.942-10.127 25.183-3.617 11.586-7.182 17.533-10.511 17.533-1.575 0-6.978-5.859-6.978-7.566 0-.744 2.248-3.457 4.997-6.029 6.971-6.52 7.654-9.585 5.453-24.46-1.667-11.265-1.837-11.742-4.839-13.505-6.437-3.782-23.562-22.44-27.019-29.44-.407-.825.305-.157 1.583 1.483 9.182 11.787 16.728 20.095 21.78 23.983 3.24 2.494 6.152 4.534 6.469 4.534.316 0 .575-4.612.574-10.25 0-5.637.523-15.087 1.163-21 1.278-11.794.104-28.252-2.667-37.407-2.28-7.53-5.79-45.395-5.179-55.843.799-13.643 2.218-15.603 2.43-3.357.289 16.643 3.223 48.749 5.248 57.428 3.76 16.11 4.47 27.493 2.651 42.528-2.029 16.777-2.058 24.58-.139 37.314 2.774 18.403 1.653 23.321-6.68 29.308-2.654 1.907-4.825 3.796-4.825 4.199 0 1.288 4.575 5.08 6.13 5.08 2.22 0 5.266-6.179 8.873-18 3.828-12.547 7.71-21.208 17.14-38.247 8.567-15.479 11.377-23.311 12.826-35.753 2.562-22.002 3.088-18.393-4.248-29.139-6.26-9.167-21.337-35.217-27.876-48.163-3.378-6.687-7.858-19.067-7.825-21.623.011-.866 1.978 2.7 4.37 7.925 6.554 14.312 26.066 49.587 31.706 57.32 9.976 13.677 10.021 13.905 6.92 34.811-1.825 12.303-2.425 14.265-7.529 24.605-3.05 6.18-5.466 11.354-5.369 11.5.098.145-.768 2.116-1.922 4.38-1.155 2.263-2.581 6.088-3.17 8.5-1.36 5.574-6.233 40.48-6.161 44.134.076 3.862-.583 3.424-2.01-1.335zm-60.297-9.52c-5.591-15.75-5.792-17.786-5.948-60.395l-.144-39.5-3.728-5.478c-2.05-3.014-4.66-8.277-5.798-11.697-3.429-10.304-5.186-12.108-18.645-19.15-9.707-5.08-14.113-8.155-21.97-15.332-5.404-4.938-11.851-10.155-14.326-11.595-2.475-1.44-7.985-4.826-12.244-7.525-4.26-2.699-12.69-6.846-18.737-9.215-6.047-2.37-12.35-5.45-14.009-6.845-1.658-1.396-6.69-6.953-11.182-12.35C87.19 56.79 81.116 50.05 78.185 47.21c-2.932-2.84-5.33-5.817-5.33-6.616 0-.798.922-2.624 2.05-4.058 1.608-2.044 1.824-3.03 1-4.569-.578-1.08-1.05-3.172-1.05-4.65 0-2.54-.12-2.608-2.187-1.236-1.202.798-3.661 3.238-5.464 5.422l-3.278 3.97 4.165 2.7c7.854 5.093 1.497 2.7-10.312-3.883-6.496-3.62-15.074-7.853-19.063-9.405-5.506-2.142-6.673-2.905-4.844-3.167 2.037-.292 2.586-1.194 3.558-5.845.631-3.025 1.323-6.103 1.537-6.84.268-.925-1.927-1.94-7.112-3.287-9.5-2.467-10.647-3.014-5-2.383 2.475.277 11.142 1.167 19.26 1.978 15.501 1.548 30.182 3.855 35.24 5.536 2.929.974 2.912.987-.732.562-4.323-.503-4.952.1-3.963 3.8l.72 2.693 4.126-3.034c3.551-2.611 4.734-2.959 8.487-2.49 15.212 1.9 29.974 6.976 51.108 17.576 9.761 4.896 21.011 9.985 25 11.309 9.423 3.127 25.332 6.37 39.754 8.1 14.988 1.8 20.474 3.549 28.713 9.15 3.732 2.537 8.812 5.468 11.287 6.513l4.5 1.9-4.5-.593c-2.711-.358-7.586-2.402-12.26-5.142-9.71-5.693-14.555-7.168-27.662-8.423-9.444-.904-32.27-5.378-41.078-8.05-1.925-.585-12.5-5.536-23.5-11.002-12.506-6.216-25.907-11.974-35.763-15.367L89.83 12.953l-5.738 4.02c-3.155 2.21-5.722 4.33-5.704 4.71.019.38.403 2.647.854 5.037 1.003 5.313 1.927 4.609 5.223-3.98l2.443-6.366-.622 5c-.809 6.503-2.451 10.314-6.367 14.774-3.705 4.22-3.483 5.063 2.957 11.226 2.3 2.2 7.56 8.177 11.69 13.283 4.129 5.105 8.921 10.359 10.648 11.674 1.727 1.316 7.866 4.222 13.64 6.46 5.776 2.237 12.976 5.615 16 7.506a469.55 469.55 0 0 0 11 6.629c6.35 3.683 10.477 6.93 21.253 16.721 5.41 4.916 10.85 8.62 18 12.26 14.858 7.563 17.003 9.958 21.691 24.217 1.22 3.713 2.578 6.75 3.017 6.75.438 0 1.38 1.463 2.093 3.25.713 1.788 2.212 4.6 3.332 6.25 1.873 2.76 1.884 2.88.138 1.5-1.756-1.387-1.83-1.35-1.001.5.493 1.1.96 17.75 1.039 37 .143 35.251.593 41.24 4.375 58.212 1.07 4.806 1.81 8.874 1.644 9.04-.166.167-1.525-3.144-3.021-7.357zM68.28 25.949c4.672-4.744 4.831-5.095 4.33-9.55-.287-2.543-.69-4.792-.895-4.997-.206-.205-3.104-.682-6.441-1.06l-6.067-.686-2.059 6.359a775.683 775.683 0 0 0-2.728 8.559c-.555 1.824-.02 2.542 3.132 4.206 2.09 1.103 4.268 2.026 4.84 2.05.57.024 3.22-2.172 5.888-4.88zm-19.545-9.766c.235-8.324-2.665-5.146-4.426 4.85-.537 3.053-.338 3.72 1.2 4.026 2.102.42 3.036-2.151 3.226-8.876zm5.71-3.155c.55-3.443.385-4.154-.964-4.154-1.318 0-1.622 1.093-1.597 5.75.034 6.431 1.415 5.57 2.56-1.596zM44.355 8.874c.34-.55.141-1-.441-1-.583 0-1.06.45-1.06 1s.199 1 .441 1c.243 0 .72-.45 1.06-1zm203.405 238.25c-4.535-4.767-9.093-10.504-5.76-7.25 3.16 3.084 11.112 12 10.704 12-.234 0-2.458-2.137-4.944-4.75zm2.408-3c-3.23-3.065-6.863-7.857-10.235-13.5-3.399-5.686-1.754-4.484 2.051 1.5 1.837 2.888 5.32 7.388 7.742 10 4.802 5.182 5.07 6.392.442 2zm1.253-6.735c-4.616-4.75-8.872-11.367-9.978-15.515-.366-1.375.522-.114 1.974 2.803 1.452 2.916 5.118 7.979 8.147 11.25 6.403 6.916 6.289 8.08-.143 1.462zm1.782-9.942c-3.943-4.086-8.783-10.185-10.758-13.554-5.293-9.032-4.363-8.733 1.501.481 2.8 4.4 8.088 10.81 11.75 14.244 3.662 3.435 6.212 6.247 5.666 6.25-.546.003-4.217-3.336-8.16-7.421zm3.087-3.823c-7.822-8.084-11.009-11.75-10.214-11.75.293 0 4.456 4.275 9.253 9.5 4.796 5.225 8.552 9.5 8.348 9.5-.205 0-3.53-3.262-7.387-7.25zm-52.807-5.78c-2.47-2.934-2.898-4.391-4.11-13.97-.313-2.475-2.14-7.2-4.058-10.5-1.919-3.3-5.015-9.15-6.88-13l-3.391-7-.595-20c-.395-13.274-.264-19.495.39-18.5.542.825.992 2.853 1 4.507.008 1.653.483 4.578 1.054 6.5.57 1.921 1.023 8.281 1.005 14.133-.038 12.445.815 15.392 8.12 28.05 4.747 8.224 5.228 9.648 5.833 17.262.457 5.762 1.313 9.407 2.797 11.923 2.608 4.42 2.22 4.618-1.165.596zm45.322-27.628c-8.962-6.472-17.802-14.193-19.143-16.72-.62-1.167 1.785.578 5.344 3.878 4.394 4.074 8.377 6.723 12.41 8.253 5.094 1.932 4.132 2.435-1.219.636-1.013-.34.745 1.268 3.908 3.575 5.052 3.686 6.514 5.036 5.45 5.036-.165 0-3.203-2.096-6.75-4.658zm150.711.04c-3.588-1.945-2.985-2.708.963-1.217 5.593 2.11 9.829.395 14.704-5.955 2.41-3.14 5.372-7.51 6.58-9.71 1.352-2.462 2.015-3.113 1.723-1.693-.373 1.817-.195 2.076.838 1.219 1.663-1.38 5.61-10.487 5.957-13.746.145-1.358.696-2.765 1.225-3.125 2.304-1.569 5.698-14.937 5.623-22.155-.066-6.448-2.012-21.47-3.15-24.315-1.923-4.813-1.15-4.412 1.573.815 4.11 7.89 5.623 22.293 3.572 34-1.814 10.351-8.925 25.97-18.17 39.91-4.444 6.701-14.78 9.58-21.438 5.972zm21.339-9.716c0-.52-1.125.713-2.5 2.739s-2.5 3.976-2.5 4.334c0 .357 1.125-.875 2.5-2.739 1.375-1.864 2.5-3.814 2.5-4.334zm-189.5 6.334c-.854-1.65-1.327-3-1.052-3 .275 0 1.198 1.35 2.052 3 .853 1.65 1.326 3 1.05 3-.274 0-1.197-1.35-2.05-3zm159.884 1.235c-.614-.404-2.179-2.76-3.478-5.235-1.915-3.649-2.366-6.047-2.384-12.68-.02-6.94.162-7.85 1.192-6 .668 1.2 1.23 4.346 1.25 6.992.046 6.27 2.732 14.362 5.383 16.22 1.433 1.003 1.63 1.463.625 1.453-.81-.008-1.975-.346-2.588-.75zm-75.862-3.272c.236-.381 1.924-.936 3.75-1.232 4.12-.669 34.09-11.867 40.634-15.183 2.648-1.342 7.465-4.038 10.704-5.992 3.24-1.953 7.015-3.507 8.39-3.454 2.21.086 2.265.173.48.748-1.11.358-5.836 3.2-10.5 6.316-8.027 5.363-20.455 10.937-34.98 15.686-6.783 2.218-19.22 4.312-18.478 3.111zm-68.991-5.471c-9.679-6.077-18.055-12.733-19.559-15.543-.536-1.001 1.489.527 4.5 3.397 3.01 2.87 9.76 7.87 15 11.111 8.556 5.293 10.31 6.543 9.18 6.543-.191 0-4.296-2.479-9.121-5.508zm147.469-.384c0-1.515-.4-1.986-1.25-1.475-.954.573-.986.409-.136-.69 1.63-2.109 2.588-13.174 1.065-12.286-.649.378-.442-.178.46-1.235.9-1.057 1.958-3.497 2.348-5.422.391-1.925 3.323-9.125 6.515-16 3.192-6.875 6.073-13.175 6.402-14 .33-.825.34.3.025 2.5s-2.162 7.825-4.104 12.5c-5.228 12.587-8.235 22.308-9.365 30.28-1.013 7.144-1.96 9.96-1.96 5.828Zm-150.66-6.947c-2.663-2.11-8.021-6.948-11.908-10.75-7.104-6.945-4.663-5.128 5.568 4.148 3.025 2.742 7.075 6.208 9 7.703 1.925 1.494 3.202 2.72 2.84 2.727-.364.006-2.839-1.716-5.5-3.828zm86.66.84c1.375-.441 3.625-.793 5-.783 2.245.017 2.194.096-.5.782-1.65.42-3.9.772-5 .782-1.568.015-1.46-.154.5-.782zm-36.965-3.956c-1.723-2.176-3.303-4.838-3.51-5.917-.208-1.078-3.988-7.211-8.4-13.63-7.364-10.711-12.208-20.75-10.727-22.23.33-.33.602.036.602.815.002 4.157 18.128 34.122 19.693 32.557.275-.275-.83-2.443-2.456-4.82-3.12-4.56-6.544-10.82-5.918-10.82.204 0 2.693 3.713 5.53 8.25 2.838 4.538 5.945 9.356 6.905 10.708.96 1.351 1.183 2.112.496 1.69-1.844-1.13-1.522.191.75 3.08 1.1 1.398 2 2.931 2 3.407 0 1.903-1.993.663-4.965-3.09zm1.601-.894c-.927-1.024-1.428-2.53-1.115-3.346.313-.816-.073-2.018-.86-2.67-1.117-.928-1.545-.881-1.965.214-.552 1.438 4.233 9.055 5.127 8.161.274-.274-.26-1.335-1.187-2.36zm22.364.88c0-1.48 32-7.629 34.568-6.643.752.289 1.633.094 1.959-.432.325-.526 1.104-.956 1.732-.956.806 0 .829.312.076 1.064-.585.585-3.487 1.273-6.45 1.527-5.497.472-23.236 3.789-28.801 5.385-1.697.487-3.084.51-3.084.054zm74-.472c0-.792.408-1.693.906-2.001.499-.308.671.34.384 1.44-.611 2.336-1.29 2.63-1.29.561Zm-48-2.059c1.925-.741 4.175-1.348 5-1.348.825 0-.075.607-2 1.348-1.925.741-4.175 1.348-5 1.348-.825 0 .075-.607 2-1.348zm81.677-6.888c-1.209-5.732-.797-22.156.742-29.612l1.342-6.5-.003 9.5c-.002 5.225-.286 14.225-.632 20-.533 8.895-.755 9.906-1.449 6.612zm-34.14-.362c3.353-5.212 4.463-6.693 4.463-5.95 0 .96-5.114 8.7-5.748 8.7-.266 0 .313-1.237 1.286-2.75zm-24.537-3.097c8.248-5.15 14-8.349 14-7.787 0 .656-16.729 10.643-17.781 10.615-.396-.01 1.306-1.283 3.78-2.828zm25.04-2.56c1.88-2.617 3.848-5.024 4.376-5.35.528-.326-.578 1.548-2.457 4.164-1.88 2.617-3.848 5.024-4.376 5.35-.528.327.578-1.547 2.457-4.164zm-5.507 1.407c.685-2.41 3.82-6.617 10.43-14 2.217-2.475 2.803-2.815 2.003-1.161-.622 1.286-2.596 3.986-4.386 6-1.79 2.013-4.493 5.461-6.006 7.661-2.06 2.994-2.573 3.371-2.041 1.5zm-11.533-12.279c.779-.821 23.284-9.726 24.456-9.677.574.024-3.876 2.045-9.888 4.49-11.472 4.666-15.401 6.065-14.568 5.187zm-28.25-8.427c1.237-.238 3.262-.238 4.5 0 1.237.239.225.434-2.25.434s-3.488-.195-2.25-.434zm12.75-.294c-4.213-.578-3.493-.71 4.566-.843 10.808-.177 20.017-1.631 24.273-3.833 1.585-.819 2.58-1.002 2.212-.406-.906 1.464.403 1.362 5.479-.429 2.355-.83 4.46-1.332 4.677-1.115.747.747-6.232 2.747-18.095 5.184-12.156 2.497-14.4 2.637-23.112 1.442Zm74.042.07c-.316-.513-.118-1.214.441-1.56.56-.345 1.017.074 1.017.931 0 1.757-.6 2.015-1.458.628zm-95.792-.732c.687-.278 1.812-.278 2.5 0 .687.277.125.504-1.25.504s-1.938-.227-1.25-.504zm-4.938-1.021c.722-.289 1.584-.253 1.917.079.332.332-.259.569-1.313.525-1.165-.048-1.402-.285-.604-.604zm12.938-.023c1.237-.238 3.262-.238 4.5 0 1.237.239.225.434-2.25.434s-3.488-.195-2.25-.434zm-22.25-2.384c-2.75-1.064-3.875-1.698-2.5-1.409 1.375.29 4.402.805 6.726 1.145 2.325.341 3.986 1.01 3.691 1.487-.751 1.216-2.19.994-7.917-1.223zm13.25 1.428c.687-.278 1.812-.278 2.5 0 .687.277.125.504-1.25.504s-1.938-.227-1.25-.504zm-132.407-10.588c-5.602-5.862-12.399-15.064-15.327-20.75-2.026-3.935-.564-2.09 4.766 6.011 2.71 4.12 7.732 10.527 11.16 14.24 3.43 3.712 6.041 6.75 5.805 6.75-.237 0-3.118-2.813-6.404-6.25zm154.937 5.514c2.629-.207 6.679-.204 9 .006 2.32.21.17.379-4.78.376-4.95-.003-6.85-.175-4.22-.382zm-89.202-1.847c.048-1.165.285-1.402.605-.604.288.722.253 1.584-.08 1.916-.332.333-.568-.258-.524-1.312zm80.19.89c.974-.253 2.324-.237 3 .037.678.274-.118.482-1.768.461-1.65-.02-2.204-.244-1.231-.498zm23.482.03c.687-.277 1.812-.277 2.5 0 .687.278.125.505-1.25.505s-1.938-.227-1.25-.504zm-27.938-1.02c.722-.289 1.584-.253 1.917.079.332.332-.259.569-1.313.525-1.165-.048-1.402-.285-.604-.604zm33.457-.01c.973-.254 2.323-.237 3 .037.677.274-.12.481-1.77.461-1.65-.02-2.203-.244-1.23-.498zm6.73-1.307c1.595-.51-1.598-.837-8.808-.9-11.86-.105-24.646-1.641-27.191-3.268-1.111-.71-.851-.824 1-.44 14.158 2.929 41.547 3.32 49.932.71 1.967-.61 3.023-.658 2.475-.109-1.053 1.053-16.007 5.027-18.407 4.892-.825-.046-.375-.445 1-.885zm46 .623c0-.208.788-.996 1.75-1.75 1.587-1.244 1.622-1.209.378.377-1.306 1.666-2.127 2.196-2.127 1.373ZM188.294 121c-4.21-2.567-10.802-10.475-14.486-17.376-4.112-7.703-3.138-7.326 1.481.572 3.95 6.755 9.196 12.882 14.067 16.43 3.688 2.686 3.08 2.9-1.062.374zm33.535-11.237c-11.991-13.702-16.784-20.029-21.505-28.389-3.993-7.07-2.73-5.543 5.38 6.5 3.888 5.775 10.493 14.325 14.677 19 8.123 9.076 13.871 16 13.282 16-.198 0-5.523-5.9-11.834-13.11zm185.764 6.111c-.392-2.475-.658-7.2-.591-10.5.067-3.3-.207-7.41-.608-9.131-.497-2.128-.325-3.383.535-3.914.904-.56 1.077-.29.606.939-.375.976.241 3.49 1.42 5.803 1.794 3.515 1.933 4.65.999 8.192-.596 2.261-1.21 6.136-1.366 8.611l-.281 4.5zm18.38-1.624c-.065-2.818.558-7.038 1.383-9.376.825-2.338 1.5-4.858 1.5-5.6 0-1.676-4.332-3.966-11.23-5.936l-5.27-1.505 6.143.494 6.144.494-1.89-4.973c-1.039-2.736-1.673-4.974-1.408-4.974.265 0 1.8 2.588 3.41 5.75 1.61 3.163 3.866 6.316 5.014 7.009 2.622 1.581 2.614 4.5-.029 10.241-1.139 2.475-2.426 6.525-2.86 9l-.79 4.5-.117-5.124zm-60.867-.065c.962-.252 2.537-.252 3.5 0 .962.251.175.457-1.75.457s-2.713-.206-1.75-.457zm17.019-.004c.973-.254 2.323-.237 3 .037.677.274-.12.481-1.77.46-1.65-.02-2.203-.244-1.23-.497zm-21.457-.99c.722-.29 1.584-.254 1.917.079.332.332-.259.568-1.313.525-1.165-.048-1.402-.285-.604-.604zm28.688-.317c1.65-.42 4.125-.763 5.5-.763 2.23 0 2.176.082-.5.763-1.65.42-4.125.764-5.5.764-2.23 0-2.176-.083.5-.764zm-91.697-1.749c-.855-3.123.55-3.622 3.342-1.189 2.211 1.926 2.222 1.987.177.998-1.781-.861-2.243-.735-2.54.694-.295 1.417-.48 1.322-.979-.503zm59.009 1.066c.722-.289 1.584-.253 1.917.079.332.332-.259.569-1.313.525-1.165-.048-1.402-.285-.604-.604zm13.938-.05c2.337-.21 6.162-.21 8.5 0 2.337.211.425.384-4.25.384s-6.588-.173-4.25-.383zm-8.481-.96c.973-.253 2.323-.237 3 .037.677.274-.12.482-1.77.461-1.65-.02-2.203-.244-1.23-.498zm27.23-.866c3.3-.744 6.9-1.327 8-1.295 1.1.033-.7.668-4 1.413s-6.9 1.327-8 1.295c-1.1-.032.7-.668 4-1.413zm9.313.876c.722-.289 1.584-.253 1.917.079.332.332-.259.569-1.313.525-1.165-.048-1.402-.285-.604-.604zm-95.224-3.394c-1.423-1.692-2.575-3.604-2.558-4.25.017-.645.528-.273 1.137.827.608 1.1 2.023 3.013 3.143 4.25 1.121 1.238 1.775 2.25 1.453 2.25-.322 0-1.75-1.384-3.175-3.077zm53.162 2.415c.687-.278 1.812-.278 2.5 0 .687.277.125.504-1.25.504s-1.938-.227-1.25-.504zm19.75-.284c-1.1-.497-4.925-1.363-8.5-1.923-3.778-.593-4.511-.842-1.75-.595 2.612.234 4.75.276 4.75.093 0-.182-5.288-3.39-11.75-7.127-26.641-15.407-50.64-30.446-49.847-31.238.301-.302 1.122-.084 1.822.484.701.568 6.45 3.71 12.775 6.984s14.65 7.979 18.5 10.456c3.85 2.477 13.3 8.054 21 12.394 11.379 6.412 14.76 7.875 18.063 7.812 3.98-.075 11.47-3.092 18.437-7.427 3.128-1.946 3.022-1.748-1 1.863-7.655 6.873-17.514 10.477-22.5 8.224zm-140.25-1.545c-1.788-.777-3.25-1.675-3.25-1.996 0-.32.869-.118 1.93.45 1.063.569 4.325 1.432 7.25 1.919 5.046.839 5.114.888 1.32.962-2.2.043-5.463-.558-7.25-1.335zm116.394-3.14c-7.194-2.209-5.183-2.52 2.364-.365 3.57 1.02 5.592 1.854 4.492 1.855-1.1.001-4.186-.67-6.856-1.49zm-193.017-4.785c-5.586-5.586-13.756-16.584-12.32-16.584.235 0 1.686 1.913 3.226 4.25 1.539 2.338 5.723 7.288 9.296 11 7.73 8.03 7.567 9.104-.202 1.334zm81.373 3.284c-4.92-1.337-14.149-5.053-13.69-5.512.21-.21 2.114.341 4.23 1.225 2.116.885 7.022 2.44 10.903 3.458 3.881 1.018 5.932 1.835 4.557 1.816-1.375-.02-4.075-.463-6-.987zm103-1.868c-.825-.533-1.05-.97-.5-.97s1.675.437 2.5.97c.825.533 1.05.97.5.97s-1.675-.437-2.5-.97zm-43.651-8c0-4.675.172-6.587.383-4.25.21 2.338.21 6.163 0 8.5-.21 2.338-.383.425-.383-4.25zm38.65 6c-.824-.533-1.05-.97-.5-.97s1.676.437 2.5.97c.826.533 1.05.97.5.97s-1.674-.437-2.5-.97zm-154.5-6c-.853-1.65-1.326-3-1.05-3 .274 0 1.197 1.35 2.05 3 .854 1.65 1.327 3 1.052 3-.275 0-1.198-1.35-2.051-3zm227.5-6.904c0-.961 7.82-6.946 11.75-8.994 4.127-2.15 2.322-.314-4.75 4.83-3.85 2.8-7 4.674-7 4.164zm-18.5-6.495c-6.444-2.038-10.22-4.367-13.011-8.028l-2.616-3.428 3.02-8.661c1.662-4.764 4.218-10.702 5.68-13.197 3.055-5.214 9.454-12.594 10.238-11.81.292.292-.412 1.542-1.565 2.777-4.325 4.635-13.793 27.445-12.753 30.723 2.201 6.934 22.12 13.402 30.942 10.048 3.868-1.47 3.08-.138-.902 1.526-4.198 1.754-13.567 1.779-19.032.05zM433.33 74.9c3.413-2.25 4.726-4.964 3.278-6.776-.673-.842-.652-1.25.065-1.25 3.601 0 2.257 6.393-1.783 8.482-4.153 2.148-5.093 1.873-1.56-.456zm-295.844-2.116c-.347-1.738-.577-4.566-.51-6.285.073-1.86.472-.725.987 2.805.92 6.31.582 8.775-.477 3.48zm125.701-3.828c-5.592-.32-10.504-.92-10.916-1.332-.747-.748 3.787-.972 25.584-1.266 12.37-.167 32.76-1.912 33.736-2.887.328-.328-1.166-.597-3.32-.597-4.05 0-19.418-2.668-20.268-3.518-1.834-1.834 26.818 1.084 34.457 3.508 5.79 1.838 5.823 1.87 1.895 1.787-2.2-.046-11.8 1.11-21.333 2.57-17.377 2.66-20.964 2.816-39.835 1.735zm70.825-1.082c0-1.375.227-1.937.505-1.25.277.688.277 1.813 0 2.5-.278.688-.505.125-.505-1.25zm-209.571-3.5c.625-4.43 3.501-10.106 4.97-9.809 1.297.263 2.248 4.022 2.227 8.81-.015 3.585-.11 3.43-.915-1.5-.494-3.026-1.04-5.95-1.215-6.498-.444-1.391-2.729 3.112-4.309 8.491l-1.323 4.506Zm322.019-3.436c3.369-4.757 3.898-6.279 4.23-12.166.334-5.903.033-7.368-2.446-11.923-1.554-2.856-4.609-6.718-6.788-8.584-4.23-3.621-4.167-4.263.198-1.976 3.484 1.825 8.536 7.21 10.589 11.285 2.013 3.997 2.124 14.422.194 18.1-.78 1.485-3.31 4.5-5.623 6.7l-4.205 4zm-188.54-.068c-8.748-1.324-21.43-5.872-33.869-12.149-6.373-3.216-12.599-5.847-13.833-5.847-1.235 0-2.561-.51-2.947-1.135-1.497-2.422 9.312.382 19.584 5.08 18.757 8.582 31.766 11.944 47 12.147 7.538.101 8.673.288 5.5.907-7.33 1.427-15.941 1.828-21.436.997zm113.935-10.377c-5.225-1.79-13.213-5.22-17.751-7.622-6.765-3.582-9.557-4.48-15.5-4.984l-7.25-.615 5.647-.801c3.105-.44 7.155-.482 9-.093 3.817.807 38.917 17.913 35.77 17.433-.229-.035-4.691-1.528-9.916-3.318zm-186.418-5.487c-1.605-.348-3.123-1.307-3.375-2.132-.37-1.21-.202-1.259.868-.25.835.788 4.668 1.296 10.375 1.375 7.836.109 8.446.233 4.55.926-5.253.935-8.38.955-12.418.08zm105.918-4.473c-3.3-.7-9.825-2.807-14.5-4.684l-8.5-3.412-25.669-.532c-14.118-.292-25.925-.788-26.238-1.102-.313-.315 8.987-1.105 20.668-1.756 23.934-1.336 29.532-.823 41.067 3.759 12.528 4.977 15.068 5.374 33.123 5.18 23.783-.255 20.877 1.212-6.451 3.257-4.495.337-9.905.052-13.5-.71zM173.187 38.3c-.691-1.802 3.08-10.417 5.873-13.415 2.368-2.542 6.397-2.567 14.224-.086 3.339 1.058 8.096 2.354 10.57 2.88l4.5.956-6.09.12c-3.35.066-8.3-.55-11-1.369-2.7-.82-5.892-1.494-7.093-1.5-2.748-.014-9.468 7.956-9.671 11.47-.169 2.918-.471 3.136-1.313.944zm8.485-.925c1.634-1.375 3.322-2.5 3.751-2.5.43 0-.277 1.125-1.568 2.5-1.292 1.375-2.98 2.5-3.752 2.5-.784 0-.094-1.1 1.57-2.5zm5.183.107c0-.216.675-.652 1.5-.968.825-.317 1.5-.14 1.5.393 0 .532-.675.968-1.5.968s-1.5-.177-1.5-.393zM1.317 31.194c-1.336-1.336-1.56-2.822-1.097-7.25.32-3.063.88-9.485 1.242-14.27C2.108 1.154 2.18.962 4.94.356 10.185-.797 16.6.9 21.516 4.738c9.176 7.166 9.645 7.821 8.905 12.446-.925 5.784-3.636 8.225-11.41 10.27-3.661.964-8.326 2.577-10.367 3.586-4.56 2.254-5.213 2.268-7.327.154zm13.538-5.82c7.256-1.542 10.823-3.554 11.93-6.73.588-1.687 1.07-3.232 1.07-3.431 0-.2-2.63-3.017-5.843-6.26C15.882 2.765 10.976.5 5.905 1.513l-2.716.543.256 13.659c.14 7.512.29 13.78.333 13.928.042.15 1.764-.583 3.827-1.627 2.062-1.045 5.325-2.234 7.25-2.643zm386.5 3.503c1.65-1.729 4.363-3.987 6.03-5.019 3.872-2.397 15.688-4.301 20.929-3.373 3.785.67 3.47.798-4.96 2.027-12.136 1.77-12.161 1.777-19 5.895l-6 3.613z"/></svg>