<svg width="40" height="40" viewBox="0 0 40 40" fill="none" xmlns="http://www.w3.org/2000/svg">
<path d="M20.0007 17.4546L17.972 23.6977H11.407L16.7182 27.5565L14.6882 33.799L20.0007 29.9415L25.312 33.799L23.282 27.5565L28.5932 23.6977H22.0282L20.0007 17.4546ZM21.7745 26.9046L22.8695 30.2771L20.0007 28.1921L17.1295 30.2771L18.227 26.9046L15.357 24.8196H18.9045L20.0007 21.4471L21.097 24.8196H24.6432L21.7745 26.9046Z" fill="#FDFDFD"/>
<path d="M27.9106 16.5744V11.1381C27.9106 10.9106 27.7862 10.7194 27.61 10.6006L33.75 1.25H21.9781L20.0006 4.21625L18.0231 1.25H6.25L12.3894 10.6C12.2988 10.6579 12.2239 10.7373 12.1716 10.8313C12.1192 10.9252 12.091 11.0306 12.0894 11.1381V16.5744C9.28875 18.8669 7.5 22.3487 7.5 26.25C7.5 33.1531 13.0969 38.75 20 38.75C20.4256 38.75 20.8469 38.7281 21.2613 38.6862C27.5719 38.0544 32.5 32.7281 32.5 26.25C32.5 22.3487 30.7113 18.8669 27.9106 16.5744ZM25.5163 1.875H29.4712L23.9556 10.1494L21.9781 7.18313L25.5163 1.875ZM25.9331 13.1156L26.5413 12.2044C26.5737 12.2825 26.5925 12.3675 26.5925 12.4569V15.0938C26.5911 15.2584 26.5243 15.4158 26.4069 15.5312C24.5319 14.4075 22.345 13.75 20 13.75C17.7421 13.7505 15.5271 14.3665 13.5931 15.5319C13.4757 15.4162 13.4089 15.2586 13.4075 15.0938V12.4569C13.4075 12.3675 13.4263 12.2819 13.4588 12.2044L14.0669 13.1163L25.9331 13.1156ZM10.5288 1.875H14.4837L21.5613 12.4906H17.6062L10.5288 1.875ZM20 36.875C14.1325 36.875 9.375 32.1181 9.375 26.25C9.375 20.3819 14.1325 15.625 20 15.625C25.8675 15.625 30.625 20.3819 30.625 26.25C30.625 32.1181 25.8675 36.875 20 36.875Z" fill="#FDFDFD"/>
</svg>
