<svg xmlns="http://www.w3.org/2000/svg" viewBox="0 0 645.985 549.451"><path d="M615.985 546.71c-4.675-1.678-9.307-3.843-10.293-4.81-1.864-1.827-4.978-11.13-4.893-14.616.026-1.1.477-3.8 1.002-6 .974-4.085 1.156-3.594 1.669 4.5.45 7.12 2.086 14 3.716 15.63 2.492 2.491 13.407 3.841 19.931 2.465 13.709-2.892 18.199-8.167 15.803-18.567-.638-2.765-2.304-7.053-3.704-9.528-2.326-4.113-2.362-4.338-.41-2.616 3.931 3.472 7.179 11.497 7.179 17.74 0 5.1-.36 6.116-3.263 9.193-2.004 2.125-4.995 3.933-7.75 4.686-7.068 1.93-7.3 2.016-6.792 2.525.957.957 11.21-1.586 13.029-3.23 1.475-1.336 1.743-1.375 1.288-.19-1.015 2.644-6.506 5.084-12.339 5.483-4.474.305-7.47-.258-14.173-2.665zm8.547-18.426c-.393-2.75-.932-5.9-1.197-7-.39-1.626-.287-1.72.555-.5 1.254 1.814 2.489 9.36 1.83 11.187-.26.722-.794-.937-1.188-3.687zm-612.392-.951c.963-1.018 44.057-4.494 88.01-7.098 10.248-.608 10.687-.728 11.278-3.08.737-2.936-.578-8.168-3.998-15.9-3.953-8.938-2.39-8.436 2.331.749 3.395 6.604 4.253 9.318 4.24 13.407-.009 2.89-.561 5.558-1.266 6.114-.688.543-10.025 1.278-20.75 1.633-10.725.356-27.15 1.34-36.5 2.19-20.415 1.853-44.254 2.945-43.345 1.985zm3.845-5.405c-2.248-.465 3.118-.976 15-1.43 10.175-.389 23.45-1.135 29.5-1.66 6.05-.524 18.425-.886 27.5-.805 9.075.082 13.125.286 9 .455-4.125.169-16.95 1.01-28.5 1.869-25.34 1.885-47.736 2.555-52.5 1.57zm-10.962-2.644c-.016-6.133 9.52-15.276 18.308-17.554 4.175-1.083 12.859-3.636 15.654-4.603.825-.286.147.347-1.507 1.406-1.654 1.06-6.154 2.955-10 4.212-11.707 3.828-17.568 7.963-20.603 14.539-1.185 2.568-1.848 3.284-1.852 2zm612.136-3.968c-6.448-1.636-8.232-3.073-2.674-2.154 9.855 1.629 16.215 1.846 18.576.633 2.294-1.178 2.334-1.151.749.511-2.19 2.296-9.769 2.755-16.651 1.01zm-26.15-6.008c-7.406-7.5-5.885-7.903 1.913-.506 3.468 3.29 5.673 5.982 4.9 5.982-.773 0-3.839-2.464-6.813-5.476zm35.41-4.945c-3.688-3.29-7.309-7.744-9.238-11.363-3.538-6.637-4.333-7.463-9.842-10.213-4.434-2.213-2.03-2.73 2.975-.64 3.76 1.572 7.856 6.107 10.854 12.02 1.148 2.264 4.321 6.704 7.051 9.867 2.73 3.162 4.807 5.748 4.615 5.745-.192-.002-3.079-2.44-6.415-5.416zm-47.934-2.777c-1.1-.625-3.8-2.582-6-4.349-2.2-1.767-8.5-5.79-14-8.941-5.5-3.151-16.3-10.097-24-15.434-18.944-13.133-22.821-15.287-26.053-14.476-1.814.456-3.42.054-5.277-1.319-4.618-3.414-8.555-5.084-17.17-7.283-10.002-2.554-14-4.472-14-6.717 0-1.496.133-1.484 1.301.114.851 1.164 4.468 2.43 10.448 3.656 10.735 2.202 15.285 3.956 19.532 7.53 2.583 2.173 3.783 2.52 7.161 2.067 2.232-.3 3.498-.307 2.814-.016-.684.29 2.916 2.636 8 5.213 5.084 2.576 13.294 7.665 18.244 11.31 4.95 3.643 13.99 9.522 20.088 13.064 6.099 3.542 13.251 8.091 15.894 10.11 5.544 4.232 8.515 4.535 13.606 1.387 3.845-2.377 3.932-3.355.702-7.968-2.7-3.855-1.559-6.232 4.334-9.033l5.023-2.387-6.453-4.204c-3.55-2.313-11.295-9.169-17.211-15.236-11.055-11.336-21.45-21.342-31.983-30.785-3.3-2.958-4.65-4.565-3-3.571 7.558 4.553 14.998 10.936 31.365 26.909 9.7 9.465 19.885 18.707 22.635 20.537 7.04 4.684 8.437 6.021 7.86 7.523-.278.724-1.485 1.572-2.682 1.886-1.198.313-3.59 1.441-5.316 2.507l-3.138 1.938 2.485 5.021c1.367 2.762 2.184 5.508 1.817 6.102-1.062 1.719-10.233 6.046-12.743 6.012-1.256-.016-3.183-.542-4.283-1.167zm-524.388-3.815c-6.93-1.469-6.1-2.045 1.97-1.368 8.307.696 25.727-.908 34.586-3.185 3.208-.825 6.732-1.726 7.832-2.003 1.26-.318.971.082-.783 1.082-7.764 4.423-33.386 7.64-43.605 5.474zm-5.014-5.264c1.98-1.773 6.057-5.068 9.063-7.323 3.546-2.66 5.875-5.293 6.636-7.5l1.173-3.4-.496 3.5c-.686 4.834-3.212 7.943-9.556 11.76-2.98 1.795-6.21 3.932-7.18 4.75-3.477 2.94-3.16 1.366.36-1.787zm52.902-6.664c0-1.068.385-2.18.856-2.47.47-.29.643.583.383 1.94-.564 2.951-1.239 3.24-1.239.53Zm467.5-1.06c1.1-.472 3.35-.859 5-.859 2.558 0 2.705.127 1 .86-1.1.472-3.35.86-5 .86-2.558 0-2.705-.128-1-.86zm-487.832-5.569c-8.51-2.335-15.432-5.228-9.668-4.042 15.097 3.108 26.176 4.588 27.808 3.714 1.143-.611 2.665-3.793 3.98-8.318 1.208-4.156 4.386-10.998 7.341-15.806 8.417-13.692 9.797-16.925 10.875-25.478 1.087-8.624 2.627-14.406 4.264-16 .694-.677.777-.563.257.352-.423.743-1.13 6.225-1.57 12.182-.885 11.959-2.329 16.2-8.723 25.636-5.514 8.136-7.672 12.684-10.085 21.253-1.15 4.083-2.666 7.79-3.37 8.235-2.382 1.512-12.24.705-21.11-1.728zm470.415-1.792c.23-.198 4.467-.609 9.417-.912 5.17-.317 7.936-.206 6.5.261-2.428.79-16.752 1.376-15.917.651zm-.583-6.628c-1.499-.652-.747-.89 3-.949 2.75-.043 7.475-.3 10.5-.57 3.735-.334 4.698-.22 3 .353-4.08 1.378-14.345 2.104-16.5 1.166zm-10-3.99c4.4-.478 11.345-1.57 15.432-2.429 4.088-.858 7.588-1.405 7.778-1.215 1.07 1.07-13.375 3.851-21.589 4.156l-9.621.357Zm-474.421-.853c-.043-.733 1.225-4.333 2.818-8 1.627-3.742 3.187-9.52 3.557-13.167.362-3.575 1.726-11.45 3.03-17.5 3.378-15.669 4.709-23.54 4.583-27.105-.06-1.708.321-4.183.848-5.5.844-2.11.966-1.894 1.022 1.822l.063 4.218 8.25 2.477c4.538 1.363 10.05 2.792 12.25 3.177 7.517 1.313 22.005 5.253 19.611 5.332-4.535.15-26.632-4.055-33.611-6.395-3.85-1.292-7.141-2.21-7.314-2.04-.173.17-.71 5.192-1.196 11.16-.485 5.97-1.56 13.329-2.387 16.354-.828 3.025-1.97 9.254-2.538 13.842-.81 6.555-1.758 9.553-4.42 14-1.865 3.112-3.637 6.333-3.938 7.158-.39 1.063-.572 1.112-.628.167zm468.03-6.162c4.184-.487 10.255-1.78 13.49-2.872 3.235-1.092 6.013-1.855 6.172-1.696.16.16-2.075 1.308-4.966 2.551-3.748 1.613-7.7 2.353-13.78 2.582l-8.525.32Zm-18.109-3.275c.275-.298 3.309-2.605 6.742-5.128s8.98-7.324 12.326-10.67 5.594-5.17 4.996-4.052c-1.524 2.847-10.78 11.822-15.564 15.09-3.997 2.732-9.445 5.781-8.5 4.76zm18.158-4.035c3.111-1.318 7.836-3.618 10.5-5.11 3.961-2.22 4.389-2.32 2.352-.545-3.378 2.943-10.747 6.567-15.01 7.383-2.697.516-2.202.12 2.158-1.728zm-448.718-1.217c1.808-1.376 8.776-4.236 14.56-5.975 4.9-1.473 1.36.356-7.5 3.877-4.95 1.966-8.127 2.91-7.06 2.098zm11.06-1.014c1.65-.756 3.675-1.36 4.5-1.343.825.017-.075.637-2 1.379-4.566 1.758-6.362 1.732-2.5-.036zm422.136-2.392c7.493-5.019 11.49-9.197 15.376-16.072 1.71-3.025 2.8-4.375 2.422-3-1.956 7.114-7.412 13.721-15.839 19.177-3.248 2.102-6.337 3.823-6.864 3.823-.527 0 1.68-1.768 4.905-3.928zm-71.136-17.031c-9.9-3.721-22.05-8.464-27-10.54-4.95-2.076-16.298-6.382-25.217-9.57-14.959-5.345-23.22-8.852-17.783-7.547 14.024 3.366 19.456 5.287 62.136 21.978 18.883 7.385 30.288 12.592 27.364 12.495-.825-.028-9.6-3.095-19.5-6.816zm-358 .422-4-1.384 4.5.71c2.475.391 7.36.688 10.855.66 3.643-.028 5.563.262 4.5.68-3.008 1.184-11.544.824-15.855-.666zm384.928-3.963c.275-1.1 1.414-7.175 2.53-13.5 2.777-15.732 4.2-19.827 3.474-10-.668 9.033-2.867 19.133-4.968 22.81-1.025 1.794-1.37 2.023-1.036.69zm-20.928-4.446c-2.308-.63-1.232-.845 4.668-.936 4.218-.065 8.493-.377 9.5-.694 1.706-.536 1.712-.498.088.547-2.311 1.486-10.496 2.108-14.256 1.083zm-161.559-1.483c-9.09-1.905-23.67-6.902-31.164-10.68-9.828-4.956-16.755-10.064-23.788-17.54-16.099-17.118-20.58-23.661-34.678-50.64-13.498-25.83-15.434-28.68-26.99-39.727-8.184-7.825-8.98-8.851-5.48-7.066 5.512 2.813 16.24 12.99 20.573 19.518 1.939 2.921 8.51 14.91 14.602 26.64 13.299 25.606 18.881 33.648 33.984 48.952 12.476 12.643 18.629 16.574 35.675 22.794 25.126 9.168 40.18 8.259 71.287-4.307 12.464-5.035 33.628-12.58 34.984-12.471 3.367.269-46.095 20.122-56.946 22.857-11.027 2.78-23.63 3.436-32.059 1.67zm243.223-3.346c-11.372-7.148-58.865-39.79-66.557-45.746-5.294-4.099-6.362-4.535-10.5-4.285-4.137.249-5.381-.258-12.194-4.971-12.578-8.7-13.724-11.198-1.833-3.995 9.003 5.454 11.125 6.346 14.235 5.983 4.124-.481 8.031 1.459 15.537 7.717 2.556 2.13 10.498 7.81 17.648 12.618 24.536 16.503 50.34 35.33 48.5 35.388-.275.01-2.451-1.21-4.836-2.71zm-439.664-6.225-3-.764h3c1.65 0 4.35.344 6 .764l3 .763h-3c-1.65 0-4.35-.344-6-.763zm321.961-4.477c-12.574-2.003-30.03-6.288-29.159-7.159.184-.184 4.13.333 8.767 1.15 9.983 1.756 9.84 1.75 7.931.376-1.213-.873-1.117-.953.5-.418 1.1.363 5.693 1.138 10.208 1.722 10.594 1.37 21.449-.154 30.191-4.239 3.52-1.645 6.625-2.765 6.9-2.49.275.275-2.382 1.848-5.904 3.497a54.91 54.91 0 0 1-21.781 5.157l-4.614.119 6.5 1.368c3.604.758 13.628 1.455 22.5 1.564 10.641.131 14.66.451 12 .956-7.841 1.487-29.616.694-44.039-1.603zm-285.886-4.693c5.133-9.132 7.446-10.709 2.795-1.905-2.157 4.084-4.47 7.608-5.137 7.83-.669.223.386-2.443 2.342-5.925zm-27.259-3.257c-6.803-1.65-20.545-6.678-19.93-7.293.265-.264 7.149 1.325 15.298 3.532 8.149 2.208 15.716 4.226 16.816 4.485 1.1.259-.025.485-2.5.502-2.475.017-6.833-.535-9.684-1.226zm301.423-1.533c-2.069-.4-4.094-1.08-4.5-1.509-.406-.429.32-.454 1.614-.056 1.294.399 7.144.705 13 .681 16.18-.066 25.765-3.299 35.292-11.906 2.143-1.936 3.623-2.81 3.29-1.94-.89 2.32-10.23 9.244-15.533 11.518-8.263 3.541-23.738 5.04-33.163 3.212zm63.446-1.695c-.263-4.488-4.749-17.264-7.249-20.645-3.191-4.317-1.612-4.344 1.94-.033 4.148 5.03 6.323 11.896 5.864 18.506-.204 2.93-.453 3.907-.555 2.172zm-80.61-.595c-2.476-3.79-6.155-12.909-7.968-19.75-.947-3.575-4.601-15.05-8.12-25.5-7.126-21.159-13.796-43.524-13.169-44.152.225-.225 1.423 1.967 2.662 4.871 1.238 2.904 2.375 5.418 2.525 5.586.15.168 4.387 1.148 9.417 2.179 9.819 2.011 18.8 6.286 39.078 18.6 11.78 7.153 18.856 12.383 11 8.13-29.208-15.813-40.987-21.668-49-24.355-5.225-1.753-9.601-3.087-9.725-2.965-.258.255 8.322 27.42 12.193 38.606 1.428 4.125 4.16 13.261 6.07 20.303 1.912 7.042 4.382 14.58 5.49 16.75 2.186 4.287 1.913 5.315-.452 1.697zm-267.575-.75c-1.828-1.182-.25-1.182 2.5 0 1.319.566 1.49.878.5.914-.825.03-2.175-.381-3-.914zm-1.818-3.496c-2.925-1.361-5.082-2.858-4.793-3.325.289-.467-.918-1.541-2.682-2.386-1.764-.845-4.722-3.732-6.573-6.415l-3.367-4.878 4.867 5.247c2.676 2.886 6.441 5.906 8.366 6.71 1.925.806 2.825 1.503 2 1.55-.825.048.975 1.395 4 2.993 6.735 3.558 5.486 3.905-1.818.504zm28.465-.582c-8.72-.438-16.107-1.05-16.417-1.36-.31-.309 9.3-.572 21.353-.583 12.216-.012 28.114-.676 35.917-1.501 7.7-.814 18.891-1.936 24.87-2.494 5.978-.558 11.335-1.302 11.904-1.654.57-.352.737-.158.372.434-1.264 2.044-24.28 5.543-44.146 6.711-5.5.323-11.8.735-14 .916-2.2.18-11.134-.031-19.853-.469zm-63.226-6.815c-.684-4.714-.75-9.425-.18-13 .6-3.761.525-6.86-.229-9.41-.882-2.986-.813-4.917.324-9 .796-2.858 1.705-8.886 2.02-13.395.639-9.132 2.228-13.823 5.695-16.802l2.327-2-2.351 3.382c-1.994 2.868-2.463 5.148-3.083 15-.403 6.39-1.282 13.103-1.954 14.919-.964 2.606-.96 4.232.017 7.725.682 2.433.916 5.448.52 6.699-.394 1.251-1.013 7-1.375 12.775l-.657 10.5-1.074-7.393zm322.579 3.9c24.502-1.21 29.03-2.5 35.421-10.096 1.419-1.686 2.579-2.503 2.579-1.817 0 2.449-8.64 9.57-13.101 10.798-2.42.667-12.718 1.374-22.899 1.572l-18.5.36zm-284.536-7.685c-2.88-.574-7.91-4.793-7.159-6.007.346-.56 5.256-1.329 10.912-1.71 11.6-.784 18.126-1.988 35.1-6.479 15.89-4.204 19.863-3.882 6.183.5-16.036 5.137-26.618 7.334-38.748 8.044-9.134.535-10.571.843-9.569 2.05.65.782 2.56 2.028 4.249 2.77 3.081 1.352 2.812 1.584-.968.832zm19.718-.838c.717-.717 24.593-4.392 35.242-5.425 6.008-.583 14.333-.995 18.5-.917 6.912.13 6.568.213-3.924.944-13.806.96-31.259 2.988-30.682 3.565.227.227 8.462-.276 18.298-1.12 12.45-1.067 20.314-1.269 25.884-.665 7.835.85 7.71.87-6.026 1-7.715.074-17.724.597-22.243 1.164-8.057 1.01-35.754 2.16-35.049 1.454zm106.581-5.306c-5.616-6.004-18.715-23.593-30.296-40.678-10.745-15.854-22.034-38.593-23.17-46.671l-.797-5.67-2.263 1.84-2.263 1.842 1.944 3.33c1.07 1.83 3.039 6.254 4.375 9.829 4.149 11.092 10.235 22.21 20.16 36.827 5.25 7.733 9.547 14.338 9.547 14.677 0 .97-7.81-8.284-13.669-16.198-7.634-10.31-14.916-24.187-19.05-36.306-1.971-5.775-3.888-10.85-4.26-11.278-.372-.428-3.68.627-7.35 2.345-4.547 2.127-8.665 3.251-12.923 3.526l-6.248.404 5.702-1.465c3.136-.805 9.83-3.537 14.874-6.07l9.17-4.606-.68-9.178c-1.008-13.598-3.307-28.3-6.073-38.836-1.35-5.138-2.741-12.076-3.093-15.416-.682-6.472.909-18.448 3.24-24.39 1.302-3.32 1.357-3.352.893-.536-.272 1.65-.784 7.95-1.137 14l-.643 11 3.569 5.269c1.963 2.898 6.918 12.123 11.012 20.5 8.103 16.578 20.72 35.626 29.683 44.812 3.034 3.11 9.054 7.964 13.378 10.786 4.324 2.823 7.57 5.133 7.212 5.133-2.939 0-15.262-7.617-21.033-13-5.185-4.837-6.248-5.542-4.156-2.755 1.547 2.06 4.448 5.13 6.447 6.822l3.635 3.077-3.35-1.822c-4.773-2.597-13.486-12.208-22.562-24.886-8.654-12.09-10.497-15.735-12.997-25.715-1.753-6.994-8.215-23.37-9.547-24.194-.414-.256.703 5.483 2.482 12.754 1.779 7.27 3.752 18.169 4.384 24.219 2.776 26.579 3.746 30.378 12.09 47.358 7.317 14.886 17.37 30.797 31.996 50.642 10.507 14.255 17.058 23.5 16.652 23.5-.206 0-2.404-2.17-4.885-4.822zm-40.855-110.917c-5.419-8.3-6.953-10.264-4.892-6.261 1.74 3.377 8.948 14 9.501 14 .243 0-1.83-3.483-4.61-7.74zM97.055 365.234c-2.029-3.2-3.068-6.39-3.503-10.75-.34-3.41-1.111-9.575-1.715-13.7-.91-6.209-.842-8.103.392-11l1.49-3.5-.472 4.527c-.275 2.634.199 6.786 1.133 9.931.883 2.973 1.61 8.36 1.615 11.973.007 4.853.648 7.94 2.454 11.819 1.344 2.887 2.23 5.25 1.968 5.25s-1.775-2.048-3.362-4.55zm92.43-12.378c-3.3-.981-8.25-2.782-11-4.002-2.75-1.219-11.969-4.696-20.486-7.726-14.428-5.133-19.553-7.24-17.784-7.314 1.202-.05 37.932 13.002 40.882 14.528 1.5.775 6.476 2.518 11.058 3.873 4.581 1.354 7.205 2.454 5.83 2.444-1.375-.01-5.2-.821-8.5-1.803zm114.769.235c.973-.254 2.323-.237 3 .037.677.274-.119.481-1.769.46-1.65-.02-2.204-.244-1.231-.497zm-7-1c.973-.254 2.323-.237 3 .037.677.274-.119.481-1.769.46-1.65-.02-2.204-.244-1.231-.497zm-15.269-2.906c-10.829-3.174-25.342-10.277-30.5-14.925l-4-3.606 6 3.924c10.712 7.005 21.382 11.654 35 15.248 3.85 1.016 5.875 1.848 4.5 1.85-1.375 0-6.325-1.12-11-2.49zm-90-2.837c-1.925-.712-11.375-5.006-21-9.542s-22-9.74-27.5-11.564c-5.5-1.824-9.382-3.348-8.627-3.387 3.062-.159 22.555 7.17 37.127 13.959 8.525 3.971 18.2 8.267 21.5 9.546 3.3 1.28 5.1 2.316 4 2.304-1.1-.012-3.575-.604-5.5-1.316zm7.5-3.998c-1.65-1.288-10.425-5.12-19.5-8.516-16.096-6.024-30.535-12.489-31.545-14.123-.276-.447 3.67 1.136 8.771 3.517 5.1 2.382 15.091 6.437 22.201 9.013 14.895 5.396 19.32 7.496 21.978 10.436 2.448 2.707 1.854 2.605-1.905-.327zm-72.299-10.696c-7.864-3.908-14.118-7.286-13.897-7.507.487-.487 24.858 10.936 27.946 13.1 4.533 3.174-.194 1.293-14.049-5.593zm65.799 4.435c-12.377-4.433-44.133-18.02-39-16.687 4.097 1.064 43.63 17.32 42 17.27-.825-.026-2.175-.288-3-.583zm210-9.746c-8.307-6.74-13.676-12.116-19.337-19.36-4.31-5.517-14.04-16.084-21.621-23.482-7.582-7.398-16.961-17.674-20.843-22.834-3.882-5.161-9.824-12.308-13.203-15.883-7.765-8.213-10.01-11.73-9.902-15.5l.086-3 .95 3.29c.563 1.956 4.493 7.026 9.688 12.5 4.806 5.065 12.18 13.71 16.385 19.21 4.205 5.5 12.453 14.465 18.33 19.923 5.875 5.458 15.303 15.583 20.951 22.5s13.812 15.572 18.142 19.233c8.764 7.41 14.237 12.872 12.811 12.789-.515-.03-6.112-4.254-12.437-9.386zm-308.25 2.825c.62-5.664 4.41-14.862 7.466-18.114 3.59-3.822 13.876-7.032 44.13-13.774 6.514-1.452 12.055-2.429 12.313-2.171.795.796-14.5 5.443-28.218 8.573-13.971 3.188-22.781 6.234-25.83 8.93-2.112 1.868-8.603 14.767-8.626 17.143-.008.84-.41 2.152-.893 2.913-.535.846-.669-.517-.342-3.5zm208.682-18.675c-6.9-3.008-9.251-4.63-21.692-14.96-5.919-4.915-13.119-10.235-16-11.824-2.882-1.59-4.565-2.897-3.74-2.906 3.922-.046 14.533 6.548 25.5 15.845 6.6 5.595 14.362 11.343 17.25 12.772 4.93 2.44 6.253 3.417 4.5 3.323-.413-.022-3.03-1.034-5.818-2.25zm9.483-16.738c-4.087-.994-18.915-7.579-18.915-8.4 0-.298 2.362.413 5.25 1.581 11.764 4.758 14.851 5.847 16.51 5.824.957-.013-.871-1.097-4.062-2.41-9.963-4.096-16.875-8.782-25.18-17.066-7.38-7.363-16.518-19.43-16.518-21.813 0-.55 2.32 2.332 5.156 6.406s8.799 11.017 13.25 15.43c9.282 9.2 20.576 15.745 32.094 18.596 5.615 1.39 6.307 1.75 3.5 1.82-1.925.049-4.4.271-5.5.496-1.1.224-3.613.015-5.585-.464zm13.585-6.464c-2.2-.734-6.65-2.13-9.887-3.101-7.57-2.271-11.315-5.494-14.378-12.372-2.244-5.038-6.633-22.97-5.822-23.78.187-.188 2.296 5.402 4.686 12.422 5.395 15.84 7.167 18.011 18.132 22.212 12.112 4.64 17.397 7.999 7.269 4.619zm-151.486-4.725c-2.2-3.618-3.58-10.864-2.57-13.497.367-.956 1.052-12.774 1.523-26.262.877-25.103 2.152-34.605 6.057-45.12 2.37-6.383 2.275-5.139-1.079 14.097-1.852 10.623-2.06 14.226-1.384 24 .996 14.408.996 14.673-.029 31-.788 12.565-.935 13.257-2.113 10-.814-2.25-1.286-2.786-1.321-1.5-.03 1.1.814 3.912 1.875 6.25 2.284 5.031 1.794 5.559-.96 1.032zm112.562-22.032c-3.706-13.143-4.744-21.285-4.494-35.25.138-7.7.233-17.15.213-21-.03-5.646.135-6.42.856-4 .492 1.65.62 10.65.284 20-.53 14.765-.34 18.365 1.45 27.389 1.133 5.714 2.36 10.664 2.728 11 .368.336.4-.514.073-1.89-.784-3.293-3.686-25.507-3.686-28.217 0-5.21.989-.087 2.745 14.223 1.744 14.204 2.358 22.995 1.608 22.995-.163 0-.963-2.363-1.777-5.25zm-106.953-17.25c.305-5.5.874-12.925 1.265-16.5l.71-6.5.951 4c1.175 4.941.917 20.937-.403 25-.941 2.898-.981 2.915-1.178.5-.195-2.387-.243-2.364-1.052.5-.525 1.858-.636-.806-.293-7zm181.627-4.163c-.688-.277-1.25-.932-1.25-1.456 0-.562.822-.512 2.007.122 1.644.88 2.455.625 4.49-1.41 2.569-2.568 2.488-5.593-.15-5.593-.79 0-2.542 1.104-3.892 2.454-1.572 1.571-2.455 1.957-2.455 1.073 0-.76 1.149-2.286 2.553-3.39l2.553-2.008-5.303-3.405c-2.917-1.873-12.053-8.222-20.303-14.11-8.25-5.887-15.804-11.246-16.786-11.909-.983-.663-9.758-6.9-19.5-13.86-9.743-6.96-28.739-20.285-42.214-29.609-13.475-9.324-29.9-20.708-36.5-25.298-21.831-15.181-45.257-30.632-51.336-33.86-1.284-.682-2.113-1.463-1.84-1.735.888-.89 16.93 7.885 28.176 15.41 6.05 4.05 17.75 12.102 26 17.894 8.25 5.793 19.327 13.37 24.615 16.84 5.288 3.468 12.586 8.827 16.217 11.907 3.631 3.08 9.88 7.539 13.886 9.907 4.007 2.369 12.909 8.37 19.783 13.335 6.875 4.965 15.257 10.883 18.627 13.15l6.128 4.122 3.833-1.954c4.63-2.36 6.979-2.4 23.812-.393 11.351 1.353 17.235 1.407 44.099.404 17.05-.637 33.7-1.015 37-.841 16.626.876 27.07.114 40.93-2.985 7.66-1.713 14.118-2.925 14.35-2.694.793.795-19.278 6.61-28.28 8.195-6.671 1.175-11.2 1.38-17.5.793-4.675-.436-10.3-.739-12.5-.673-2.2.067-17.5.578-34 1.137-24.75.839-32.248.762-42.845-.44-14.746-1.673-23.504-1.838-25.647-.484-1.81 1.145-2.228.762 10.992 10.047 5.775 4.056 14.32 10.435 18.99 14.177 4.668 3.741 9.233 6.803 10.142 6.803 3.661 0 3.82 6.105.233 8.927-2.575 2.026-4.597 2.427-7.115 1.41zm-8.309-4.62c-2.992-1.805-11.44-7.694-18.772-13.086-7.331-5.392-13.511-9.623-13.732-9.401-.222.221.04 1.944.58 3.83 1.401 4.885 1.218 8.263-.569 10.499-1.51 1.888-1.535 1.88-.938-.293.338-1.228.314-5.279-.052-9l-.667-6.767-16.646-11.994c-9.155-6.597-20.685-15.355-25.623-19.462-4.938-4.107-11.061-8.61-13.607-10.005-2.546-1.396-8.406-5.37-13.022-8.83s-19.193-13.42-32.393-22.132c-19.474-12.854-31.992-22.067-36.5-26.865-1.131-1.204 2.967 1.45 10.5 6.802 4.4 3.126 17.675 12.021 29.5 19.768s25.1 16.694 29.5 19.883c4.4 3.189 12.725 9.126 18.5 13.193s12.525 9.052 15 11.077c2.475 2.026 16.65 12.405 31.5 23.067 22.37 16.06 37.42 27.331 42.95 32.168 1.945 1.7-.23.733-5.509-2.452zm-159.262-29.41c.68-2.843 18.168-25.984 29.342-38.827 10.432-11.989 15.077-16.122 6.16-5.48-17.25 20.586-30.386 37.397-34.854 44.607-1.094 1.766-1.138 1.746-.648-.3zm125.532-21.102c-4.813-7.446-6.62-11.696-5.84-13.73.858-2.235 3.467-.6 8.136 5.099 2.47 3.014 3.122 4.297 1.831 3.607-1.101-.59-2.583-1.772-3.293-2.627-2.793-3.366-2.522-1.226.704 5.547 1.86 3.905 3.151 7.332 2.869 7.614-.283.282-2.266-2.197-4.407-5.51zm-137.461 4.218c-1.98-1.998.585-14.852 4.06-20.346 3.455-5.459 9.626-12.12 17.34-18.715 12.666-10.827 12.33-9.662-1.221 4.24-13.842 14.201-17.756 20.446-18.815 30.026-.338 3.053-.952 5.21-1.364 4.795zm214.978-9.423c3.832-5.225 10.046-14.45 13.81-20.5 8.78-14.11 11.175-17.275 13.676-18.068 2.377-.755 4.009 1.204 3.192 3.83-.44 1.414-9.8 16.69-16.144 26.353-3.406 5.187 4.484-11.25 8.855-18.444 4.914-8.09 5.794-11.57 1.926-7.616-1.047 1.07-4.479 6.445-7.627 11.945-8.156 14.245-12.434 20.23-18.943 26.5l-5.71 5.5zm90.772 4.85c-16.266-8.528-22.851-14.147-26.78-22.85-1.614-3.575-4.53-8.46-6.48-10.856-1.951-2.396-3.884-5.996-4.296-8-.411-2.004-1.308-5.02-1.993-6.703-.844-2.073-.97-4.33-.393-7l.853-3.941.544 4.5c.3 2.475 1.497 6.3 2.66 8.5s2.653 5.665 3.31 7.7c.659 2.035 2.76 5.072 4.67 6.75 1.911 1.677 3.034 3.05 2.495 3.05-2.39 0 3.47 10.334 8.213 14.484 6.006 5.253 22.913 14.813 25.364 14.341 2.34-.45 3.045-4.354 3.852-21.325.577-12.138-.343-25.657-1.848-27.163-.218-.218-3.062 2.204-6.319 5.383-6.295 6.145-15.188 11.137-21.2 11.901l-3.652.464 4.592-1.886c6.624-2.72 12.554-7.082 19.494-14.337 8.931-9.337 8.772-8.805 7.45-24.842-.624-7.584-.83-16.088-.458-18.898.477-3.594.286-5.63-.645-6.866-1.22-1.619-1.17-1.616.622.03 1.741 1.598 1.97 3.38 2.178 17 .127 8.367.52 17.213.873 19.657.47 3.255.183 5.293-1.073 7.625-1.593 2.959-1.599 3.404-.08 6.34.898 1.736 2.005 6.18 2.46 9.874.927 7.534-.384 33.696-1.887 37.65-1.343 3.53-5.007 3.36-12.526-.582zm-153.593-.694c-5.68-3.602-10.397-9.108-15.188-17.728-4.562-8.208-2.199-6.537 5.853 4.14 2.932 3.886 7.583 9.174 10.336 11.75 5.73 5.36 5.428 5.915-1 1.838zM179.4 171.689c-4.24-4.686-30.62-15.269-47.987-19.252-7.212-1.655-9.807-2.93-11.824-5.81-.838-1.196-3.179-2.466-5.302-2.877l-3.801-.736 3.945-.115c2.912-.085 4.615.52 6.5 2.311 1.63 1.548 5.557 3.189 10.84 4.53 26.143 6.638 45.639 15.361 49.198 22.012 1.395 2.606.826 2.583-1.569-.063zm240.265-1.405c1.21-5.868 5.09-13.105 10.99-20.5 5.905-7.4 10.742-12.312 8.865-9-.468.825-4.372 6.502-8.677 12.616-4.304 6.114-8.72 13.089-9.811 15.5-1.526 3.368-1.843 3.688-1.367 1.384zm-115.62-4.75c-4.064-9.017-5.202-15.635-4.501-26.16.757-11.38.99-12.211 2.954-10.58.887.736 1.488 2.938 1.488 5.453 0 2.32.67 6.428 1.49 9.128 1.995 6.579 1.768 7.795-.545 2.909l-1.893-4 .026 6c.014 3.3 1.039 9.937 2.277 14.75 1.238 4.812 2.087 8.75 1.885 8.75-.2 0-1.633-2.813-3.182-6.25zm-15.524-1.25c.258-3.3 1.126-16.52 1.929-29.378.802-12.858 1.76-23.658 2.13-24 1.107-1.025-2.155 49.16-3.6 55.378-.827 3.559-.878 3.338-.46-2zm-104.584-3.5c-.428-9.057-.035-18.548 1.028-24.844 1.045-6.192 1.095 16.604.057 25.844l-.731 6.5zm-9.03-6.25c-1.79-6.583-2.86-16.423-2.802-25.75.077-12.416 1.656-6.089 2.868 11.5.53 7.7 1.253 15.012 1.606 16.25.352 1.237.38 2.25.062 2.25s-1.098-1.913-1.734-4.25zM96.92 140.93l-2.288-1.852 4.33-8.898c4.145-8.516 9.024-16.689 9.024-15.116 0 .41-.443 1.527-.984 2.482-1.423 2.51-9.01 20.598-9.014 21.487-.004 1.422 7.99.745 12.807-1.086 6.329-2.405 15.384-8.999 22.006-16.025l5.315-5.64-4.102 6.25c-5.073 7.73-15.463 15.378-24.811 18.265-7.938 2.452-9.4 2.468-12.283.133zm82.907-2.23c-.285-6.137.352-14.385 1.228-15.917.492-.86.6 2.77.255 8.5-.626 10.383-1.21 13.303-1.483 7.416zm-58.652-1.167c2.558-1.788 6.488-4.75 8.731-6.584 5.668-4.632 5.108-2.604-.92 3.334-2.75 2.708-5 4.592-5 4.186 0-.406-1.328-.051-2.95.788-4.871 2.519-4.807 1.731.139-1.724zm130.845-.75c3.013-4.555 26.436-27.972 30.966-30.958 1.925-1.269-.645 1.598-5.71 6.37-5.067 4.773-13.343 13.045-18.391 18.383-5.049 5.338-8.138 8.13-6.865 6.205zm-100.205-3.399c-4.115-4.18-10.255-13.6-7.928-12.163 1.297.802 13.404 16.562 12.723 16.562-.256 0-2.414-1.98-4.795-4.399zm129.424-.101c-.617-2.75-1.36-7.475-1.65-10.5-.413-4.28-.1-3.503 1.408 3.5 1.066 4.95 1.808 9.675 1.65 10.5-.158.825-.792-.75-1.408-3.5zm28.774-.75c-.577-2.338-1.92-6.423-2.985-9.079-1.524-3.8-1.614-4.561-.423-3.573 2.426 2.014 4.094 6.015 4.858 11.652.855 6.318.009 6.903-1.45 1zm-219.667-7.017a794.299 794.299 0 0 0-4.727-11.233c-2.685-6.232-3.497-16.663-1.633-21 .583-1.358.882.486.93 5.738.058 6.427.648 9.138 3.483 16 3.044 7.367 5.424 15.79 4.448 15.745-.198-.01-1.324-2.372-2.501-5.25zm367.352 3.546c2.02-.252 4.155-1.52 5.75-3.417 1.702-2.023 2.538-2.497 2.538-1.44 0 2.966-3.752 5.588-7.75 5.418-3.638-.156-3.654-.172-.538-.56zm-42.212-2.391c-2.75-.482-13.1-.79-23-.685-17.6.187-18.334.11-33-3.445-10.72-2.6-17.997-5.063-25.5-8.634-7-3.332-13.333-5.533-19-6.605-14.603-2.76-17.166-3.537-21.488-6.511-5.468-3.762-9.91-8.885-13.014-15.012-3.244-6.402-3.184-7.498.136-2.478 7.854 11.874 16.402 17.75 28.98 19.922 10.897 1.882 18.068 4.253 28.848 9.54 7.354 3.606 17.906 6.544 36.538 10.173 3.416.666 10.994.825 20 .421 10.79-.484 17.058-.258 24.5.882 5.5.842 13.375 1.58 17.5 1.637 5.29.075 6.763.342 5 .907-3.318 1.062-20.209.99-26.5-.112zm-184.813-2.159c2.694-3.498 13.188-12.188 13.881-11.495.46.461-8.81 8.911-14.041 12.8-1.808 1.342-1.794 1.233.16-1.305zm220.313-3.654c0-1.847 7.26-3.332 11.018-2.254 3.436.985 3.412 1-1.834 1.088-2.923.05-6.186.556-7.25 1.126-1.256.672-1.934.686-1.934.04Zm-237.02-3.659c-.012-.504-.673-6.316-1.47-12.916-1.649-13.666-1.945-24.372-.634-22.95 1.044 1.133 3.633 35.274 2.742 36.165-.34.34-.627.205-.639-.299zm7.215-2.916c.02-1.65.244-2.204.498-1.231.254.973.237 2.323-.037 3-.274.677-.481-.12-.461-1.77zm-78.816-.336c-4.682-1.618-9.075-4.82-19.203-13.995l-3.676-3.33 3.982 2.58c2.19 1.42 4.515 2.58 5.166 2.58.651 0 3.305 1.976 5.897 4.39 2.593 2.415 6.91 5.419 9.596 6.677l4.882 2.286 2.738-2.455c5.875-5.266 7.613-6.504 6.647-4.732-1.162 2.133-8.334 7.845-9.796 7.802-.611-.018-3.416-.83-6.233-1.803zm29.235-3.273c-2.567-2.26-6.065-6.197-7.773-8.75l-3.106-4.641 4.852 5c2.668 2.75 6.665 6.686 8.882 8.747 5.48 5.095 2.984 4.784-2.855-.356zm292.91 2.109c.3-1.375.942-9.025 1.428-17 .927-15.226 1.682-18.648 4.646-21.041 1.73-1.397 1.734-1.354.104 1.013-1.29 1.874-1.707 4.659-1.722 11.5-.025 11.08-1.24 19.897-3.382 24.528-1.112 2.404-1.448 2.717-1.074 1zm-349.934-15c7.109-15.657 9.775-19.327 15.325-21.098 6.122-1.953 5.544-2.654-2.798-3.392-13.53-1.198-30.543 1.987-34.607 6.479-1.001 1.106-2.279 2.01-2.84 2.01-1.285 0 3.183-4.834 5.744-6.214 1.053-.567 5.103-1.573 9-2.235l7.086-1.203-5.5-1.812c-7.283-2.4-12.778-5.211-28.634-14.652-7.281-4.335-18.739-10.849-25.461-14.475-11.394-6.147-48.905-29.1-48.905-29.925 0-1.325 15.829 7.147 27.5 14.719 3.85 2.497 12.4 7.458 19 11.023 6.6 3.565 18.075 10.07 25.5 14.456 7.425 4.386 18.706 10.746 25.069 14.133 11.523 6.135 11.592 6.156 17.5 5.403l5.931-.756-11-5.963c-6.05-3.28-14.356-7.504-18.458-9.386-4.103-1.883-12.428-6.365-18.5-9.96-6.073-3.594-19.142-11.132-29.042-16.75-9.9-5.62-23.836-13.885-30.97-18.369C3.61 2.334 2.44 1.808 1.265 3.415.297 4.74-.01 4.815 0 3.725.028 1.165 1.703-.538 3.512.155c.952.366 9.884 5.535 19.851 11.489 38.32 22.89 57.617 33.883 70.954 40.424 7.609 3.731 17.97 9.39 23.024 12.574 5.055 3.185 11.43 6.348 14.167 7.031 2.737.683 6.102 1.975 7.477 2.872 1.768 1.153 5.191 1.696 11.698 1.856 5.059.124 10.009.697 11 1.273 2.48 1.443-11.592 1.405-17.698-.048-12.59-2.995-16.226-.611-24.8 16.26-9.54 18.772-12.5 21.274-4.61 3.898zm62.9 11.06c-6.594-9.264-9.587-13.99-10.963-17.31-.855-2.063-1.37-3.75-1.143-3.75.46 0 11.66 17.213 13.556 20.835 1.76 3.363.88 3.499-1.45.224zm-15.49.44c-3.117-1.782-1.627-1.782 3 0 2.292.882 2.81 1.362 1.5 1.388-1.1.023-3.125-.602-4.5-1.388zm78.93.132c-12.49-3.367-23.982-15.167-26.425-27.132-.447-2.19.091-1.596 1.994 2.2 5.264 10.5 15.692 19.758 26.99 23.96 6.462 2.403 4.92 2.989-2.56.972zM202.4 107.92c.75-1.212 7.716-3.339 8.47-2.585.272.273-.328 1.273-1.335 2.222-1.008.95-1.517 1.164-1.132.477.88-1.571-1.787-1.659-4.604-.15-1.395.746-1.844.758-1.399.036zm56.198-2.136c.417-.825 1.575-2.625 2.572-4 2.569-3.541 10.605-24.409 12.01-31.188.961-4.636.876-8.153-.46-19-2.834-23.01-6.21-30.276-18.247-39.28-6.836-5.113-13.301-7.038-20.977-6.246-9.973 1.03-20.358 8.614-25.118 18.343-2.496 5.102-2.622 6.051-2.19 16.552.495 11.992-.499 11.635-2.355-.847-.812-5.461-.79-8.51.09-12.001 1.574-6.252 8.026-15.217 13.293-18.47 9.182-5.673 10.986-6.264 19.269-6.314 6.79-.042 8.859.372 13.68 2.74 7.377 3.623 16.398 12.546 19.473 19.263 2.97 6.488 4.872 15.337 6.418 29.854 1.355 12.721.748 16.25-5.681 33.048-2.77 7.234-4.846 10.908-8.128 14.38-2.424 2.566-4.067 3.99-3.65 3.166zm217.87-1c.277-1.375.809-6.325 1.182-11 .565-7.07.824-7.996 1.54-5.5 1.067 3.714.144 11.995-1.783 16-1.264 2.627-1.381 2.689-.94.5zm7.547 0c-.126-1.375-.298-9.09-.38-17.145-.133-13.02-.368-14.886-2.11-16.812-1.13-1.247-2.72-1.968-3.75-1.699-.985.258-1.79.06-1.79-.438 0-1.688 5.679-.919 7.42 1.005 3.116 3.443 3.993 13.257 2.33 26.089-.819 6.325-1.593 10.375-1.72 9zm7.298-13.8c.541-12.5.397-15.18-.928-17.25-1.226-1.914-.974-1.801 1.154.517 2.704 2.945 2.719 3.042 2.085 13.405-.352 5.741-.639 12.169-.639 14.283 0 2.243-.482 3.845-1.156 3.845-.852 0-.988-3.898-.516-14.8zm-286.207 7.9c2.409-2.146 4.602-3.685 4.876-3.42.683.66-6.694 7.32-8.11 7.32-.63 0 .826-1.756 3.234-3.9zm-7.16-1.35c1.858-2.613 3.752-4.75 4.209-4.75 1.304 0 1.01.84-1.67 4.785-1.375 2.023-2.5 3.294-2.5 2.824 0-.47-.769-.237-1.708.518-.94.755-.188-.765 1.67-3.377zm-7.961 2.59c0-.545 1.237-2.083 2.75-3.416l2.75-2.424-2.5 3c-1.375 1.65-2.613 3.187-2.75 3.416-.138.23-.25-.03-.25-.575zm-13.045-7.038c-3.066-5.129-6.863-9.172-10.298-10.965-1.564-.817-2.62-1.708-2.347-1.98.734-.735 7.934 3.14 9.825 5.286 1.9 2.156 6.03 10.524 5.472 11.083-.208.208-1.402-1.332-2.652-3.424zm10.045 1.698c.589-1.1 1.574-2 2.19-2 .616 0 .305.9-.69 2-.995 1.1-1.981 2-2.19 2-.21 0 .101-.9.69-2zm-2.5-4c.995-1.1 2.035-2 2.31-2 .275 0-.315.9-1.31 2-.995 1.1-2.035 2-2.31 2-.275 0 .315-.9 1.31-2zm9.5-2.18c-16.684-2.745-19.553-3.882-8.5-3.367 8.299.387 18.676 2.722 20.95 4.714.6.526.6.78 0 .69-.523-.08-6.125-.996-12.45-2.037zm10.262-13.57c-1.031-1.513-2.904-6.125-4.162-10.25-3.7-12.131-1.682-17.22 4.535-11.437l2.865 2.665-2.715-1.614c-3.363-2-4.785-2.047-4.785-.159 0 3.016 5.324 20.117 6.786 21.795.863.991 1.053 1.75.437 1.75-.598 0-1.93-1.238-2.961-2.75z"/></svg>