<svg xmlns="http://www.w3.org/2000/svg" width="400" height="400" viewBox="0 0 105.833 105.833"><g stroke-width="2.411"><path d="M52.917 0A52.917 52.917 0 0 0 0 52.917a52.917 52.917 0 0 0 52.917 52.916 52.917 52.917 0 0 0 52.916-52.916A52.917 52.917 0 0 0 52.917 0zm0 4.28a48.637 48.637 0 0 1 0 97.273 24.318 24.318 0 0 1 0-48.636 24.318 24.318 0 0 0 0-48.637zm-6.62 9.163c.135.001.28.01.44.021 1.243.096 2.102.302 2.618.807.524.429.823 1.018.83 1.672.045.297.056.57-.007.82a1.111 1.111 0 0 1-.42.616.616.616 0 0 1-.243.124c.439-.061.83-.056 1.175.033.407.05.719.093.956.39.12.15.158.391.104.566a.991.991 0 0 1-.273.418c-.226.226-.54.382-1.004.577-.242.101-.632.224-.953.336.256.132.622.259.785.407.17.155.317.347.332.605.014.258-.14.49-.316.63l.033-.03-1.286 1.287c.596-.14 1.294-.341 1.74-.383.784-.074 1.376-.033 1.774.352.145.12.277.254.331.457a.72.72 0 0 1-.152.615c-.26.304-.636.433-1.18.58l-.013.005-.014.002a98.22 98.22 0 0 1-3.093.563c-.995.181-2.531.598-4.582 1.25l-.008.003-.008.002c-2.05.56-3.373.994-3.856 1.235l.027-.014c-.352.21-.784.223-1.242.116-.457-.108-.965-.335-1.548-.675l-.017-.01-.016-.012a5.397 5.397 0 0 1-.635-.522c-.159-.16-.294-.287-.331-.55a.568.568 0 0 1 .125-.423.607.607 0 0 1 .316-.183c.202-.054.402-.045.658-.02l-.04-.002c.993 0 2.186-.136 3.571-.413h.005c.76-.144 2.049-.477 3.085-.719a3.227 3.227 0 0 1-.56-.82l-.013-.025-.01-.026c-.192-.58-.339-1.162-.436-1.744l-.004-.032v-.034c0-.184.022-.363.137-.535.076-.115.226-.143.361-.189-.096-.034-.219-.065-.297-.104a.93.93 0 0 1-.241-.162.525.525 0 0 1-.171-.378c0-.174.1-.312.185-.385a.862.862 0 0 1 .254-.148c.173-.07.379-.121.64-.17a69.903 69.903 0 0 0 3.612-1.11c.698-.279 1.307-.472 1.847-.574a1.325 1.325 0 0 1-.448-.127c-.31-.141-.662-.377-1.096-.715a61.634 61.634 0 0 1-2.26-1.836l-.011-.01-.011-.01c-.164-.164-.29-.312-.354-.528-.064-.216.042-.54.228-.672.187-.134.38-.166.608-.186v-.001c.114-.01.237-.014.372-.012zm-2.486 5.782-.016.004.033-.008-.017.004zm11.482-5.19c.051 0 .103.004.157.008v-.001c.208.014.45.06.733.13.603.103 1.103.294 1.479.612.257.218.417.51.53.825 1.6-.528 2.785-.905 3.272-1.005a1.998 1.998 0 0 1 1.891.341c.173.118.324.255.407.456a.786.786 0 0 1-.047.65c-.206.373-.584.588-1.13.836l-.013.006-.015.005c-1.036.377-2.521.544-4.404.566l-.248 2.468c-.042.423.031.662.064.705.016.021.008.018.04.024.029.006.108 0 .212-.025.62-.268 1.107-.533 1.437-.78l.016-.013.017-.01a1.731 1.731 0 0 1 1.79-.007c.508.209 1.036.547 1.6 1.015.316.213.58.459.58.84a.765.765 0 0 1-.211.506 1.443 1.443 0 0 1-.43.305c-.337.168-.979 1.013-1.669 2.418.237.234.485.457.57.714.06.177.064.4-.035.586a.827.827 0 0 1-.44.365l-.024.009-.026.008c-.411.102-1.026.194-1.871.289h-.006c-.673.085-2.163.369-4.18.785-.104.471-.149.942-.176 1.412 1.067-.17 2.085-.355 2.945-.589.542-.148 1.012-.216 1.428-.188.408.027.775.16 1.042.417.112.072.217.142.3.244.099.121.183.316.144.514a.668.668 0 0 1-.295.415 1.615 1.615 0 0 1-.415.195c-.5.199-1.165.388-2.014.576l-.018.004-.018.003c-.685.085-1.869.22-3.325.383-.048.485-.07.894-.084 1.269 1.316-.233 2.509-.445 3.403-.607.586-.147 1.088-.214 1.524-.187.413.026.774.153 1.045.398.147.09.29.192.36.4.073.22-.034.483-.167.616-.265.265-.62.376-1.158.523-1.034.282-2.734.452-5.042.55-.044.76-.041 1.31-.005 1.675 1.59-.25 2.958-.501 3.856-.746.546-.149 1.012-.209 1.423-.15.404.058.765.264.971.595.095.13.172.277.184.453a.745.745 0 0 1-.17.51c-.222.267-.534.38-.944.482-.77.193-1.63.335-2.578.43-.717.08-1.584.106-2.49.12.159.737.404 1.34.774 1.743.445.486 1.039.77 1.853.856 1.733.182 3.662.092 5.785-.277 1.041-.181 1.833-.464 2.375-.818.542-.354.836-.76.953-1.262.279-1.3.463-2.365.554-3.185v.005c.024-.242.042-.4.083-.544.01-.036.02-.071.049-.124.028-.053.07-.167.272-.217a.448.448 0 0 1 .3.04c.074.042.11.087.134.121.05.069.06.108.073.146.05.152.064.291.089.523.023.226.047.525.07.892.184 1.371.466 2.362.793 2.934.415.727.497 1.48.134 2.084-.374.625-1.174 1.126-2.418 1.7l-.012.006-.012.004c-1.271.49-2.895.77-4.88.866-1.904.19-3.587.098-5.047-.292l-.003-.001-.004-.001c-1.374-.393-2.485-1.094-3.288-2.098l-.007-.01-.007-.01c-.73-1.042-1.055-2.568-1.055-4.577 0-2.064.047-4.035.14-5.913.093-1.841-.061-3.156-.386-3.887-.113-.253-.21-.5-.063-.794a.627.627 0 0 1 .364-.3.915.915 0 0 1 .391-.022c.483.06 1.104.349 1.968.818a200.48 200.48 0 0 0 4.09-.895c.226-1.035.372-1.887.372-2.336v-.028l.004-.028a.489.489 0 0 0-.006-.219c-.01-.028-.009-.027-.04-.044-.062-.035-.32-.078-.746.007l-.019.003-.02.003c-.887.089-1.382.327-1.545.545l.012-.019a.84.84 0 0 1-.772.349c-.284-.04-.525-.188-.788-.399l-.035-.027-.027-.035a1.58 1.58 0 0 1-.367-.984c0-.354.128-.7.346-1.027.287-.43.446-1.29.356-2.558v-.001c-.09-1.354-.415-2.24-.867-2.693l-.011-.011-.01-.012c-.157-.183-.273-.338-.338-.535a.636.636 0 0 1-.023-.351.582.582 0 0 1 .231-.333.757.757 0 0 1 .459-.126zm-7.515 6.362c-1.371.36-2.515.474-3.456.33.121.077.239.147.377.251.41.308.716.645.894 1.028.177.384.208.814.091 1.223l-.002.008-.003.008c-.05.154-.13.252-.192.377.463-.115.714-.152 1.22-.283.707-1.302 1.012-2.262 1.071-2.942zm-.557 6.648c.265.014.527.084.778.208.67.288 1.173.577 1.513.917.195.195.327.46.327.737 0 .277-.116.533-.29.764-.039.052-.158.386-.203.918-.044.532-.045 1.267.001 2.191.093 1.861.187 3.442.28 4.744.19 1.25.19 2.458-.004 3.62v.002l-.001.003c-.194 1.068-.535 1.854-1.11 2.325a.925.925 0 0 1-.47.265.812.812 0 0 1-.564-.114c-.318-.2-.512-.529-.714-.982l-.007-.018-.007-.018c-.25-.75-.73-1.315-1.5-1.743a4.965 4.965 0 0 1-.525-.325c-.135-.1-.263-.136-.333-.416a.544.544 0 0 1 .162-.469c.116-.089.204-.099.284-.11.158-.02.312-.007.514.018.699.087 1.198.125 1.542.13.004-.006-.008.008.003-.01.034-.054.083-.171.124-.343.08-.343.13-.896.13-1.628 0-1.488-.047-3.071-.14-4.748-.093-1.671-.258-2.765-.393-3.102l-.005-.011-.003-.01c-.08-.243-.177-.399-.255-.477-.078-.078-.123-.095-.21-.095-.264 0-1.002.1-1.867.236a47.094 47.094 0 0 0-.096 1.827c.327-.08.678-.19.945-.19.421 0 .82.125 1.055.439.091.122.165.25.2.404a.694.694 0 0 1-.073.494c-.178.297-.472.379-.8.434-.472.078-.944.103-1.416.118-.103.564-.178.959-.25 1.328.304-.075.624-.136.891-.242.3-.12.626-.148.919-.038.287.108.509.333.68.611.178.25.277.595.131.885-.149.298-.428.44-.756.549l-.029.01-.03.005c-.517.086-1.268.115-2.11.126-.276 2.246-.62 3.876-1.109 4.851l-.004.009-.004.007c-.13.233-.255.416-.416.56-.161.143-.41.255-.659.193-.248-.062-.399-.241-.51-.43a2.854 2.854 0 0 1-.267-.692c-.295-1.082-.31-2.019.018-2.787l-.007.018c.268-.715.498-1.628.682-2.733l.003-.015.003-.016c.275-1.1.459-2.246.55-3.44l.002-.014.002-.013c.18-1.265.06-2.112-.218-2.53l-.014-.02-.011-.022c-.152-.304-.252-.537-.252-.81 0-.136.04-.309.168-.438a.62.62 0 0 1 .438-.169c.325 0 .65.056.969.162l-.03-.01c.291.073.765.083 1.391-.007a5.517 5.517 0 0 0 1.703-.524c.313-.2.65-.318.99-.346.088-.007.176-.008.264-.003zm2.405 10.48c0-.005 0-.01-.002-.015l.003.033v-.019zm1.462 23.31a1.66 1.66 0 0 0-.583.101c-.236.091-.464.352-.476.625-.012.273.101.492.256.724l.005.008.007.01c.476.634.761 1.432.844 2.427l.002.02.003.018c.155.854.267 2.099.354 3.55-1.176.23-2.326.434-3.43.591-1.108.085-1.872.019-2.178-.104-.475-.19-1.03-.327-1.665-.418a.878.878 0 0 0-.553.061.723.723 0 0 0-.358.474c-.081.368.029.72.216 1.189l.007.015.007.015c.392.783.57 1.948.485 3.487a54.26 54.26 0 0 1-.522 4.834l-.002.008v.009a25.027 25.027 0 0 1-1.037 4.925c-.507 1.604-1.437 3.13-2.808 4.587l-.003.004-.004.004c-.709.798-1.108 1.264-1.282 1.647-.044.096-.125.197-.038.431a.498.498 0 0 0 .28.267.47.47 0 0 0 .246.013c.243-.043.39-.148.646-.31a15.005 15.005 0 0 0 2.56-2.022c.84-.75 1.644-1.878 2.443-3.386.913-1.555 1.493-3.537 1.76-5.943.091-.822.112-1.957.182-2.872.079.092.15.192.257.262l.03.02.033.015c.694.298 1.453.345 2.226.152H49c.685-.153 1.507-.401 2.375-.68.134.725.366 1.372.777 1.866l.012.013.013.013c.69.69 1.983.948 3.948 1.037h.019c1.959 0 3.492-.216 4.624-.687.598-.23 1.033-.468 1.31-.807.14-.17.236-.38.246-.605.01-.224-.067-.44-.19-.623l.026.042c-.236-.471-.452-1.188-.623-2.13v-.001a6.342 6.342 0 0 0-.076-.614 1.431 1.431 0 0 0-.06-.23c-.027-.074-.04-.165-.2-.272a.474.474 0 0 0-.338-.06.433.433 0 0 0-.224.133c-.085.091-.106.158-.134.23a3.298 3.298 0 0 0-.143.542c-.17.853-.386 1.476-.61 1.848l-.007.013-.007.014c-.108.217-.413.48-.96.72-.54.151-1.52.246-2.898.246-.686 0-1.224-.045-1.596-.123-.363-.077-.534-.195-.572-.239-.17-.291-.223-.617-.26-.954 2.273-.78 3.975-1.351 4.78-1.593l.017-.005.016-.007c.235-.094.428-.187.588-.291.16-.105.302-.216.387-.415.085-.198.026-.483-.103-.635-.122-.144-.271-.222-.442-.297-.737-.414-1.619-.346-2.48.133l.031-.016c-.647.287-1.75.635-2.996.997-.008-.699.061-1.243.206-1.483a.897.897 0 0 0 .115-.616c-.04-.21-.15-.39-.293-.547-.09-.1-.295-.178-.415-.269a342.45 342.45 0 0 1 5.18-.88c.598-.086 1.072-.116 1.401-.096.33.019.493.107.5.114l.02.02.023.017c.052.04.074.05.043.248-.03.197-.16.527-.409.942-.136.204-.232.37-.287.55a.596.596 0 0 0-.017.343.556.556 0 0 0 .321.346c.273.091.423.004.619-.075.195-.078.421-.195.694-.354l.004-.003.004-.002c1.121-.69 2.104-1.156 2.934-1.405l-.01.002c.261-.071.476-.149.658-.25.181-.102.35-.232.432-.454.083-.222.014-.484-.107-.652-.121-.167-.28-.291-.481-.416a25.864 25.864 0 0 0-2.14-1.204c-.706-.475-1.552-.467-2.251.032l.034-.021c-.192.109-.928.342-2.057.58-1.018.216-2.493.47-4.195.74V65.22c1.784.052 3.406-.066 4.828-.4l.008-.003.007-.002c.812-.225 1.364-.433 1.728-.736.181-.151.34-.365.34-.633 0-.269-.159-.483-.34-.634-.663-.552-1.618-.576-2.728-.21-.817.223-2.131.451-3.633.68.04-.28.068-.659.119-.735a.659.659 0 0 0 .027-.614c-.092-.172-.224-.272-.375-.369-.303-.193-.728-.358-1.314-.539l-.017-.004-.018-.005a8.143 8.143 0 0 0-1.096-.176 2.868 2.868 0 0 0-.224-.006zm-.588 9.538c.087.045.165.104.237.292.083.216.139.557.139 1.01v.02l.002.02c.075.755.102 1.314.112 1.795-1.351.541-2.525.907-3.469 1.065h-.006c-.45.083-.756.162-1.008.39.095-1.394.22-2.646.269-4.243l3.724-.349zm5.794 9.122a1.618 1.618 0 0 0-.22.027 1.933 1.933 0 0 0-.793.37c-.405.243-.801.4-1.19.478l-.009.001-.009.003a25.37 25.37 0 0 1-1.112.247 3.11 3.11 0 0 1-1.12-.221c-.386-.271-.85-.445-1.374-.539-.15-.056-.313-.102-.505-.038-.204.068-.348.274-.39.444-.086.342-.003.668.136 1.132l.007.024.01.024c.272.612.194 1.81-.407 3.525l-.003.01-.002.007c-.494 1.645-1.617 2.86-3.47 3.703l-.003.001-.004.002c-.465.222-.827.405-1.094.556a4.054 4.054 0 0 0-.333.206c-.091.064-.163.108-.246.232a.43.43 0 0 0-.074.331c.028.162.166.281.252.32.173.078.253.054.36.047.21-.014.483-.068.852-.154 1.644-.276 3.08-.97 4.272-2.07 1.289-1.108 2.153-3.04 2.693-5.732 1.268-.216 2.245-.354 2.572-.354h.037c.005.01-.003-.008.006.029.04.157.045.547-.04 1.094l-.002.016-.001.014a48.608 48.608 0 0 0-.133 3.717v.014l.001.014c.095 1.325.7 2.392 1.759 3.068 1.186.79 2.98.988 5.391.721h.004c2.391-.178 3.933-.52 4.712-1.299.34-.34.577-.693.666-1.08a1.45 1.45 0 0 0-.199-1.094c-.204-.412-.489-1.604-.75-3.428a9.08 9.08 0 0 0-.199-1.103 1.075 1.075 0 0 0-.14-.342.444.444 0 0 0-.23-.194.51.51 0 0 0-.433.068c-.181.145-.179.246-.213.362a3.301 3.301 0 0 0-.088.412c-.052.327-.099.773-.143 1.349-.086 1.066-.28 1.889-.554 2.458-.274.566-.604.872-1.014 1.01-.92.25-1.976.378-3.17.378-1.082 0-1.92-.21-2.539-.591-.427-.31-.747-1.173-.75-2.687.087-1.516.469-2.496 1.048-3.004l.01-.009.01-.009c.374-.374.624-.68.7-1.058a.777.777 0 0 0-.115-.589.918.918 0 0 0-.473-.324 7.901 7.901 0 0 0-1.302-.39 1.521 1.521 0 0 0-.652-.105z"/></g></svg>