<svg xmlns="http://www.w3.org/2000/svg" width="300" height="300" viewBox="0 0 79.375 79.375" fill="currentColor"><path d="M39.687 0A39.687 39.687 0 0 0 0 39.687a39.687 39.687 0 0 0 39.687 39.688 39.687 39.687 0 0 0 39.688-39.688A39.687 39.687 0 0 0 39.687 0zm0 3.526c19.956 0 36.161 16.207 36.161 36.163 0 19.955-16.205 36.16-36.16 36.16-19.956 0-36.16-16.205-36.16-36.16 0-19.956 16.204-36.163 36.16-36.163zm0 2.647c-18.525 0-33.515 14.99-33.515 33.516 0 18.525 14.99 33.513 33.515 33.513 18.526 0 33.514-14.988 33.514-33.513 0-18.526-14.988-33.516-33.514-33.516zm-1.994 11.616h3.84v11.8h18.03v3.466H42.986c4.403 7.26 11.849 14.94 18.171 18.92-.937.75-2.155 2.108-2.81 3.091-5.667-4.12-12.13-11.24-16.813-18.358v24.118h-3.84V38.113C33.151 45.325 26.83 51.741 20.46 55.441c-.656-.937-1.827-2.342-2.717-3.044 7.4-3.747 14.799-11.474 18.967-19.342H19.242V29.59h18.451V17.789zm9.367.749c2.903 1.967 6.65 4.823 8.523 6.697l-2.67 2.529c-1.779-1.92-5.479-4.965-8.382-7.025l2.529-2.201z" paint-order="stroke fill markers"/></svg>