<svg xmlns="http://www.w3.org/2000/svg" width="647.261" height="603.219" fill="currentColor"><path d="M173.156 603.012c-2.2-.219-8.262-.865-13.47-1.436-5.21-.57-19.16-1.48-31-2.021-48.374-2.21-69.162-8.064-85.103-23.966-8.66-8.64-12.282-15.954-12.782-25.816-.435-8.57 1.249-11.934 2.152-4.303 1.269 10.708 10.913 24.132 22.993 32.002 16.622 10.83 34.7 14.325 88.71 17.151 24.52 1.284 56.326 3.741 60.5 4.675 2.824.632 2.677.749-2.5 1.979-5.863 1.393-22.87 2.393-29.5 1.735zm108-2.837c-3.85-.769-9.043-2.038-11.54-2.821-4.14-1.297-5.774-1.21-18.5.987-14.144 2.442-29.507 2.666-35.324.514-2.073-.767-1.669-1.06 3.51-2.54 4.699-1.344 9.536-1.628 24.509-1.44 10.26.129 18.425-.138 18.143-.593-.281-.455 1.674-.5 4.345-.1 2.672.401 23.082.88 45.357 1.065 22.275.184 42.525.426 45 .538 2.475.111 9.362-.323 15.303-.966 6.347-.687 36.87-1.405 74-1.74 83.73-.757 88.297-1.18 113.2-10.503 30.428-11.39 49.943-24.887 57.066-39.467 2.541-5.202 2.931-7.131 2.931-14.5 0-7.445-.387-9.318-3.123-15.092-4.45-9.39-10.753-13.3-26.65-16.527-6.785-1.377-11.644-1.56-27.727-1.045-34.802 1.116-72.053 2.614-92.563 3.722-14.846.802-22.776.785-30.494-.064-9.903-1.09-11.817-1.507-10.86-2.369.92-.826 97.19-6.425 113.917-6.625.825-.01-3.45-2.18-9.5-4.823-14.126-6.17-32.09-16.18-68.724-38.291-10.182-6.146-18.706-14.092-22.83-21.284-3.842-6.696-3.773-9.12.108-3.843 4.307 5.857 12.378 11.63 35.925 25.694 17.881 10.68 31.396 18.213 66.577 37.112l8.055 4.328 20.945.396c20.396.387 21.023.339 23.944-1.828 1.65-1.224 4.549-3.01 6.442-3.968 4.94-2.502 17.166-6.544 18.082-5.979.426.264 3.567-2.669 6.979-6.517 3.412-3.848 6.614-6.997 7.117-6.997 1.158 0-3.255 8.779-6.338 12.607-5.584 6.935-4.5 6.287 3.523-2.107 4.731-4.95 8.624-8.675 8.649-8.279.096 1.502-9.245 16.422-12.281 19.617-3.76 3.954-8.374 6.426-15.044 8.06-5.79 1.417-6.709.965-3.15-1.55a134.032 134.032 0 0 0 4.818-3.593c2.119-1.677 2.055-1.685-1.645-.195-7.137 2.873-7.497 1.237-.875-3.966 7.367-5.788 8.117-6.993 1.532-2.463-2.58 1.776-7.717 4.405-11.415 5.844l-6.723 2.616 4.853 1.724c5.728 2.034 9.703 6.318 16.426 17.704 9.27 15.698 10.582 24.737 5.27 36.3-3.165 6.891-12.234 16.304-21.72 22.543-8.062 5.304-27.091 14.558-41 19.939-20.941 8.101-30.554 9.199-80.57 9.199-21.518 0-49.45.48-62.07 1.069-17.067.795-27.548.765-40.903-.117-23.032-1.52-22.788-1.518-30.457-.179-10.804 1.887-56.227 2.446-64.5.793zm-75-5.013c-1.494-1.164-1.573-1.41-.31-.972.928.322 5.26-1.026 9.625-2.997 4.365-1.971 8.723-3.584 9.684-3.584 4.753 0-6.802 7.224-13.554 8.474-2.393.443-4.056.162-5.445-.92zm153.147-6.274c-.344-2.078-.635-6.029-.648-8.779-.012-2.75-.687-7.475-1.499-10.5-1.698-6.327-1.965-14.595-.5-15.5.55-.34 1 .223 1 1.251 0 1.029 1.112 4.706 2.47 8.173 4.664 11.901 5.068 21.615 1.132 27.235-1.227 1.75-1.38 1.604-1.955-1.88zm-152.383-.16c8.313-5.396 12.692-7.247 16.383-6.925 3.416.298 3.29.416-4.82 4.522-4.58 2.319-10.127 4.504-12.327 4.855l-4 .64zm-9.044-2.726c-3.15-5.835 4.37-15.708 16.296-21.4 3.662-1.748 8.757-4.6 11.321-6.336 4.398-2.978 5.175-3.154 13.663-3.106 6.937.039 11.178.71 18.5 2.926 12.897 3.903 20.437 3.911 28.5.031l6-2.886-10-.7c-10.62-.743-25.842-3.735-76.5-15.036-45.333-10.113-56.904-11.954-79.5-12.652l-19-.587 6-1.901c3.812-1.208 10.376-2.101 18-2.449 17.516-.799 22.577.044 88.806 14.785 4.843 1.078 19.243 3.979 32 6.447 12.757 2.468 27.892 5.562 33.634 6.875l10.44 2.388 8.575-8.249c9.898-9.521 13.29-11.551 19.246-11.521 5.926.03 11.47 2.863 16.858 8.613 6.137 6.55 12.265 14.366 11.258 14.36-.45-.003-4.398-2.92-8.775-6.484-9.51-7.745-12.961-9.511-18.582-9.511-3.743 0-4.993.671-10.702 5.75-25.887 23.026-36.087 26.36-58.924 19.257-14.505-4.512-21.853-4.518-26.834-.023-1.1.992-6.138 3.87-11.195 6.393-10.803 5.39-15.984 9.619-17.124 13.975-.788 3.012-.873 3.057-1.961 1.04zm165.52-32.292c-2.07-.434-3.996-1.024-4.281-1.31-.773-.772 9.63-2.625 21.541-3.838 32.415-3.298 47.138-6.442 79.941-17.069 35.056-11.356 50.923-14.866 67.268-14.878 7.274-.006 23.278 1.841 22.52 2.598-.192.193-7.072 1.045-15.29 1.893-24.813 2.564-36.017 5.01-62.339 13.616-27.63 9.032-41.755 12.691-63.6 16.474-15.671 2.713-38.772 3.983-45.76 2.514zM30.682 538.964c-.08-3.46 4.468-14.73 7.953-19.706 2.211-3.156 4.02-5.893 4.02-6.082 0-.19-1.55-.635-3.446-.991-1.896-.356-5.628-2.318-8.293-4.361-5.62-4.31-15.024-14.215-13.493-14.215.573 0 5.922 3.218 11.887 7.152 15.52 10.235 16.078 10.416 21.983 7.115l4.81-2.688-3.706-.77c-4.206-.874-20.055-6.83-19.54-7.343.764-.765 15.807 1.682 22.468 3.655l7.17 2.123 10.33-2.606c12.86-3.245 27.604-5.629 34.844-5.634 4.692-.003 6.327-.552 10.981-3.686 7.684-5.175 19.759-11.02 39.505-19.122 24.454-10.034 35.896-15.227 53.201-24.142 8.415-4.335 15.3-7.525 15.3-7.088 0 1.534-8.117 9.133-13.28 12.432-12.917 8.252-32.601 16.93-69.584 30.675l-25.364 9.427 21.864.544c12.025.3 33.113.199 46.863-.224 46.63-1.434 50.538-1.324 43.889 1.237-9.558 3.681-16.381 4.143-72.889 4.936-60.105.843-67.276 1.399-85.273 6.614-18.207 5.276-32.042 15.215-38.977 28-1.758 3.241-3.209 5.378-3.223 4.748zM17.655 502.67c-3.98-2.106-5.274-3.454-10.373-10.81-2.002-2.888-3.176-5.25-2.61-5.25 1.264 0 17.984 15.934 17.984 17.138 0 1.24-1.044 1.015-5-1.078zm315.001-4.23c-5.225-.495-18.05-2.016-28.5-3.381a4305.72 4305.72 0 0 0-36-4.526c-9.35-1.124-18.575-2.292-20.5-2.596-3.442-.544-3.459-.569-1-1.542 4.034-1.598 25.364-.155 53.5 3.619 39.334 5.275 48.143 5.82 84.5 5.227 29.418-.48 31.884-.398 26 .863-15.435 3.307-55.152 4.497-78 2.335zm277-.295c0-.255 1.013-1.004 2.25-1.664 2.04-1.087 2.122-1.043.878.465-1.278 1.55-3.128 2.258-3.128 1.2ZM28.902 492.61c.153-.825 1.69-1.958 3.414-2.517l3.135-1.018-1.897-2.343c-1.044-1.29-1.898-3.78-1.898-5.536 0-3.034 4.753-14.167 5.66-13.26.237.237-.097 2.524-.74 5.082-1.318 5.231-.743 10.687 1.485 14.086 1.59 2.429 9.71 4.422 18.677 4.587l4.418.081-3 1.41c-4.424 2.08-29.655 1.586-29.254-.572zm395.31-2.223c-.855-1.222-1.556-4.052-1.556-6.288 0-2.236-.9-5.831-2-7.989-1.18-2.316-2-5.897-2-8.744 0-2.651-.718-6.493-1.595-8.538s-2.475-6.832-3.55-10.639c-1.076-3.806-4.167-11.231-6.868-16.5-5.889-11.484-7.55-19.532-6.606-32.008.737-9.753 4.527-34.6 8.094-53.071 1.328-6.875 3.137-17.45 4.019-23.5.882-6.05 2.707-15.255 4.055-20.455 1.348-5.2 2.451-10.857 2.451-12.572 0-1.714-3.393-12.054-7.54-22.978-8.205-21.617-13.461-38.638-15.899-51.487-1.758-9.269-2.111-25.008-.56-25.008.55 0 1 1.989 1 4.42 0 5.979 11.071 43.429 20.331 68.772l4.638 12.693 1.003 18.807c1.81 33.938 2.563 40.233 7.563 63.308 3.568 16.466 6.041 33.75 6.94 48.5.513 8.407.458 8.767-.836 5.467-2.299-5.864-15.766-74.72-16.716-85.467-.118-1.335-7.525 39.352-9.465 51.991-2.29 14.92-2.919 30.06-1.526 36.723.657 3.143 3.442 10.118 6.19 15.5 2.747 5.382 5.607 12.261 6.354 15.286.748 3.025 2.306 8.102 3.462 11.282 1.581 4.351 1.888 6.58 1.239 9-.585 2.184-.4 4.809.578 8.168 1.124 3.863 1.197 5.765.33 8.655-.752 2.512-.791 4.54-.122 6.3 1.21 3.182.662 3.327-1.407.372zm-88.056-.443c-2.2-.181-12.775-1.04-23.5-1.908-17.92-1.45-35.76-3.853-36.875-4.967-1.007-1.008 24.244-.313 37.875 1.041 9.443.938 27.579 1.48 52 1.556 38.654.12 41.09.502 22 3.46-8.657 1.342-39.254 1.828-51.5.818zM12.94 487.609c-2.297-5.256 3.289-8.868 7.798-5.042l2.42 2.053-2.872-1.027c-3.484-1.246-5.344-.031-5.882 3.84l-.371 2.676Zm12.178-.043c-1.519-1.678-1.56-1.932-.232-1.423.89.341 1.862 1.26 2.162 2.043.748 1.947.248 1.787-1.93-.62zm22.95-1.034c1.424-1.692 2.59-4.19 2.59-5.55 0-3.398-2.639-8.424-5.836-11.118-3.341-2.815-1.066-2.975 3.364-.237 8.317 5.14 9.354 15.462 1.868 18.59-4.7 1.963-4.907 1.787-1.986-1.685zm186.652-10.649c.366-7.643 1.478-15.458 3.171-22.274 1.434-5.775 3.387-14.55 4.339-19.5.952-4.95 2.775-11.097 4.05-13.66 1.399-2.81 2.54-7.328 2.873-11.376.303-3.694 1.02-8.797 1.593-11.34.572-2.543.972-8.224.888-12.624-.084-4.4.164-13.175.551-19.5.585-9.563.347-13.43-1.412-22.965-1.164-6.305-2.162-12.83-2.218-14.5l-.103-3.035-.76 3.193c-.417 1.756-1.066 9.406-1.442 17-2.237 45.225-3.538 58.334-7.17 72.268-4.36 16.734-4.95 18.264-8.163 21.19-2.319 2.11-2.497 2.146-1.76.349.45-1.1 1.148-5.6 1.549-10s1.671-11.642 2.822-16.094c2.696-10.43 3.767-18.172 5.618-40.609 2.54-30.803 3-62.112 1.146-78.297-1.836-16.04-2.26-23.209-1.42-24.048.323-.323.878 1.14 1.235 3.251 1.126 6.666 2.227 7.04 3.467 1.177.626-2.96 3.551-12.58 6.5-21.38 3.057-9.125 6.28-21.244 7.5-28.203 1.176-6.712 2.801-14.081 3.611-16.376.81-2.295 1.472-4.352 1.472-4.572 0-.22-1.426.337-3.17 1.239-1.827.945-8.286 2.154-15.25 2.855-14.113 1.42-17.762 2.776-24.544 9.12-5.573 5.213-9.152 11.93-11.156 20.937-1.731 7.78-1.68 32.558.09 43 2.345 13.839 1.571 33.948-2.368 61.5-1.926 13.475-4.17 27.65-4.988 31.5-1.662 7.838-6.563 23.884-7.123 23.324-.507-.507 1.976-21.397 5.565-46.824 5.279-37.389 5.558-43.446 3.092-67.075-4.366-41.828-1.909-57.148 11.246-70.117 2.692-2.653 7.855-6.283 11.474-8.066 6.46-3.183 6.872-3.248 22.576-3.584 14.383-.307 16.131-.534 17.333-2.25.735-1.05 1.816-1.908 2.402-1.908.712 0 .739.415.08 1.25-.541.688-1.27 4.79-1.619 9.117-1.306 16.203-8.346 41.287-17.859 63.633-4.537 10.658-4.741 12.8-2.42 25.381.902 4.885 1.64 11.925 1.64 15.646 0 5.652.572 7.975 3.483 14.12 5.101 10.766 7.654 21.61 7.734 32.853.218 30.698-2.279 55.085-6.608 64.541-1.318 2.878-2.723 7.197-3.123 9.596-.4 2.4-2.877 12.238-5.504 21.863s-5.293 20.028-5.923 23.118c-.631 3.09-1.69 6.364-2.353 7.275-.957 1.313-1.09-.784-.644-10.119zM.23 482.811c-1.333-4.144 3.385-6.814 7.426-4.202 1.143.738.746.973-1.666.985-2.557.012-3.346.545-4.094 2.765-.921 2.734-.93 2.736-1.666.452zm25.033.216c-1.176-3.064-.54-8.967 1.433-13.317 2.437-5.37 3.382-4.895 2.02 1.017-.556 2.41-1.022 6.52-1.035 9.132-.024 4.68-1.231 6.26-2.418 3.168zm564.893-2.163c1.318-1.187 17.124-8.255 18.461-8.255 1.418 0 1.256-1.13-.493-3.441-.807-1.068-1.468-2.9-1.468-4.072 0-2.655 2.955-11.486 3.844-11.49.361 0 .508 3.125.326 6.947-.433 9.133.406 10.546 6.06 10.198 3.049-.187 4.82.213 5.717 1.293 1.119 1.349.953 1.565-1.195 1.565-1.372 0-7.396 1.505-13.387 3.344-12.07 3.706-19.425 5.316-17.865 3.91zm-345.5-4.294c-5.293-.518-5.368-.566-2-1.262 14.359-2.967 61.162-4.549 84-2.839 15.482 1.16 27.5 2.973 26.478 3.996-.763.763-100.775.86-108.478.105zm315.81-.543c1.29-2.487 4.19-5.057 4.19-3.715 0 .522-1.186 2.04-2.636 3.373-2.351 2.163-2.519 2.2-1.554.342zm-480.31-.438c-11.143-2.23-28.842-11.654-36.466-19.415-5.775-5.88-8.303-6.798-9.999-3.63-1.515 2.83-1.3 3.143 1.339 1.94 1.69-.77 2.95-.773 4.375-.01 2.782 1.49 3.263 4.257 1.432 8.243l-1.558 3.392-.561-4.422c-.645-5.077-2.199-6.109-4.736-3.145-2.162 2.525-3.747 2.723-2.454.306.518-.968.723-2.908.455-4.31-.609-3.184 1.684-5.261 5.68-5.148 2.535.072 5.458 1.745 13.964 7.994.955.7 6.19 2.98 11.632 5.064 5.444 2.084 12.78 5.673 16.302 7.975 3.523 2.302 6.984 4.186 7.691 4.186.707 0 1.564.45 1.904 1 .717 1.16-3.147 1.152-9-.02zm19-4.744c34.444-18.752 42.3-24.21 66.36-46.098 13.797-12.552 21.333-18.769 27.54-22.718 2.868-1.826 2.887-1.824 1.815.18-3.936 7.353-38.213 39.85-53.598 50.813-15.229 10.851-34.988 20.08-47.319 22.1-3.219.528-2.426-.124 5.202-4.277zm462.647-3.311c-8.932-1.756-20.044-10.249-52.147-39.856-11.825-10.906-22.85-21.046-24.5-22.534-2.916-2.63-2.832-2.615 3 .533 9.83 5.305 20.818 13.612 36.26 27.41 18.653 16.667 33.726 29.154 38.482 31.878 2.059 1.18 3.746 2.481 3.75 2.894.004.412-.104.7-.242.64-.137-.06-2.209-.494-4.603-.965zm58.853.41c0-.257 1.201-2.043 2.67-3.968 2.78-3.645 8.901-7.367 12.116-7.367 1.026 0 2.922-1.125 4.214-2.5 4.338-4.618 9.339-2.147 7.014 3.466-.676 1.632-1.816 3.455-2.533 4.05-1.048.87-1.197.287-.76-2.967.298-2.227.133-4.049-.367-4.049-1.492 0-5.423 3.078-4.937 3.866.248.401.038 1.383-.467 2.182-.63.996-.924 1.06-.934.202-.027-2.183-2.424-1.372-9.313 3.153-3.686 2.421-6.703 4.191-6.703 3.933Zm-238.5-.786c-.55-.218-3.678-.7-6.952-1.07-3.727-.422-5.409-.964-4.5-1.452 4.447-2.384 27.353-2.914 38.557-.892l6.895 1.244-4 .704c-4.875.857-28.608 2.017-30 1.466zm190.5-1.936c0-.286 4.374-3.13 9.72-6.317 6.137-3.66 11.756-7.983 15.25-11.732 9.778-10.493 12.13-12.564 14.276-12.564h2.103l-2.062 2.25c-1.133 1.237-3.031 4.183-4.217 6.545-4.736 9.434-12.314 15.435-24.07 19.06-9.83 3.03-11 3.324-11 2.758zm44.785-3.832c-2.026-3.112-5.898-12.001-5.43-12.47.966-.965 6.62 7.038 7.216 10.214.828 4.415.165 5.252-1.786 2.256zm7.703-7.504c-5.339-7.224-9.8-11.313-11.687-10.714-1.294.41-1.63.156-1.217-.92 1.254-3.27 6.233-2.742 9.62 1.02 2.031 2.256 7.2 13.267 6.538 13.928-.254.255-1.719-1.236-3.254-3.314zm-148.245-60.08c-12.167-17.884-16.788-49.951-18.33-127.197-.479-23.925-1.151-45.17-1.496-47.211-.459-2.717-1.942-4.942-5.534-8.302-6.404-5.99-12.83-8.87-26.883-12.048-11.606-2.624-27.424-7.348-26.776-7.996.193-.193 3.26.07 6.814.583 3.554.513 8.937.95 11.962.971 12.777.087 28.36 5.574 34.637 12.194 4.012 4.233 9.851 15.17 11.746 22.001 1.14 4.116 1.588 14.629 1.992 46.808.52 41.402 1.21 53.706 4.175 74.5 2.354 16.51 7.388 40.425 9.556 45.405 1.055 2.422 1.787 4.536 1.626 4.697-.161.16-1.73-1.821-3.489-4.405zM321.656 277.972c-19.483-2.845-33.61-11.386-39.137-23.661-2.208-4.904-2.362-6.576-2.684-29.2-.189-13.2-.097-23.754.202-23.454.3.3 1.297 4.349 2.215 8.998 2.264 11.464 3.336 12.987 3.374 4.792.039-8.533 2.44-21.092 4.954-25.916 2.43-4.663 3.706-11.748 5.094-28.29.93-11.083.87-13.098-.423-14.527-2.291-2.532-6.381-12.12-7.084-16.605-1.165-7.44-1.485-8.26-3.426-8.768-3.464-.906-7.356-10.295-7.879-19.01-.389-6.493-.171-8.103 1.32-9.75 2.462-2.72 3.855-2.483 2.004.343-1.338 2.042-1.348 2.954-.08 7.75.79 2.99 2.569 8.135 3.952 11.435l2.514 6 .042-6.25c.023-3.438.428-6.25.9-6.25.471 0 2.297 6.637 4.057 14.75 3.566 16.439 5.735 21.091 13.244 28.405 4.9 4.773 15.511 10.79 19.25 10.915 1.15.039 2.991.492 4.091 1.008 1.384.648-.31.828-5.5.584-5.974-.28-8.757-.99-13.677-3.485-3.397-1.723-6.461-3.592-6.809-4.155-1.48-2.394-1.993-.597-1.685 5.894.415 8.734-1.783 17.522-6.487 25.932l-3.588 6.417.511 20.118c.782 30.755 4.232 40.782 16.032 46.591 11.698 5.76 33.203 6.775 43.071 2.034 12.612-6.06 20.291-18.864 23.694-39.508 2.135-12.957 2.298-28.276.367-34.5-.723-2.33-.651-2.398 1.056-1 2.603 2.131 5.465 8.885 5.509 13 .066 6.277 1.546 6.292 2.84.029 1.937-9.382 3.166-8.34 3.166 2.688 0 19.251-3.645 38.468-9.641 50.835-7.69 15.86-18.787 23.622-36.359 25.434-9.463.975-14.248 1.07-19 .377zm22.201-7.479c11.684-2.46 23.025-10.526 27.708-19.705 3.141-6.157 2.554-6.028-2.248.495-5.206 7.072-11.376 12.524-17.585 15.537-3.795 1.842-6.71 2.286-17.076 2.6-14.665.446-23.062-1.128-32.301-6.052-7.065-3.766-11.007-8.697-13.309-16.65-2.542-8.784-3.498-10.332-2.846-4.609 1.535 13.48 11.452 23.674 27.27 28.03 5.894 1.624 23.39 1.827 30.387.354zm79.314 2.307c.29-2.37 1.196-5.745 2.012-7.5l1.485-3.191-.388 4c-.214 2.2-1.12 5.575-2.013 7.5l-1.624 3.5zm-93.276-55.857c-.694-.28-1.78-1.482-2.414-2.671-1.04-1.951-.99-2.029.506-.795 1.599 1.319 2.879 1.245 7.17-.415 1.771-.685 1.723-.47-.425 1.887-2.508 2.752-2.73 2.843-4.837 1.994zm-34.239-8.29-3.5-.693 2.81-.799c3.362-.956 10.5-.142 12.011 1.369 1.226 1.226-5.384 1.298-11.32.123zm72-5.044c3.612-1.157 6.215-1.157 5.5 0-.34.55-2.279.955-4.309.9-3.315-.09-3.436-.18-1.19-.9Zm-89-11c4.673-2.75 8.918-5 9.435-5 .517 0-.382 1.407-1.998 3.126-3.341 3.556-9.739 6.82-13.435 6.852-1.844.016-.276-1.285 5.998-4.978zM380.99 185c-8.472-4.474-8.822-4.834-3.833-3.937 4.976.894 13.053 4.302 14.591 6.156 2.266 2.73-3.727 1.494-10.758-2.219zm-15.168-4.721c-4.66-4.807-7.174-12.198-7.12-20.93.023-3.982.691-9.04 1.484-11.24.793-2.2 1.448-4.17 1.456-4.377.008-.208-1.958 1.442-4.37 3.665-2.413 2.224-6.242 5.214-8.51 6.645-4.253 2.686-14.102 6.903-14.707 6.298-.188-.188 3.073-2.783 7.246-5.768 8.843-6.324 15.318-13.186 18.348-19.447 1.184-2.444 2.967-8.983 3.964-14.53 1.799-10.018 3.044-13.62 3.044-8.808 0 1.382.89 3.317 1.978 4.302 1.932 1.748 2.025 1.68 4-2.927 2.257-5.267 6.022-19.283 6.022-22.42 0-1.118-.787-2.492-1.75-3.053-1.568-.914-1.52-1.022.465-1.05 3.507-.048 4.584 3.286 3.997 12.373-.639 9.875-1.995 14.592-5.34 18.566-2.863 3.404-4.504 3.756-6.8 1.46-1.429-1.429-1.574-.906-1.594 5.75-.015 5.17-.615 8.628-2.041 11.773-2.597 5.723-3.663 13.958-2.795 21.573.729 6.385 4.836 19.265 7.382 23.152 2.384 3.638-.503 2.971-4.36-1.007zm-51.165-44.62-4.5-1.938 7-.06c3.85-.032 10.982-.755 15.848-1.606 4.866-.851 9.364-1.375 9.996-1.165.632.21-.875 1.685-3.348 3.276-3.855 2.48-5.636 2.93-12.496 3.161-6.144.207-9.044-.18-12.5-1.669zm-19.25-39.622c-4.26-2.312-3.266-3.214 2.5-2.269 2.888.474 7.613.58 10.5.236 6.069-.723 6.737.086 1.782 2.156-4.428 1.85-11.25 1.793-14.782-.123zm43-2c-1.512-.82-2.75-1.59-2.75-1.71 0-.12 2.2-.065 4.89.121 2.913.202 7.842-.496 12.19-1.727 7.389-2.09 8.66-2.119 7.452-.164-2.714 4.392-16.145 6.538-21.782 3.48zm-57.354-13.928c-2.17-17.722.23-32.344 6.917-42.13 3.776-5.525 15.5-14.978 23.687-19.1 7.573-3.811 18.335-3.774 28.404.1 7.684 2.956 9.573 2.815 4.459-.332-11.064-6.81-27.1-6.556-36.444.576l-4.492 3.429 1.535-2.97c1.82-3.518 6.62-7.363 12.092-9.686 5.807-2.465 16.848-2.267 22.04.396 4.336 2.223 10.406 8.401 10.406 10.591 0 .718 1.125 1.818 2.5 2.444 3.11 1.417 3.115.907.05-4.324-4.67-7.967-13.472-12.626-24.05-12.729-11.738-.113-21.42 4.814-27.438 13.963-1.891 2.876-3.624 5.043-3.85 4.817-.984-.984 2.263-7.966 5.763-12.394 7.867-9.952 18.632-14.315 30.267-12.265 14.048 2.474 23.758 11.417 23.758 21.879 0 3.159.71 4.521 4.053 7.782 5.289 5.158 9.43 11.693 12.06 19.034 2.362 6.592 2.829 17.8 1.246 29.919-.877 6.716-.972 6.898-2.326 4.5-1.493-2.643-1.91-13.321-.723-18.5.643-2.805.556-2.756-1.335.75-1.112 2.062-2.15 3.75-2.307 3.75-.156 0-.091-4.03.144-8.956.467-9.767-.392-18.044-1.873-18.044-.516 0-.941 1.237-.944 2.75-.003 1.512-.538 4.55-1.188 6.75l-1.182 4-.8-6.68c-1.018-8.493-3.931-16.286-7.877-21.07-3.963-4.805-5.214-4.795-2.83.021 2.095 4.237 3.727 16.229 2.207 16.229-.528 0-1.76-2.588-2.737-5.75-2.118-6.854-5.512-13.003-8.695-15.751l-2.314-1.999 1.91 3c5.418 8.512 8.447 15.5 6.717 15.5-.51 0-3.525-3.39-6.7-7.534-6.02-7.862-7.634-9.035-4.907-3.568.884 1.772 1.787 5.108 2.007 7.412.392 4.122.338 4.069-3.354-3.318-5.27-10.546-6.375-11.992-9.167-11.992h-2.433l2.049 2.25c2.652 2.912 4.429 6.391 5.35 10.476 1.197 5.308-.358 3.787-4.323-4.226-2.777-5.612-4.217-7.5-5.72-7.5-2.64 0-2.651 3.329-.027 8.226 1.582 2.952 1.676 3.58.463 3.114-2.05-.787-4.437-5.606-4.476-9.04-.03-2.678-.095-2.716-1.5-.859-1.852 2.449-1.835 8.292.032 11.559 2.297 4.017 1.725 4.59-1.5 1.5-3.217-3.082-3.993-7.776-1.924-11.641.974-1.82.882-1.907-.977-.912-3.308 1.77-4.278 4.768-3.928 12.137.181 3.806.064 6.92-.26 6.918-1-.004-2.91-4.96-2.91-7.55 0-1.348-.379-2.452-.84-2.452-1.47 0-3.16 4.95-3.176 9.297-.021 5.809-1.538 8.013-2.5 3.633l-.733-3.336-1.942 3.785c-1.068 2.082-2.746 6.951-3.728 10.82-1.41 5.554-1.92 6.537-2.42 4.668-.35-1.302-.654-3.717-.679-5.367-.138-9.42-3.901 10.921-4.053 21.909-.122 8.81-1.565 10-2.534 2.091zm13.144 2.436c1.26-2.04 8.855-4.893 12.96-4.869 2.2.013 5.35.641 7 1.397l3 1.374-5 .105c-4.422.094-7.399.568-16.334 2.605-1.593.363-2.109.17-1.626-.612zm45.882-4.112c3.302-1.917 14.652-2.232 18.578-.517 3.398 1.485 3.149 1.531-8.5 1.581-9.29.04-11.566-.2-10.078-1.064z"/></svg>