<svg xmlns="http://www.w3.org/2000/svg" width="370.032" height="711.14" fill="currentColor"><path d="M138.004 709.914c-9.002-2.144-9.435-3.16-.913-2.142 8.25.985 15.591-.486 24.148-4.837 2.895-1.473 8.64-3.937 12.765-5.476 4.125-1.539 6.6-2.805 5.5-2.814-1.1-.01-4.25.815-7 1.83-16.485 6.09-22.983 8.03-28.648 8.554l-6.352.588 8.578-2.939c4.717-1.616 11.649-4.331 15.403-6.033 13.607-6.17 26.76-8.3 38.657-6.259 3.499.6 8.612 1.419 11.362 1.819l5 .727-5 .672c-2.75.37-8.6.497-13 .283l-8-.39 9.5 2.574c6.356 1.722 11.41 2.478 15.273 2.283 4.47-.225 5.426-.037 4.232.833-2.925 2.132-10.912 2.455-19.058.77-10.897-2.253-19.042-1.517-28.447 2.572-21.295 9.259-23.825 9.808-34 7.385zm-14.705-4.6c-11.47-12.038-11.126-21.168 1.06-28.172 4.318-2.48 24.547-10.01 25.184-9.373.2.201-5.07 3.225-11.713 6.721-13.326 7.012-18.287 10.79-19.259 14.66-.684 2.727 2.552 10.963 6.469 16.464 2.74 3.849 2.11 3.74-1.74-.3zm97.445-23.32c-1.017-4.661-3.036-10.154-4.779-13l-3.018-4.93 4.494 4.808c4.851 5.19 5.877 8.28 5.378 16.194l-.315 4.998Zm-32.24-14.654c-5.588-1.63-10.096-2.066-22.348-2.16-14.715-.112-15.17-.175-11-1.537 2.717-.888 8.926-1.45 16.557-1.5 14.275-.093 14.3-.327.753-7.126-8.891-4.462-8.942-5.859-.105-2.847 2.654.904 7 3.695 9.946 6.388 3.92 3.583 6.947 5.311 12.07 6.894 8.594 2.654 10.679 2.645 14.12-.062l2.763-2.173-1.151 2.15c-.633 1.183-2.011 2.611-3.062 3.174-2.933 1.57-10.796 1.06-18.543-1.2zm-36.702-6.776c5.337-7.666 6.265-10.825 4.553-15.5-.805-2.2-2.503-6.925-3.773-10.5s-4.528-10.775-7.24-16c-2.713-5.225-6.427-12.801-8.253-16.835-1.98-4.374-5.649-9.958-9.09-13.834-7.62-8.584-10.166-13.551-14.011-27.331-1.765-6.325-4.998-16.823-7.186-23.33-3.541-10.534-3.901-12.476-3.289-17.751.916-7.893 1.962-8.173 2.114-.567.095 4.797 1.05 8.345 4.339 16.148 2.32 5.5 4.801 12.25 5.516 15 5.673 21.823 7.612 26.114 16.053 35.532 4.551 5.077 7.225 9.396 10.896 17.598 2.676 5.978 6.308 13.137 8.072 15.91 1.764 2.771 3.775 6.76 4.469 8.863l1.262 3.824 4.635-.57c9.517-1.171 28.675-1.709 26.485-.744-3.927 1.731-18.483 3.358-24.46 2.733-6.761-.707-6.82-.606-3.995 6.854 1.667 4.402 2.295 5.06 5.25 5.501 4.992.747 19.89-.75 24.838-2.495 2.38-.84 4.498-1.359 4.704-1.153 1.477 1.478-14.763 7.336-16.817 6.067-.478-.296-.87-.117-.87.4 0 .515 1.286 1.47 2.858 2.12 1.572.652 4.61 2.986 6.75 5.188l3.892 4.003-5.875-3.526c-4.7-2.82-20.388-9.605-22.21-9.605-.229 0-.415 1.057-.415 2.35 0 2.664-4.148 8.698-9.039 13.15l-3.296 3zm50.497-13.338c-2.863-6.14-5.883-13.776-6.71-16.97-2.502-9.651-3.65-31.408-2.596-49.192.522-8.8.952-17.575.958-19.5l.009-3.5-1.832 4c-4.8 10.481-16.904 21.14-34.575 30.447-11.565 6.09-10.95 4.419 1.356-3.691 15.967-10.522 29.816-22.949 33.488-30.05 2.932-5.67 1.793-20.206-1.584-20.206-2.506 0-7.528-5.09-10.166-10.304-1.542-3.05-3.345-5.752-4.006-6.005-.66-.254-5.237.66-10.17 2.031-6.823 1.897-12.195 2.602-22.467 2.946-12.2.409-14.415.205-23-2.116l-9.5-2.568 8.5.519c4.675.285 9.85.775 11.5 1.089 1.88.357.198-.88-4.5-3.31-4.125-2.135-9.664-5.15-12.31-6.701-2.645-1.55-6.92-3.434-9.5-4.185l-4.69-1.366 5.575.303c4.204.228 8.262 1.56 16.5 5.42 12.964 6.073 22.38 9.247 27.434 9.247 2.023 0 6.234-.88 9.358-1.955 9.315-3.204 17.034-4.436 19.508-3.112 1.174.628 3.496 3.84 5.161 7.138 3.909 7.744 7.585 10.178 14.59 9.662 11.57-.852 26.044-11.89 30.217-23.044 2.56-6.841 2.906-14.012 1.113-23.035-1.03-5.177-1.05-7.395-.103-10.559 1.558-5.2 5.717-10.114 8.486-10.028l2.16.068-2.106 1.021c-2.73 1.324-5.393 6.962-5.393 11.422 0 1.93.751 6.502 1.67 10.159 2.004 7.977 1.036 15.857-3.042 24.765-5.036 11-20.159 21.974-31.958 23.192l-5.28.545 1.445 6.63c1.553 7.125 1.708 12.836 1.254 46.13-.339 24.875.628 32.019 7.08 52.295 2.24 7.039 3.905 12.963 3.701 13.164-.203.202-2.712-4.657-5.575-10.796zm-26.764-4.515c1.19-1.093 19.678-7.271 20.2-6.75.727.727-6.282 4.432-10.231 5.408-7.065 1.746-10.983 2.273-9.969 1.342zm-1.988-17.018-2.956-.634 3.956-3.036c5.835-4.477 12.575-8.674 13.095-8.155.541.542-5.716 5.58-10.638 8.565l-3.5 2.123 3-.048c1.65-.026 6.007-.382 9.682-.79 7.708-.858 8.154.179.76 1.765-5.415 1.16-8.722 1.213-13.399.21zm-8.96-7.445c5.545-3.002 13.147-7.32 16.892-9.596 3.745-2.276 6.983-3.963 7.196-3.751.212.212-2.44 2.717-5.893 5.565-7.14 5.89-18.366 11.731-24.278 12.632-3.476.53-2.678-.106 6.083-4.85zm-7.583-11.61c-3.025-1-7.525-2.766-10-3.924l-4.5-2.105 4 .579c2.2.318 7.6 1.477 12 2.575 5.938 1.482 10.248 1.892 16.723 1.592 4.798-.223 8.531-.213 8.296.022-1.003 1.004-12.389 3.152-16.52 3.117-2.474-.02-6.974-.856-10-1.857zm5.5-6.008c-11.215-.794-6.505-2.028 10-2.619 7.15-.256 14.125-.712 15.5-1.012l2.5-.547-2.2 1.577c-1.782 1.278-15.416 3.895-17.3 3.32-.275-.084-4.1-.407-8.5-.719zm-23.5-8.443c0-.207 4.387-2.984 9.75-6.17 11.427-6.79 27.272-17.185 32.25-21.16l3.5-2.793-3.62 4.5c-6.834 8.493-22.188 18.727-35.88 23.915-5.945 2.252-6 2.268-6 1.708zm-9.947-32.753 8.447-4.13-8.766-2.172c-4.82-1.194-9.546-2.988-10.5-3.987-1.66-1.737-1.636-1.765.524-.659 1.243.637 5.293 1.53 9 1.986 6.124.753 7.2.599 11.742-1.68 6.024-3.02 14.547-9.47 23.146-17.514 3.495-3.269 6.354-5.63 6.354-5.245 0 1.446-9.072 12.17-13.202 15.606-5.875 4.888-9.156 6.937-13.557 8.467-2.887 1.003-3.35 1.453-2.026 1.972 1.936.76 10.189-3.895 21.285-12.005 3.85-2.814 7.675-5.479 8.5-5.922 2.343-1.26-8.925 9.545-14.5 13.904-2.75 2.15-5.45 4.326-6 4.836-.616.572 7.45.727 21 .405l22-.524-8.5 2.011c-6.625 1.568-12.36 2.045-26 2.164-10.372.09-18.25.59-19.343 1.226-2.052 1.196 12.017 2.305 31.343 2.472 8.338.072 9.882.293 7.5 1.074-5.616 1.842-25.375 2.121-35.144.497-8-1.33-9.738-1.342-13.909-.087-8.314 2.503-8.103 1.563.606-2.695zM95.92 509.85c-1.524-2.342-5.46-5.575-10.65-8.75-4.528-2.77-8.97-6.089-9.869-7.375-2.556-3.655-1.354-10.411 3.78-21.252 3.616-7.632 6.14-11.254 12.669-18.186 4.484-4.76 8.153-8.288 8.153-7.839 0 .45-2.369 4.147-5.264 8.216-2.895 4.07-6.05 8.63-7.013 10.134-3.018 4.719-9.723 20.745-9.723 23.24 0 1.618 1.486 3.615 4.617 6.206 9.544 7.897 13.4 11.93 14.882 15.57 1.93 4.736 1.485 4.747-1.582.036zm83.978-10.536c-3.14-6.221-13.934-24.768-16.44-28.25-4.353-6.047-3.471-5.847 2.857.648 4.307 4.42 7.67 9.113 10.036 14 3.313 6.845 7.085 17.852 6.118 17.852-.234 0-1.39-1.913-2.57-4.25zm-84.378-9c-.53-2.286-2.494-19.165-2.509-21.56-.005-.72-.453-1.034-.997-.698-.566.35-.734-.05-.393-.94 1.967-5.126 4.464 2.284 5.122 15.198.49 9.625-.041 13.101-1.223 8zm187.483-9.319c-5.225-1.308-13.963-2.864-19.417-3.459-10.845-1.182-12.202-1.681-18.013-6.627-3.2-2.723-4.78-3.348-8.5-3.36-3.32-.012-4.16-.281-3.07-.985 3.125-2.02 8.465-1.067 14 2.5 4.125 2.657 6.524 3.508 9.966 3.534 5.282.041 14.926 1.758 31.034 5.526 10.502 2.457 12.096 2.59 18.366 1.548 3.777-.628 9.177-2.237 12-3.576l5.134-2.435-3.139 2.838c-7.968 7.204-21.299 8.766-38.361 4.496zm-264.058-3.38c-7.572-2.297-15.252-8.678-17.486-14.526-2.533-6.633-1.663-19.346 1.78-26.025 3.634-7.05 6.287-9.197 23.46-18.983 16.608-9.463 31.732-15.508 40.304-16.108l5.5-.385-3.275 1.625c-5.486 2.722-12.667 11.446-14.675 17.83-2.124 6.753-1.506 15.727 1.488 21.596 2.035 3.989 7.385 7.925 10.77 7.925 1.141 0 2.315.39 2.61.866.787 1.274-7.48.13-10.59-1.465-3.24-1.664-6.186-5.692-7.605-10.401-4.278-14.198-.894-24.93 10.634-33.722 2.364-1.803 4.044-3.278 3.734-3.278-3.014 0-44.686 22.05-52.319 27.685-9.33 6.887-12.981 26.196-6.562 34.706 2.092 2.773 9.202 8.03 9.907 7.325.274-.274-.84-1.45-2.474-2.614-4.735-3.372-7.144-9.504-7.138-18.168.006-8.08 1.132-13.424 3.472-16.48 1.369-1.789 1.401-1.672.382 1.38-1.422 4.257-.654 22.793 1.084 26.166.708 1.375 3.357 4.637 5.885 7.25 5.43 5.61 8.003 5.97 18.817 2.635 8.29-2.558 15.466-6.103 25.959-12.826 4.343-2.782 8.255-5.06 8.695-5.06.44 0-2.71 2.97-7 6.6-14.673 12.419-34.705 19.685-45.357 16.452zm307.574-1.817c7.802-4.968 27.356-32.304 31.284-43.734 1.134-3.3 3.182-8.7 4.55-12 1.86-4.482 3.033-10.677 4.638-24.485 1.181-10.167 2.343-18.68 2.58-18.917.896-.896.373 28.674-.615 34.76-.567 3.498-2.321 9.203-3.897 12.679-1.576 3.475-3.178 7.814-3.559 9.64-.937 4.49-4.4 10.415-13.05 22.323-9.316 12.823-16.088 19.143-22.447 20.946-2.252.638-2.2.518.516-1.212zm-6.484-16.234c1.777-3.575 6.581-12.033 10.675-18.795 10.814-17.86 12.593-22.177 13.1-31.797.493-9.333-1.217-16.576-6.07-25.722-3.499-6.597-6.857-9.686-10.527-9.686-3.25 0-8.6-5.625-13.21-13.89-4.972-8.91-7.512-11.763-11.115-12.483-1.735-.347-5.878-2.655-9.208-5.13-7.182-5.337-8.992-5.507-20.75-1.946-9.491 2.874-16.094 3.327-30.072 2.062-13.15-1.19-17.736-.356-23.611 4.288-6.568 5.192-8.043 5.876-16.428 7.62-4.024.837-8.554 2.426-10.066 3.53-1.513 1.105-2.75 1.551-2.75.993 0-1.695 7.105-5.702 14.172-7.993 4.34-1.407 8.281-3.578 11.273-6.212 7.665-6.747 14.182-7.871 33.055-5.7 8.98 1.032 11.415.922 23.864-1.075 7.625-1.223 14.934-1.955 16.242-1.627 1.308.328 4.495 1.94 7.082 3.58 2.587 1.64 5.763 2.983 7.057 2.983 4.604 0 7.756 2.703 11.79 10.111 6.142 11.28 10.927 16.889 14.411 16.889 4.146 0 8.222 3.888 12.387 11.814 8.2 15.603 8.856 30.455 1.988 44.971-2.626 5.552-22.17 35.427-25 38.215-.836.825-.067-1.425 1.71-5zm-71.029 2.75c-1.811-1.238-4.465-3.81-5.898-5.715l-2.605-3.464 3 2.127c3.196 2.267 10.263 9.302 9.344 9.302-.302 0-2.03-1.013-3.841-2.25zm-9.503-11.91c-2.2-1.14-4.9-2.883-6-3.876-1.748-1.576-2.695-1.673-7.5-.769-11.138 2.097-34.009-.379-53-5.736-7.841-2.212-12.207-2.765-25-3.163-16.072-.5-17.457-.324-41 5.21-3.575.84-9.425 2.21-13 3.043-3.575.834-8.75 2.643-11.5 4.02l-5 2.504 3.648-3.287c4.4-3.964 5.883-6.81 11.476-22.015 4.63-12.59 7.688-19.224 10.153-22.028.85-.965 1.21-2.09.8-2.5-.408-.409-6.443-.91-13.41-1.115-16.766-.492-13.147-2.028 7.449-3.16 13.352-.735 26.354-2.602 32.006-4.595 1.033-.365 6.378-2.556 11.878-4.87s12.034-4.947 14.52-5.85c2.487-.904 7.662-3.945 11.5-6.758 7.91-5.796 21.183-12.4 32.964-16.402 6.948-2.36 9.153-2.657 17-2.294 6.082.281 9.992.98 12.016 2.145 2.595 1.495 2.662 1.63.5 1-3.96-1.156-18.424-.593-21.757.846-3.94 1.701-12.812 12.9-17.49 22.077-5.211 10.222-8.971 25.1-9.127 36.116-.12 8.426-.187 8.683-1.3 5-1.736-5.75-1.517-14.798.59-24.382 1.527-6.939 1.68-9.522.834-14.07-.725-3.896-.716-6.454.028-8.502l1.064-2.93.179 4c.38 8.505 1.774 9.205 1.991 1l.212-8 1.2 5.5c1.024 4.703 1.313 5.16 1.987 3.149.434-1.294 3.95-5.682 7.816-9.75 3.865-4.07 6.799-7.398 6.52-7.398-.28 0-3.6 1.155-7.378 2.566-8.996 3.362-18.158 8.417-27.147 14.979-4.003 2.922-9.628 6.069-12.5 6.993-2.872.925-8.46 3.212-12.418 5.083-6.921 3.272-7.343 3.678-11.06 10.64-2.124 3.981-5.286 9.489-7.026 12.239-1.74 2.75-3.821 7.475-4.625 10.5l-1.461 5.5-.208-4-.208-4-.672 4c-.656 3.903-.691 3.933-1.47 1.237-.438-1.52-.508-4.694-.154-7.053.354-2.36.177-6.516-.393-9.237-.655-3.123-.698-6.054-.118-7.947.791-2.583.931-2.13 1.005 3.25.047 3.437.423 6.236.836 6.22.412-.017 2.288-2.716 4.168-5.999 1.88-3.283 3.565-5.822 3.744-5.643.179.179-.79 3.172-2.154 6.65-1.363 3.479-2.303 6.144-2.088 5.923 1.193-1.23 11.893-16.553 12.302-17.619.363-.946-.436-.882-3.158.255-2.772 1.158-20.319 4.316-24.69 4.444-.946.028-4.4 8.576-6.877 17.019-2.233 7.61-8.007 20.198-10.584 23.078-2.374 2.653-1.607 2.895 2.88.91 2.36-1.044 6.185-2.201 8.5-2.571 4.136-.662 5.883-2.396 2.457-2.44-.963-.012-2.875-.902-4.25-1.977-2.929-2.291-2.044-2.59 1.8-.608 1.485.766 4.5 1.528 6.7 1.693 4.272.322 20.5-2.95 20.5-4.133 0-.39-.675-1.268-1.5-1.952-.825-.685-1.5-2.157-1.5-3.27 0-1.634.442-1.369 2.284 1.372 1.27 1.887 3.32 3.546 4.615 3.732 2.28.327 2.264.25-.721-3.5-1.679-2.109-3.344-5.184-3.7-6.834-.543-2.514-.152-2.189 2.408 2 4.693 7.676 5.25 8.133 10.773 8.863l5.159.681-1.41-4.681c-2.136-7.1-1.76-14.382 1.14-22.09 1.403-3.724 3.044-7.222 3.648-7.772.781-.712.891-.424.382.999-2.396 6.694-3.716 15.846-3.413 23.667.184 4.768.62 8.952.967 9.299.594.593 7.232 1.703 28.369 4.74l9 1.294v-14.5c-.001-15.607 1.247-22.374 6.09-33 2.471-5.425 10.316-19 10.98-19 .576 0-2.198 7.107-5.967 15.288-5.337 11.582-8.794 26.137-9.369 39.439-.48 11.1-.458 11.237 1.89 12.12 3.538 1.33 28.516 4.153 36.75 4.153h7.176l-1.411-2.75c-.777-1.513-1.95-5.45-2.607-8.75-.675-3.387-2.6-8.178-4.42-11-4.249-6.588-5.34-9.472-7.122-18.838-1.97-10.356-1.907-18.983.17-23.363.915-1.926 5.973-7.34 11.24-12.029 5.267-4.69 10.858-10.269 12.424-12.399 3.812-5.183 4.419-4.896 1.33.629l-2.514 4.5 4.18.003c4.553.003 16.514 1.905 32.179 5.116 7.149 1.465 11.996 1.89 17 1.49 6.846-.545 6.918-.527 3.295.848-7.12 2.703-12.098 2.823-23.93.58-6.25-1.184-14.065-2.846-17.365-3.692-3.3-.846-8.189-1.885-10.864-2.31l-4.864-.773-9.31 9.25c-11.34 11.266-12.332 13.635-10.548 25.192 1.847 11.96 3.91 18.307 7.81 24.016 2.592 3.792 4.066 7.566 5.391 13.802 2.012 9.469 4.171 13.255 9.403 16.488 1.915 1.184 3.482 2.34 3.482 2.57 0 .585-.034.572-4.5-1.74zm-160.99-7.34c1.333-3.3 2.962-8.369 3.62-11.264 1.135-5.002 1.075-5.39-1.218-7.844-1.327-1.42-5.218-4.645-8.647-7.168-3.43-2.524-6.061-4.761-5.85-4.973 1.018-1.018 10.76 5.135 13.851 8.747 2.867 3.35 3.606 3.777 4.136 2.395.887-2.31-1.545-4.787-10.346-10.533-4.094-2.673-6.794-4.85-6-4.838 2.76.042 9.742 3.8 13.697 7.373l3.979 3.595 1.632-4.245c.897-2.335 2.74-5.595 4.094-7.245l2.463-3-1.847 5c-1.016 2.75-2.85 9.05-4.076 14-2.436 9.831-6.506 19.583-9.806 23.5-1.995 2.366-1.978 2.178.318-3.5zm125.19-5.106c-5.693-4.436-10.306-11.455-12.806-19.485-2.394-7.693-2.324-9.696.144-4.14 3.34 7.52 10.154 18.484 14.245 22.922 2.185 2.37 3.763 4.309 3.508 4.309-.254 0-2.545-1.623-5.09-3.606zm-41.005-6.126c-5.763-8.347-7.103-12.957-7.49-25.768-.497-16.405 1.256-21.106 2.235-5.998.896 13.812 2.856 23.586 6.01 29.961 1.35 2.73 2.319 5.101 2.151 5.268-.167.168-1.475-1.39-2.906-3.463zm-12.78-3.726c-2.291-5.181-3.424-18.138-1.912-21.886.745-1.847.88-1.654.935 1.344.04 2.09 1.901 7.064 4.625 12.355 2.508 4.87 4.376 9.039 4.15 9.264-.225.226-2.083-1.96-4.13-4.855l-3.72-5.264.709 4c.39 2.2 1.107 5.074 1.596 6.388 1.676 4.508-.144 3.42-2.252-1.346zm-14.91-42.233c-.003-.655.376-1.427.842-1.715.466-.288 2.766-5.507 5.11-11.598 4.99-12.968 11.153-20.742 19.54-24.647 7.385-3.44 12.467-3.05 21.503 1.65 4.125 2.146 7.116 3.924 6.646 3.951-.47.027-4.606-1.12-9.191-2.55-8.208-2.56-8.418-2.573-13.443-.904-7.955 2.642-15.578 10.366-21.452 21.736-4.866 9.418-9.546 16.313-9.555 14.077zm230.646-19.966c-2.032-2.385-4.472-3.797-8.5-4.92-11.476-3.196-12.771-3.857-18.67-9.52-3.311-3.177-7.176-6.217-8.588-6.754-1.412-.537-7.029-1.507-12.48-2.155-5.452-.649-10.1-1.363-10.33-1.587-.229-.224 4.623-.407 10.782-.407 13.411 0 15.639.79 23.294 8.258 4.044 3.945 7.182 6.015 11 7.255 7.82 2.539 12.073 5.151 14.752 9.062 3.117 4.55 2.355 5.013-1.26.768zm-177.208-20.985c-3.056-7.043-4.359-12.336-4.957-20.138-.325-4.246-1.683-15.145-3.017-24.22-1.333-9.075-2.861-24.15-3.394-33.5-1.05-18.388-3.732-31.045-8.66-40.858-2.178-4.334-2.264-4.816-.592-3.302 2.87 2.596 7.67 12.145 10.135 20.16 1.613 5.243 2.502 12.394 3.543 28.5.765 11.825 2.108 25.325 2.986 30 .878 4.675 2.001 14.8 2.497 22.5.496 7.7 1.586 16.229 2.422 18.953 1.862 6.064 1.313 7.15-.963 1.905zm148.545-8.088c-1.819-4.554-2.365-8.09-2.589-16.77-.226-8.77-.096-10.088.64-6.5 1.53 7.454 4.843 28.45 4.538 28.756-.156.156-1.321-2.313-2.589-5.486zm-4.425-44.75c-1.495-19.697 2.438-47.714 10.39-74.02 1.664-5.5 3.03-11.04 3.036-12.31.006-1.27.45-2.037.986-1.706 1.43.884.366 7.664-4.592 29.259-3.325 14.481-4.793 23.637-5.934 37-.834 9.766-1.862 21.132-2.284 25.257l-.768 7.5zm-129.984-42.648c.855-1.384 13.45-7.177 14.128-6.499.492.492-7.621 4.883-12.327 6.672-1.791.681-2.3.633-1.801-.173zm31.603-.392c-5.12-2.224-8.499-4.973-10.615-8.635l-1.933-3.345 4.135 3.704c2.274 2.037 5.957 4.91 8.183 6.383 5.533 3.661 5.602 4.226.23 1.893zm-70.68-15.736c-4.864-6.734-10.887-14.382-13.385-16.994-2.498-2.613-4.19-4.75-3.76-4.75 2.247 0 10.336 6.935 14.181 12.16 4.824 6.551 12.923 20.712 12.239 21.396-.238.238-4.412-5.078-9.275-11.812zm55.094-.621c-1.902-8.364-2.015-13-.408-16.808 1.038-2.462 1.286-1.19 1.97 10.132.43 7.12.613 13.115.408 13.32-.206.205-1.092-2.785-1.97-6.644zM75.504 214.05c-.55-.195-7.773-.846-16.052-1.447-8.278-.6-16.702-1.547-18.719-2.104-4.001-1.105-9.147-4.98-10.858-8.176-.835-1.56-.2-1.326 2.773 1.025 4.865 3.846 9.883 5.203 19.275 5.21 7.312.005 7.668-.118 24.5-8.507 18.423-9.181 24.952-11 43.08-12l8-.442-17 4.278c-9.472 2.385-22.533 6.542-29.5 9.39-6.874 2.811-14.3 5.71-16.5 6.44l-4 1.33 7 .634c13.603 1.232 26.22.859 40.528-1.2 14.53-2.09 25.848-2.093 31.065-.007 1.86.744.59.98-5.592 1.039-4.4.042-15.65 1.186-25 2.543-14.907 2.164-29.962 3.074-33 1.995zm89-17.015c-2.2-.793-6.925-1.46-10.5-1.48-8.184-.05-14.473-1.48-18.208-4.14-3.641-2.592-2.95-3.657.785-1.21 2.21 1.449 4.626 1.777 12.284 1.67 8.295-.116 10.455.232 16.614 2.679 3.894 1.547 8.193 3.02 9.552 3.275 1.454.272.618.5-2.027.554-2.475.051-6.3-.556-8.5-1.348zm12.79-2.436c-1.765-1.076-4.137-3.775-5.27-5.996-1.133-2.222-2.528-4.04-3.1-4.04-.57 0-.717.52-.325 1.155.446.72.274.883-.456.432-2.188-1.353-4.14-7.814-4.14-13.709 0-3.251.448-5.877 1-5.877.55 0 1 2.319 1 5.153 0 4.726.331 5.459 3.98 8.827 2.188 2.02 4.626 5.222 5.417 7.116 1.634 3.911 4.022 6.35 7.624 7.788l2.48.989-2.5.06c-1.375.032-3.944-.822-5.71-1.898zm173.213-3.592c5.271-6.472 6.243-8.587 7.698-16.756 2.056-11.546-2.428-24.11-11.522-32.286-5.538-4.979-4.98-5.851.98-1.534 10.04 7.273 14.758 16.466 14.697 28.633-.043 8.636-2.708 15.204-8.654 21.326-6.439 6.63-8.406 7.01-3.2.617zm-32.859 2.926c-2.67-.82-4.617-1.73-4.326-2.02.559-.56 22.848 2.483 23.584 3.22 1.119 1.118-14.974.116-19.258-1.2zm-291.167-6.37c1.839-13.609 16.072-26.947 35.146-32.934 9.837-3.088 53.798-7.08 57.062-5.182 1.516.882 1.216 1.06-1.825 1.086-2.001.017-7.176.68-11.5 1.472-4.323.793-13.573 1.936-20.556 2.54-19.677 1.704-29.124 4.79-41.33 13.5-7.502 5.353-11.908 10.676-15.18 18.34l-2.424 5.679Zm160.623 1.705c-1.265-2.106-1.243-2.128.479-.478.99.95 1.587 1.941 1.324 2.204-.264.263-1.075-.513-1.803-1.726zm106.4-.575c-1.65-1.025-4.125-3.109-5.5-4.631l-2.5-2.768 4.5 2.885c4.056 2.6 5.337 2.885 13 2.885 4.675 0 9.85-.342 11.5-.76 1.976-.5 1.293.093-2 1.737-6.264 3.128-14.555 3.412-19 .652zm-106.842-7.264c1.013-1.725 2.96-3.862 4.328-4.75 1.913-1.243 1.576-.52-1.462 3.135-4.592 5.525-5.447 6.006-2.866 1.615zm65.842-1.513c-1.65-.267-7.95-1.616-14-2.998-8.256-1.886-12.341-2.346-16.376-1.846-2.956.367-10.156.32-16-.102-12.123-.877-11-1.241 10.376-3.366 11.624-1.155 12.36-1.109 23.5 1.469 6.345 1.468 17.335 3.077 24.52 3.588 7.16.51 15.035 1.323 17.5 1.806l4.48.877-5.095.11c-2.801.06-9.776.298-15.5.528-5.723.23-11.755.2-13.405-.066zm84.345-27.408c-.677-15.388-6.006-23.846-18.8-29.84-4.568-2.141-7.317-2.658-15.603-2.937-11.008-.37-32.425 2.696-50.942 7.295-36.685 9.11-44.063 10.538-54.44 10.538-4.165 0-8.949.394-10.63.876-2.1.602-3.975.459-5.993-.459l-2.937-1.335 2.812.583c1.67.346 4.315-.095 6.51-1.085 3.263-1.472 4.14-2.714 7.44-10.537 2.261-5.357 3.476-9.561 3.07-10.62-.459-1.195-.3-1.522.498-1.028 2.459 1.52.789 8.982-3.57 15.949-1.322 2.114-2.184 4.065-1.915 4.334 1.238 1.238 21.333-2.264 43.655-7.608 13.475-3.226 27.793-6.407 31.818-7.07 6.2-1.02 7.206-1.456 6.584-2.852-1.534-3.447-1.567-16.689-.058-23.148 1.675-7.172 6.102-17.886 5.165-12.5-1.976 11.353-4.222 31.55-3.771 33.907.532 2.785.637 2.826 5.652 2.188 22.418-2.852 24.438-2.846 34.11.11 9.979 3.048 18.377 10.239 22.256 19.055 1.849 4.201 2.159 18.97.488 23.24-.775 1.978-1.066.506-1.4-7.056zm-178.737 2.27c-6.433-12.744-6.248-20.352.74-30.429 5.778-8.332 7.444-11.084 6.27-10.359-.598.37-3.196 3.688-5.773 7.373-7.038 10.066-10.12 12.963-18.367 17.263-4.136 2.158-9.199 5.552-11.25 7.544-2.05 1.992-3.728 3.122-3.728 2.51 0-2.257 7.527-9.34 14.037-13.208 4.325-2.57 9.428-6.973 14.364-12.395 7.95-8.734 18.273-16.999 15.009-12.017-.876 1.338-4.027 7.5-7.002 13.694-6.344 13.212-6.77 17.332-2.915 28.255 1.347 3.82 2.267 7.127 2.044 7.35-.223.224-1.766-2.287-3.429-5.58zm23.32-23.01c.736-2.088 2.491-6.025 3.9-8.75 3.504-6.784 4.193-10.101 2.534-12.217-1.232-1.572-1.195-1.607.388-.365 3.263 2.559 2.271 8.78-2.775 17.398-2.488 4.251-4.718 7.73-4.955 7.73-.237 0 .171-1.709.908-3.796zm-7.896-3.704c.852-4.226 4.661-10.392 8.958-14.5 3.541-3.386 3.479-3.205-1.902 5.5-7.735 12.515-7.775 12.566-7.056 9zm37.218 1.923c-.413-.416-.75-4.945-.75-10.064 0-9.145-.048-9.333-2.752-10.731-1.514-.783-3.553-2.308-4.53-3.388-1.524-1.683-1.034-1.596 3.42.608 6.634 3.283 16.867 3.6 24.362.752 6.374-2.42 16.603-8.975 23.327-14.947 2.882-2.56 5.476-4.653 5.764-4.653 1.428 0-9.84 11.746-15.091 15.733-9.717 7.375-13.578 8.774-24.073 8.72l-9.073-.048.439 7.577c.475 8.218.135 11.629-1.043 10.44zm-39.186-5.423c.31-1.925 1.205-6.2 1.987-9.5l1.421-6-.328 6c-.18 3.3-1.074 7.575-1.987 9.5l-1.659 3.5zm23.71-30.339c-7.336-12.264-7.779-14.284-7.494-34.161.181-12.686.721-19.624 1.828-23.5 5.564-19.479 20.425-33.926 37.441-36.401 5.775-.84 23.017 1.705 30.486 4.5 14.507 5.427 24.607 19.233 24.385 33.332l-.08 5.069-1.387-6.398c-2.746-12.66-11.68-23.25-25.033-29.673-10.12-4.868-16.65-6.111-24.464-4.659-12.615 2.347-23.57 9.42-30.308 19.573-6.5 9.793-7.726 14.392-8.774 32.942-1.074 18.998-.411 24.815 4.18 36.662 1.586 4.096 2.768 7.564 2.624 7.708-.144.143-1.675-2.104-3.404-4.994zm83.739-22.439c3.806-3.806 6.987-11.642 6.987-17.213 0-2.87-1.65-5.476-4-6.315-.995-.356-.767-.563.677-.616 1.25-.045 3.104 1.094 4.349 2.672 1.72 2.178 2.08 3.706 1.733 7.351-.607 6.388-4.238 13.413-8.198 15.86-5.08 3.14-5.715 2.427-1.548-1.739z"/></svg>