<svg xmlns="http://www.w3.org/2000/svg" width="539.414" height="651.186"><path d="M19.902 650.715c-1.375-.2-4.975-.873-8-1.495-5.048-1.037-5.294-1.21-3-2.106 1.375-.536 20.5-1.368 42.5-1.848s42.459-1.32 45.465-1.867c15.458-2.812 16.242-3.08 15.688-5.385-1.698-7.068-2.73-15.442-2.23-18.107.56-2.982.426-3.117-4.182-4.212-2.618-.622-9.706-3.457-15.75-6.301-6.046-2.844-13.653-5.912-16.907-6.817-5.656-1.572-5.964-1.563-7 .205-4.728 8.069-7.772 11.451-14.084 15.646-8.561 5.689-21.784 11.28-30.5 12.895-8.724 1.618-15.528 5.427-18.453 10.333-2.179 3.653-2.388 3.772-3.039 1.723-1.66-5.232 1.852-11.657 8.14-14.885 1.18-.606 7.256-2.42 13.5-4.032 12.672-3.27 31.785-12.616 39.131-19.135l4.117-3.654-5.89-.608c-10.706-1.105-13.998-5.38-12.867-16.712.412-4.125.787-17.175.832-29 .08-20.63.212-22.026 3.267-34.5 2.019-8.247 3.767-19.187 4.78-29.92 2.372-25.13 6.498-42.785 12.994-55.604 1.368-2.7 2.488-5.97 2.488-7.265s.717-4.459 1.593-7.03c2.327-6.83 8.095-11.392 20.138-15.928 5.471-2.06 12.749-5.557 16.173-7.77 9.165-5.923 18.713-10.51 27.139-13.036 4.101-1.23 9.64-3.326 12.307-4.659 2.668-1.333 7.397-2.872 10.51-3.42l5.661-.998.104-5.685c.06-3.286 1.42-9.907 3.22-15.685 1.715-5.5 4.263-15.4 5.663-22 3.492-16.463 8.37-31.574 8.461-26.211.017.984-.434 6.16-1.003 11.5-2.05 19.266-6.84 39.085-12.587 52.08-1.308 2.958-2.38 5.48-2.38 5.604 0 .899 19.406 1.254 22.459.41 3.73-1.03 3.765-1.087 3.13-5.063-.355-2.213-1.55-5.665-2.658-7.672l-2.014-3.648.599 3.812c.71 4.52-1.206 11.396-2.747 9.856-.585-.586-1.152-8.563-1.338-18.842-.247-13.636.135-21.111 1.624-31.8 2.185-15.691 2.434-20.946.946-20.026-.57.351-1-.51-1-2 0-1.491-.43-2.352-1-2-1.391.86-1.257-.391.64-5.96 1.318-3.865 1.523-7.106 1.04-16.428-1.202-23.254-7.928-36.869-24.177-48.94-5.083-3.776-5.543-4.355-3.003-3.778 10.612 2.408 21.005 10.768 26.936 21.666 3.529 6.483 6.564 18.852 6.564 26.749v6.489l5.09-6.725c2.8-3.699 5.292-6.524 5.537-6.28 1.089 1.09-6.847 18.218-11.762 25.387-1.576 2.299-2.865 4.405-2.865 4.68 0 .275 1.25.141 2.778-.297 6.394-1.833 12.175-5.776 19.594-13.361 8.168-8.35 8.82-8.08 3.936 1.638-3.054 6.075-9.356 12.98-13.749 15.064-1.849.878-5.704 1.596-8.567 1.596-4.576 0-5.116.211-4.459 1.75 3.035 7.102 3.592 12.08 2.83 25.25-1.152 19.868-1.048 20.843 3.256 30.654 3.618 8.246 3.88 9.49 3.874 18.346-.007 8.816-.257 10.003-3.472 16.5l-3.463 7-.332-4.164c-.183-2.29.088-7.24.601-11 .514-3.76.787-7 .606-7.2-.18-.2-1.504.56-2.941 1.691-3.035 2.387-10.467 3.98-18.957 4.062-7.635.074-15.966 1.799-20.971 4.342-2.165 1.1-7.115 2.878-11 3.952-7.65 2.115-19.888 7.88-26.761 12.607-2.367 1.627-8.312 4.617-13.21 6.644-15.702 6.498-20.502 10.925-22.541 20.79-.651 3.15-2.987 10.35-5.192 16-5.713 14.646-6.71 19.187-8.39 38.19-.822 9.304-3.088 24.829-5.037 34.5-4.042 20.068-5.01 28.752-3.975 35.656.724 4.83.743 4.789 8.675-19.615 7.83-24.093 12.912-36.918 15.465-39.037 1.73-1.436-2.32 13.541-7.054 26.082-1.973 5.225-5.372 15.692-7.554 23.26-2.182 7.57-5.044 15.894-6.36 18.5-2.676 5.3-4.354 20.453-2.848 25.721.727 2.545 1.5 3.095 5.285 3.753 17.85 3.107 27.892 6.683 43.047 15.33 6.202 3.54 11.414 6.436 11.582 6.436.167 0 .304-.529.304-1.174 0-.646 1.873-4.938 4.162-9.537l4.163-8.364-2.232-13.713-2.232-13.712 2.068-6.5c1.472-4.626 4.355-9.61 9.999-17.283 9.581-13.027 11.401-17.959 14.054-38.082 2.25-17.07 4.775-27.278 6.356-25.697.727.727.538 6.973-.619 20.504-1.914 22.392-4.341 31.545-10.753 40.558-4.218 5.928-9.036 13.174-15.62 23.492l-4.153 6.51 2.821 5.249c8.382 15.594 7.313 25.556-3.861 36.009l-5.036 4.71 3.522 7.624c4.153 8.989 4.803 15.155 1.931 18.328-3.131 3.46-11.1 5.066-30.162 6.079-16.984.902-62.05 1.144-67.408.361zm494.5-7.036c-16.581-1.1-54.936-7.291-53.579-8.648 2.05-2.05 19.311-1.901 34.079.293 12.033 1.788 16.754 2.036 27.75 1.457 12.147-.64 13.25-.858 13.25-2.614 0-1.274-1.257-2.432-3.75-3.455-14.089-5.782-22.25-11.779-22.25-16.349 0-1.78.169-1.75 2.312.393 1.272 1.272 4.893 3.278 8.047 4.458 12.382 4.633 16.203 7.6 18.489 14.356 1.587 4.692.371 7.255-4.09 8.618-4.023 1.229-13.594 1.933-20.258 1.491zm-72.668-4.807c-3.946-2.214-4.362-6.066-1.482-13.717l2.444-6.493-2.815-1.663c-10.958-6.473-10.612-16.826.94-28.109 7.112-6.947 6.98-8.317-2.649-27.587l-7.77-15.549-7-3.842c-25.577-14.04-54.005-34.968-71.5-52.634-6.875-6.942-14.539-13.8-17.03-15.24-2.492-1.44-10.124-4.933-16.959-7.762-12.356-5.113-12.458-5.136-17.638-3.893-9.434 2.263-16.769.911-43.362-7.99-14.707-4.924-28.443-10.23-34.387-13.283-15.59-8.008-26.659-17.918-32.094-28.736-4.5-8.957-4.033-9.767 1.74-3.021 13.97 16.328 34.548 29.225 58.73 36.808 12.145 3.81 20.092 6.478 27 9.066 7.522 2.818 14.43 2.635 28.525-.754 6.586-1.584 16.25-3.127 21.475-3.43 12.79-.739 20.223-3.239 41.035-13.804 12.094-6.139 19.697-9.359 24.5-10.376 7.744-1.64 11.479-1.889 11.437-.76-.04 1.076-51.312 25.707-58.472 28.088-3.719 1.238-11.323 2.402-20 3.062-7.7.587-15.35 1.455-17 1.93-2.818.812-2.667.908 2.5 1.584 17.987 2.353 24.816 6.46 47.456 28.543 16.344 15.941 19.822 18.794 35.58 29.175 9.605 6.329 20.311 13.217 23.792 15.307 7.363 4.422 12.01 8.99 20.407 20.06 7.91 10.429 12.767 20.507 12.758 26.472-.007 5.13-1.375 7.514-8.134 14.18-2.668 2.632-4.936 5.921-5.335 7.739-.81 3.69 2.078 14.02 4.143 14.812.943.362 1.333 2.661 1.333 7.87 0 8.353.334 8.755 8.25 9.942 5.35.803 5.908 1.637 2.217 3.318-4.391 2.001-9.771 2.294-12.635.687zM66.902 625.709c-3.704-1.51-6-4.752-6-8.472 0-2.071.45-4.045 1-4.384.565-.35 1 .476 1 1.902 0 1.386 1.012 3.48 2.25 4.654 2.172 2.062 2.796 2.111 18.122 1.437 16.747-.737 18.706-.14 9.877 3.017-4.81 1.72-23.36 3.024-26.25 1.846zm397-5.48c-11.211-3.025-21-6.303-21-7.034 0-1.485 14.374-.9 20.54.835 4.013 1.13 9.949 1.698 18.17 1.74 6.715.034 11.89.349 11.5.699-.39.35-3.315 1.592-6.498 2.76-6.214 2.28-16.316 2.724-22.712 1zm5.5-8.558c-3.3-1.378-6.222-2.724-6.493-2.989-.271-.265 3.104-.388 7.5-.274 4.396.115 10.468-.14 13.493-.567l5.5-.777-1.841 2.074c-2.214 2.494-7.753 5.248-10.31 5.127-1.017-.047-4.55-1.215-7.85-2.594zm40.935-4.662 4.934-4.43-1.705-11.363c-3.314-22.087-4.646-36.511-4.557-49.363.089-12.77.116-12.92 1.523-8.5 1.84 5.78 3.91 18.844 5.783 36.5.816 7.7 2.507 18.19 3.756 23.311 2.07 8.481 2.138 9.551.765 12-1.79 3.195-4.824 4.757-10.934 5.63l-4.5.644zm-61.403-4.156c1.295-2.2 5.798-9.175 10.007-15.5 14.32-21.518 18.951-31.101 23.53-48.69 5.294-20.338 9.317-30.367 7.946-19.81-1.996 15.378-5.483 26.476-13.096 41.69-7.85 15.688-21.653 37.718-26.51 42.31l-4.23 4zm9.004-23.5c-.044-1.432 20.689-44 21.43-44 .538 0-2.141 10.908-3.875 15.778-2.93 8.234-10.075 21.51-13.776 25.597-2.225 2.458-3.752 3.518-3.779 2.625zm-347.399-24.647c-.46-5.58-1.6-24.875-2.533-42.875-1.654-31.935-1.411-45.571.852-47.834.725-.726 1.043 6.11 1.041 22.406-.002 12.897.484 33.8 1.08 46.45 1.206 25.629.945 38.608-.44 21.853zm400.135-29.603c-.125-2.888-.245-13.575-.267-23.75-.031-15.135-.342-19.15-1.709-22.068-2.741-5.854-10.374-15.333-16.528-20.525-3.172-2.677-9.593-8.5-14.268-12.942-10.473-9.95-14.024-12.369-30.752-20.942-9.546-4.893-15.12-8.503-19.927-12.908l-6.675-6.115h-6.238c-3.431 0-6.577-.338-6.99-.75-1.404-1.401.734-2.25 5.665-2.25 2.704 0 4.917-.038 4.917-.084 0-.046-2.399-1.736-5.33-3.755-2.932-2.02-6.388-4.797-7.68-6.172-2.087-2.222-1.129-1.972 8.58 2.236 9.887 4.286 11.645 5.466 18.43 12.37 6.398 6.512 9.278 8.535 19.61 13.776 16.676 8.461 26.164 15.792 45.452 35.12 19.999 20.038 19.438 18.798 19.438 43.009 0 12.81-.416 18.12-1.858 23.75-1.022 3.987-2.26 7.25-2.75 7.25-.49 0-.995-2.363-1.12-5.25zm-358.929-16.53c8.346-11.72 35.228-28.763 57.157-36.234 3.575-1.218 13.25-4.826 21.5-8.017 14.39-5.567 27.266-9.536 28.13-8.672.525.524-5.876 4.767-11.581 7.677-2.423 1.237-13.213 5.14-23.978 8.673-24 7.879-33.39 12.49-52.197 25.632-8.044 5.621-16.116 11.083-17.937 12.138l-3.311 1.917zm116.808-36.241c-9.467-.885-18.21-2.651-20.651-4.17-.938-.585 3.937-.647 13-.168 7.975.422 24.953.816 37.728.875 12.776.059 23.526.404 23.889.767.363.364-.64 1.21-2.228 1.883-3.505 1.484-38.656 2.036-51.738.813zm152.849.34c-5.674-1.27-11.449-3.593-10.949-4.402 1.118-1.81 18.2-.999 27.235 1.292 8.697 2.206 8.706 2.211 4.714 2.943-4.317.79-17.741.898-21 .167zm10.5-7.96c-31.072-2.808-44-5.017-44-7.517 0-1.205 11.434-.803 29 1.02 5.775.6 16.976 1.564 24.89 2.143 14.873 1.088 19.804 2.206 14.45 3.276-4.383.877-19.27 1.536-24.34 1.078zM202.349 449.27c-3.88-.453-12.43-1.994-19-3.425-6.571-1.43-16.33-3.486-21.686-4.57-17.585-3.557-36.498-11.553-42.182-17.834l-1.917-2.118 3.92 1.386c2.154.762 8.868 3.642 14.918 6.401 17.532 7.996 20.49 8.84 48 13.71 19.446 3.44 30.12 5.82 31.27 6.97.723.723-4.392.523-13.323-.52zm-11.811-9.959c-9.373-1.053-21.683-4.13-30.636-7.66-6.306-2.485-19-9.072-19-9.859 0-.942 7.468 1.182 19.5 5.547 16.215 5.882 15.531 5.724 32.419 7.506 7.714.814 15.5 2.125 17.303 2.913 3.074 1.343 3.122 1.438.778 1.523-1.375.05-4.75.275-7.5.502-2.75.227-8.54.014-12.864-.472zm67.864-3.32c-7.242-3.394-14.93-9.858-20.133-16.925-6.675-9.068-7.406-10.761-3.1-7.182 1.966 1.633 7.772 6.412 12.903 10.619 9.92 8.133 17.86 15.857 16.283 15.84-.524-.004-3.203-1.064-5.953-2.352zm6.807-9.63c-19.474-6.925-42.178-23.964-54.842-41.158-4.838-6.57-8.907-13.74-8.199-14.449.223-.223 4.294 4.026 9.046 9.441 17.128 19.52 30.33 30.633 44.688 37.617 10.056 4.892 13.058 6.538 15.885 8.71 2.084 1.6 2.147 1.822.5 1.758-1.037-.04-4.222-.904-7.078-1.92zm139.369-6.182c-3.33-5.19-8.676-20.508-8.676-24.86 0-.995-1.576-3.757-3.502-6.138-7.234-8.938-9.498-13.06-9.492-17.273l.006-4.054 1.52 3c.837 1.65 4.845 6.15 8.906 10 5.705 5.407 7.598 7.91 8.323 11 .517 2.2 2.416 10.12 4.222 17.6 1.806 7.48 3.07 14.23 2.808 15-.292.861-1.875-.783-4.116-4.275zm-63.676-22.16c4.778-4.86 14.202-10.337 21.855-12.702 6.52-2.014 22.474-2.84 20.595-1.067-.523.494-7.25 2.785-14.95 5.091-7.7 2.307-17.375 5.818-21.5 7.802s-7.95 3.794-8.5 4.022c-.55.228.575-1.187 2.5-3.145zm41.388-36.165c-1.162-2.2-3.137-7.15-4.388-11-3.238-9.961-5.104-13.374-15.31-28-13.44-19.26-18.363-29.284-21.118-43-.579-2.881-.54-2.92.975-1 .869 1.1 4.106 6.725 7.194 12.5 7.796 14.575 13.564 23.583 14.091 22.002.244-.732-.1-7.894-.763-15.916-.664-8.023-1.3-16.161-1.414-18.086-.114-1.925-1.267-5.677-2.562-8.337-3.42-7.024-2.592-13.767 3.19-25.973 3.794-8.01 4.826-11.596 6.69-23.244 2.249-14.063 5.457-25.368 8.388-29.551 2.113-3.017 2.096-2.408-.417 14.605-4.61 31.212-4.465 30.579-9.287 40.5-4.613 9.492-4.617 9.509-4.677 20.5-.055 10.27.174 11.597 3.447 20 2.269 5.822 3.525 10.765 3.56 14 .078 7.408 1.882 18.644 3.366 20.966 2.225 3.48 9.696 24.433 10.755 30.162.554 2.998.87 7.12.7 9.161l-.308 3.71Zm-12.999-2.09c-8.56-5.7-29.825-28.824-39.307-42.743-3.482-5.112-7.082-14.155-7.082-17.79 0-1.408 1.85.876 5.25 6.484 10.039 16.555 18.315 27.206 30.8 39.639 13.95 13.888 16.739 17 15.244 17-.558 0-2.765-1.166-4.905-2.59zM210.33 312.716c-.893-5.955.035-17.997 1.685-21.863 1.217-2.851 1.327-2.552 2.201 6.027.928 9.095-.363 20.473-2.323 20.473-.477 0-1.18-2.087-1.563-4.637zm11.775-3.022c-1.233-3.14-1.664-8.243-1.337-15.841l.215-5 1.625 3c1.9 3.508 2.977 16.458 1.577 18.96-.844 1.508-1.102 1.37-2.08-1.12zm37.397-24.854c-13.407-2.183-23.127-5.106-33.1-9.954-10.62-5.164-15.915-9.971-21.485-19.509-2.248-3.85-5.308-7.662-6.8-8.472l-2.714-1.472 3.881-.04c4.195-.044 4.509.225 17.948 15.336 6.798 7.643 11.946 10.464 25.67 14.066 22.76 5.974 43.923 7.286 58.283 3.613 9.637-2.465 12.192-3.813 22.896-12.085 9.267-7.162 15.242-10.505 20.751-11.606 4.846-.97 3.726.29-9.775 10.993-24.105 19.109-25.72 19.767-49.654 20.242-11.59.23-19.832-.123-25.9-1.111zm-78.74-55.356-14.572-10.773 1.843-6.93c1.014-3.81 2.691-9.605 3.728-12.877l1.884-5.948 5.38.275c2.957.152 8.94.892 13.292 1.646 5.179.897 8.525 1.043 9.684.423 3.333-1.784 8.768-.944 23.029 3.558 17.31 5.465 25.29 6.945 33.062 6.133 6.97-.729 9.268-1.815 12.722-6.015 1.413-1.718 5.048-5.415 8.079-8.215 38.274-35.366 43.836-39.914 53.838-44.028 8.637-3.553 9.103-2.857 1.538 2.3-12.043 8.21-20.23 15.072-47.132 39.508l-15.07 13.688 5.334.667c6.53.815 19.502-1.179 19.502-2.999 0-2.777 4.704-6.988 10.94-9.792 8.23-3.7 10.695-5.948 13.543-12.344 2.3-5.166 6.738-10.293 12.396-14.322 4.032-2.872 3.934-1.801-.504 5.472-1.993 3.268-4.728 8.417-6.078 11.442-4.394 9.848-8.063 12.538-20.435 14.982-3.164.624-6.414 1.97-7.405 3.065-1.65 1.823-1.654 1.953-.053 1.953.943 0 1.468.398 1.167.884-.3.487 1.588.885 4.197.885 5.082 0 10.199 1.85 14.232 5.144l2.5 2.042-2.575.022c-1.416.013-5.882-1.102-9.925-2.477-9.045-3.077-11.251-3.113-15.129-.25-2.731 2.016-4.258 2.258-14.71 2.331-6.413.045-15.784.688-20.823 1.429-7.532 1.107-10.201 1.118-15 .062-10.558-2.324-24.731-7.2-31-10.666-6.406-3.54-9.885-4.264-10.574-2.2-.245.735-3.117 1.36-7.333 1.596-6.617.37-9.014-.174-18.431-4.186-1.255-.534-1.5.56-1.5 6.71 0 6.494-.364 7.936-3.128 12.382l-3.128 5.032 6.128 1.693c7.642 2.113 13.433 5.442 17.476 10.047 2.862 3.259 4.972 8.033 3.987 9.018-.223.223-6.963-4.442-14.977-10.367zm20.338-7.381c2.382-7.381 2.905-10.537 2.589-15.619-.389-6.253-.364-6.328 1.396-4.155 4 4.94 4.291 14.33.663 21.4-1.299 2.532-5.925 7.624-6.926 7.624-.39 0 .636-4.163 2.278-9.25zm-58.197-4.085c-3.025-1.258-6.85-3.03-8.5-3.936l-3-1.65 4-.14c3.501-.121 3.688-.239 1.5-.94-1.375-.44-4.3-.877-6.5-.97-2.2-.094-4.9-.527-6-.964-1.56-.62-.68-1.074 4-2.066 6.85-1.45 13.998-.436 22.065 3.132 6.375 2.82 13.435 7.154 13.435 8.247 0 .88-6.12.303-11-1.038-2.246-.618-2.36-.517-1.128.986 1.215 1.48 1.1 1.67-1 1.65-1.305-.013-4.847-1.053-7.872-2.311zm-25.91-9.056c-1.23-1.483-1.157-2.049.57-4.406 4.016-5.479 10.417-7.165 20.09-5.294 2.47.478 4.25.444 4.25-.082 0-.497-2.46-7.092-5.467-14.656-3.39-8.528-5.7-16.016-6.082-19.712l-.616-5.96 5.568 11.332c6.474 13.177 8.597 19.671 8.597 26.305 0 4.61-.111 4.791-3.25 5.302-11.849 1.929-15.22 2.69-18.238 4.123-1.87.887-3.537 2.319-3.706 3.181-.27 1.384-.472 1.369-1.717-.133zm40.271-6.188c-1.856-1.968-3.856-4.477-4.444-5.576-.94-1.755-.847-1.877.757-1.007 3.635 1.97 9.812 10.162 7.663 10.162-.33 0-2.12-1.61-3.976-3.579zm-61.859-.94c-4.65-2.513-6.23-4.253-13.599-14.981-3.778-5.5-11.127-14.63-16.331-20.289-11.815-12.846-14.383-17.86-15.819-30.89-1.317-11.95.553-25.34 4.733-33.883 2.799-5.72 5.033-7.416 3.543-2.688-1.196 3.794-2.546 22.754-2.449 34.393.108 12.935 2.264 17.272 15.742 31.667 5.629 6.011 13.32 15.284 17.092 20.604 7.432 10.485 9.092 11.74 17.943 13.565 7.257 1.495 6.294 3.225-2.092 3.756-3.998.254-6.684-.13-8.763-1.254zm137.498-1.937c0-2.874 5.827-10.595 13.833-18.33 8.39-8.108 9.452-9.505 8.364-11-4.103-5.64-5.436-10.53-4.986-18.296l.449-7.755-2.299 1.668c-1.264.918-2.312 2.222-2.33 2.898-.059 2.32-3.248 9.27-4.253 9.27-1.034 0-.64-4.144.687-7.25.66-1.544.107-1.75-4.708-1.75-4.405 0-6.304-.574-9.857-2.981-5.045-3.42-6.79-3.644-11.076-1.428-3.113 1.61-9.451 1.574-13.199-.075-1.832-.806-1.832-.761 0 2.036 1.35 2.06 1.847 4.553 1.776 8.905-.093 5.746-2.756 14.522-4.021 13.257-.327-.327-.659-6.154-.737-12.95-.115-9.912-.49-12.882-1.893-15.023-2.463-3.757-2.28-3.883 2.5-1.713 5.58 2.532 7.35 2.46 12.962-.527 6.206-3.304 8.613-3.163 17.063 1 4.849 2.388 8.394 3.468 11.165 3.4 6.856-.168 8.779-1.176 11.5-6.026 3.068-5.469 8.881-12.874 10.106-12.874 1.307 0-5.666 15.718-8.96 20.198-2.592 3.523-2.768 4.27-1.912 8.08.519 2.309 1.74 6.003 2.715 8.21.975 2.206 2.085 5.26 2.467 6.787l.695 2.775 7.224-6.145c3.974-3.38 7.827-6.709 8.562-7.398 1.105-1.036.501-2.693-3.476-9.537-4.357-7.498-4.84-8.957-5.089-15.377-.224-5.776-.075-6.629.798-4.593 1.145 2.666 3.539 7.415 7.814 15.5 1.454 2.75 3.088 6.231 3.63 7.737l.986 2.737 11-8.473c10.405-8.015 18.46-13.015 24.927-15.474 4.86-1.847 1.75.85-15.656 13.578-22.728 16.62-35.56 27.34-48.271 40.324-10.588 10.815-18.5 17.92-18.5 16.615zm-64.5-7.986c-6.708-3.048-11.37-9.45-17.358-23.837-6.983-16.78-9.014-19.163-4.63-5.433 3.255 10.189 3.137 12.306-.374 6.712-3.578-5.703-5.479-11.437-4.862-14.666.46-2.402-3.22-10.563-5.356-11.884-1.607-.993-.992 4.486.936 8.34 2.535 5.069 3.498 10.283 1.777 9.622-.958-.367-1.172.367-.817 2.791.444 3.024.344 3.174-1.244 1.856-2.353-1.952-6.15-9.735-6.981-14.31-.375-2.062-.48-3.75-.235-3.75.246 0 1.384 1.463 2.529 3.25l2.081 3.25.017-4.027c.009-2.215-.738-5.105-1.66-6.421-1.587-2.266-1.715-2.291-2.393-.473-.663 1.78-.768 1.793-1.43.172-1.037-2.542.125-4.75 2.5-4.75 1.134 0 2.322.675 2.638 1.5.317.825 1.66 1.5 2.984 1.5 2.416 0 6.366 4.87 6.374 7.86.002.747 2.141 3.7 4.754 6.56 2.612 2.86 6.775 8.935 9.25 13.499 2.475 4.563 6.816 11.849 9.647 16.189 2.832 4.34 5.082 7.874 5 7.852-.08-.021-1.497-.652-3.147-1.402zm210.045-9.085c-1.612-14.698-4.056-19.367-15.69-29.973-5.062-4.616-8.308-6.657-14.855-9.34-2.151-.882-1.72-1.035 3.09-1.093 10.716-.13 23.287 8.816 29.014 20.648 3.603 7.443 3.842 19.24.483 23.834-1.256 1.718-1.45 1.332-2.042-4.076zm-46.558-7.958c2.704-3.258 17.798-5.88 17.36-3.015-.215 1.402-5.791 3.103-12.74 3.886-5.23.59-5.75.492-4.62-.87zm-224.542-8.515c.283-4.675 1.288-14.8 2.235-22.5 1.892-15.4 3.055-15.4 3.213 0 .11 10.866-1.25 19.911-3.953 26.272l-2.01 4.728Zm108.995 2.617c-.34-1.355.17-7.268 1.133-13.139 1.598-9.736 1.866-10.468 3.054-8.326 1.77 3.19 1.698 11.39-.153 17.623-1.779 5.99-3.164 7.308-4.034 3.842zm119.56.672c0-3.056 9.601-9.255 14.372-9.28 1.61-.008 1.685.217.532 1.605-1.276 1.538-14.904 8.555-14.904 7.675Zm-216.646-18.79c-1.18-2.75-2.85-8.447-3.71-12.661-.86-4.214-2.482-10.387-3.604-13.719-2.784-8.264-2.562-9.335.826-3.992 3.203 5.051 5.378 6.128 15.517 7.683 4.585.703 8.535 2.083 11.832 4.133l4.95 3.077 18.825-.438c15.081-.351 19.191-.16 20.667.958 1.786 1.353 1.785 1.397-.04 1.428-1.034.017-3.445.998-5.356 2.179-3.21 1.984-4.358 2.1-15.118 1.536-6.404-.336-14.118-1.344-17.143-2.238-5.548-1.641-26.539-6.34-28.626-6.409-.7-.022-.208 2.493 1.296 6.636 1.66 4.573 2.33 8.271 2.126 11.75l-.296 5.078Zm214.646-8.801c-3.398-1.065-14-10.759-14-12.8 0-.556 1.912.16 4.25 1.593 2.337 1.433 7.2 4.12 10.807 5.972 3.607 1.853 7.15 4.08 7.873 4.952 1.157 1.395.911 1.572-2.058 1.482-1.855-.056-4.947-.595-6.872-1.199zm-21.12-21.292c-3.025-6.143-3.313-7.528-3.292-15.82.017-6.79.569-10.57 2.183-14.955l2.16-5.868-2.97.594-2.97.594 4.085-5.166c4.613-5.837 8.356-12.795 9.345-17.378.62-2.866.02-3.76-8.215-12.25-6.257-6.45-9.58-9.157-11.244-9.157-1.784 0-2.08-.283-1.209-1.154 1.662-1.662 6.672-1.27 9.78.767 3.028 1.984 6.83 7.6 7.796 11.517.367 1.488 1.555 2.868 2.734 3.176 1.147.3 2.33 1.479 2.628 2.62.896 3.425 1.949 2.4 4.29-4.176 1.223-3.438 2.503-6.925 2.844-7.75 1.168-2.825 1.322 8.493.194 14.266-1.125 5.76-1.122 5.77 2.298 10 1.884 2.328 4.1 5.55 4.924 7.16l1.5 2.926 1.22-2.281c1.728-3.227.536-8.082-2.91-11.853-3.255-3.565-2.426-4.14 2.114-1.468 5.981 3.52 7.62 8.324 8.157 23.92.2 5.816-2.165 9.382-7.445 11.222-3.316 1.156-3.724.184-.969-2.31 1.05-.95 2.437-3 3.081-4.557.986-2.38.845-3.518-.894-7.177-1.75-3.687-1.988-3.892-1.558-1.348.322 1.9-.233 4.45-1.515 6.961-1.112 2.179-2.022 4.959-2.022 6.177 0 2.71-4.402 6.362-7.667 6.362-3.63 0-8.874-2.507-10.702-5.117-2.532-3.615-1.994-3.931 2.958-1.741 7.016 3.104 11.784 1.137 7.831-3.23-1.99-2.2-.347-5.912 2.615-5.912 4.28 0 1.806-7.934-4.305-13.807l-3.441-3.306-1.328 3.207c-.73 1.763-2.866 4.744-4.746 6.623-4.51 4.51-5.003 9.954-2.733 30.127.947 8.407 1.494 15.513 1.216 15.79-.277.278-1.996-2.525-3.819-6.228zm-55.38 1.648c-3.265-1.336-5.079-3.97-11.428-16.587-7.042-13.998-8.566-20.232-7.022-28.744.855-4.717.757-7.276-.49-12.76-.858-3.772-1.553-8.794-1.545-11.16.02-5.708 2.475-15.884 5.052-20.934 2.009-3.939 9.866-13.27 10.575-12.56.193.192-.984 2.813-2.615 5.824-3.382 6.245-5.563 15.001-6.44 25.867-.334 4.125-1.108 11.1-1.72 15.5-.935 6.718-.851 9.04.519 14.5 2.333 9.296 15.244 34.62 19.301 37.856 2.24 1.788 2.86 2.812 2.021 3.345-1.512.96-3.624.91-6.208-.147zm-165.5-2.758c-.825-.3-2.625-1.579-4-2.841-1.375-1.263-6.314-3.523-10.975-5.023-10.52-3.386-14.025-6.474-14.025-12.356 0-2.242.188-4.076.418-4.076.23 0 1.374 1.544 2.54 3.433 1.563 2.529 3.44 3.87 7.128 5.095 3.23 1.073 7.079 3.581 10.844 7.067 5.822 5.39 8.07 6.542 8.07 4.132 0-1.389-5.66-8.741-7.72-10.027-2.094-1.308-1.459-3.618 1.177-4.279 3.524-.885 5.603.13 2.645 1.291-2.397.94-2.396.943 1.207 3.17 4.484 2.771 8.69 7.671 8.69 10.123 0 1.834-2.513 5.068-3.82 4.916-.374-.044-1.354-.325-2.18-.625zm-24.783-1.857c-2.19-1.534-5.217-6.374-5.217-8.342 0-.551 1.216.125 2.702 1.502 1.486 1.378 5.311 3.23 8.5 4.117 6.205 1.725 7.143 2.69 3.548 3.653-3.831 1.027-7.21.697-9.533-.93zm36.787-6.658c-1.868-1.259-4.309-3.851-5.424-5.761l-2.029-3.473 4.725 2.768c2.598 1.523 4.724 2.427 4.724 2.01 0-.417-.745-2.71-1.656-5.094l-1.656-4.336-5.471.683c-4.298.537-5.377.402-5.033-.631.844-2.532 7.398-4.873 16.816-6.006 10.78-1.297 11.552-1.571 9.926-3.53-.8-.965-.827-1.411-.084-1.411.598 0 1.532.83 2.075 1.845 1.728 3.228-1.206 5.808-8.842 7.775l-6.927 1.784 2.912 3.316c3.375 3.845 4.664 7.907 3.23 10.184-1.529 2.428-3.552 2.394-7.286-.123zm177.546 1.398c.522-.452 3.425-2.89 6.45-5.42 3.025-2.53 7.975-7.78 11-11.67 5.036-6.474 5.527-6.853 5.825-4.493.534 4.236-4.429 13.041-9.15 16.236-5.732 3.879-17.645 8.388-14.125 5.347zm37.515-23.27c1.21-1.701 2.433-5.147 2.716-7.659.465-4.13.644-4.39 1.867-2.717 3.346 4.575.206 13.467-4.755 13.467-2.002 0-2-.042.172-3.092zm-257.065-5.4c0-5.88 1.787-9.272 7.57-14.362 5.526-4.864 14.206-8.365 19.707-7.947l3.938.3-6.358 4.16c-3.496 2.288-8.49 5.147-11.095 6.354-5.538 2.565-10.598 7.915-11.433 12.088-.95 4.748-2.33 4.397-2.33-.593Zm32 3.526c0-1.504 3.865-3.203 6.301-2.77 1.908.339 1.707.612-1.519 2.063-4.316 1.94-4.782 2.01-4.782.707Zm9.59-2.89c-.691-1.118 3.458-2.97 8.442-3.767 3.958-.632 5.086-1.76 2.718-2.716-.688-.278-.068-.54 1.377-.583 1.446-.044 3.172.577 3.838 1.378.979 1.18.725 1.943-1.332 4-2.157 2.157-3.45 2.543-8.529 2.543-3.292 0-6.224-.385-6.514-.854zm-11.59-6.915c0-2.643 5.749-4.688 10.615-3.775 4.402.826 3.613 2.094-1.843 2.961-2.35.374-5.285.931-6.522 1.24-1.238.308-2.25.117-2.25-.426zm-7.559-1.699c-1.63-1.233-1.68-1.473-.314-1.5.896-.017 2.188.644 2.873 1.469 1.595 1.922-.032 1.942-2.559.031zm24.86-3.973c-.66-.751-3.082-1.683-5.381-2.072-4.923-.832-3.525-2.447 2.139-2.471 4.342-.019 7.512 2.055 6.635 4.34-.759 1.977-1.782 2.038-3.393.203zm-22.79-1.577c.347-.56 2.849-2.143 5.56-3.517 4.006-2.03 4.929-2.211 4.929-.967 0 .843-1.463 2.424-3.25 3.514-3.407 2.077-8.33 2.737-7.238.97zm233.055-23.61c-9.541-15.162-16.747-21.676-25.416-22.976-4.157-.624-4.36-.774-2.147-1.592 6.098-2.256 18.113 2.85 23.59 10.023 3.669 4.804 7.672 14.45 7.205 17.356-.222 1.375-1.053.652-3.232-2.811zm3.205-4.371c-.799-1.925-2.696-6.99-4.216-11.257-3.227-9.06-8.586-14.652-16.04-16.74-6.342-1.775-18.904-.873-24.265 1.742-5.133 2.504-5.539 1.34-.795-2.279 9.288-7.085 23.167-7.077 34.953.02l5.574 3.357-2.487-3.26c-1.367-1.794-4.738-4.486-7.489-5.984-11.05-6.013-31.193-2.082-48.889 9.543-3.104 2.039-3.296 2.063-2.336.29 2.66-4.912 10.867-10.559 21.719-14.946C284.168.508 286.9.007 293.902 0c10.933-.012 18.112 2.643 24.82 9.179 7.086 6.902 10.438 14.653 10.887 25.174l.362 8.5-2.322-5.204c-3.17-7.106-3.436-7.139-2.946-.366.555 7.664-.186 9.513-2.03 5.07z"/></svg>