<svg xmlns="http://www.w3.org/2000/svg" width="637.585" height="465.035" fill="currentColor"><path d="M182.447 464.667c.922-1.492 14.15-3.763 25.446-4.37 6.325-.339 32.613-1.044 58.419-1.566 48.442-.98 156.125.263 174.031 2.008 8.465.825 9.163.75 10.8-1.162 1.74-2.034 1.75-2.03 1.75.591 0 1.953-.712 2.909-2.75 3.69-4.077 1.562-26.018 1.57-59.25.021-22.886-1.066-48.559-1.216-114.5-.667-46.75.389-87.118 1.045-89.707 1.46-2.589.413-4.496.411-4.24-.006zm4.246-5.036c-.352-.894-2.139-1.913-3.97-2.265-7.943-1.53-8.215-4.655-1.547-17.785 5.71-11.244 9.639-15.368 13.642-14.318 1.416.372 18.325.822 37.575 1.002 19.25.18 39.275.617 44.5.97l9.502.644-.306-12.312c-.169-6.772-.508-12.916-.755-13.653-.373-1.117-24.106-1.239-141.806-.73-125.178.54-141.5.437-142.607-.896-.972-1.172-1.126-9.456-.69-37.27.535-34.046 1.333-46.105 2.893-43.662 1.66 2.599 2.88 25.783 2.623 49.837l-.276 25.938 2.87.768c1.577.422 100.133.76 219.01.75 118.879-.009 218.595.263 221.592.605 24.191 2.758 5.84 3.71-80.05 4.155-44.825.232-81.417.636-81.315.898.102.262.962 3.957 1.912 8.212 1.9 8.51 2.3 21.906.976 32.735-.728 5.959-.974 6.576-1.654 4.152-.44-1.567-1.113-6.445-1.496-10.84l-.697-7.993-2.613.676c-3.88 1.002-59.463 2.355-75.613 1.84-10.605-.338-14.367-.13-15.515.86-2.983 2.571-15.101 17.022-14.652 17.472.253.252 3.093.017 6.313-.524 15.182-2.547 86.134-2.017 95.854.718 4.41 1.24-38.181 2.393-73.25 1.982-29.469-.345-33.255.11-24.674 2.961 4.797 1.594 5.72 2.447 5.238 4.84-.325 1.616-.456 1.646-1.014.233zm266.2-4.746c0-1.496-53.33-3.942-89-4.081-22.03-.086-28.75-1.265-15.399-2.7 11.718-1.26 77.072-.881 89.899.52 11.639 1.273 23.424 4.146 20.105 4.902-1.52.345-1.619.606-.5 1.314.975.617.416.888-1.855.899-1.788.008-3.25-.376-3.25-.854zm6.974-4.934c-3.603-6.861-9.591-12.996-13.837-14.175-2-.556-12.637-1.028-23.637-1.049-24.876-.047-65.533-1.678-71.373-2.862-3.684-.747-4.44-.63-4.804.751-.237.901-1.195 3.362-2.127 5.47l-1.696 3.83-.27-10.33c-.333-12.788 1.644-29.801 3.152-27.128.558.988 1.203 6.971 1.434 13.296l.42 11.5 50.035.3c55.72.335 54.539.194 59.554 7.118 2.678 3.697 7.091 16.5 6.047 17.543-.238.238-1.542-1.68-2.898-4.264zm36.594-49.339c-6.853-.878-8.388-1.371-7.388-2.371 1.362-1.362 36.58-2.321 86.695-2.36 30.456-.024 55.602-.27 55.88-.548.277-.278.93-4.91 1.452-10.292.52-5.383 1.3-10.151 1.73-10.597.43-.445 1.34 4.856 2.02 11.78.975 9.91.979 12.902.019 14.06-1.054 1.269-10.274 1.453-67.348 1.344-36.37-.07-69.247-.527-73.06-1.016zm61.258-13.346c-.371-.381-122.096-1.013-270.5-1.403-185.123-.487-270.601-1.04-272.295-1.762-2.152-.918-1.383-1.212 6-2.297 6.426-.943 20.895-1.07 59.969-.52 28.325.397 160.85 1.063 294.5 1.48 133.65.416 244.35 1.112 246 1.545l3 .787-3 .94c-3.527 1.106-62.685 2.248-63.674 1.23zM21.893 361.808c-1.22-.798-1.523-3.932-1.62-16.767-.137-18.059 1.095-40.693 2.408-44.242.836-2.26.94-2.165 1.672 1.523.43 2.163 1.064 15.182 1.41 28.932l.63 25 75 .69c57.701.532 273.149 1.063 281.5.695.825-.036 53.25-.412 116.5-.836s115.073-.833 115.163-.91c.09-.076.372-18.251.629-40.389.256-22.137.902-41.825 1.434-43.75l.967-3.5.904 5c1.135 6.286 1.2 86.036.07 87.167-.459.458-97.209.911-215 1.007-117.792.095-251.517.44-297.167.767-53.623.384-83.531.247-84.5-.387zm611.454-30.748c-.459-3.743-.862-78.207-.896-165.474-.034-87.268-.437-159.043-.896-159.5-.459-.458-22.283-.713-48.498-.567-43.811.243-66.394-.6-69.664-2.602-2.945-1.803 12.545-2.473 64.693-2.798 45.314-.282 57.863-.092 58.488.888 1.108 1.738 1.394 295.176.309 317.144-.487 9.844-1.294 18.307-1.793 18.807-.546.545-1.243-1.815-1.743-5.898zM1.357 284.992C.555 277.932.608 2.024 1.412.722c.59-.953 417.32-.397 431.707.576 5.899.4 10.523 1.053 10.276 1.452-1.179 1.908-30.64 2.278-164.125 2.062-79.267-.128-173.47.099-209.339.503l-65.216.736.263 135.601c.244 125.932-.069 148.356-2.088 149.604-.422.26-1.111-2.558-1.533-6.264zm20.196-15.488c-.801-10.763-1.182-251.561-.398-252.345.84-.84 173.907-.775 181.238.069 3.3.38 6.9.964 8 1.3 6.371 1.941-13.365 2.555-93.953 2.92-57.549.26-88.377.75-89.178 1.415-.951.79-1.317 28.93-1.632 125.704-.224 68.578-.759 125.7-1.189 126.937-1.423 4.098-2.266 2.347-2.888-6zm594.853-27.25c-.456-1.65-1.005-52.14-1.22-112.2l-.391-109.202-183.701-.353c-121.912-.234-184.71-.697-186.701-1.378l-3-1.025 3-.86c3.271-.936 369.55-1.903 373.294-.984l2.295.563-.343 111.22c-.225 72.81-.7 112.255-1.374 114.22l-1.03 3z"/><path d="M304.253 337.867c-1.071-.37-2.751-1.145-3.733-1.72-2.135-1.251-7.92-5.503-8.28-6.084-.438-.71 2.48.513 7.758 3.25 5.832 3.022 7.062 3.268 12.666 2.526 3.321-.44 3.836-.606 3.836-1.241 0-.957-.78-2.434-2.87-5.44-1.858-2.67-4.301-7.339-5.136-9.813l-.53-1.57 1.392 1.555c2.235 2.495 9.001 12.838 9.51 14.537.396 1.321.37 1.701-.173 2.53-.854 1.304-1.661 1.689-4.166 1.985l-2.108.248 1.652-1.025c2.325-1.445 2.052-1.54-.525-.184-1.79.941-2.637 1.143-4.76 1.132-1.422-.007-3.461-.316-4.533-.686zm-30.055-4.8c-.93-.167-2.434-.739-3.342-1.27-1.659-.973-6.042-5.387-6.042-6.085 0-.514 2.419.784 5.387 2.892 2.934 2.083 5.268 2.705 8.269 2.203 4.57-.763 8.055-2.652 11.157-6.046 2.024-2.216 2.39-3.25 2.39-6.758 0-4.81-1.875-9.148-7.641-17.672-3.955-5.847-6.557-10.263-6.237-10.583.285-.285 5.8 6.206 8.713 10.253 2.978 4.138 6.059 10.278 6.885 13.719.336 1.403.612 3.67.612 5.038v2.488l2.04-1.985c1.122-1.092 2.6-2.267 3.284-2.61 1.435-.72 3.699-.814 4.844-.202.74.397.772.343.505-.874-.157-.713-1.588-4.606-3.18-8.65-3.666-9.31-4.458-12.265-4.487-16.741-.022-3.595.823-6.79 2.27-8.573.588-.726.602-.718.362.218-.532 2.082-.668 8.148-.238 10.618.725 4.162 2.22 8.856 4.503 14.131 2.524 5.832 2.785 6.965 2.137 9.277-.47 1.681-.53 1.733-1.732 1.508-1.559-.293-3.246.415-6.033 2.532-1.176.893-2.627 1.723-3.225 1.844-.775.158-1.32.677-1.895 1.803-1.179 2.31-4.878 5.825-7.554 7.176-4.094 2.066-8.456 2.938-11.752 2.348zm-10.938-5.101c-3.988-1.365-18.204-10.232-27.203-16.967-2.03-1.52-4.993-3.415-6.584-4.211-2.664-1.334-3.156-1.448-6.218-1.448-1.829 0-3.82.138-4.426.307-1.741.485-.86-.438 1.44-1.51 2.766-1.287 6.293-1.277 9.092.026 1.126.525 4.545 2.777 7.597 5.005 7.402 5.403 15.742 10.863 21.444 14.037 4.64 2.582 7.932 4.798 7.955 5.354.017.425-.302.364-3.097-.593zm-52.911-.033c-.782-.286-2.225-.99-3.207-1.566-.981-.576-1.785-.85-1.785-.612 0 .697-1.899-1.755-2.531-3.269-.843-2.017-.711-6.234.35-11.226 1.478-6.949 1.508-7.543.643-12.527-1.221-7.033-1.02-10.046.851-12.732.866-1.244 2.777-2.339 3.725-2.136.487.105.344.305-.56.786-1.765.937-2.535 3.164-2.512 7.258.01 1.83.285 4.341.61 5.58.85 3.25.725 7.852-.383 14.049-.935 5.226-1.181 9.867-.628 11.85.235.842.661 1.028 3.75 1.641 6.3 1.25 6.783.784 8.932-8.614.601-2.63 3.22-8.757 3.585-8.39.244.243-1.807 11.534-2.476 13.637-1.738 5.456-4.643 7.634-8.364 6.271zm56.672-2.004c-3.594-2.745-5.315-6.395-5.315-11.272 0-2.244-.16-3.003-.806-3.824-.864-1.098-.75-1.26.439-.624 1.102.59 1.77 2.158 2.31 5.43.522 3.16.927 4.13 3.083 7.383 1.329 2.004 2.502 4.274 2.21 4.274-.071 0-.936-.615-1.92-1.367zm6.297-3.832c-1.57-.561-4.35-2.193-4.123-2.42.558-.558 6.89 2.004 6.89 2.788 0 .316-1.36.135-2.767-.368zm-2.091-3.116c-.855-.27-2.08-.768-2.72-1.106-1.262-.663-3.875-3.276-2.915-2.914.32.12 1.457.57 2.526.998 1.068.427 3.464 1.233 5.324 1.79 1.86.556 3.488 1.183 3.618 1.393.34.552-3.954.433-5.833-.161zm-57.37-9.888c-.826-.418-1.622-1.328-2.263-2.587-.892-1.75-.99-2.39-.99-6.412 0-3.845.126-4.748.902-6.464.91-2.012 2.411-3.714 3.664-4.154.905-.318.858-.107-.241 1.079-1.317 1.42-2.295 5.267-2.328 9.158-.024 2.774.127 3.625.93 5.246.828 1.673 1.134 1.952 2.25 2.06.71.067 2.078-.145 3.04-.472 2.074-.707 2.106-.231.094 1.398-1.967 1.592-3.498 1.94-5.059 1.148zm43.492-1.585c-1.22-.62-3.669-1.99-5.44-3.048a201.164 201.164 0 0 0-7.108-3.988c-4.388-2.332-7.801-4.547-8.91-5.782-.627-.698-.124-.574 3.077.758 9.12 3.796 19.975 10.16 21.185 12.422.586 1.093-.11 1.004-2.804-.362zm-1.084-13.475c-1.817-.284-8.462-.688-14.767-.9-18.268-.61-23.82-2.06-29.334-7.652-1.286-1.305-3.212-2.841-4.28-3.415-1.07-.575-2.381-1.383-2.915-1.798-.893-.692-.909-.754-.192-.762.429-.005 2.343.421 4.254.947 2.504.689 3.613.84 3.971.543 1.023-.849 2.885-5.545 4.632-11.68 1.892-6.646 3.685-10.985 5.349-12.941.988-1.162.987-1.152-.369 3.215-.747 2.41-1.684 5.138-2.08 6.063-.397.925-1.107 3.325-1.578 5.334-1.918 8.175-2.838 10.659-4.528 12.225l-.958.887 2.064 1.558c4.924 3.716 9.04 4.606 23.632 5.112 6.292.218 12.502.636 14.379.968 1.817.32 4.556.584 6.088.584 2.405 0 3.121-.176 5.246-1.294 1.354-.711 3.96-1.756 5.79-2.321 4.261-1.316 6.031-2.626 8.324-6.16 3.985-6.142 4.682-7.06 6.012-7.93.758-.495 1.902-1.024 2.543-1.174 1.13-.265 1.112-.226-.596 1.296-1.126 1.002-2.52 2.952-3.862 5.399-1.154 2.106-2.627 4.512-3.273 5.347-1.535 1.985-4.895 4.128-8.455 5.391-1.571.558-4.05 1.637-5.508 2.396-2.974 1.55-4.007 1.633-9.589.762zm-19.094-7.35c-2.146-1.167-6.51-9.308-8.33-15.54-.748-2.562-1.076-4.747-1.226-8.162-.113-2.565-.109-4.574.01-4.465.118.109.66 2.382 1.204 5.052 1.266 6.212 2.595 10.239 4.741 14.375 2.47 4.76 4.775 7.756 5.985 7.78l.972.018-.918.764c-1.077.897-1.108.9-2.437.177zm10.35-2.71c.855-.75 3.21-2.174 5.234-3.164 4.295-2.101 8.86-4.865 15.363-9.302 2.564-1.75 5.692-3.759 6.95-4.463 2.175-1.22 2.257-1.236 1.67-.34-1.353 2.064-4.47 4.278-15.032 10.68-8.163 4.948-12.722 7.364-14.573 7.724l-1.166.227zm-3.757-.401c.713-.905.843-1.575.843-4.334 0-3.808-.445-5.087-2.911-8.368-.964-1.282-1.753-2.599-1.753-2.927 0-1.342 1.647-3.201 3.746-4.228 2.091-1.023 2.234-1.04 5.129-.599 4.583.698 5.715.58 13.15-1.356 5.696-1.484 7.721-1.837 11.396-1.989 2.458-.102 4.354-.064 4.214.084-.14.147-2.97.862-6.288 1.588-3.319.727-7.838 1.871-10.044 2.544-2.645.806-5.266 1.306-7.701 1.468l-3.692.247-.449 5.45c-.247 2.997-.704 6.058-1.015 6.8l-.567 1.35-.285-2.18c-.334-2.545.254-6.895 1.304-9.66.4-1.053.632-2.011.514-2.13-.475-.474-3.487-.152-5.002.537-2.316 1.051-2.51 2.078-.734 3.896.947.97 1.675 2.268 2.178 3.884 1.887 6.063 1.222 9.742-1.935 10.707l-.94.287zm42.618-.57a18.61 18.61 0 0 1-2.137-.713c-.833-.352-.631-.414 1.405-.435 1.308-.014 4.702-.463 7.544-.999 2.841-.535 5.236-.904 5.32-.82.354.354-2.46 1.95-4.624 2.623-2.384.742-5.43.882-7.508.344zm-63.776-2.272c.845-.954 4.673-2.491 5.777-2.32 1.097.17-3.099 2.612-5 2.91l-1.51.237zm-4.813-.989c0-.593 3.327-2.322 7.11-3.695 2.287-.83 4.16-1.434 4.16-1.342 0 .528-2.505 2.299-4.858 3.435-2.469 1.192-6.412 2.177-6.412 1.602zm82-2.09c.002-.587.615-2.815 1.36-4.95.746-2.136 1.357-4.207 1.357-4.605 0-1.042-3.004-9.388-4.318-11.996-1.967-3.904-4.4-6.048-8.508-7.498-1.682-.593-1.74-.587-2.407.28l-.683.887-.01-1.204c-.005-.848-.266-1.339-.882-1.662l-.874-.458.879.17c1.146.22 1.303-.122 2.749-5.979 2.204-8.925 3.266-16.484 4.917-34.975.544-6.091 1.161-12.47 1.371-14.174.21-1.704.383-4.94.385-7.19.004-4.968.57-10.216 1.326-12.278l.559-1.527.027 1.209c.015.665.14 2.027.277 3.028l.25 1.819.819-.752c.45-.414 2.13-1.585 3.734-2.604 1.916-1.217 4.879-3.833 8.65-7.638 5.964-6.016 7.43-8.122 8.394-12.055.248-1.011 1.5-3.938 2.784-6.505 1.284-2.567 2.895-6.287 3.58-8.266 1.118-3.229 1.247-4.06 1.255-8.068.01-4.445-.697-7.782-2.292-10.825-.443-.845-.513-.644-.747 2.128-.38 4.513-1.535 8.845-4.01 15.034-3.229 8.078-4.385 9.596-7.31 9.596-2.008 0-5.22-3.213-6.41-6.412-1.17-3.146-1.921-7.51-1.938-11.25-.008-1.884-.152-2.946-.37-2.721-.196.203-1.26 2.985-2.365 6.183-2.306 6.671-3.012 8.18-4.758 10.17-1.29 1.468-3.767 2.841-5.15 2.854-.635.006-.564-.126.389-.72 2.916-1.817 4.206-4.009 7.128-12.112 3.07-8.51 3.188-8.912 3.535-11.94l.3-2.615.53 1.263c.749 1.786 1.136 1.568 1.136-.64 0-1.67-.158-2.042-1.295-3.04-1.33-1.168-2.451-1.533-7.837-2.554-1.71-.324-3.896-.959-4.858-1.41l-1.748-.823 2.331.205c11.828 1.036 12.45 1.19 13.812 3.423.417.684.874 1.853 1.014 2.597.141.744 1.707 4.302 3.48 7.908 3.487 7.091 5.693 12.48 5.505 13.447-.175.898-3.565-4.026-5.183-7.527-.752-1.627-1.878-4.907-2.503-7.288-.624-2.38-1.34-4.519-1.588-4.75-.34-.317-.395-.177-.223.56.127.54.414 4.054.639 7.808.225 3.755.676 7.86 1.002 9.122 1.222 4.718 3.452 7.93 5.507 7.93 2.097 0 3.084-1.694 6.912-11.853 1.128-2.992 2.305-6.052 2.617-6.8.483-1.16.493-1.85.07-4.664-.273-1.816-.79-4.177-1.148-5.246-.718-2.14-2.104-4.621-2.411-4.314-.108.108-1.618-.986-3.356-2.43-1.739-1.444-3.947-3.228-4.907-3.964-.96-.736-3.497-3.11-5.635-5.273-3.718-3.763-3.821-3.911-2.347-3.388 2.383.845 4.61 2.276 6.088 3.913.741.82 2.74 2.568 4.441 3.884 1.702 1.316 3.503 3.06 4.004 3.874.5.814 1.023 1.656 1.161 1.871.139.215.875.855 1.636 1.421.764.569 1.97 2.129 2.691 3.483.719 1.35 2.233 3.813 3.365 5.475 2.772 4.07 3.41 6.382 3.136 11.367-.25 4.567-.988 7.013-4.741 15.722-1.42 3.296-3.014 7.313-3.541 8.927-.527 1.615-1.245 3.373-1.595 3.907-.35.535-3.274 3.606-6.497 6.825-4.725 4.72-6.734 6.416-10.37 8.754l-4.51 2.9-.238 5.247c-.13 2.886-.595 8.307-1.031 12.047-.436 3.74-1.234 12.047-1.773 18.459-1.504 17.887-2.995 26.44-5.462 31.33-.51 1.011-.503 1.02 1.216 1.255 5.095.698 8.577 4.331 11.603 12.105.748 1.924 1.72 4.19 2.158 5.037.964 1.86 1.047 4.845.202 7.24-.558 1.583-3.924 7.348-4.29 7.348-.091 0-.164-.48-.162-1.069zm-44.305-.372c0-.129.42-.786.935-1.46.883-1.158 5.52-3.986 5.905-3.601.333.333-4.44 4.459-5.644 4.879-.658.23-1.196.311-1.196.182zm-58.972-.514c-1.221-.491-1.106-1.33.72-5.226 2.115-4.512 3.39-8.337 6.36-19.08 1.363-4.932 3.122-10.528 3.908-12.435.856-2.078 1.57-4.612 1.78-6.32.193-1.569.78-3.748 1.303-4.843.524-1.095.89-2.053.813-2.13-.364-.365-6.857 2.63-12.467 5.749-10.652 5.924-13.668 7-21.75 7.757-8.35.783-13.576 1.88-21.374 4.49-4.06 1.358-8.458 2.742-9.771 3.076-2.56.65-9.666.835-10.02.262-.116-.189 3.502-1.263 8.04-2.388 4.54-1.124 10.177-2.724 12.529-3.555 5.53-1.953 9.936-2.828 19.146-3.8 9.905-1.047 11.493-1.6 22.25-7.763 6.015-3.447 10.02-4.998 14.308-5.544 2.722-.347 3.76-.68 5.442-1.75 4.475-2.844 9.473-8.987 14.087-17.31 1.155-2.084 2.153-3.63 2.218-3.435.229.682-1.919 6.402-3.267 8.703-2.652 4.525-7.605 10.127-11.326 12.81-.908.654-1.603 1.238-1.544 1.297.229.228 7.8-1.817 9.484-2.561 2.335-1.033 2.416-1.002 1.07.416-2.414 2.542-7.053 4.055-10.703 3.49-1.411-.218-2.147-.107-3.484.527-1.504.714-1.77 1.045-2.365 2.942-.368 1.175-.68 3.322-.693 4.77-.06 6.734 4.068 12.138 14.995 19.623 1.375.942-1.037.136-4.063-1.358-4.865-2.402-9.955-7.8-11.638-12.341-.358-.966-.76-1.756-.892-1.756-.321 0-2.678 7.687-4.646 15.156-2.248 8.53-3.989 13.518-6.221 17.827l-1.938 3.74.82.68c.89.738.36.871-1.11.28zm83.225-16.775c.102-.492.294-2.169.426-3.725.313-3.664 1.143-6.408 2.346-7.753l.961-1.075-.391 1.093c-.216.601-.502 2.874-.638 5.052-.27 4.366-.822 6.197-2.066 6.862-.741.397-.804.352-.638-.454zm-50.146-1.26c-.67-.291-1.307-.678-1.417-.86-.11-.18 1.884-.362 4.43-.403 4.808-.077 5.417.199 2.831 1.28-1.632.681-4.256.674-5.844-.017zm-.058-5.064c-2.193-.684-4.054-2.145-5.6-4.395-1.255-1.826-1.256-1.831-.219-1.154.573.374 2.666 1.663 4.65 2.866 1.985 1.202 3.954 2.426 4.375 2.72.724.505.703.533-.388.509-.635-.015-1.903-.26-2.818-.546zm-2.439-5.135c-4.628-2.281-9.578-8.704-11.043-14.327-1.227-4.71-.61-4.34 2.163 1.295 2.87 5.838 3.058 6.07 9.873 12.285 2.234 2.038 1.993 2.219-.993.747zm-93.22-1.652c-1.048-1.048-2.06-4.643-1.15-4.08.28.173.353.012.207-.463-.792-2.575-1.102-7.083-.862-12.552.303-6.916.654-8.15 1.37-4.826.793 3.67.948 12.294.282 15.678-.554 2.818-.399 3.886.564 3.886.188 0 .344-2.404.348-5.343.004-2.939.262-7.005.573-9.035.84-5.479 1.113-10.94.798-15.974l-.28-4.482-1.286-.693c-.795-.428-1.696-1.457-2.359-2.693-.59-1.1-1.419-2.499-1.842-3.107l-.77-1.106 1.234.637c.677.35 2.041 1.68 3.03 2.952.988 1.273 1.864 2.315 1.945 2.315.08 0 .621-.348 1.2-.773 1.147-.841 4.3-1.559 6.85-1.559.887 0 2.518-.235 3.625-.522 1.107-.287 1.923-.377 1.813-.199-.463.75-3.643 2.263-5.988 2.849-1.39.347-3.077.805-3.75 1.018l-1.224.386-.03 6.492c-.017 3.57-.297 9.99-.622 14.264-.325 4.275-.592 9.49-.592 11.587 0 3.622-.348 5.148-1.321 5.798-.655.437-.947.361-1.763-.455zm142.79-1.403c-4.867-1.82-6.48-1.964-11.7-1.052-3.815.667-6.314.812-14.307.83-5.729.014-9.539-.12-9.327-.326.837-.815 7.427-1.668 15.32-1.982 4.595-.183 9.467-.516 10.827-.739 3.015-.495 5.928-.089 10.547 1.472 1.816.614 4.154 1.243 5.195 1.399 2.55.382 1.835 1.032-1.371 1.249-1.984.133-2.996-.033-5.185-.851zm-2.334-4.455c-.37-1.167-.488-8.157-.138-8.157.426 0 1.5 3.773 1.5 5.268 0 1.725-.424 3.67-.8 3.67-.173 0-.425-.352-.562-.781zm-158.228-4.79c-2.101-1.925-2.18-4.128-.354-9.908.765-2.422 1.393-4.958 1.397-5.635.005-.938.095-1.092.382-.648.567.877.465 4.705-.235 8.808-.507 2.976-.534 3.874-.145 4.814.547 1.319 1.858 1.81 3.083 1.154 1.114-.596 1.572-1.939 1.572-4.61 0-3.58.765-8.661 1.559-10.35l.735-1.565-.127 7.998c-.137 8.67-.263 9.245-2.289 10.48-1.947 1.187-3.902.999-5.578-.538zm151.87-4.028c-.806-.16-.687-.29.972-1.071 1.04-.49 2.378-1.41 2.973-2.045 1.018-1.084 1.065-1.282.766-3.255-.304-2.012-.115-4.775.481-7.055.213-.812.141-1.069-.297-1.069-.318 0-.784-.249-1.037-.553-.37-.447-.293-.577.408-.68.477-.07.931-.323 1.01-.563.102-.31-.339-.344-1.524-.115-2.68.519-5.596.425-6.11-.196-.375-.45-.321-.516.291-.356.413.108 2.111-.348 3.774-1.014 2.31-.925 3.261-1.132 4.03-.875.846.282 1.304.099 2.89-1.154 1.035-.819 2.028-1.489 2.207-1.489.519 0-3.096 5.772-4.022 6.423-.783.549-.841.913-.841 5.242 0 4.43.038 4.652.796 4.654.439.002.971.177 1.184.39.257.257.898.126 1.909-.389.837-.426 1.873-.775 2.303-.775.647 0 .568.15-.458.874-.682.48-1.856 1.693-2.61 2.693-1.472 1.955-2.731 2.634-3.455 1.863-.337-.36-.327-.52.044-.655.27-.099.672-.52.895-.936.278-.52-.16-.326-1.394.616-.99.756-2.005 1.376-2.256 1.38-.25.002-.805.07-1.233.148-.427.08-1.19.062-1.696-.038zm-66.116-8.412c0-.475 1.768-3.8 3.797-7.14 1.064-1.752 2.757-5.073 3.763-7.38 1.59-3.644 3.908-7.884 4.312-7.884.232 0-1.023 3.965-2.344 7.4-1.717 4.47-3.453 7.865-5.454 10.67-1.633 2.288-4.074 4.886-4.074 4.334zm-86.466-5.284c-1.014-.415-1.973-1.532-2.336-2.722l-.291-.951 1.246 1.048c1.149.967 1.516 1.049 4.691 1.049 1.895 0 3.535.146 3.645.325.11.178-.41.615-1.156.971-1.42.677-4.47.824-5.8.28zm94.844-.507c.782-2.527 4.817-8.312 5.134-7.36.086.26-.357 1.571-.985 2.914-1.649 3.523-4.96 7.072-4.149 4.446zm-92.707-1.709c-3.354-1.093-4.665-2.41-4.662-4.684l.002-1.088.713 1.166c1.017 1.663 1.696 2.124 3.615 2.457 1.603.278 5.826-.067 6.588-.537.208-.129.192-.52-.039-.951-.362-.677-.495-.69-1.737-.171-3.651 1.525-8.172-.568-8.958-4.147-.358-1.628.024-1.818.766-.383.912 1.763 3.16 2.76 6.223 2.76 2.373 0 2.543-.058 2.554-.874.01-.81.042-.821.428-.158.229.394.451.954.494 1.244.042.29.55.965 1.126 1.5 1.22 1.13 1.315 1.817.369 2.658-1.28 1.137-5.573 1.83-7.481 1.208zm10.802-2.117c-1.009-.565-2.127-2.343-2.42-3.85l-.266-1.36.812.972c1.069 1.28 2.865 4.27 2.677 4.457-.08.082-.442-.017-.803-.219zm144.916-1.906c-.519-1.45-.609-3.973-.26-7.323.206-1.997.277-3.791.156-3.987-.122-.198-.595-.095-1.059.23-1.155.81-3.498.741-4.577-.133l-.89-.72 1.138.164c.768.11 1.876-.232 3.408-1.052 1.25-.668 2.653-1.165 3.12-1.104.467.06 1.39-.274 2.05-.745.661-.47 1.661-1.03 2.223-1.244.908-.345.802-.11-.958 2.13-1.13 1.438-2.389 2.62-2.936 2.758-.696.175-.886.414-.695.873.145.347.35 2.293.456 4.324.145 2.759.047 4.035-.387 5.051-.396.927-.647 1.175-.79.778zm-146.993-4.656c-.775-.78-.879-.786-3.886-.21-4.997.956-6.119.835-7.738-.832-.76-.783-1.585-2.102-1.834-2.931-.394-1.316-.362-1.593.252-2.172.388-.365.585-.45.44-.189-.333.596.513 2.185 2.222 4.171l1.322 1.537.54-1.02c.297-.562 1.383-1.91 2.413-2.995l1.872-1.973 2.791.029 2.79.029-1.554.72c-.855.395-1.755.732-2 .748-.628.04-4.586 4.44-4.132 4.59.204.069 1.318-.316 2.475-.855 3.374-1.57 5.231-1.141 4.948 1.144l-.125 1.01-.796-.801zm24.696-3.846c0-.45 3.026-1.734 7.053-2.994 1.785-.559 4.586-1.601 6.225-2.316 5.693-2.483 9.76-3.686 17.007-5.031 11.224-2.083 13.019-2.74 19.651-7.196 2.137-1.437 5.635-3.628 7.772-4.87 2.138-1.242 5.183-3.127 6.769-4.19 2.997-2.008 7.68-4.332 11.224-5.57 1.183-.412 3.237-1.68 4.827-2.979 1.522-1.243 3.448-2.608 4.28-3.032 1.78-.909 12.359-3.67 15.487-4.043l2.17-.259.004 4.02c.003 4.533.868 7.755 2.858 10.647 2.286 3.323 4.96 4.883 9.995 5.831 3.354.632 5.228 1.28 4.958 1.717-.336.544-3.608.76-5.889.39-4.991-.812-9.91-4.444-12.266-9.059-1.017-1.992-1.252-2.961-1.394-5.737-.143-2.806-.038-3.64.656-5.21.455-1.027.78-1.915.723-1.972-.057-.057-1.852.642-3.988 1.554-2.136.911-5.168 1.946-6.737 2.298-3.388.761-6.132 2.073-8.574 4.1-2.866 2.378-4.731 3.466-7.631 4.453-3.495 1.188-5.296 2.119-9.894 5.112-2.06 1.342-4.516 2.832-5.456 3.311-.94.48-4.076 2.4-6.968 4.267-8.95 5.778-11.469 6.75-22.162 8.55-6.996 1.177-8.771 1.7-16.037 4.719-3.583 1.489-7.693 2.957-9.132 3.262-2.965.628-5.531.734-5.531.227zm-34.587-1.99c-.677-.856-1.028-1.555-.78-1.555.569 0 2.724 2.129 2.724 2.69 0 .822-.731.395-1.944-1.136zm12.436-2.135c0-.105.612-.993 1.36-1.973 1.459-1.91 1.722-2.721.765-2.354-6.106 2.343-12.118 2.721-15.63.983-1.907-.944-2.04-.961-2.04-.272 0 .405.276 1.269.612 1.92.873 1.687.467 1.75-.943.144-1.368-1.558-1.809-2.858-1.452-4.28.325-1.296 1.803-1.284 4.104.03 3.64 2.082 7.152 2.014 13.028-.248 3.422-1.318 4.685-1.264 5.25.225.43 1.131.211 1.88-1.051 3.588-1.126 1.522-4.003 3.13-4.003 2.237zm143.95-3.52c-.23-1.226.235-4.835.898-6.976.222-.717.262-.702.522.195.686 2.37.083 8.16-.851 8.16-.17 0-.426-.62-.568-1.379zm-154.03-1.924c-.007-.213.411-3.798.93-7.966 1.17-9.388 2.657-24.321 3.696-37.112 3.384-41.677 4.402-52.614 6.06-65.093 1.648-12.407 4.146-27.398 4.839-29.048.502-1.194 2.443-1.2 3.277-.011.646.923.758 3.108.224 4.383-.294.703-.369.657-.787-.486-.607-1.658-1.01-1.597-1.284.194-.122.802-.665 3.873-1.207 6.826-1.802 9.813-3.305 21.44-5.459 42.236a1759.315 1759.315 0 0 1-1.77 16.322c-.432 3.74-1.395 15.544-2.141 26.23-2.105 30.143-2.326 32.469-3.544 37.279-.54 2.134-2.804 7.123-2.834 6.246zm6.506-5.635c-.383-16.982.903-33.13 4.765-59.846 4.198-29.046 5.302-37.723 6.177-48.576.538-6.669 1.206-12.083 1.58-12.794.557-1.06.85 10.584.415 16.486-.576 7.833-1.306 13.398-3.55 27.076-2.134 13.017-2.981 19.767-4.647 37.045-1.917 19.893-2.309 24.554-2.714 32.328-.576 11.046-1.847 16.241-2.026 8.281zm159.208-1.64c-.517-1.116-1.414-4.094-1.993-6.617-.579-2.523-1.167-4.451-1.308-4.285-.14.165-.475 1.088-.744 2.05-.6 2.145-2.25 4.803-4.089 6.584-1.564 1.517-1.226 2.178.71 1.387a29.837 29.837 0 0 1 2.182-.787l.972-.292-.778.885c-2.14 2.437-7.743 3.25-10.99 1.593-.901-.46-1.64-.931-1.64-1.047 0-.115.786-.092 1.747.052.96.144 2.34.15 3.067.014l1.322-.248-.767-2.03c-.851-2.253-1.804-3.434-3.73-4.625-.71-.439-1.204-.885-1.097-.991.426-.427 4.145.797 5.093 1.676 1.243 1.152 1.222 1.152 1.516-.016.229-.913 6.465-10.431 6.688-10.208.421.421-1.009 4.19-2.761 7.276-2.092 3.683-2.917 5.474-2.917 6.334 0 1.04 4.88-7.917 5.672-10.415.412-1.294.498-1.383.52-.533.014.562.645 2.049 1.4 3.304.756 1.254 1.73 3.418 2.165 4.807.799 2.55 1.464 8.161.968 8.161-.147 0-.691-.913-1.208-2.03zm-9.911-1.413c-.012-.478-.76-1.418-.766-.962-.003.25-.112.733-.243 1.074-.174.453-.07.554.389.378.344-.132.623-.352.62-.49zm12.599-1.444c-1.213-2.068-2.95-7.71-2.792-9.065.088-.756.414-.39 1.732 1.943 1.613 2.858 2.235 4.651 2.58 7.442.24 1.942-.256 1.838-1.52-.32zm-23.863-6.898c0-.114.998-.498 2.218-.852 5.61-1.631 10.209-5.095 15.669-11.801.937-1.151 1.774-1.88 1.86-1.62.365 1.093-2.639 6.088-5.221 8.682-3.647 3.664-7.314 5.47-11.494 5.66-1.668.077-3.032.045-3.032-.069zm-2.542-1.375c-4.038-2.462-5.964-7.974-5.995-17.153-.014-3.977-.122-4.679-.986-6.38-1.09-2.151-1.3-5.493-.511-8.192l.454-1.555.441 2.138.441 2.137.294-2.83c.509-4.914 2.136-9.165 4.569-11.936 1.515-1.725 1.803-1.53.76.516-.44.86-1.276 3.107-1.86 4.992-1.053 3.406-1.06 3.505-1.074 15.087-.01 8.637.124 12.212.52 13.796.578 2.314 2.585 6.813 3.942 8.84.962 1.437.704 1.576-.995.54zm33.557-1.63c-.358-.76-1.117-3.645-1.687-6.412-.57-2.766-1.208-5.351-1.418-5.743-.767-1.434.046-1.063 1.218.556 1.807 2.494 2.798 6.188 2.655 9.902l-.117 3.079zm6.485-9.61c0-5.454-.14-7.328-.676-9.021l-.674-2.138.768.972c1.724 2.18 2.484 5.016 2.498 9.326.012 3.609-.098 4.293-.95 5.913l-.965 1.832v-6.884zm-2.724 4.947c-.305-1.386.135-5.808.577-5.808.166 0 .411.547.545 1.215.705 3.527-.38 7.97-1.122 4.593zm12.188-8.707c-4.44-3.258-7.82-10.603-8.678-18.86-.144-1.388-.17-2.431-.056-2.318.113.113 1.084 2.91 2.157 6.215 2.057 6.337 3.733 9.632 7.035 13.833 1.07 1.361 1.81 2.47 1.647 2.465-.164-.005-1.112-.606-2.105-1.335zm-24.813.324c0-.134.852-1.402 1.894-2.818 2.924-3.973 3.78-5.993 2.692-6.355-.31-.104-.265-.233.132-.386 2.94-1.128 1.396 5.33-2.01 8.408-1.382 1.248-2.708 1.811-2.708 1.15zm8.397-3.091c-.13-.338-.236-1.423-.236-2.41 0-2.433.817-1.629 1.075 1.059.184 1.905-.318 2.71-.84 1.35zm-5.95-10.655c.377-9.495-1.637-15.023-6.626-18.19-4.842-3.076-10.785-3.154-17.195-.228l-2.137.975 1.312-1.354c.722-.745 2.383-1.936 3.692-2.646 2.244-1.217 2.6-1.29 6.266-1.29 3.574 0 4.099.1 6.538 1.255 3.192 1.512 7.068 5.208 8.57 8.172 2.757 5.44 2.849 12.23.22 16.182l-.801 1.204zm23.201 2.286c-2.38-.942-5.351-4.947-6.02-8.115-.333-1.57-.223-1.51 1.247.675.595.885 2.361 3.018 3.925 4.741 2.751 3.03 2.902 3.513.848 2.7zm-.971-35.174c.855-.758 1.87-1.55 2.258-1.759.666-.36.67-.318.09.805-.595 1.152-2.374 2.381-3.398 2.348-.278-.009.195-.636 1.05-1.394zm-27.397-5.594c-2.245-.839-5.352-1.887-6.906-2.33-1.772-.506-3.33-1.25-4.178-1.994-1.31-1.15-1.736-2.378-.986-2.842.21-.13.085-.715-.292-1.375-.745-1.304-.348-2.426.94-2.657.694-.125.692-.098-.042.486-.775.616-.775.62.066 1.335.464.395 1.95.937 3.303 1.205 5.84 1.157 10.866 2.82 10.283 3.402-.412.412-7.79-.74-10.403-1.625-2.643-.894-3.055-.888-3.055.047 0 .754 1.681 1.487 6.023 2.628 4.416 1.161 8.143 2.845 9.505 4.296 1.259 1.34.65 1.257-4.259-.576zm7.463-3.007c-.91-1.433-1.835-3.279-2.056-4.102-.32-1.19-.537-1.438-1.06-1.215-1.257.538-5.134.651-6.919.202-2.024-.51-6.968-2.666-6.709-2.926.093-.093 3.301.364 7.13 1.016 5.993 1.02 7.016 1.107 7.372.625.563-.763 2.17-1.586 2.484-1.273.14.14-.05.426-.422.634-.95.531-.849 1.333.457 3.647 1.316 2.332 2.177 5.196 1.704 5.67-.18.18-1.072-.845-1.981-2.278zm6.099.688c-1.46-.772-2-1.45-4.097-5.156-.98-1.733-1.105-2.151-.551-1.855 1.635.875 7.322 7.82 6.36 7.768-.172-.01-.943-.35-1.712-.757zm.982-3.703c.412-.312.674-.617.583-.68-7.145-4.827-7.006-4.753-8.921-4.753-1.762 0-1.839-.04-1.26-.68 1.292-1.429 5.614-.349 9.502 2.375 1.72 1.204 2.291 1.42 3.033 1.146.538-.199.768-.477.558-.674-1.234-1.16-5.96-4.477-6.77-4.752-.687-.233-.382-.279 1.042-.156 2.102.18 4.473 1.185 6.655 2.822 1.053.79 1.264 1.186 1.166 2.19-.111 1.145-.23 1.235-1.78 1.347-.987.071-1.562.278-1.419.51.392.633-1.037 1.897-2.13 1.883-.967-.011-.977-.035-.259-.578zM529.474 211.255a16.362 16.362 0 0 1-2.422-1.115c-1.384-.811-5.136-3.568-5.369-3.946-.284-.46 1.608.333 5.031 2.108 3.782 1.96 4.58 2.12 8.214 1.638 2.154-.285 2.487-.393 2.487-.805 0-.62-.505-1.578-1.86-3.527-1.206-1.732-2.79-4.76-3.331-6.364l-.344-1.018.903 1.008c1.45 1.618 5.837 8.325 6.167 9.427.257.857.24 1.104-.112 1.641-.554.846-1.078 1.095-2.702 1.287l-1.367.161 1.071-.665c1.508-.936 1.331-.998-.34-.119-1.16.61-1.71.741-3.088.734-.921-.005-2.244-.204-2.938-.445zm-19.49-3.113c-.604-.108-1.58-.478-2.168-.823-1.076-.63-3.918-3.493-3.918-3.946 0-.333 1.568.509 3.493 1.876 1.903 1.35 3.416 1.754 5.362 1.428 2.964-.495 5.224-1.72 7.235-3.92 1.313-1.437 1.55-2.108 1.55-4.383 0-3.12-1.216-5.932-4.955-11.46-2.564-3.792-4.252-6.655-4.044-6.863.185-.185 3.761 4.024 5.65 6.649 1.931 2.683 3.93 6.665 4.465 8.896.218.91.397 2.38.397 3.268v1.613l1.323-1.287c.727-.709 1.686-1.47 2.13-1.693.93-.467 2.398-.528 3.14-.13.481.257.501.222.328-.568-.101-.462-1.03-2.987-2.062-5.61-2.378-6.037-2.891-7.953-2.91-10.855-.014-2.332.534-4.403 1.472-5.56.382-.47.39-.466.235.141-.345 1.351-.433 5.284-.154 6.886.47 2.7 1.44 5.743 2.92 9.164 1.636 3.782 1.806 4.517 1.386 6.016-.305 1.09-.344 1.124-1.123.978-1.012-.19-2.106.27-3.913 1.642-.763.579-1.704 1.117-2.091 1.196-.503.102-.856.439-1.229 1.169-.764 1.498-3.163 3.777-4.899 4.653-2.655 1.34-5.484 1.906-7.62 1.523zm-7.094-3.307c-2.586-.886-11.805-6.636-17.64-11.003-1.317-.986-3.239-2.215-4.27-2.731-1.728-.865-2.047-.939-4.033-.939-1.185 0-2.477.09-2.87.2-1.13.314-.558-.285.934-.98 1.794-.835 4.08-.828 5.896.017.73.34 2.947 1.8 4.927 3.245 4.8 3.504 10.208 7.045 13.906 9.103 3.009 1.675 5.143 3.112 5.158 3.472.012.276-.195.236-2.008-.384zm-34.312-.021c-.507-.186-1.443-.643-2.08-1.016-.636-.373-1.157-.552-1.157-.397 0 .452-1.231-1.138-1.642-2.12-.546-1.308-.46-4.042.228-7.28.958-4.506.978-4.892.416-8.123-.792-4.561-.661-6.515.552-8.257.562-.806 1.8-1.517 2.416-1.385.316.068.223.198-.364.51-1.144.608-1.643 2.051-1.628 4.707.007 1.186.185 2.815.395 3.618.552 2.108.47 5.092-.248 9.11-.607 3.39-.766 6.4-.407 7.685.152.546.428.667 2.432 1.064 4.085.81 4.398.509 5.792-5.586.39-1.705 2.088-5.678 2.325-5.441.158.158-1.172 7.48-1.606 8.843-1.127 3.539-3.011 4.951-5.424 4.068zm36.751-1.3c-2.33-1.78-3.447-4.147-3.447-7.31 0-1.455-.104-1.948-.522-2.48-.56-.712-.487-.817.284-.404.715.382 1.148 1.4 1.498 3.52.339 2.05.601 2.679 2 4.789.861 1.3 1.622 2.772 1.433 2.772-.046 0-.607-.4-1.246-.887zm4.084-2.485c-1.018-.364-2.821-1.422-2.674-1.57.362-.361 4.467 1.3 4.467 1.809 0 .204-.88.087-1.793-.24zm-1.357-2.021a13.063 13.063 0 0 1-1.764-.717c-.818-.43-2.512-2.125-1.89-1.89.208.079.945.37 1.638.647.693.278 2.247.8 3.453 1.16 1.206.362 2.262.769 2.346.905.221.358-2.564.28-3.783-.105zm-37.204-6.412c-.534-.27-1.05-.861-1.467-1.678-.578-1.134-.642-1.55-.642-4.158 0-2.493.082-3.079.585-4.192.59-1.305 1.564-2.408 2.376-2.693.587-.207.557-.07-.156.7-.854.92-1.488 3.415-1.51 5.938-.015 1.799.083 2.351.603 3.402.538 1.085.736 1.266 1.46 1.335.46.045 1.347-.093 1.97-.305 1.346-.459 1.367-.15.062.906-1.276 1.033-2.268 1.258-3.28.745zm28.205-1.028c-.791-.402-2.38-1.29-3.528-1.976a130.439 130.439 0 0 0-4.61-2.586c-2.845-1.513-5.058-2.95-5.777-3.75-.407-.453-.08-.372 1.995.492 5.914 2.46 12.954 6.588 13.738 8.055.38.709-.071.65-1.818-.235zm-.703-8.738c-1.178-.184-5.488-.447-9.576-.583-11.847-.397-15.448-1.336-19.023-4.963-.834-.846-2.083-1.843-2.776-2.215-.693-.372-1.544-.897-1.89-1.166-.579-.449-.59-.489-.124-.494.278-.003 1.52.273 2.758.614 1.624.447 2.343.545 2.576.352.663-.55 1.87-3.596 3.003-7.574 1.227-4.31 2.39-7.124 3.469-8.392.64-.754.64-.747-.239 2.085-.485 1.562-1.092 3.332-1.35 3.931-.256.6-.717 2.157-1.023 3.46-1.243 5.301-1.84 6.912-2.936 7.927l-.62.576 1.338 1.01c3.193 2.41 5.862 2.987 15.325 3.315 4.08.142 8.107.413 9.324.628 1.178.208 2.955.378 3.948.378 1.56 0 2.024-.114 3.402-.838.878-.462 2.567-1.14 3.755-1.506 2.763-.853 3.91-1.703 5.398-3.994 2.584-3.983 3.036-4.579 3.898-5.143.492-.321 1.234-.664 1.65-.761.733-.172.72-.147-.387.84-.73.65-1.635 1.915-2.504 3.501-.749 1.366-1.704 2.927-2.123 3.468-.996 1.287-3.174 2.677-5.483 3.496a33.853 33.853 0 0 0-3.572 1.554c-1.929 1.005-2.598 1.058-6.218.494zm-12.382-4.767c-1.392-.756-4.222-6.036-5.402-10.078-.485-1.66-.698-3.077-.795-5.292-.073-1.663-.07-2.966.006-2.896.076.071.428 1.545.78 3.277.822 4.028 1.683 6.64 3.075 9.321 1.602 3.088 3.097 5.03 3.881 5.045l.63.012-.595.496c-.698.582-.718.583-1.58.115zm6.712-1.758c.554-.486 2.082-1.409 3.394-2.05 2.785-1.363 5.745-3.156 9.962-6.033 1.663-1.135 3.692-2.437 4.508-2.895 1.41-.79 1.463-.8 1.083-.22-.878 1.339-2.9 2.775-9.749 6.926-5.293 3.209-8.25 4.776-9.45 5.01l-.756.146zm-2.437-.259c.462-.587.547-1.022.547-2.81 0-2.47-.289-3.3-1.888-5.427-.625-.831-1.136-1.686-1.136-1.898 0-.87 1.068-2.076 2.429-2.742 1.356-.663 1.448-.674 3.326-.388 2.972.452 3.706.376 8.528-.88 3.693-.962 5.006-1.191 7.39-1.29 1.593-.065 2.823-.041 2.732.055-.09.095-1.926.559-4.078 1.03-2.152.47-5.083 1.213-6.513 1.649-1.715.523-3.415.847-4.994.953l-2.394.16-.291 3.534c-.16 1.943-.457 3.928-.659 4.41l-.367.875-.185-1.414c-.217-1.65.164-4.471.846-6.264.26-.683.41-1.305.333-1.38-.308-.309-2.261-.1-3.244.346-1.502.683-1.627 1.348-.476 2.528.614.628 1.086 1.47 1.412 2.518 1.224 3.932.793 6.317-1.255 6.943l-.609.186zm27.638-.37a12.067 12.067 0 0 1-1.387-.462c-.54-.228-.409-.269.912-.282.848-.01 3.049-.3 4.892-.648 1.842-.347 3.395-.586 3.45-.531.229.229-1.596 1.263-2.999 1.7-1.546.481-3.521.572-4.868.223zm-41.358-1.473c.547-.619 3.03-1.616 3.746-1.505.711.11-2.01 1.694-3.243 1.888l-.979.153zm-3.122-.641c0-.385 2.158-1.506 4.61-2.396 1.484-.539 2.698-.93 2.698-.871 0 .342-1.624 1.49-3.15 2.228-1.6.773-4.158 1.412-4.158 1.039zm53.176-1.356c.001-.38.399-1.825.882-3.21.484-1.385.88-2.728.88-2.986 0-.676-1.948-6.088-2.8-7.78-1.276-2.531-2.853-3.921-5.517-4.861-1.091-.385-1.13-.381-1.561.18l-.443.576-.006-.78c-.004-.55-.173-.869-.573-1.078l-.567-.297.57.11c.743.143.845-.079 1.783-3.877 1.43-5.788 2.118-10.69 3.189-22.681.353-3.95.753-8.087.889-9.192.136-1.105.248-3.203.25-4.662.002-3.222.37-6.625.86-7.963l.362-.99.018.784c.01.431.09 1.315.18 1.964l.16 1.18.532-.488c.292-.268 1.382-1.028 2.422-1.689 1.242-.79 3.163-2.485 5.61-4.953 3.867-3.901 4.817-5.267 5.442-7.818.161-.655.974-2.554 1.806-4.218.833-1.665 1.877-4.077 2.322-5.36.725-2.094.808-2.633.814-5.233.006-2.882-.453-5.046-1.487-7.019-.287-.548-.333-.418-.484 1.38-.246 2.926-.996 5.735-2.6 9.75-2.095 5.238-2.844 6.222-4.742 6.222-1.302 0-3.384-2.084-4.156-4.158-.758-2.04-1.246-4.87-1.257-7.296-.005-1.222-.099-1.91-.24-1.764-.127.132-.817 1.936-1.534 4.01-1.495 4.326-1.952 5.304-3.085 6.594-.836.952-2.443 1.843-3.34 1.851-.412.004-.366-.081.252-.466 1.892-1.179 2.728-2.6 4.623-7.855 1.99-5.519 2.067-5.78 2.293-7.743l.194-1.696.344.82c.485 1.158.737 1.016.737-.416 0-1.083-.103-1.324-.84-1.971-.863-.758-1.59-.994-5.083-1.656-1.108-.21-2.526-.622-3.15-.915l-1.134-.533 1.512.132c7.67.672 8.074.772 8.957 2.22.27.444.567 1.202.658 1.684.09.483 1.106 2.79 2.256 5.128 2.262 4.6 3.692 8.093 3.57 8.721-.113.582-2.312-2.611-3.36-4.881-.488-1.056-1.219-3.182-1.624-4.726s-.869-2.93-1.03-3.081c-.22-.205-.256-.114-.144.363.082.35.268 2.63.414 5.064.146 2.435.438 5.097.65 5.915.792 3.06 2.238 5.143 3.57 5.143 1.36 0 2.001-1.099 4.483-7.687.731-1.94 1.495-3.925 1.697-4.41.313-.751.32-1.199.046-3.024-.177-1.178-.512-2.709-.745-3.402-.465-1.388-1.364-2.997-1.564-2.798-.07.07-1.049-.639-2.176-1.575a136.722 136.722 0 0 0-3.182-2.571c-.623-.477-2.267-2.016-3.654-3.42-2.411-2.44-2.478-2.536-1.522-2.197 1.545.548 2.99 1.477 3.948 2.538.48.532 1.777 1.665 2.88 2.519 1.104.853 2.272 1.984 2.596 2.512.325.528.664 1.074.754 1.213.09.14.567.555 1.06.922.496.369 1.277 1.38 1.745 2.259.467.875 1.449 2.472 2.183 3.55 1.797 2.64 2.21 4.139 2.033 7.371-.162 2.962-.64 4.548-3.074 10.196-.922 2.137-1.955 4.742-2.296 5.789-.342 1.047-.808 2.187-1.035 2.534-.227.346-2.123 2.338-4.213 4.426-3.064 3.06-4.367 4.16-6.725 5.677l-2.924 1.88-.155 3.403c-.085 1.87-.385 5.386-.668 7.812-.284 2.425-.801 7.812-1.15 11.97-.975 11.6-1.942 17.146-3.543 20.317-.33.656-.325.661.79.814 3.303.453 5.561 2.809 7.524 7.85.485 1.248 1.115 2.717 1.4 3.266.624 1.207.678 3.143.13 4.696-.362 1.026-2.544 4.764-2.781 4.764-.06 0-.107-.311-.106-.693zm-28.731-.24c0-.085.273-.51.606-.948.573-.75 3.58-2.585 3.83-2.335.216.216-2.88 2.892-3.66 3.164-.427.149-.776.202-.776.118zm-38.242-.334c-.792-.319-.717-.863.467-3.39 1.371-2.926 2.198-5.406 4.124-12.372.884-3.199 2.024-6.828 2.534-8.065.555-1.347 1.018-2.99 1.154-4.098.125-1.017.506-2.43.846-3.14.34-.71.577-1.332.527-1.382-.237-.236-4.447 1.705-8.085 3.728-6.908 3.842-8.863 4.54-14.105 5.031-5.414.508-8.803 1.22-13.86 2.911-2.634.881-5.485 1.779-6.337 1.995-1.66.421-6.268.542-6.497.17-.076-.122 2.27-.82 5.214-1.548 2.943-.73 6.6-1.767 8.124-2.306 3.586-1.266 6.444-1.834 12.416-2.464 6.424-.679 7.453-1.038 14.428-5.034 3.901-2.235 6.498-3.241 9.28-3.596 1.765-.224 2.438-.44 3.529-1.134 2.901-1.845 6.143-5.828 9.135-11.226.749-1.35 1.396-2.353 1.438-2.227.148.442-1.244 4.152-2.118 5.643-1.72 2.935-4.933 6.568-7.345 8.307-.59.425-1.04.804-1.001.842.148.148 5.058-1.178 6.15-1.661 1.514-.67 1.567-.65.694.27-1.566 1.648-4.574 2.63-6.941 2.263-.915-.142-1.393-.07-2.26.342-.975.463-1.147.677-1.533 1.907-.239.763-.441 2.155-.45 3.094-.039 4.367 2.639 7.871 9.724 12.725.892.611-.672.088-2.634-.88-3.155-1.558-6.456-5.059-7.548-8.004-.232-.626-.492-1.138-.578-1.138-.208 0-1.736 4.985-3.013 9.828-1.457 5.532-2.586 8.767-4.034 11.56l-1.257 2.426.532.441c.577.479.234.565-.72.182zm53.97-10.879c.066-.319.19-1.406.276-2.415.203-2.376.74-4.156 1.521-5.028l.624-.697-.254.709c-.14.39-.326 1.864-.414 3.276-.175 2.831-.533 4.018-1.34 4.45-.48.257-.521.228-.413-.295zm-32.52-.817c-.433-.189-.847-.44-.918-.557-.072-.118 1.221-.235 2.873-.262 3.118-.05 3.513.13 1.836.83-1.059.442-2.76.437-3.79-.01zm-.037-3.283c-1.422-.444-2.629-1.392-3.631-2.85-.814-1.185-.815-1.188-.142-.75.372.243 1.728 1.08 3.015 1.86 1.287.779 2.564 1.573 2.838 1.763.469.328.455.346-.252.33-.412-.009-1.235-.168-1.828-.353zm-1.581-3.33c-3.001-1.48-6.212-5.645-7.162-9.292-.795-3.054-.395-2.814 1.403.84 1.862 3.786 1.983 3.937 6.402 7.967 1.45 1.321 1.293 1.439-.643.484zm-60.452-1.072c-.68-.68-1.337-3.01-.746-2.646.182.113.229.007.134-.3-.513-1.67-.714-4.593-.559-8.14.197-4.485.424-5.284.89-3.13.513 2.38.613 7.973.182 10.168-.36 1.827-.26 2.52.365 2.52.122 0 .224-1.56.226-3.465.003-1.906.17-4.543.372-5.86.544-3.552.721-7.093.517-10.358l-.182-2.907-.833-.45c-.516-.277-1.1-.944-1.53-1.746-.383-.713-.92-1.62-1.195-2.014l-.499-.718.8.414c.44.227 1.324 1.088 1.965 1.914.64.826 1.208 1.501 1.261 1.501.053 0 .403-.225.779-.501.743-.546 2.788-1.011 4.442-1.011.575 0 1.632-.152 2.35-.339.718-.186 1.248-.244 1.176-.129-.3.487-2.363 1.468-3.883 1.848-.901.225-1.996.522-2.432.66l-.794.25-.02 4.21c-.01 2.316-.192 6.478-.402 9.25-.211 2.773-.384 6.154-.384 7.514 0 2.349-.226 3.339-.857 3.76-.424.283-.614.234-1.143-.295zm92.596-.91c-3.155-1.18-4.202-1.274-7.586-.682-2.474.433-4.095.527-9.278.539-3.715.009-6.186-.078-6.049-.212.543-.529 4.817-1.082 9.935-1.286 2.98-.118 6.14-.334 7.021-.479 1.955-.32 3.844-.057 6.84.955 1.178.398 2.694.806 3.369.907 1.653.248 1.19.67-.89.81-1.286.087-1.942-.021-3.362-.552zm-1.513-2.889c-.24-.757-.316-5.29-.089-5.29.276 0 .972 2.447.972 3.417 0 1.118-.274 2.38-.518 2.38-.112 0-.276-.228-.364-.507zm-102.608-3.106c-1.363-1.248-1.414-2.677-.23-6.425.496-1.57.904-3.215.906-3.654.003-.608.062-.709.248-.42.368.568.301 3.05-.152 5.711-.33 1.93-.347 2.513-.094 3.122.354.855 1.204 1.174 1.999.749.722-.387 1.02-1.258 1.02-2.99 0-2.322.495-5.617 1.01-6.712l.477-1.015-.082 5.187c-.09 5.622-.17 5.995-1.485 6.796-1.262.77-2.53.648-3.617-.349zm98.485-2.612c-.522-.104-.445-.189.63-.695.675-.317 1.542-.914 1.929-1.326.66-.703.69-.831.497-2.11-.198-1.305-.075-3.097.312-4.576.137-.526.091-.693-.193-.693-.206 0-.509-.161-.673-.358-.24-.29-.19-.375.265-.441.309-.046.604-.21.655-.366.066-.201-.22-.222-.988-.074-1.738.336-3.63.276-3.963-.127-.243-.292-.208-.335.19-.23.267.07 1.368-.227 2.447-.659 1.497-.6 2.114-.734 2.613-.567.548.182.846.064 1.873-.748.672-.531 1.316-.966 1.432-.966.336 0-2.008 3.743-2.608 4.165-.508.356-.546.593-.546 3.4 0 2.872.025 3.016.517 3.018.284 0 .63.114.768.252.166.167.582.082 1.237-.252.543-.276 1.215-.503 1.494-.503.42 0 .368.098-.297.567-.442.312-1.204 1.098-1.692 1.747-.955 1.267-1.772 1.708-2.241 1.208-.219-.233-.212-.337.028-.425.175-.064.436-.337.58-.607.181-.337-.103-.211-.903.4-.642.49-1.3.892-1.463.894a6.08 6.08 0 0 0-.8.097c-.277.051-.772.04-1.1-.025zm-42.875-5.455c0-.308 1.147-2.464 2.462-4.63.69-1.137 1.789-3.29 2.44-4.786 1.031-2.363 2.535-5.113 2.797-5.113.15 0-.664 2.572-1.52 4.8-1.114 2.897-2.24 5.099-3.537 6.918-1.059 1.484-2.642 3.169-2.642 2.811zM407 133.852c-.657-.27-1.28-.993-1.515-1.765l-.189-.617.809.68c.744.627.983.68 3.042.68 1.228 0 2.292.095 2.364.21.071.116-.266.4-.75.63-.92.44-2.899.535-3.76.182zm61.505-.329c.507-1.638 3.124-5.39 3.33-4.772.056.168-.232 1.019-.64 1.89-1.069 2.284-3.216 4.585-2.69 2.882zm-60.119-1.108c-2.175-.709-3.025-1.563-3.023-3.037l.001-.706.462.756c.66 1.079 1.1 1.378 2.344 1.594 1.04.18 3.779-.044 4.273-.349.134-.083.124-.337-.026-.617-.234-.438-.32-.447-1.126-.11-2.368.989-5.3-.368-5.81-2.69-.231-1.055.016-1.179.498-.248.59 1.143 2.05 1.79 4.035 1.79 1.54 0 1.649-.038 1.656-.567.007-.525.028-.533.278-.102.148.255.292.618.32.807.028.188.356.625.73.972.791.733.853 1.178.24 1.724-.83.737-3.614 1.187-4.852.783zm7.005-1.373c-.654-.366-1.38-1.519-1.57-2.496l-.172-.882.526.63c.694.83 1.858 2.77 1.737 2.89-.053.053-.287-.01-.521-.142zm93.976-1.236c-.337-.94-.395-2.576-.17-4.749.135-1.295.18-2.458.102-2.585-.079-.128-.385-.062-.686.15-.75.524-2.269.48-2.969-.087l-.576-.467.738.106c.497.072 1.216-.15 2.21-.682.81-.433 1.72-.756 2.022-.716.303.04.902-.178 1.33-.483.429-.305 1.078-.668 1.442-.806.588-.224.52-.072-.621 1.38-.733.933-1.55 1.7-1.905 1.79-.45.112-.574.267-.45.565.094.225.227 1.487.296 2.804.093 1.79.03 2.617-.252 3.276-.256.6-.42.762-.511.504zm-95.323-3.019c-.503-.506-.57-.51-2.52-.136-3.24.62-3.968.541-5.018-.54-.493-.507-1.028-1.363-1.19-1.9-.255-.854-.234-1.034.164-1.409.252-.237.38-.292.285-.123-.216.387.333 1.418 1.441 2.706l.858.996.35-.662c.193-.364.897-1.238 1.564-1.941l1.215-1.28 1.81.019 1.81.018-1.009.467c-.554.257-1.138.475-1.297.485-.407.026-2.974 2.88-2.68 2.977.133.045.855-.205 1.605-.554 2.189-1.019 3.393-.74 3.21.741l-.082.656-.516-.52zm16.015-2.494c0-.291 1.963-1.125 4.574-1.942a48.335 48.335 0 0 0 4.037-1.502c3.691-1.61 6.33-2.39 11.028-3.262 7.279-1.35 8.443-1.777 12.744-4.667a110.495 110.495 0 0 1 5.04-3.158c1.386-.805 3.361-2.027 4.39-2.716 1.943-1.303 4.98-2.81 7.278-3.612.767-.268 2.1-1.09 3.13-1.933.987-.806 2.236-1.69 2.776-1.966 1.155-.59 8.014-2.38 10.043-2.622l1.408-.168.002 2.607c.002 2.94.563 5.03 1.853 6.904 1.483 2.155 3.217 3.167 6.482 3.782 2.175.41 3.39.83 3.215 1.114-.218.352-2.34.492-3.819.252-3.237-.526-6.426-2.882-7.954-5.874-.66-1.292-.812-1.92-.904-3.721-.093-1.82-.025-2.36.425-3.378.295-.667.506-1.242.469-1.28-.037-.036-1.201.417-2.586 1.008-1.386.592-3.352 1.262-4.369 1.49-2.197.495-3.977 1.345-5.56 2.66-1.859 1.542-3.068 2.247-4.949 2.887-2.266.77-3.434 1.374-6.416 3.315-1.336.87-2.928 1.837-3.538 2.148-.61.31-2.643 1.556-4.518 2.766-5.805 3.747-7.438 4.377-14.373 5.545-4.537.764-5.687 1.102-10.399 3.06-2.324.966-4.989 1.918-5.922 2.116-1.923.407-3.587.475-3.587.147zm-22.429-1.291c-.439-.555-.667-1.008-.506-1.008.369 0 1.766 1.38 1.766 1.745 0 .532-.474.255-1.26-.737zm8.064-1.384c0-.068.397-.644.882-1.28.946-1.238 1.117-1.764.496-1.526-3.96 1.52-7.858 1.765-10.135.637-1.237-.612-1.323-.623-1.323-.176 0 .263.178.823.397 1.245.566 1.094.302 1.135-.612.094-.887-1.01-1.173-1.854-.942-2.776.211-.84 1.17-.833 2.662.02 2.36 1.35 4.638 1.306 8.448-.162 2.22-.854 3.038-.819 3.405.147.28.733.137 1.22-.682 2.326-.73.987-2.596 2.03-2.596 1.451zm93.35-2.283c-.149-.795.152-3.135.582-4.523.144-.466.17-.456.339.126.445 1.537.053 5.292-.552 5.292-.11 0-.276-.403-.369-.895zm-99.886-1.247c-.005-.139.266-2.464.603-5.166.759-6.088 1.723-15.772 2.397-24.067 2.194-27.027 2.854-34.119 3.93-42.212 1.068-8.045 2.688-17.767 3.137-18.837.326-.775 1.585-.779 2.125-.007.42.599.492 2.015.146 2.842-.191.456-.24.426-.51-.315-.395-1.075-.656-1.035-.833.126-.08.52-.432 2.512-.783 4.426-1.169 6.364-2.143 13.904-3.54 27.39-.352 3.396-.868 8.159-1.148 10.584-.28 2.426-.905 10.08-1.388 17.01-1.365 19.547-1.509 21.056-2.298 24.175-.351 1.384-1.819 4.619-1.838 4.05zm4.218-3.654c-.248-11.013.586-21.485 3.09-38.81 2.723-18.836 3.439-24.463 4.006-31.5.349-4.325.783-7.837 1.025-8.298.36-.686.551 6.864.27 10.691-.375 5.08-.848 8.689-2.303 17.56-1.384 8.44-1.933 12.818-3.013 24.022-1.244 12.9-1.498 15.923-1.76 20.964-.374 7.163-1.198 10.532-1.315 5.37zm103.245-1.064c-.336-.724-.917-2.655-1.292-4.291-.376-1.636-.758-2.887-.849-2.78-.091.108-.308.707-.483 1.33-.388 1.391-1.459 3.115-2.65 4.27-1.015.984-.796 1.413.46.9a19.352 19.352 0 0 1 1.414-.51l.63-.19-.504.574c-1.387 1.58-5.021 2.107-7.126 1.033-.585-.299-1.064-.604-1.064-.679 0-.075.51-.06 1.133.034.622.093 1.518.097 1.989.009l.857-.161-.497-1.317c-.552-1.46-1.17-2.227-2.42-2.999-.46-.284-.78-.574-.71-.643.276-.276 2.687.517 3.302 1.087.806.747.793.747.983-.01.148-.592 4.193-6.765 4.337-6.62.273.273-.654 2.717-1.79 4.718-1.357 2.389-1.892 3.55-1.892 4.108 0 .675 3.164-5.134 3.679-6.754.266-.84.323-.897.337-.345.009.364.418 1.328.908 2.142.49.814 1.122 2.217 1.404 3.117.518 1.654.949 5.293.627 5.293-.095 0-.448-.593-.783-1.316zm-6.428-.916c-.007-.31-.492-.92-.496-.624a2.507 2.507 0 0 1-.158.696c-.112.294-.045.36.252.245.224-.085.405-.228.402-.317zm8.17-.937c-.785-1.341-1.912-5-1.81-5.878.057-.49.269-.254 1.123 1.26 1.047 1.853 1.45 3.016 1.674 4.826.155 1.26-.166 1.191-.986-.208zm-15.474-4.473c0-.074.647-.323 1.438-.553 3.639-1.058 6.62-3.304 10.161-7.653.608-.746 1.151-1.218 1.207-1.05.236.709-1.712 3.948-3.386 5.63-2.365 2.376-4.743 3.547-7.454 3.671-1.081.05-1.966.03-1.966-.045zm-1.649-.892c-2.618-1.597-3.867-5.171-3.887-11.123-.01-2.58-.08-3.034-.64-4.138-.707-1.395-.842-3.562-.331-5.312l.294-1.008.287 1.386.286 1.386.19-1.836c.33-3.186 1.386-5.943 2.963-7.74.982-1.118 1.17-.991.493.335-.285.558-.827 2.014-1.206 3.237-.683 2.21-.688 2.273-.697 9.784-.007 5.6.08 7.92.337 8.946.376 1.5 1.677 4.419 2.557 5.733.624.932.457 1.022-.646.35zm21.762-1.057c-.232-.492-.724-2.364-1.094-4.158-.37-1.794-.783-3.47-.92-3.725-.497-.93.03-.688.79.361 1.172 1.618 1.814 4.013 1.722 6.422l-.076 1.996zm4.205-6.232c0-3.537-.091-4.752-.438-5.85l-.437-1.386.498.63c1.118 1.414 1.61 3.253 1.62 6.048.008 2.34-.064 2.784-.617 3.834l-.625 1.189v-4.465zm-1.766 3.208c-.198-.899.087-3.766.374-3.766.108 0 .267.354.353.788.458 2.287-.246 5.169-.727 2.978zm7.903-5.646c-2.879-2.113-5.07-6.876-5.627-12.23-.094-.9-.11-1.577-.036-1.504.073.074.703 1.888 1.398 4.03 1.335 4.11 2.421 6.247 4.562 8.971.694.883 1.175 1.602 1.068 1.599-.106-.003-.72-.393-1.365-.866zm-16.09.21c0-.087.552-.91 1.228-1.827 1.896-2.577 2.45-3.887 1.745-4.122-.2-.067-.171-.15.086-.25 1.907-.731.905 3.457-1.304 5.452-.895.81-1.755 1.175-1.755.747zm5.445-2.005c-.084-.219-.153-.922-.153-1.562 0-1.578.53-1.057.697.686.12 1.236-.206 1.758-.544.876zm-3.858-6.91c.244-6.157-1.062-9.741-4.297-11.796-3.14-1.994-6.994-2.045-11.15-.147l-1.387.633.85-.879c.469-.483 1.546-1.255 2.395-1.716 1.455-.79 1.687-.837 4.063-.837 2.318 0 2.658.066 4.24.815 2.07.98 4.584 3.377 5.558 5.3 1.788 3.527 1.847 7.93.142 10.493l-.52.78zm15.045 1.483c-1.543-.61-3.47-3.208-3.904-5.262-.216-1.018-.144-.98.809.438.385.573 1.53 1.957 2.545 3.074 1.784 1.965 1.882 2.278.55 1.75zm-.63-22.81c.554-.49 1.213-1.004 1.464-1.14.433-.234.436-.207.06.522-.387.747-1.54 1.544-2.204 1.523-.18-.006.126-.413.68-.904zm-17.767-3.627c-1.455-.544-3.47-1.224-4.478-1.512-1.149-.328-2.159-.81-2.709-1.292-.85-.746-1.126-1.542-.64-1.843.136-.084.056-.464-.189-.892-.483-.845-.225-1.573.61-1.723.45-.08.449-.064-.028.315-.502.4-.502.403.043.866.301.256 1.265.608 2.142.781 3.787.75 7.046 1.829 6.669 2.207-.267.267-5.052-.48-6.746-1.054-1.714-.58-1.982-.576-1.982.03 0 .489 1.09.965 3.906 1.705 2.864.752 5.28 1.844 6.164 2.785.816.869.422.815-2.762-.373zm4.84-1.95c-.59-.93-1.19-2.127-1.333-2.66-.208-.772-.348-.933-.687-.788-.816.349-3.33.422-4.487.13-1.312-.33-4.519-1.728-4.35-1.896.06-.06 2.14.236 4.622.658 3.887.662 4.55.718 4.782.405.364-.494 1.407-1.028 1.61-.825.091.091-.032.276-.273.411-.616.345-.55.865.296 2.365.854 1.513 1.412 3.37 1.105 3.677-.117.117-.695-.548-1.285-1.477zm3.955.446c-.947-.5-1.296-.94-2.656-3.343-.636-1.124-.717-1.396-.358-1.204 1.06.568 4.749 5.072 4.125 5.038-.112-.006-.612-.227-1.11-.49zm.637-2.402c.267-.202.438-.4.378-.44-4.633-3.13-4.543-3.082-5.785-3.082-1.143 0-1.192-.027-.817-.441.838-.927 3.64-.227 6.162 1.54 1.115.78 1.486.92 1.967.743.349-.13.498-.31.362-.437-.8-.752-3.866-2.903-4.39-3.082-.446-.15-.248-.18.675-.101 1.364.117 2.9.769 4.316 1.83.683.512.82.769.756 1.42-.072.742-.15.801-1.154.874-.64.046-1.013.18-.92.33.254.411-.673 1.23-1.381 1.222-.628-.008-.634-.023-.169-.376z"/></svg>