<svg xmlns="http://www.w3.org/2000/svg" width="41.179" height="67.01" viewBox="0 0 10.895 17.73" fill='currentColor'><path fill-rule="evenodd" d="M7.442 12.187zm-.865-8.559h-.005c0-.02-.008-.033-.027-.037.018.004.027.018.027.037zm0 0c.02.007.025 0 .036-.007-.011.007-.017.014-.036.007M7.616 4.75c0 .008.013.008.022.008-.01 0-.022 0-.022-.008m-2.814 4.88c0 .024.014.028.037.028-.023 0-.037-.004-.037-.027m.056-.046c.016-.014.038-.018.054-.022-.016.004-.038.008-.054.022m-.049.046h-.007.007c.002-.012.02-.027.03-.034-.01.007-.027.022-.03.034M3.152 14.086h-.02zm.008 0c.01 0 .02 0 .028-.005-.007.005-.018.005-.028.005m.058-.02c-.007.01-.02.01-.03.015.01-.005.023-.005.03-.016m7.628-13.3c-.035-.05-.064-.09-.088-.152-.024-.069-.07-.124-.11-.176-.036-.049-.093-.073-.152-.046-.033.008-.065.023-.112.046-.02-.014-.046-.03-.066-.049a1.271 1.271 0 0 0-.132-.147c-.032-.043-.062-.076-.104-.084-.054-.003-.08-.03-.104-.065C9.97.084 9.96.074 9.953.059c-.066-.063-.15-.079-.22-.032-.049.03-.074.082-.102.13-.008.008-.008.02 0 .037.021.054.021.109.028.164 0 .017.011.033.02.051l.055.127c.063.14.135.29.208.427a.124.124 0 0 1-.01.126c-.027.059-.064.132-.093.196-.05.118-.111.23-.197.323-.015.023-.025.04-.041.045a.168.168 0 0 0-.094.09l-.034.06c-.054.076-.054.076-.145.082a.785.785 0 0 0-.29.074.2.2 0 0 0-.097.115c-.046.077-.083.17-.123.256-.062.15-.118.304-.142.468a1.2 1.2 0 0 1-.09.3c-.038.078-.07.165-.102.238-.008.029-.026.044-.034.065-.052.052-.098.115-.16.16-.007.006-.018.012-.027.026a.54.54 0 0 0-.134.21c-.012.03-.02.04-.05.042a.234.234 0 0 0-.082.037c-.057.037-.108.069-.16.11-.012.012-.028.02-.045.03-.003-.061-.01-.117-.017-.17 0-.039-.008-.073.025-.1.01-.01.01-.016.01-.03a.57.57 0 0 0 0-.217c-.008-.057-.034-.087-.073-.131a.562.562 0 0 0-.177-.14.325.325 0 0 0-.31-.028.34.34 0 0 1-.077 0c-.05-.01-.103-.024-.16-.024a.731.731 0 0 0-.226.011.924.924 0 0 0-.442.203.703.703 0 0 0-.233.275c-.033.068-.068.138-.099.206a.596.596 0 0 0-.047.194c0 .103 0 .21-.004.313a.389.389 0 0 0 .051.222c.011.033.018.055.018.088v.074c.007.18.039.352.13.496l.08.15c-.019.009-.028.014-.043.018-.06.049-.116.093-.167.138a.606.606 0 0 1-.236.167.837.837 0 0 0-.223.114c-.012.006-.037.009-.055.014a.456.456 0 0 0-.18.062.32.32 0 0 1-.083.03c-.044.012-.087.012-.126.028-.179.05-.35.11-.525.187-.09.04-.176.08-.22.177-.006.03-.028.032-.057.041a2.52 2.52 0 0 0-.25.038c-.21.031-.43.05-.644.059-.1.004-.21.004-.312.004-.089.008-.169.011-.257.008-.082 0-.167-.012-.255-.026a3.112 3.112 0 0 1-.223-.029.226.226 0 0 0-.076 0c-.068.012-.13.015-.188.023a.265.265 0 0 1-.2-.027.318.318 0 0 0-.249-.01c-.05.027-.111.037-.165.048-.03.009-.042.009-.065.009-.058-.009-.107-.02-.157-.028-.03-.055-.05-.11-.075-.172a.48.48 0 0 0-.2-.229C.98 6.03.946 6.023.911 6.03c-.027.014-.065.014-.097.017-.056.005-.11.007-.165.034a.282.282 0 0 1-.135 0 .25.25 0 0 0-.15 0c-.049.018-.094.041-.15.069a.127.127 0 0 0-.088.126c0 .04-.018.067-.046.097-.045.046-.065.088-.045.148 0 .02.003.044.008.058.01.04.004.066-.018.095-.03.04-.03.087-.02.128.01.029.02.05.025.094a.09.09 0 0 1 .005.063c-.01.063.018.124.062.172.051.046.109.083.158.13.03.022.064.03.11.018a.215.215 0 0 1 .112.012c.015.004.029.011.046.017.1.022.198.01.293.01.029.004.05.004.076.012a.757.757 0 0 0 .29.02c.019-.007.038.003.06.003.022.051.041.092.054.134.018.05.046.081.093.088a.675.675 0 0 0 .125.014c.074 0 .128.029.152.09.013.032.032.061.058.07.135.066.258.147.396.208.146.069.299.122.459.155.102.025.21.047.318.047.045 0 .09.01.138.014.144.015.275.032.415.041.086.005.184.014.27.014.163.013.325.013.486.013.053.007.102-.013.15-.022l.122-.014c-.054.078-.076.17-.134.245-.015.014-.015.041-.02.069-.004.041-.004.079-.004.127.004.05 0 .104-.033.146-.008.016-.018.041-.029.058-.019.041-.05.077-.071.116H4.17s-.008 0-.014-.006a.59.59 0 0 0-.28-.05 1.187 1.187 0 0 0-.308.05c-.087.029-.159.06-.238.066-.109.008-.217.03-.32-.02-.035-.021-.076-.009-.103.028-.027.03-.045.061-.068.094-.089.132-.205.245-.37.277-.185.033-.365.078-.556.114-.027.009-.061.017-.089.035-.066.043-.066.117 0 .168.04.026.077.026.123.041a.55.55 0 0 0 .306.014c.201-.022.404-.04.609-.008.063.005.113.032.168.058-.028.066-.055.127-.067.185-.03.089-.037.18-.063.27-.013.07-.02.144-.049.215a.896.896 0 0 1-.363.446.99.99 0 0 0-.251.226c-.027.043-.043.078-.027.128.011.055.056.083.105.055.029-.01.056-.027.074-.033a.788.788 0 0 1 .4-.105c.124-.008.241.02.362.039.077.017.15.039.234.055.065.011.096-.011.115-.066.011-.022.02-.038.029-.06.08.065.151.137.229.21v.127c.013.123.042.233.063.348.02.123.026.123-.035.246-.01.022-.019.044-.028.055a3.453 3.453 0 0 0-.21.56l-.048.078c-.03.069-.079.134-.115.21-.024.045-.016.08 0 .122.023.035.036.066.054.1-.054.034-.07.095-.085.152-.024.076-.043.148-.072.224-.025.013-.054.024-.081.035-.082.044-.17.078-.23.155-.046.05-.1.095-.159.139-.031.033-.073.071-.102.112-.053.048-.093.099-.136.148-.14.164-.266.34-.423.49-.03.063-.083.093-.152.115-.056.012-.106.044-.125.1-.01.027-.032.042-.06.05-.062.034-.13.067-.18.097a.128.128 0 0 0-.05.047c-.05.076-.108.15-.148.227a.119.119 0 0 1-.075.063l-.308.123c-.055.03-.065.044-.065.097.006.03.01.075.02.109-.01.008-.015.008-.02.008-.091.066-.19.132-.24.244-.044.09-.092.167-.106.255-.014.055-.032.09-.047.134-.008.027-.017.049-.02.071a.146.146 0 0 0 .053.153c.08.047.164.09.236.143.111.074.218.148.32.232.081.055.141.132.212.195.09.112.184.228.267.342a.463.463 0 0 0 .189.153c.06.03.13.047.207.064.016.01.042.01.06.01.19.012.374 0 .562-.038a.417.417 0 0 0 .199-.09c.01-.005.018-.015.027-.022.008-.027.027-.055.036-.077a.17.17 0 0 0 0-.09 1.038 1.038 0 0 1-.081-.143c-.02-.033-.02-.05.018-.073.105-.071.201-.162.28-.271.061-.083.111-.163.17-.244.11-.178.207-.37.3-.557a1.67 1.67 0 0 1 .126-.259c.128-.204.265-.398.394-.598.079-.11.163-.216.246-.322.007-.017.007-.028.017-.039.032-.05.065-.1.102-.146.088-.081.17-.164.242-.252.062-.084.115-.172.172-.262.154-.233.287-.494.416-.737.01-.02.012-.03.028-.05.012.022.029.044.031.06.065.176.15.329.253.472.01.022.029.048.053.056.017.023.03.034.044.067.032.088.068.16.093.244.01.022.02.033.02.05.018.093.036.182.044.27.025.15.045.298.112.433.055.134.115.272.189.386.084.14.216.238.389.28.08.022.17.05.256.044.13-.005.18-.06.22-.165.046-.137.052-.273.064-.422 0-.1-.012-.2-.012-.295v-.354a.12.12 0 0 0 .021-.011c.068-.016.08-.033.09-.1v-.086c.008-.039.008-.076.02-.109.018-.05.044-.102.07-.154.082-.018.09-.055.03-.123a.218.218 0 0 0 .012-.066c0-.055.014-.105.014-.156-.014-.143-.018-.282-.026-.438 0-.094.008-.2.008-.299 0-.178.018-.361.032-.549 0-.062.019-.111.073-.144a.256.256 0 0 0 .124-.2c.007-.036.012-.077.026-.117.014-.053.027-.133.09-.171.023-.011.034-.038.044-.066 0-.046.031-.07.059-.104a5.677 5.677 0 0 0 .536-.718c.105-.16.196-.32.278-.493a.313.313 0 0 0 .035-.241.135.135 0 0 1-.016-.062 1.169 1.169 0 0 0-.14-.41 1.289 1.289 0 0 0-.132-.249c-.06-.106-.105-.216-.197-.295-.004 0-.01-.004-.01-.004-.018-.062-.073-.088-.126-.103a1.427 1.427 0 0 0-.408-.079 5.065 5.065 0 0 0-.264-.018c-.013-.027-.004-.05 0-.068.04-.08.08-.156.11-.228.111-.205.253-.383.43-.53.065-.05.117-.11.165-.169.051-.064.093-.139.14-.202 0-.004.01-.015.013-.025.06-.161.1-.323.092-.492 0-.088-.005-.165-.005-.253-.003-.09.005-.196-.003-.288-.019-.192-.037-.371-.058-.556a.149.149 0 0 1 .006-.065c.028-.11.07-.221.098-.332a.592.592 0 0 1 .15-.264c.104-.1.18-.229.3-.321.075-.048.134-.115.19-.175a1.66 1.66 0 0 0 .235-.3c.029-.04.055-.08.092-.122.061-.07.118-.156.16-.248.03-.06.057-.114.086-.178.036-.074.073-.149.102-.233.052-.154.103-.325.149-.482a1.9 1.9 0 0 1 .057-.176c.03-.056.065-.119.096-.187.041-.102.078-.209.125-.32a3.94 3.94 0 0 0 .25-.687c.01-.05.031-.092.05-.14.038-.082.064-.16.098-.232.015-.043.028-.095 0-.135-.02-.028-.01-.063-.005-.092.02-.101.09-.171.136-.252.016-.014.024-.014.032-.024.062-.037.119-.078.172-.114.02-.021.028-.037.038-.05.01-.033.012-.063.018-.1a.28.28 0 0 0-.046-.211"/></svg>