<?xml version="1.0" encoding="UTF-8" standalone="no"?>
<!-- Created with Inkscape (http://www.inkscape.org/) -->

<svg
   version="1.1"
   id="svg2"
   width="543.49902"
   height="611.42749"
   viewBox="0 0 543.49902 611.42749"
   sodipodi:docname="taichi_fill.svg"
   inkscape:version="1.1.2 (0a00cf5339, 2022-02-04)"
   xmlns:inkscape="http://www.inkscape.org/namespaces/inkscape"
   xmlns:sodipodi="http://sodipodi.sourceforge.net/DTD/sodipodi-0.dtd"
   xmlns="http://www.w3.org/2000/svg"
   xmlns:svg="http://www.w3.org/2000/svg">
  <defs
     id="defs6" />
  <sodipodi:namedview
     id="namedview4"
     pagecolor="#000000"
     bordercolor="#666666"
     borderopacity="1.0"
     inkscape:pageshadow="2"
     inkscape:pageopacity="0"
     inkscape:pagecheckerboard="true"
     showgrid="false"
     fit-margin-top="0"
     fit-margin-left="0"
     fit-margin-right="0"
     fit-margin-bottom="0"
     inkscape:zoom="0.86957925"
     inkscape:cx="205.27169"
     inkscape:cy="197.22182"
     inkscape:window-width="1920"
     inkscape:window-height="1029"
     inkscape:window-x="0"
     inkscape:window-y="27"
     inkscape:window-maximized="1"
     inkscape:current-layer="g8" />
  <g
     inkscape:groupmode="layer"
     inkscape:label="Image"
     id="g8"
     transform="translate(44.84678,-9.7209866)">
    <path
       style="fill:#000000;stroke-width:0.999995"
       d="m 458.22875,618.34398 c -6.0781,-1.92844 -9.3861,-3.94209 -16.47485,-10.02862 -3.69629,-3.1737 -8.53148,-6.25956 -11.23231,-7.16855 -6.5815,-2.21505 -7.77335,-4.26289 -7.04364,-12.10229 0.71468,-7.67796 -0.47524,-8.21095 -3.81143,-1.70724 -1.3132,2.56001 -3.56018,5.53279 -4.99328,6.60621 -2.44098,1.82831 -2.80015,1.85074 -5.68344,0.35494 -4.30345,-2.23256 -6.99902,-6.17548 -14.44671,-21.13171 -7.39226,-14.84495 -12.55112,-22.26421 -23.84463,-34.29243 -14.64002,-15.5924 -26.70524,-32.17382 -36.41876,-50.05081 -3.43619,-6.32406 -5.31429,-8.70007 -7.69535,-9.73558 -8.31706,-3.61693 -16.14484,-12.74708 -19.51668,-22.7638 -1.15445,-3.42949 -2.8148,-12.12442 -3.68966,-19.32208 -0.87488,-7.19767 -1.77151,-13.27115 -1.99254,-13.49663 -0.22102,-0.22547 -2.98874,2.03636 -6.15048,5.02627 -3.16174,2.98993 -8.66916,7.28976 -12.2387,9.55514 -3.56956,2.26541 -11.20352,7.12254 -16.96438,10.79361 -7.12959,4.54332 -11.27369,6.58091 -12.97776,6.38098 -1.8657,-0.21891 -5.48853,-3.99397 -14.22059,-14.81819 -6.44441,-7.98845 -14.08383,-17.81838 -16.97651,-21.84429 l -5.25939,-7.31983 -0.7099,5.31645 c -0.39044,2.92406 -1.88445,14.23973 -3.32001,25.14595 -3.5159,26.71095 -5.08378,32.83398 -8.87092,34.64373 -2.27362,1.08645 -4.03344,1.16649 -7.98781,0.36327 -12.60845,-2.56107 -26.60933,-8.59006 -39.50465,-17.01128 l -8.47255,-5.53297 -5.00687,5.56199 c -4.58604,5.0945 -14.084,19.57373 -43.508002,66.32613 -5.89613,9.3685 -14.517179,24.24355 -19.157885,33.05568 -8.715464,16.54961 -15.807655,28.74567 -18.491389,31.79864 -0.847526,0.96412 -2.281802,1.75295 -3.187281,1.75295 -0.905487,0 -3.194742,1.61714 -5.087243,3.59368 -5.300058,5.53537 -10.018464,7.47951 -20.793543,8.56766 -11.474242,1.15877 -26.2480959,3.25307 -38.5620063,5.46642 -16.1814757,2.90854 -30.8199457,0.46125 -33.9865317,-5.68194 -4.31026,-8.36193 0.198177,-14.10323 14.989026,-19.08788 5.477068,-1.84582 11.093493,-4.35199 12.480945,-5.56923 l 2.522658,-2.2132 -2.24657,-1.60974 c -4.098802,-2.93692 -3.500715,-5.00359 10.4174656,-35.99692 4.6865245,-10.43606 10.4613984,-23.95883 12.8330474,-30.05061 4.041619,-10.38119 4.379214,-12.0185 5.381874,-26.10128 2.046894,-28.74936 5.558942,-40.21747 22.388308,-73.10581 8.069131,-15.76889 11.819685,-19.6737 21.618401,-22.50756 10.233217,-2.95954 17.011389,-5.72199 33.948178,-13.83561 7.962838,-3.81462 16.167888,-7.49324 18.233418,-8.1747 4.07446,-1.34426 11.91386,-9.98982 14.37614,-15.8545 0.75253,-1.79237 1.71761,-8.32838 2.14462,-14.52446 0.76326,-11.075 0.69762,-11.62148 -3.87963,-32.30102 -5.26312,-23.77824 -7.16529,-30.99906 -13.58268,-51.56132 -5.97189,-19.13481 -7.33221,-20.59684 -22.713218,-24.41163 -12.56303,-3.11588 -20.962416,-7.13399 -35.016916,-16.75144 -11.66522,-7.9825 -33.159404,-25.67013 -39.034614,-32.12172 -4.588834,-5.039 -4.385265,-4.52898 -14.79535171,-37.06808 L -7.5601127,118.11733 V 98.199061 c 0,-31.25559 1.8792908,-42.241693 9.1165815,-53.294416 6.4418848,-9.83797 14.3217842,-13.992867 30.8368802,-16.259584 5.734155,-0.787016 9.265045,-0.70693 14.977134,0.339711 l 7.47413,1.369497 0.304924,4.163092 0.304933,4.16308 -7.7935,0.295959 c -7.382749,0.280372 -7.636692,0.365135 -4.818384,1.608339 1.636301,0.721796 3.249169,1.75725 3.584148,2.300986 0.334968,0.543745 3.489312,2.665618 7.009649,4.71528 6.990194,4.069935 8.473419,7.138422 5.586839,11.558066 -1.248054,1.910909 -1.258508,2.506341 -0.07259,4.133451 0.762097,1.045521 1.385591,2.716315 1.385591,3.712873 0,1.506517 -0.841482,1.811922 -4.992374,1.811922 -3.743475,0 -4.992378,0.371104 -4.992378,1.483448 0,2.253525 -4.625748,2.945311 -11.330252,1.694463 -3.314659,-0.6184 -6.203439,-0.947024 -6.4195,-0.730268 -0.216069,0.216764 2.09656,3.71222 5.139175,7.767701 6.4121,8.546653 8.616674,15.329557 8.616674,26.511289 v 7.25683 l 3.744284,0.61026 c 6.894424,1.12374 12.277892,3.6506 20.02089,9.39736 10.134008,7.52133 9.366011,7.17665 13.462487,6.04193 6.268021,-1.73626 16.397926,2.63275 30.169431,13.01202 3.26552,2.46114 5.5417,3.1999 12.48095,4.05082 4.66787,0.5724 15.00209,1.8721 22.96493,2.88821 7.96285,1.0161 16.33505,1.64879 18.60488,1.40597 l 4.12699,-0.44151 1.36462,-6.16647 c 0.82003,-3.70551 1.36464,-16.16968 1.36464,-25.19854 v -15.02532 l -4.46074,-12.52108 -4.46073,-12.521087 0.13613,-15.526149 c 0.11483,-13.096836 0.46404,-16.404657 2.23185,-21.140883 2.78235,-7.454375 7.28344,-14.193834 14.06793,-21.063855 7.77866,-7.876725 14.04329,-10.8855331 22.65626,-10.8814653 9.85479,0.00504 24.0485,2.7271223 28.85204,5.5340593 4.45274,2.601943 10.37131,8.782631 10.37131,10.830641 0,0.700079 2.92055,7.308057 6.4901,14.68439 7.25323,14.988513 7.80868,18.287569 4.58941,27.258397 -1.32341,3.687841 -2.07382,9.25135 -2.47078,18.31836 -0.72947,16.662212 -2.43452,24.118962 -7.78746,34.057362 -4.10991,7.63054 -4.49512,8.02835 -8.06034,8.32439 -4.24983,0.35288 -4.13421,4.0407 -2.41876,10.67934 l 1.28688,4.98012 5.43357,0.10698 c 3.71951,0.0733 8.26836,1.24591 14.41985,3.71739 4.94246,1.98573 14.37805,5.19149 20.96799,7.12393 14.78036,4.33421 27.59192,9.6341 46.52203,19.24524 14.73314,7.48029 21.89471,12.72095 26.94897,19.72057 1.65364,2.29013 6.12824,5.8626 11.0805,8.84656 11.73258,7.06939 25.99198,18.07557 34.85696,26.9045 7.78921,7.75752 7.88883,7.92424 18.73024,31.34785 2.23359,4.8258 5.47257,10.83233 7.19772,13.34783 8.44257,12.31031 12.63858,26.45922 11.57834,39.04212 -0.867,10.28962 -2.6479,14.16898 -7.35711,16.02609 -2.07911,0.81993 -4.42246,1.84697 -5.20744,2.28232 -1.35037,0.74893 -3.10219,7.86515 -4.53707,18.43039 -0.79373,5.8443 -2.8538,8.15938 -6.593,7.40913 -1.79754,-0.36067 -3.18408,-0.0199 -4.01736,0.98741 -2.12779,2.57207 -10.3458,6.26217 -19.07995,8.56741 -4.55308,1.20171 -10.86646,3.36256 -14.02974,4.80191 l -5.75144,2.61699 10.74381,9.48141 c 5.90909,5.21477 13.47768,11.73277 16.81908,14.48447 8.56447,7.05297 11.55868,11.3659 18.21525,26.23765 3.21522,7.18328 9.94846,20.44453 14.96277,29.46948 5.87799,10.57945 12.28352,24.23796 18.03032,38.44608 12.08672,29.88265 11.6389,28.88828 17.59782,39.07575 7.65745,13.09131 11.48671,21.44072 11.48671,25.04593 0,2.83022 -0.58027,3.45913 -5.49162,5.95205 -3.02039,1.53309 -5.49161,3.07881 -5.49161,3.43493 0,0.35612 5.44241,6.04956 12.09424,12.65208 6.65183,6.60252 13.39155,14.00856 14.97714,16.45787 2.68032,4.14037 2.88289,5.14332 2.88289,14.27403 v 9.82076 l -15.72599,-0.0671 c -9.72384,-0.0415 -17.25035,-0.55065 -19.7199,-1.33417 z M 350.6059,360.83854 c 5.37474,-1.8335 12.46812,-4.27694 15.7631,-5.42986 3.29497,-1.15294 9.24837,-3.01434 13.2298,-4.13645 6.61429,-1.86417 7.25443,-2.27542 7.41837,-4.76602 0.51357,-7.80227 -0.18728,-9.62441 -6.05706,-15.74773 -6.20763,-6.47578 -10.9874,-16.60301 -12.05558,-25.54303 -0.52771,-4.41665 -0.6728,-4.57353 -7.19145,-7.77642 -4.77941,-2.34833 -9.55939,-3.69723 -16.97409,-4.79004 -14.4983,-2.13684 -18.35119,-3.63752 -30.85309,-12.01719 -13.28893,-8.90717 -22.3521,-14.48214 -23.54348,-14.48214 -0.8337,0 6.67655,24.82683 10.75706,35.55988 1.04726,2.75465 4.22627,8.11579 7.06448,11.91365 4.7363,6.33777 5.34159,7.78575 7.36543,17.61963 3.75466,18.24392 8.85804,28.54792 15.89296,32.08871 4.59365,2.31208 5.40815,2.20623 19.18355,-2.49299 z"
       id="path827"
       sodipodi:nodetypes="sssssssssssssssssssscssssscssssssssssscsssssssssssssssscscsscccssssscssssssscssssssscsscccssscsssssssscssssssssssssssssscsssssssssssscsssssssssssssssss" />
    <g
       style="fill:#ffffff;stroke-width:0.990533"
       id="g984"
       transform="matrix(1.0140918,0,0,1.0050445,-6.0193028,-5.9662824)">
      <path
         d="m 465.94353,623.11313 c -7.072,-1.395 -13.513,-4.788 -18.77,-9.886 -2.75,-2.667 -6.8,-5.79 -9,-6.938 l -4,-2.089 4.5,0.601 c 4.359,0.583 8.821,2.804 15.912,7.922 5.198,3.753 12.33,5.472 26.364,6.358 7.027,0.443 13.065,1.094 13.417,1.446 0.352,0.352 -0.672,0.64 -2.276,0.64 -1.605,0 -6.067,0.668 -9.917,1.483 -7.714,1.634 -9.972,1.699 -16.23,0.464 z m -488.269999,-7.574 c -3.98,-0.766 -11.936,-3.46 -12.395,-4.198 -0.23,-0.37 5.207,-0.535 12.083,-0.365 12.8520003,0.317 16.3130003,-0.998 5.593,-2.125 -3.18,-0.334 -7.58,-1.268 -9.78,-2.075 -3.845,-1.41 -3.438,-1.47 10.5,-1.54 7.9740003,-0.039 18.2480003,-0.73 22.8300003,-1.537 9.5759997,-1.686 35.0339997,-3.195 33.9299997,-2.012 -0.406,0.435 -2.431,1.12 -4.5,1.521 -3.25,0.63 -2.877,0.74 2.74,0.809 3.574,0.044 9.087,-0.54 12.25,-1.295 3.162,-0.756 5.75,-1.166 5.75,-0.912 0,0.255 -3.038,1.886 -6.75,3.626 -6.073,2.846 -8.056,3.235 -19.75,3.876 -8.001,0.439 -17.325,1.706 -24.2459997,3.296 -11.193,2.572 -23.4910003,3.848 -28.2550003,2.931 z m 517.821999,-2.929 c -0.416,-5.103 -2.504,-5.46 -12.136,-2.07 -3.952,1.391 -8.61,2.804 -10.352,3.14 -3.676,0.708 -10.596,-0.919 -12.218,-2.873 -0.918,-1.106 -0.24,-1.262 3.809,-0.873 3.382,0.325 7.222,-0.224 12.25,-1.753 4.03,-1.224 9.462,-2.29 12.074,-2.37 2.612,-0.079 4.75,-0.355 4.75,-0.613 0,-0.259 -3.719,-4.084 -8.265,-8.5 -4.547,-4.417 -9.415,-9.57 -10.819,-11.453 l -2.552,-3.422 -7.431,1.137 c -13.421,2.055 -16.097,2.284 -15.504,1.325 1.11,-1.797 9.989,-4.117 15.75,-4.117 3.202,0 5.822,-0.241 5.822,-0.536 0,-0.294 -0.787,-1.74 -1.75,-3.21 -2.751,-4.208 -0.088,-2.127 12.892,10.073 12.998,12.218 15.866,16.346 15.843,22.809 -0.021,5.978 -1.731,8.593 -2.163,3.306 z m -533.782999,-8.942 c -0.047,-2.987 3.496,-8.21 6.667,-9.83 1.537,-0.785 6.663,-2.6 11.39,-4.034 4.729,-1.434 9.875,-3.612 11.4360003,-4.84 l 2.84,-2.234 -1.78,3.015 c -2.4700003,4.178 -6.7900003,6.847 -15.8000003,9.759 -8.561,2.767 -11.605,4.554 -13.466,7.905 -1.172,2.11 -1.257,2.127 -1.287,0.259 z m 478.001999,-3.565 c -6.837,-3.99 -7.933,-4.935 -5.718,-4.935 4.137,0 8.785,2.35 12.623,6.38 1.896,1.99 3.02,3.59 2.5,3.555 -0.52,-0.036 -4.752,-2.286 -9.405,-5 z m -11.366,1.011 c -1.092,-1.56 -1.219,-3.03 -0.525,-6.115 0.501,-2.234 0.623,-5.022 0.269,-6.196 -0.536,-1.78 -0.417,-1.919 0.719,-0.835 0.894,0.854 1.363,3.69 1.364,8.25 0.001,3.822 -0.085,6.95 -0.193,6.95 -0.107,0 -0.843,-0.925 -1.634,-2.054 z m -17.207,-3.803 c -1.793,-1.093 -4.41,-4.464 -6.404,-8.246 -6.205,-11.77 -10.475,-17.3 -24.714,-32.008 -20.28,-20.946 -33.96,-39.992 -45.429,-63.242 l -5.992,-12.147 4.867,5.136 c 2.677,2.825 8.38,11.15 12.672,18.5 11.82,20.237 21.4,32.806 38.006,49.864 16.13,16.567 19.564,21.209 24.424,33.015 2.109,5.123 3.97,8.06 5.848,9.224 1.584,0.982 2.117,1.717 1.254,1.73 -0.825,0.013 -2.864,-0.809 -4.532,-1.826 z m 9.251,-2.204 c -1.183,-4.576 1.178,-10.117 6.641,-15.585 4.483,-4.488 6.262,-5.487 13.922,-7.82 4.83,-1.471 14.205,-3.52 20.835,-4.553 6.629,-1.032 12.763,-2.463 13.63,-3.18 1.322,-1.09 1.503,-1.057 1.115,0.199 -0.715,2.312 -8.431,5.664 -18.362,7.976 -15.036,3.502 -21.995,5.875 -26.241,8.951 -5.155,3.734 -9.325,9.188 -10.198,13.336 -0.671,3.195 -0.689,3.203 -1.342,0.676 z m -356.718999,0.686 c 0,-1.732 4.174,-11.115 10.827,-24.342 8.244,-16.39 21.1,-38.238 37.361999,-63.497 5.21,-8.093 12.361,-19.956 15.892,-26.364 7.021,-12.742 13.795,-20.566 19.41,-22.42 l 3.555,-1.172 -4.977,-5.445 c -2.736,-2.994 -7.773,-9.369 -11.192,-14.165 -3.42,-4.797 -9.55,-12.687 -13.624,-17.534 -10.249,-12.196 -13.139,-16.75 -14.186,-22.353 -0.496,-2.658 -0.752,-4.983 -0.569,-5.167 0.184,-0.183 1.218,1.616 2.298,4 1.08,2.383 5.597,8.557 10.04,13.72 4.441,5.162 11.911,14.91 16.6,21.663 12.26,17.657 13.531,18.847 40.8,38.2 3.293,2.337 5.474,4.25 4.847,4.25 -2.094,0 -12.699,-5.818 -21.13,-11.593 l -8.34,-5.71 -5.658,6.02 c -3.112,3.31 -8.857,11.425 -12.767,18.033 -3.91,6.607 -12.435,20.054 -18.945,29.881 -13.980999,21.108 -27.793999,44.203 -32.034999,53.562 -1.668,3.682 -6.265,12.12 -10.216,18.75 -6.353,10.661 -7.993,13.058 -7.993,11.682 z m -26.5,-3.195 c -8.791,-1.787 -14.07,-3.508 -19.745,-6.435 -6.6,-3.405 -8.6679997,-3.996 -13.9999997,-4.001 -8.646,-0.008 -13.5960003,-1.514 -14.3090003,-4.353 -0.73,-2.91 2.3660003,-11.063 11.8820003,-31.284 4.177,-8.879 10.0879997,-22.535 13.1339997,-30.348 5.193,-13.32 5.539,-14.745 5.543,-22.858 0.006,-11.575 3.26,-33.086 6.474,-42.789 2.856,-8.624 20.223,-43.877 24.237,-49.198 3.556,-4.713 7.25,-6.669 17.14,-9.075 6.014,-1.462 14.121,-4.82 26.644,-11.038 9.899999,-4.915 19.124999,-9.216 20.499999,-9.557 l 2.5,-0.62 -2.5,2.082 c -11.138,9.276 -27.469999,17.692 -43.409999,22.371 -9.131,2.68 -12.5,4.162 -15.022,6.607 -3.259,3.158 -20.492,34.734 -24.596,45.066 -3.58,9.01 -4.723,13.699 -7.436,30.5 -1.421,8.8 -2.854,16.9 -3.184,18 -1.438,4.792 1.256,-0.231 4.684,-8.734 6.865,-17.028 19.355,-43.766 20.445,-43.766 0.909,0 -6.57,20.077 -12.334,33.109 -5.309,12.004 -19.147,47.039 -19.147,48.476 0,0.313 -3.614,9.057 -8.0319997,19.43 -10.119,23.758 -12.313,30.04 -10.964,31.388 0.564,0.564 4.50700001,1.328 8.761,1.697 6.4149997,0.556 8.7699997,1.288 13.7939997,4.288 4.293,2.563 8.953,4.23 15.993,5.723 8.49,1.8 23.029,6.28 24.365,7.506 1.284,1.179 -11.058,-0.082 -21.417,-2.187 z m 411.499999,-15.352 c 2.727,-1.961 8.972,-3.174 12.724,-2.47 3.322,0.623 3.47,0.776 1.47,1.516 -3.76,1.39 -15.938,2.21 -14.194,0.954 z m 26.31,-20.009 c -1.545,-2.83 -5.012,-8.165 -7.703,-11.857 -5.603,-7.687 -15.677,-28.056 -21.124,-42.712 -3.994,-10.749 -6.49,-18.5 -5.956,-18.5 1.202,0 10.023,16.24 13.424,24.711 6.674,16.629 9.452,22.323 15.262,31.289 4.737,7.308 10.424,20.697 9.278,21.842 -0.204,0.205 -1.636,-1.943 -3.181,-4.773 z m -21.952,-25.32 c -16.555,-17.127 -32.845,-42.17 -34.964,-53.75 -0.578,-3.157 -0.085,-2.716 5.035,4.5 3.122,4.4 7.986,11.826 10.809,16.5 2.823,4.676 9.211,14.565 14.197,21.978 12.913,19.197 12.777,18.899 4.923,10.773 z m -126.367,-42.17 c -11.272,-7.4 -17.522,-20.216 -18.566,-38.08 -0.514,-8.777 -0.488,-8.915 1.045,-5.586 0.864,1.877 2.462,6.903 3.551,11.168 3.553,13.915 8.119,23.205 14.828,30.169 4.963,5.15 4.667,5.955 -0.858,2.329 z m 107.27,-12.985 c -8.824,-9.655 -16.32,-22.409 -23.06,-39.235 -4.17,-10.412 -7.719,-15.248 -15.467,-21.074 -7.617,-5.729 -20.02,-18.179 -24.675,-24.772 l -3.44,-4.872 4.44,3.067 c 2.443,1.687 8.266,6.636 12.941,10.996 4.675,4.36 11.1,9.835 14.279,12.165 7.788,5.71 11.766,11.499 17.16,24.978 2.498,6.241 8.777,18.729 13.954,27.75 5.177,9.021 9.276,16.403 9.11,16.403 -0.166,0 -2.525,-2.433 -5.243,-5.406 z m -239.023,3.37 c -3.022,-1.215 -10.29,-6.393 -7.738,-5.513 9.737,3.355 17.986,3.034 19.424,-0.755 1.628,-4.287 5.004,-24.412 6.577,-39.196 2.286,-21.498 3.994,-31.313 6.421,-36.892 1.17,-2.69 2.341,-4.679 2.6,-4.42 0.26,0.26 0.04,2.912 -0.49,5.892 -0.53,2.98 -2.115,15.545 -3.52,27.92 -2.648,23.298 -5.84,44.172 -7.597,49.661 -0.556,1.739 -1.701,3.426 -2.545,3.75 -2.28,0.875 -10.541,0.594 -13.132,-0.447 z m 62.762,-11.074 c 0,-2.543 14.07,-14.802 23.441,-20.425 13.768,-8.262 18.914,-13.298 26.29,-25.73 7.001,-11.798 13.51,-18.453 22.987,-23.504 3.334,-1.777 6.34,-3.231 6.679,-3.231 0.339,0 -2.93,3.124 -7.264,6.943 -8.71,7.676 -12.44,12.375 -19.973,25.165 -6.512,11.057 -12.775,16.732 -29.718,26.926 -7.414,4.462 -15.496,9.65 -17.96,11.532 -2.465,1.881 -4.482,2.927 -4.482,2.324 z m -6.75,-5.945 c -9.32,-11.88 -26.56,-40.65 -28.732,-47.945 -1.37,-4.603 8.73,7.944 15.698,19.5 4.343,7.202 18.72,34.5 18.17,34.5 -0.213,0 -2.525,-2.725 -5.137,-6.055 z m 83.75,-27.536 c 8.839,-3.54 17.126,-4.798 24.5,-3.721 l 6,0.876 -10.5,2.332 c -5.775,1.282 -14.1,2.508 -18.5,2.724 l -8,0.392 z m -19.338,-6.147 c -0.924,-1.495 9.519,-3.272 18.755,-3.192 l 8.083,0.07 -4,1.527 c -4.825,1.84 -21.947,3.037 -22.838,1.595 z m -223.441999,-7.711 c -8.64,-2.092 -7.377,-2.79 4.28,-2.366 7.793999,0.283 11.874999,0.885 13.999999,2.067 2.997,1.666 2.992,1.667 -5,1.622 -4.4,-0.024 -10.375999,-0.62 -13.279999,-1.323 z m 4.78,-8.42 c 0,-1.606 6.956999,-2.018 11.248999,-0.667 l 4.251,1.338 -7.75,0.099 c -4.262,0.054 -7.749999,-0.293 -7.749999,-0.77 z m 68.231999,-20.817 c -10.907,-21.609 -25.688,-59.58 -28.547,-73.33 -1.818,-8.748 -2.72,-14.984 -2.169,-14.984 1.02,0 5.436,11.877 13.941,37.5 5.112,15.4 12.758,36.03 16.992,45.843 4.233,9.814 7.485,18.056 7.226,18.315 -0.259,0.259 -3.608,-5.746 -7.443,-13.344 z m 222.784,-2.564 c 0.019,-10.155 1.498,-13.493 2.483,-5.605 0.607,4.856 -0.716,13.855 -2.037,13.855 -0.254,0 -0.455,-3.713 -0.446,-8.25 z m 5.33,3.382 c 0.273,-2.402 1.866,-7.127 3.541,-10.5 3.233,-6.508 11.904,-18.175 12.824,-17.255 0.679,0.679 -5.91,14.689 -8.85,18.819 -1.19,1.67 -3.478,5.347 -5.086,8.17 l -2.923,5.134 z m -285.323,-5.132 c 2.073,-4.118 12.074,-18.059 17.847,-24.879 6.004,-7.093 7.015,-10.047 7.225,-21.121 0.078,-4.125 0.442,-8.85 0.81,-10.5 0.57,-2.562 0.845,-1.949 1.881,4.192 1.336,7.916 1.553,15.366 0.586,20.197 -0.39,1.956 -4.114,7.186 -9.876,13.875 -10.907,12.661 -20.37,22.003 -18.473,18.236 z m 95.977,1.208 c 0,-1.142 14.329,-3.97 16.411,-3.24 1.23,0.432 0.137,1.124 -3.667,2.323 -5.638,1.777 -12.744,2.289 -12.744,0.917 z m 24,-2.195 c 5.791,-3.045 13.043,-4.723 15.049,-3.484 1.384,0.856 -14.263,6.388 -18.049,6.381 -1.979,-0.004 -1.353,-0.608 3,-2.897 z m 119,-3.98 c 0,-1.884 9.384,-8.973 13.806,-10.429 l 4.694,-1.545 -3.647,3.22 c -4.272,3.772 -14.853,10.008 -14.853,8.754 z m 14.723,-3.824 c 1.772,-1.49 5.507,-3.96 8.3,-5.487 4.53,-2.478 4.961,-2.561 4.002,-0.77 -0.59,1.106 -2.743,3.143 -4.782,4.528 -2.193,1.491 -3.038,2.52 -2.07,2.52 0.901,0 3.504,-1.56 5.785,-3.465 2.33,-1.947 5.766,-3.73 7.844,-4.07 2.034,-0.333 6.623,-1.897 10.198,-3.475 6.917,-3.053 12,-4.586 12,-3.62 0,0.784 -7.59,4.63 -9.134,4.63 -1.455,0 -16.262,7.497 -20.02,10.136 -2.84,1.994 -7.345,2.482 -8.322,0.902 -0.38,-0.616 -1.505,-0.616 -3.124,0 -3.985,1.515 -4.144,1.085 -0.677,-1.83 z m -17.723,0.29 c 0,-2.271 4.965,-7.666 10.444,-11.349 7.939,-5.336 15.76,-8.864 22.556,-10.173 3.025,-0.582 7.586,-1.716 10.135,-2.518 5.868,-1.848 14.86,-1.866 21.882,-0.045 2.998,0.778 5.745,1.233 6.104,1.01 0.359,-0.22 0.96,-2.039 1.335,-4.039 0.576,-3.072 5.068,-11.385 6.152,-11.385 0.189,0 -0.107,1.183 -0.657,2.63 -0.55,1.446 -1.249,5.609 -1.553,9.25 -0.847,10.136 -2.8,11.132 -13.437,6.854 -3.597,-1.446 -8.639,-3.191 -11.205,-3.877 -4.111,-1.1 -4.891,-1.045 -6.558,0.464 -1.04,0.942 -5.727,3.258 -10.414,5.148 -13.095,5.28 -28.978,13.35 -32.034,16.273 -1.512,1.447 -2.75,2.238 -2.75,1.757 z m -125.25,-6.374 c -0.412,-1.857 -0.721,-4.782 -0.686,-6.5 0.062,-3.066 0.082,-3.078 1.047,-0.661 0.54,1.355 0.85,4.28 0.686,6.5 l -0.297,4.036 z m 110.053,-6.035 c -3.719,-2.36 -5.333,-4.397 -8.515,-10.755 -2.16,-4.314 -4.167,-8.764 -4.46,-9.888 -0.356,-1.36 -2.004,-2.483 -4.931,-3.359 -9.57,-2.864 -16.169,-7.175 -25.192,-16.46 -15.492,-15.94 -25.557,-29.39 -36.044,-48.167 -4.817,-8.626 -10.692,-22 -10.646,-24.234 0.008,-0.4 2.531,3.998 5.606,9.773 13.948,26.198 22.763,38.277 40.511,55.508 11.58,11.244 28.948,24.305 29.706,22.34 0.186,-0.482 -0.192,-4.018 -0.84,-7.857 -0.987,-5.854 -1.908,-7.91 -5.707,-12.736 -5.27,-6.695 -8.569,-13.584 -11.3,-23.599 -1.814,-6.653 -5.085,-25.805 -4.516,-26.437 0.681,-0.756 5.052,11.36 8.07,22.372 3.852,14.056 5.615,17.873 11.506,24.909 5.013,5.987 5.648,7.516 6.984,16.82 1.622,11.295 6.71,24.153 11.808,29.837 4.986,5.56 4.463,6.056 -2.04,1.933 z m -42.886,-1.49 c 2.76,-3.326 10.411,-5.84 18.926,-6.22 8.622,-0.384 8.643,-0.379 5.157,1.228 -4.975,2.294 -25.348,6.516 -24.083,4.992 z m -88.915,-9.35 c 0.003,-1.535 11.705,-5.477 17.498,-5.895 l 6,-0.433 -5,2.057 c -4.968,2.045 -15.28,5.02 -17.394,5.02 -0.608,0 -1.105,-0.337 -1.104,-0.75 z m 19.393,-0.42 c -0.484,-0.783 -0.18,-0.962 0.916,-0.541 0.914,0.35 4.492,-0.706 8.087,-2.388 4.965,-2.324 7.557,-2.947 11.275,-2.71 l 4.827,0.309 -9.019,3.25 c -9.372,3.377 -14.847,4.084 -16.086,2.08 z m 55.037,-2.266 c 10.186,-5.05 25.517,-5.55 39.568,-1.29 4.252,1.29 3.34,1.405 -16.5,2.083 -11.55,0.395 -22.575,0.928 -24.5,1.185 -3.394,0.453 -3.35,0.394 1.432,-1.978 z m 120.639,-7.071 c -0.04,-1.654 -0.49,-4.466 -1,-6.25 -1.034,-3.602 -0.475,-4.145 1.537,-1.493 1.5,1.976 1.671,5.774 0.392,8.75 -0.738,1.719 -0.869,1.577 -0.93,-1.007 z m -176.393,-9.175 c -1.049,-3.032 -1.665,-7.18 -1.485,-10 l 0.307,-4.818 1.828,7.129 c 1.006,3.92 1.674,8.42 1.486,10 -0.31,2.598 -0.513,2.38 -2.136,-2.31 z m 190.322,-1.301 -9.5,-2.75 5,-0.669 c 3.39,-0.452 6.772,-0.156 10.5,0.921 9.22,2.664 9.96,2.759 11.506,1.476 0.949,-0.787 1.494,-0.851 1.494,-0.175 0,1.722 -4.234,4.19 -6.972,4.064 -1.39,-0.064 -6.803,-1.354 -12.028,-2.867 z m 25.502,-3.967 c 1.484,-2.914 1.673,-5.244 1.221,-15 -0.746,-16.089 -3.487,-24.081 -12.823,-37.384 -2.866,-4.083 -6.673,-11.656 -9.459,-18.818 -6.884,-17.697 -9.214,-20.477 -30.94,-36.919 -17.684,-13.381 -26.598,-20.71 -26.326,-21.647 0.124,-0.43 -3.126,-3.378 -7.224,-6.55 -13.736,-10.63 -46.647,-25.915 -66.06,-30.679 -16.374,-4.018 -26.8,-9.277 -29.91,-15.089 -0.85,-1.59 -0.437,-1.527 3.273,0.498 5.902,3.222 19.544,8.021 30.246,10.64 12.521,3.064 47.56,19.027 58.918,26.841 4.886,3.362 12.105,10.976 12.96,13.671 0.343,1.082 3.094,3.01 6.364,4.462 7.26,3.222 31.957,21.78 39.328,29.551 6.943,7.32 10.02,12.548 14.796,25.143 2.067,5.453 5.88,12.95 8.474,16.658 10.05,14.379 14.208,26.878 13.16,39.572 -0.79,9.574 -1.926,13.122 -5.156,16.103 l -2.598,2.397 z m -51.347,-2.05 c -0.74,-2.475 -2.7,-7.609 -4.355,-11.408 -2.17,-4.98 -2.858,-7.844 -2.466,-10.26 0.502,-3.097 0.246,-3.506 -3.345,-5.338 -8.345,-4.258 -14.35,-5.992 -23.825,-6.884 -12,-1.13 -17.34,-3.574 -34.16,-15.641 -6.327,-4.54 -13.46,-9.234 -15.85,-10.431 -5.67,-2.84 -4.862,-3.437 1.926,-1.425 7.064,2.094 11.576,4.438 21.92,11.387 13.394,8.996 16.1,10.1 27.103,11.056 10.691,0.928 16.826,3.308 23.394,9.075 1.964,1.724 3.703,2.962 3.865,2.752 0.163,-0.211 2.02,-5.285 4.126,-11.275 2.623,-7.457 3.981,-13.233 4.307,-18.315 0.714,-11.126 2.716,-7.742 2.665,4.506 -0.034,8.222 -0.53,11.142 -3.25,19.16 -3.62,10.671 -3.873,13.952 -1.655,21.58 0.854,2.94 1.417,7.734 1.25,10.653 l -0.305,5.308 z m 13.961,-8.3 c -0.216,-10.826 4.036,-15.012 17.456,-17.184 4.755,-0.77 8.755,-1.539 8.89,-1.708 0.133,-0.17 0.746,-1.208 1.36,-2.308 1.051,-1.882 1.12,-1.847 1.148,0.595 0.044,3.756 -2.472,5.5 -11.479,7.963 -4.395,1.201 -9.193,3.035 -10.663,4.075 -2.4,1.7 -4.997,6.906 -6.167,12.367 -0.236,1.1 -0.48,-0.61 -0.545,-3.8 z m -262.61,-3.95 c -0.91,-3.988 -2.753,-12.65 -4.097,-19.25 -2.937,-14.428 -13.853,-51.538 -16.667,-56.662 -3.066,-5.583 -6.584,-7.565 -17.402999,-9.8 -5.81,-1.2 -12.833,-3.502 -17.15,-5.62 -7.71,-3.784 -21.51,-12.773 -29.37,-19.132 -32.811,-26.546 -32.016,-25.642 -36.323,-41.286 -1.4379997,-5.225 -5.1759997,-16.925 -8.3059997,-26 l -5.69,-16.5 -0.329,-21.5 c -0.3,-19.621003 0.302,-32.861003 1.442,-31.721003 1.446,1.446 2.62200001,14.723 2.81000001,31.720003 l 0.216,19.5 4.22199999,12 c 2.322,6.6 5.8099997,17.622 7.7499997,24.494 4.892,17.318 6.64,20.12 19.09,30.626 5.789,4.884 13.062,11.065 16.162,13.736 7.192,6.195 21.761,15.913 30.137,20.103 3.575,1.789 12.025,5.4 18.778,8.024 14.223999,5.53 16.448999,7.045 19.626999,13.366 2.586,5.143 11.691,37.05 14.683,51.45 1.904,9.165 3.732,29.702 2.644,29.702 -0.314,0 -1.316,-3.263 -2.225,-7.25 z m 58.199,1.411 c -2.769,-1.11 16.782,-7.396 21.726,-6.986 2.153,0.178 4.1,0.887 4.326,1.575 0.257,0.784 -0.168,1.03 -1.138,0.657 -0.852,-0.327 -5.052,0.541 -9.334,1.93 -9.527,3.088 -13.241,3.762 -15.58,2.824 z m 26.952,-3.17 c 6.008,-3.041 17.351,-5.254 17.336,-3.381 -0.009,1.109 -12.937,5.137 -18.993,5.917 l -4.5,0.58 z m -42.596,-1.737 c -5.343,-11.64 -18.577,-51.424 -22.99,-69.109 -4.845,-19.421 -6.02,-26.723 -7.987,-49.645 -1.038,-12.1 -2.395,-23.3 -3.014,-24.89 -1.572,-4.034 -0.699,-4.302 1.94,-0.596 3.962,5.564 5.094,11.616 5.983,31.986 0.921,21.128 2.339,29.85 9.1,55.995 4.046,15.642 13.584,45.752 17.07,53.882 2.051,4.787 1.962,6.874 -0.102,2.377 z m 36.703,-12.254 c -0.405,-1.375 -0.729,-4.525 -0.72,-7 0.014,-3.547 0.234,-4.129 1.039,-2.746 0.562,0.965 0.886,4.115 0.72,7 -0.238,4.128 -0.46,4.713 -1.04,2.746 z m -23.165,-15.689 c -1.881,-0.51 -0.102,-1.302 13.507,-6.008 2.754,-0.953 5.697,-1.319 7.32,-0.911 2.736,0.686 3.084,2.604 0.623,3.425 -0.791,0.263 -1.045,-0.014 -0.629,-0.688 0.98,-1.585 0.337,-1.453 -6.553,1.346 -6.665,2.709 -11.327,3.635 -14.268,2.836 z m 24.901,-3.146 c 7.75,-3.66 10.232,-4.218 14.5,-3.264 l 3.5,0.782 -4.5,1.208 c -2.475,0.664 -6.492,1.86 -8.928,2.658 -2.435,0.798 -5.81,1.45 -7.5,1.45 -2.74,0 -2.425,-0.306 2.928,-2.834 z m 112.511,-12.29 c -26.448,-19.77 -44.499,-41.185 -46.674,-55.375 -0.586,-3.82 -0.342,-3.59 5.404,5.094 8.434,12.746 15.007,20.367 34.631,40.156 9.409,9.487 16.887,17.242 16.618,17.233 -0.27,-0.009 -4.76,-3.208 -9.979,-7.109 z m -42.427,-2.206 c -3.094,-4.65 -9.204,-16.04 -13.578,-25.312 -4.374,-9.272 -9.553,-19.961 -11.51,-23.755 -4.47,-8.668 -2.064,-6.8 4.9,3.803 9.643,14.681 27.885,51.647 26.28,53.252 -0.256,0.256 -2.998,-3.338 -6.092,-7.988 z m -73.742,1.58 c -0.61,-1.512 -1.271,-5.224 -1.47,-8.25 -0.36,-5.466 -0.354,-5.48 1.08,-2.385 1.59,3.43 3.19,13.386 2.152,13.386 -0.36,0 -1.152,-1.238 -1.762,-2.75 z m -24.034,-24.776 c 7.231,-3.285 11.823,-4.461 17.442,-4.468 3.418,-0.004 4.75,0.389 4.75,1.4 0,0.843 -0.703,1.23 -1.75,0.964 -0.962,-0.244 -5.542,0.698 -10.176,2.094 -4.634,1.395 -10.034,2.51 -12,2.479 l -3.574,-0.058 z m 19.964,1.965 c -0.993,-0.993 14.938,-6.448 18.68,-6.396 2.738,0.037 2.438,0.332 -2.952,2.902 -6.143,2.93 -14.448,4.774 -15.728,3.494 z m -1.661,-18.358 c -1.345,-6.27 -1.457,-15.749 -0.195,-16.528 2.134,-1.32 4.125,17.255 2.18,20.327 -0.61,0.962 -1.21,-0.19 -1.985,-3.799 z m -20.027,-18.497 c 1.054,-1.053 11.8,-4.803 16.105,-5.62 5.218,-0.989 7.811,-0.476 7.811,1.546 0,1.045 0.9,1.024 4.66,-0.107 2.562,-0.771 5.824,-1.365 7.25,-1.318 2.31,0.075 2.15,0.287 -1.487,1.962 -5.17,2.382 -13.05,3.055 -12.631,1.079 0.314,-1.483 -0.094,-1.428 -9.76,1.32 -4.94,1.404 -12.981,2.17 -11.948,1.138 z m 18.363,-19.162 c -0.383,-3.069 -0.439,-7.464 -0.123,-9.766 0.531,-3.875 0.333,-4.352 -2.663,-6.405 -1.78,-1.22 -4.794,-3.848 -6.699,-5.841 l -3.462,-3.624 7.225,3.607 c 7.218,3.604 10.666,4.402 11.712,2.71 0.718,-1.163 15.454,-6.545 16.114,-5.885 0.883,0.883 -17.511,12.735 -18.923,12.193 -1.102,-0.423 -1.262,1.261 -0.855,9.035 0.335,6.4 0.149,9.555 -0.564,9.555 -0.586,0 -1.378,-2.511 -1.762,-5.58 z m -46.744,-3.811 c -1.148,-7.986 -0.813,-14.51 1.305,-25.418 1.508,-7.77 1.734,-10.807 0.916,-12.336 -1.622,-3.03 -0.339,-3.42 1.586,-0.481 2.708,4.131 2.864,9.691 0.599,21.265 -1.17,5.973 -2.48,13.335 -2.914,16.36 l -0.788,5.5 z m -88.121999,-13.915 c -4.115,-5.396 -6.671,-12.315 -8.126,-21.997 -0.753,-5.014 -1.215,-9.271 -1.027,-9.46 0.886,-0.886 4.992,9.76 7.603,19.714 1.594,6.076 3.38,11.947 3.97,13.047 1.634,3.054 0.395,2.386 -2.42,-1.304 z m -35.61,-6.23 c -2.293,-2.764 -0.64,-14.038 3.516,-23.965 2.072,-4.95 4.122,-10.125 4.555,-11.5 0.633,-2.012 0.803,-1.566 0.872,2.281 0.048,2.647 -1.253,9.29 -2.914,14.88 -4.159,14 -3.997,15.534 1.04,9.839 l 3.98,-4.5 -2.068,4.966 c -3.221,7.742 -6.655,10.8 -8.98,8 z m 162.626999,-10.355 c -9.562,-10.322 -12.982,-15.67 -12.352,-19.317 l 0.397,-2.293 1.068,2.5 c 0.588,1.375 4.286,5.875 8.22,10 6.094,6.392 13.202,17.328 11.953,18.393 -0.211,0.18 -4.39,-3.998 -9.286,-9.283 z m 12.425,8.336 c -0.081,-7.34 11.537,-20.575 23.098,-26.313 4.027,-1.998 7.815,-4.623 8.418,-5.833 1.067,-2.142 1.125,-2.116 2.19,1 0.6,1.76 1.346,5.9 1.655,9.2 0.54,5.753 0.504,5.876 -0.865,3 -0.786,-1.65 -1.459,-4.8 -1.496,-7 -0.066,-3.932 -0.097,-3.965 -1.795,-1.912 -0.95,1.149 -4.977,4.212 -8.95,6.808 -8.559,5.594 -18.103,14.717 -20.51,19.606 -1.284,2.607 -1.728,2.975 -1.745,1.444 z m 12.977,0.081 c 0,-1.563 8.577,-8.052 15.336,-11.602 7.26,-3.813 7.715,-3.932 6.2,-1.62 -0.899,1.371 -3.33,3.616 -5.403,4.988 -4.587,3.036 -16.133,8.929 -16.133,8.234 z m -34.411,-6.83 c -3.624,-3.554 -6.589,-7.022 -6.589,-7.709 0,-1.592 7.556,4.617 11.405,9.373 4.961,6.13 2.137,5.153 -4.816,-1.665 z m -7.222,-15.034 c 0.224,-2.66 0.943,-5.36 1.598,-6 0.919,-0.898 1.026,-0.25 0.47,2.837 -1.194,6.639 -2.532,8.685 -2.068,3.163 z m -30.867,2.182 c -32.34,-2.743 -45.196,-5.109 -53.100999,-9.773 -1.954,-1.152 -3.968,-1.839 -4.475,-1.525 -0.508,0.314 -0.924,0.035 -0.924,-0.62 0,-0.795 1.076,-0.995 3.25,-0.603 18.790999,3.386 26.741999,4.644 32.942999,5.211 4.019,0.368 14.887,1.748 24.15,3.067 9.264,1.319 18.264,2.438 20,2.488 l 3.157,0.09 -3,0.818 c -4.633,1.263 -13.2,1.593 -22,0.847 z m -69.099999,-11.427 c -2.695,-1.42 -8.833,-5.245 -13.64,-8.5 -4.806,-3.255 -9.167,-5.918 -9.69,-5.918 -0.524,0 -1.273,-0.52 -1.666,-1.157 -1.09,-1.764 5.896,-0.361 11.352,2.28 2.526,1.223 7.05,4.226 10.055,6.673 3.005,2.448 7.04,5.52 8.966,6.827 4.944,3.355 1.1,3.209 -5.378,-0.205 z m -31.283,-12.945 c -0.136,-15.126 -1.594,-28.286003 -3.69,-33.300003 -1.443,-3.456 -1.434,-3.49 0.459,-1.777 6.435,5.823 8.705,22.736003 5.249,39.104003 l -1.9,9 z m 134.882999,-4.597 c 0,-14.15 -0.966,-18.791003 -7.058,-33.901003 -4.055,-10.058 -4.15,-10.561 -3.76,-19.897 0.357,-8.546 0.795,-10.396 4.066,-17.16 6.421,-13.283 19.748,-25.545 29.781,-27.403 3.868,-0.717 23.395,1.707 28.971,3.596 4.593,1.556 10.866,6.14 13.158,9.615 2.73,4.14 2.22,5.878 -0.704,2.402 -3.685,-4.38 -11.889,-7.865 -22.596,-9.602 -17.987,-2.917 -23.627,-1.64 -33.345,7.55 -6.706,6.343 -10.715,12.503 -13.435,20.643 -2.924,8.751 -2.66,15.115 1.052,25.282 7.746,21.217 7.982,22.085003 7.972,29.344003 -0.009,6.784 -2.177,20.064 -3.491,21.379 -0.336,0.335 -0.61,-4.996 -0.61,-11.847 z m 56.5,8.124 c 1.1,-0.473 3.006,-0.892 4.235,-0.93 1.228,-0.039 3.549,-1.308 5.156,-2.82 2.505,-2.359 3.38,-4.745 6.136,-16.75 5.107,-22.246003 4.574,-20.850003 5.444,-14.257003 1.328,10.057003 -2.644,28.216003 -7.219,33.007003 -2.362,2.473 -3.286,2.742 -9.189,2.68 -4.593,-0.05 -5.963,-0.329 -4.563,-0.93 z m -50.681,-34.250003 c -6.304,-5.826 -8.062,-9.194 -6.956,-13.329 0.905,-3.385 3.231,-4.995 5.751,-3.98 1.767,0.71 1.743,0.814 -0.364,1.626 -3.55,1.37 -2.752,4.978 2.75,12.433 4.284,5.803 5.792,8.5 4.75,8.5 -0.137,-0.001 -2.806,-2.364 -5.931,-5.25 z m 69.69,-15.995 c 0.567,-5.29 0.218,-8.319 -1.907,-16.55 -1.431,-5.54 -2.6,-10.44 -2.6,-10.89 0.002,-0.448 1.621,1.867 3.598,5.146 5.128,8.504 6.211,14.552 3.914,21.854 -2.545,8.092 -3.844,8.283 -3.004,0.44 z m -219.508999,0.17 c -7.7,-2.288 -15.475,-3.329 -22.883,-3.063 -6.4479997,0.23 -9.6699997,-1.55 -11.7299997,-6.48 -0.796,-1.905 -1.88399999,-3.193 -2.41699999,-2.864 -1.56300001,0.966 -1.16200001,-0.303 2.27599999,-7.21 4.372,-8.786 8.7669997,-13.678 15.0479997,-16.751 9.96,-4.873 28.932,-7.042 35.206,-4.025 l 3,1.443 -3.31,-0.58 c -4.89,-0.858 -26.536,4.246 -33.494,7.896 -4.276,2.243 -7.369,4.99 -11.7479997,10.433 l -5.94299999,7.389 2.95999999,3.167 c 3.154,3.375 6.276,4.058 23.5349997,5.15 6.967,0.442 24.091,5.645 22.806,6.93 -1.137,1.138 -6.65,0.543 -13.306,-1.434 z m 19.5,-2.19 -3,-1.145 2.78,-0.545 c 2.765,-0.543 2.75,-0.568 -2.766,-4.866 -3.05,-2.377 -5.311,-4.698 -5.026,-5.16 0.593,-0.959 -7.29,-5.02 -9.744,-5.02 -0.894,0 -1.904,-0.45 -2.244,-1 -0.963,-1.558 8.202,-1.205 11.382,0.44 1.53,0.791 4.727,3.063 7.103,5.048 2.376,1.985 4.927,3.377 5.668,3.092 0.741,-0.284 1.347,-0.08 1.347,0.452 0,0.533 -0.787,0.97 -1.75,0.974 -1.345,0.004 -1.087,0.535 1.113,2.295 5.328,4.264 1.954,8.035 -4.863,5.434 z m -12.56,-4.412 c -4.092,-2.021 -9.915,-4.472 -12.94,-5.446 l -5.5,-1.77 6,-0.032 c 3.883,-0.02 7.412,0.64 10,1.869 4.305,2.045 12.689,8.956 10.94,9.018 -0.583,0.02 -4.408,-1.617 -8.5,-3.638 z m 19.176,-8.095 c -0.064,-0.7 -2.979,-2.639 -6.478,-4.31 -5.574,-2.663 -14.488,-9.918 -12.185,-9.918 1.461,0 17.2,8.876 18.486,10.425 0.674,0.813 1.016,2.288 0.76,3.277 -0.257,0.988 -0.519,1.225 -0.583,0.526 z m -23.997,-18.728 c 1.175,-1.197 17.882,-1.528 17.882,-0.355 0,1.363 -4.124,1.943 -11.682,1.641 -4.773,-0.19 -6.853,-0.622 -6.2,-1.286 z m 26.526,-9.25 c 0.707,-3.79 1.002,-3.69 -4.927,-1.67 -7.785,2.653 -8.995,1.205 -1.995,-2.387 7.986,-4.1 10.278,-4.167 10.278,-0.304 0,1.589 -0.891,3.951 -1.981,5.25 l -1.981,2.36 z"
         id="path975"
         style="fill:#ffffff;stroke-width:0.990533" />
    </g>
  </g>
</svg>
