<?xml version="1.0" encoding="UTF-8" standalone="no"?>
<!-- Created with Inkscape (http://www.inkscape.org/) -->

<svg
   version="1.1"
   id="svg2"
   width="535.28284"
   height="610.02417"
   viewBox="0 0 535.28283 610.02417"
   sodipodi:docname="taichi_fill.svg"
   inkscape:version="1.1.2 (0a00cf5339, 2022-02-04)"
   xmlns:inkscape="http://www.inkscape.org/namespaces/inkscape"
   xmlns:sodipodi="http://sodipodi.sourceforge.net/DTD/sodipodi-0.dtd"
   xmlns="http://www.w3.org/2000/svg"
   xmlns:svg="http://www.w3.org/2000/svg">
  <defs
     id="defs6" />
  <sodipodi:namedview
     id="namedview4"
     pagecolor="#000000"
     bordercolor="#666666"
     borderopacity="1.0"
     inkscape:pageshadow="2"
     inkscape:pageopacity="0"
     inkscape:pagecheckerboard="true"
     showgrid="false"
     fit-margin-top="0"
     fit-margin-left="0"
     fit-margin-right="0"
     fit-margin-bottom="0"
     inkscape:zoom="0.86957925"
     inkscape:cx="201.82174"
     inkscape:cy="197.22182"
     inkscape:window-width="1920"
     inkscape:window-height="1029"
     inkscape:window-x="0"
     inkscape:window-y="27"
     inkscape:window-maximized="1"
     inkscape:current-layer="g8" />
  <g
     inkscape:groupmode="layer"
     inkscape:label="Image"
     id="g8"
     transform="translate(41.608217,-9.7209866)">
    <path
       style="fill:#000000;stroke-width:0.999995"
       d="m 458.22875,618.34398 c -6.0781,-1.92844 -9.3861,-3.94209 -16.47485,-10.02862 -3.69629,-3.1737 -8.53148,-6.25956 -11.23231,-7.16855 -6.5815,-2.21505 -7.77335,-4.26289 -7.04364,-12.10229 0.71468,-7.67796 -0.47524,-8.21095 -3.81143,-1.70724 -1.3132,2.56001 -3.56018,5.53279 -4.99328,6.60621 -2.44098,1.82831 -2.80015,1.85074 -5.68344,0.35494 -4.30345,-2.23256 -6.99902,-6.17548 -14.44671,-21.13171 -7.39226,-14.84495 -12.55112,-22.26421 -23.84463,-34.29243 -14.64002,-15.5924 -26.70524,-32.17382 -36.41876,-50.05081 -3.43619,-6.32406 -5.31429,-8.70007 -7.69535,-9.73558 -8.31706,-3.61693 -16.14484,-12.74708 -19.51668,-22.7638 -1.15445,-3.42949 -2.8148,-12.12442 -3.68966,-19.32208 -0.87488,-7.19767 -1.77151,-13.27115 -1.99254,-13.49663 -0.22102,-0.22547 -2.98874,2.03636 -6.15048,5.02627 -3.16174,2.98993 -8.66916,7.28976 -12.2387,9.55514 -3.56956,2.26541 -11.20352,7.12254 -16.96438,10.79361 -7.12959,4.54332 -11.27369,6.58091 -12.97776,6.38098 -1.8657,-0.21891 -5.48853,-3.99397 -14.22059,-14.81819 -6.44441,-7.98845 -14.08383,-17.81838 -16.97651,-21.84429 l -5.25939,-7.31983 -0.7099,5.31645 c -0.39044,2.92406 -1.88445,14.23973 -3.32001,25.14595 -3.5159,26.71095 -5.08378,32.83398 -8.87092,34.64373 -2.27362,1.08645 -4.03344,1.16649 -7.98781,0.36327 -12.60845,-2.56107 -26.60933,-8.59006 -39.50465,-17.01128 l -8.47255,-5.53297 -5.00687,5.56199 c -4.58604,5.0945 -14.084,19.57373 -43.508002,66.32613 -5.89613,9.3685 -14.517179,24.24355 -19.157885,33.05568 -8.715464,16.54961 -15.807655,28.74567 -18.491389,31.79864 -0.847526,0.96412 -2.281802,1.75295 -3.187281,1.75295 -0.905487,0 -3.194742,1.61714 -5.087243,3.59368 -5.300058,5.53537 -10.018464,7.47951 -20.793543,8.56766 -11.474242,1.15877 -26.2480959,3.25307 -38.5620063,5.46642 -16.1814757,2.90854 -30.8199457,0.46125 -33.9865317,-5.68194 -4.31026,-8.36193 0.198177,-14.10323 14.989026,-19.08788 5.477068,-1.84582 11.093493,-4.35199 12.480945,-5.56923 l 2.522658,-2.2132 -2.24657,-1.60974 c -4.098802,-2.93692 -3.500715,-5.00359 10.4174656,-35.99692 4.6865245,-10.43606 10.4613984,-23.95883 12.8330474,-30.05061 4.041619,-10.38119 4.379214,-12.0185 5.381874,-26.10128 2.046894,-28.74936 5.558942,-40.21747 22.388308,-73.10581 8.069131,-15.76889 11.819685,-19.6737 21.618401,-22.50756 10.233217,-2.95954 17.011389,-5.72199 33.948178,-13.83561 7.962838,-3.81462 16.167888,-7.49324 18.233418,-8.1747 4.07446,-1.34426 11.91386,-9.98982 14.37614,-15.8545 0.75253,-1.79237 1.71761,-8.32838 2.14462,-14.52446 0.76326,-11.075 0.69762,-11.62148 -3.87963,-32.30102 -5.26312,-23.77824 -7.16529,-30.99906 -13.58268,-51.56132 -5.97189,-19.13481 -7.33221,-20.59684 -22.713218,-24.41163 -12.56303,-3.11588 -20.962416,-7.13399 -35.016916,-16.75144 -11.66522,-7.9825 -33.159404,-25.67013 -39.034614,-32.12172 -4.588834,-5.039 -4.385265,-4.52898 -14.79535171,-37.06808 L -7.5601127,118.11733 V 98.199061 c 0,-31.25559 1.8792908,-42.241693 9.1165815,-53.294416 6.4418848,-9.83797 14.3217842,-13.992867 30.8368802,-16.259584 5.734155,-0.787016 9.265045,-0.70693 14.977134,0.339711 l 7.47413,1.369497 0.304924,4.163092 0.304933,4.16308 -7.7935,0.295959 c -7.382749,0.280372 -7.636692,0.365135 -4.818384,1.608339 1.636301,0.721796 3.249169,1.75725 3.584148,2.300986 0.334968,0.543745 3.489312,2.665618 7.009649,4.71528 6.990194,4.069935 8.473419,7.138422 5.586839,11.558066 -1.248054,1.910909 -1.258508,2.506341 -0.07259,4.133451 0.762097,1.045521 1.385591,2.716315 1.385591,3.712873 0,1.506517 -0.841482,1.811922 -4.992374,1.811922 -3.743475,0 -4.992378,0.371104 -4.992378,1.483448 0,2.253525 -4.625748,2.945311 -11.330252,1.694463 -3.314659,-0.6184 -6.203439,-0.947024 -6.4195,-0.730268 -0.216069,0.216764 2.09656,3.71222 5.139175,7.767701 6.4121,8.546653 8.616674,15.329557 8.616674,26.511289 v 7.25683 l 3.744284,0.61026 c 6.894424,1.12374 12.277892,3.6506 20.02089,9.39736 10.134008,7.52133 9.366011,7.17665 13.462487,6.04193 6.268021,-1.73626 16.397926,2.63275 30.169431,13.01202 3.26552,2.46114 5.5417,3.1999 12.48095,4.05082 4.66787,0.5724 15.00209,1.8721 22.96493,2.88821 7.96285,1.0161 16.33505,1.64879 18.60488,1.40597 l 4.12699,-0.44151 1.36462,-6.16647 c 0.82003,-3.70551 1.36464,-16.16968 1.36464,-25.19854 v -15.02532 l -4.46074,-12.52108 -4.46073,-12.521087 0.13613,-15.526149 c 0.11483,-13.096836 0.46404,-16.404657 2.23185,-21.140883 2.78235,-7.454375 7.28344,-14.193834 14.06793,-21.063855 7.77866,-7.876725 14.04329,-10.8855331 22.65626,-10.8814653 9.85479,0.00504 24.0485,2.7271223 28.85204,5.5340593 4.45274,2.601943 10.37131,8.782631 10.37131,10.830641 0,0.700079 2.92055,7.308057 6.4901,14.68439 7.25323,14.988513 7.80868,18.287569 4.58941,27.258397 -1.32341,3.687841 -2.07382,9.25135 -2.47078,18.31836 -0.72947,16.662212 -2.43452,24.118962 -7.78746,34.057362 -4.10991,7.63054 -4.49512,8.02835 -8.06034,8.32439 -4.24983,0.35288 -4.13421,4.0407 -2.41876,10.67934 l 1.28688,4.98012 5.43357,0.10698 c 3.71951,0.0733 8.26836,1.24591 14.41985,3.71739 4.94246,1.98573 14.37805,5.19149 20.96799,7.12393 14.78036,4.33421 27.59192,9.6341 46.52203,19.24524 14.73314,7.48029 21.89471,12.72095 26.94897,19.72057 1.65364,2.29013 6.12824,5.8626 11.0805,8.84656 11.73258,7.06939 25.99198,18.07557 34.85696,26.9045 7.78921,7.75752 7.88883,7.92424 18.73024,31.34785 2.23359,4.8258 5.47257,10.83233 7.19772,13.34783 8.44257,12.31031 12.63858,26.45922 11.57834,39.04212 -0.867,10.28962 -2.6479,14.16898 -7.35711,16.02609 -2.07911,0.81993 -4.42246,1.84697 -5.20744,2.28232 -1.35037,0.74893 -3.10219,7.86515 -4.53707,18.43039 -0.79373,5.8443 -2.8538,8.15938 -6.593,7.40913 -1.79754,-0.36067 -3.18408,-0.0199 -4.01736,0.98741 -2.12779,2.57207 -10.3458,6.26217 -19.07995,8.56741 -4.55308,1.20171 -10.86646,3.36256 -14.02974,4.80191 l -5.75144,2.61699 10.74381,9.48141 c 5.90909,5.21477 13.47768,11.73277 16.81908,14.48447 8.56447,7.05297 11.55868,11.3659 18.21525,26.23765 3.21522,7.18328 9.94846,20.44453 14.96277,29.46948 5.87799,10.57945 12.28352,24.23796 18.03032,38.44608 12.08672,29.88265 11.6389,28.88828 17.59782,39.07575 7.65745,13.09131 11.48671,21.44072 11.48671,25.04593 0,2.83022 -0.58027,3.45913 -5.49162,5.95205 -3.02039,1.53309 -5.49161,3.07881 -5.49161,3.43493 0,0.35612 5.44241,6.04956 12.09424,12.65208 6.65183,6.60252 13.39155,14.00856 14.97714,16.45787 2.68032,4.14037 2.88289,5.14332 2.88289,14.27403 v 9.82076 l -15.72599,-0.0671 c -9.72384,-0.0415 -17.25035,-0.55065 -19.7199,-1.33417 z M 350.6059,360.83854 c 5.37474,-1.8335 12.46812,-4.27694 15.7631,-5.42986 3.29497,-1.15294 9.24837,-3.01434 13.2298,-4.13645 6.61429,-1.86417 7.25443,-2.27542 7.41837,-4.76602 0.51357,-7.80227 -0.18728,-9.62441 -6.05706,-15.74773 -6.20763,-6.47578 -10.9874,-16.60301 -12.05558,-25.54303 -0.52771,-4.41665 -0.6728,-4.57353 -7.19145,-7.77642 -4.77941,-2.34833 -9.55939,-3.69723 -16.97409,-4.79004 -14.4983,-2.13684 -18.35119,-3.63752 -30.85309,-12.01719 -13.28893,-8.90717 -22.3521,-14.48214 -23.54348,-14.48214 -0.8337,0 6.67655,24.82683 10.75706,35.55988 1.04726,2.75465 4.22627,8.11579 7.06448,11.91365 4.7363,6.33777 5.34159,7.78575 7.36543,17.61963 3.75466,18.24392 8.85804,28.54792 15.89296,32.08871 4.59365,2.31208 5.40815,2.20623 19.18355,-2.49299 z"
       id="path827"
       sodipodi:nodetypes="sssssssssssssssssssscssssscssssssssssscsssssssssssssssscscsscccssssscssssssscssssssscsscccssscsssssssscssssssssssssssssscsssssssssssscsssssssssssssssss" />
  </g>
</svg>
