<svg xmlns="http://www.w3.org/2000/svg" width="52.399" height="58.581" viewBox="0 0 13.864 15.499"><path fill-rule="evenodd" d="M6.389 3.773c-.014.008-.029.008-.033.018-.046.069-.118.075-.19.103-.108.025-.22.048-.326.072-.053.015-.122.028-.165.046a.149.149 0 0 0-.077.036c-.01.018-.029.027-.051.027-.039 0-.089.01-.136.01-.055.008-.107.016-.15.016-.025 0-.053 0-.071.004-.02 0-.043.008-.065.012-.02.01-.032.01-.05 0a.374.374 0 0 0-.209-.068.352.352 0 0 1-.164-.068l-.008-.004c-.089-.05-.135-.137-.177-.232a1.983 1.983 0 0 1-.171-.379c-.051-.099-.078-.198-.112-.29-.008-.044-.018-.089-.018-.131.029-.036.065-.08.098-.115.023-.028.054-.05.083-.074.026-.02.053-.051.09-.074.667.341 1.324.684 1.992 1.037-.032.017-.06.038-.09.054m7.472 3.272c-.006-.036-.027-.064-.06-.089a25.105 25.105 0 0 0-.608-.255c-.137-.056-.264-.115-.399-.178-.142-.07-.288-.129-.435-.196-.245-.112-.502-.22-.756-.335-.007-.004-.017-.017-.03-.018a.234.234 0 0 0 .05-.047.255.255 0 0 1 .036-.026c.018-.025.047-.047.06-.073.032-.038.016-.072-.034-.076a.924.924 0 0 0-.227-.038.25.25 0 0 1-.121-.045c0-.033.007-.06.007-.088.027-.113.045-.206.063-.316.01-.095.017-.182.017-.27 0-.05 0-.09.01-.132.008-.113.018-.208.018-.315v-.455a.49.49 0 0 0-.115-.357c-.058-.062-.1-.128-.153-.186-.029-.03-.053-.065-.09-.095-.03-.022-.036-.043-.036-.08 0-.06-.028-.1-.08-.115-.094-.03-.173-.056-.265-.08-.083-.012-.163-.048-.247-.072a1.741 1.741 0 0 1-.379-.209 5.328 5.328 0 0 0-.158-.126c-.013-.017-.022-.02-.036-.03a4.355 4.355 0 0 1-.781-.334c-.084-.047-.18-.062-.265-.081H8.81c-.03.005-.062.02-.098.02a3.836 3.836 0 0 0-.634.113.298.298 0 0 1-.108.027c-.071 0-.144-.004-.22-.004-.029-.008-.068-.008-.094-.035a.701.701 0 0 1-.116-.063.152.152 0 0 0-.103-.012c-.01 0-.029 0-.036.01-.016-.056-.016-.056 0-.086a.707.707 0 0 0 .073-.133.978.978 0 0 0 .076-.381v-.075c-.01-.044-.01-.078-.02-.121a1.603 1.603 0 0 0-.046-.166h.045a1.961 1.961 0 0 1 .089.291c.019.047.026.097.045.138.065.144.172.244.33.255.104.012.203.01.285-.047.035-.023.059-.034.095-.056.077-.036.113-.104.142-.18.007-.021.019-.046.007-.063-.007-.023-.024-.04-.046-.06v-.085c0-.038-.019-.059-.045-.059-.016-.008-.043 0-.058.032a.14.14 0 0 1-.086.092c-.028.01-.052.02-.08.01v-.012c-.021-.13-.035-.248-.064-.367-.01-.08-.01-.16-.05-.223v-.034A1.037 1.037 0 0 0 7.98.872a.298.298 0 0 0-.115-.093 1.3 1.3 0 0 0-.182-.073.329.329 0 0 0-.215-.01c-.011 0-.03.01-.047.01a.34.34 0 0 0-.182.057.273.273 0 0 0-.118.176.368.368 0 0 1-.03.076c-.066-.01-.137-.025-.205-.028C6.761.967 6.638.942 6.5.96c-.036 0-.06.007-.096.007-.159 0-.273.072-.392.157-.024.016-.042.039-.064.054a.546.546 0 0 0-.171.313c0 .015-.007.022-.017.043-.01.023-.026.055-.04.082-.013.074-.033.161-.038.248-.004.036-.004.082-.02.116a.288.288 0 0 0 .058.222c.021.028.021.043.021.072a.569.569 0 0 1-.063.21.085.085 0 0 0-.025.054c.01.073.06.134.117.145.007 0 .02.008.026.008a.16.16 0 0 1 0 .097c-.007.03 0 .06.017.078.014.007.03.023.04.032-.02 0-.026-.008-.047-.02-.119-.053-.228-.113-.345-.172-.096-.047-.187-.095-.288-.147-.143-.07-.284-.145-.425-.211a1.355 1.355 0 0 0-.186-.103c-.036-.016-.043-.034-.05-.07v-.08a.098.098 0 0 0-.06-.092c-.053-.031-.082-.06-.126-.103a.097.097 0 0 0-.079-.036c-.029-.012-.038-.016-.055-.031-.027-.023-.045-.049-.081-.056a.458.458 0 0 1-.092-.031.206.206 0 0 0-.22.019c-.002.012-.022.02-.037.037-.2-.1-.4-.197-.6-.296a9.087 9.087 0 0 0-.498-.257c-.132-.071-.274-.137-.412-.205-.084-.04-.167-.077-.241-.125-.22-.11-.436-.223-.655-.334-.104-.048-.208-.104-.314-.161C.789.294.537.164.293.026a.22.22 0 0 0-.207 0C-.022.078-.022.249.05.303.099.337.151.37.202.4.446.529.7.66.947.784c.236.12.463.242.698.368.164.086.322.175.486.266.244.125.49.26.732.384.188.098.378.201.563.302.043.015.076.04.127.062-.022.045-.026.085-.041.121a.08.08 0 0 1-.017.047c-.035.051-.048.1-.063.15a.266.266 0 0 0-.005.146c.005.06.014.106.042.158.007.008.007.027.007.037.027.104.052.212.078.32.065.289.14.562.213.85.03.12.072.238.119.35.015.052.031.086.054.142.042.114.096.228.164.34.007.027.027.06.042.094.018.026.024.053.046.087a.124.124 0 0 0 .105.052h.08c.028 0 .048.008.064.036.018.034.04.067.07.111.028.07.102.119.166.17.07.034.143.066.227.085.088.018.192.047.278.046.028-.008.056 0 .082 0h.069a2.71 2.71 0 0 1 .238-.014c.106-.014.189-.014.29-.014.082-.005.17-.011.259 0 .066.014.12.02.17.028.101 0 .101.016.162.089v.013c.084.107.168.228.246.33a.637.637 0 0 0 .1.123c.053.077.1.145.155.22.078.104.16.217.24.33.013.008.024.016.024.025.031.035.077.064.115.096.07.077.152.147.235.219.034.036.077.072.115.116.046.041.097.085.097.156.008.004.02.015.02.024.007.047.017.094.027.148 0 .038.01.074.065.09-.022.016-.022.02-.036.028-.055.052-.068.113-.039.18.039.117.075.228.102.342.018.086.028.17.047.257v.023c-.029.06-.047.12-.066.167a.524.524 0 0 0-.044.106c-.02.093-.048.178-.068.274-.037.233-.074.466-.124.7-.026.145-.062.294-.086.432-.036.132-.063.258-.093.381v.057c.01.048.017.1.03.149 0 .039 0 .067.004.096.012.101.023.206.04.298.05.287.124.566.199.845.003.01.003.033.003.044.014.04 0 .09.014.142 0 .138.026.259.062.398.02.087.043.174.063.266.01.06.02.123.01.19-.01.12-.01.24-.018.365 0 .094 0 .195-.012.29 0 .041-.01.08-.043.108-.029.014-.048.038-.076.063-.06.097-.141.197-.21.287a.142.142 0 0 0-.03.086l.03.168a.107.107 0 0 0 .088.087c.036.012.062.014.075.058 0 .007.008.014.008.014.03.034.014.058-.022.073-.026.014-.055.027-.069.054-.034.06-.08.118-.129.18a.45.45 0 0 1-.1.1c-.042.049-.08.092-.152.11-.113.037-.23.078-.35.104-.075.025-.1.077-.116.137-.013.029-.02.048-.047.071a.038.038 0 0 0-.008.054c.008.023.03.033.056.033h.026c.007.017.007.029.015.039.007.038.048.064.084.087l.033.002c.136.045.276.065.408.065.1.007.208 0 .307-.006.104-.014.234-.014.338-.039.084-.01.162-.038.25-.063.144-.057.278-.079.432-.119.029-.002.066-.002.098-.002.065-.007.123-.011.191-.024.035 0 .064-.012.08-.04.048-.082.091-.17.072-.263.007-.016.029-.026.033-.036a.696.696 0 0 1 .077-.143c.015-.038.038-.073.038-.105.007-.044.007-.095.007-.15-.007-.056-.007-.113-.007-.178-.012-.019-.012-.037-.023-.056-.015-.025-.015-.034-.007-.058.03-.12.06-.24.083-.362.006-.137.023-.27.023-.403 0-.286 0-.565-.01-.843v-.298c0-.01-.008-.023-.008-.042 0-.03 0-.07.007-.11.011-.106.011-.221.011-.326 0-.132-.017-.259-.017-.387v-.622c.007-.124.017-.25.028-.373.004-.087.004-.162.004-.25.014-.125.021-.245.03-.355.01-.033.01-.054.029-.076a.337.337 0 0 0 .071-.062c.065-.099.13-.204.172-.307.013-.026.021-.069.026-.095.025-.033.025-.077.067-.107.105-.108.193-.234.268-.369.028-.038.033-.074.053-.111.035-.062.056-.113.029-.186 0-.011 0-.03.014-.047.021-.02.021-.043.021-.072 0-.015.007-.03.023-.036.09-.082.176-.17.266-.259.007-.015.016-.023.033-.023.029-.013.058-.013.093-.022.072-.026.152-.037.22-.098a.961.961 0 0 1 .153-.135.832.832 0 0 0 .148-.147c.01-.025.022-.034.039-.05.045-.047.097-.098.14-.15.094-.102.158-.233.208-.359.014-.023.014-.044.014-.074v-.178c0-.044.007-.087 0-.122-.02-.08-.03-.147-.048-.232-.007-.043-.016-.073-.029-.12.03-.012.057 0 .077.007.152.07.302.145.47.207.173.081.343.161.513.236.284.137.586.282.89.418.084.032.165.073.248.115.06.016.117.016.16-.02a.228.228 0 0 0 .109-.173z"/></svg>