<svg xmlns="http://www.w3.org/2000/svg" width="534.463" height="386.129" fill="currentColor"><path d="M400.677 384.083c-3.748-1.01-7.085-2.108-7.417-2.44-.331-.332 1.871-.603 4.895-.603 5.488 0 26.56 3.392 27.613 4.444 1.42 1.42-18.82.29-25.091-1.401zm26.747-.962c-.513-.488-1.833-1.103-2.933-1.368-1.542-.37-1.383-.507.69-.597 1.48-.064 2.988.364 3.35.95.873 1.412.078 2.14-1.107 1.015zm-236.862-4.652c-.864-.864-1.571-2.664-1.571-4 0-1.336-.52-2.429-1.155-2.429-.678 0-.45-.78.553-1.887 2.88-3.183 13.322-7.25 20.419-7.953 6.414-.635 6.689-.773 7.258-3.66l.592-3 .766 3.685c.928 4.47.35 5.555-3.49 6.55l-2.959.767 2.44 3.499c2.884 4.133 3.576 7.117 1.795 7.74-.705.245-1.174.067-1.041-.397.132-.464-.864-3.206-2.213-6.093-2.396-5.128-2.535-5.236-5.96-4.66-5.264.884-15.007 3.603-15.443 4.309-.806 1.303 2.418 7.1 3.949 7.1.884 0 1.329.45.989 1-.912 1.475-3.14 1.217-4.929-.571zm8.747.39c-1.406-1.778-2.556-6.819-1.556-6.819.44 0 1.309 1.35 1.932 3 1.7 4.505 4.297 3.983 3.734-.75l-.445-3.75 1.61 3.5c.887 1.925 2.128 3.83 2.76 4.235.706.453.38.746-.853.764-1.1.015-2.932.279-4.07.584-1.144.308-2.536-.034-3.112-.763zm184.882-.019c-1.6-1.6-1.514-4.997.408-16.05 1.182-6.795 1.445-12.301.991-20.75-.56-10.44-.482-11.26.85-8.89 3.958 7.04 4.259 25.69.604 37.462-1.247 4.015-1.54 6.493-.912 7.678 1.06 1.998-.15 2.342-1.941.55zm-174.932-1.06c-1.569-2.03-2.276-4.74-1.237-4.74.533 0 .969.418.969.929 0 .51.678 1.607 1.507 2.436.83.83 1.106 1.756.614 2.06-.492.304-1.326-.005-1.853-.686zm207.732-1.348c-5.039-2.284-12-7.79-12-9.49 0-.82 13.134 6.537 17.528 9.817 3.952 2.95 1.363 2.797-5.528-.327zM7.74 374.313c-2.237-.33-2.738-.907-2.687-3.09.062-2.602.09-2.615.968-.433.497 1.238 1.369 2.25 1.937 2.25.567 0 1.06-1.012 1.095-2.25l.064-2.25.904 2.25c.497 1.238 1.594 2.25 2.437 2.25.92 0 1.534-.898 1.538-2.25.006-2.061.131-2.01 1.5.615.822 1.575 1.493 2.925 1.492 3-.005.34-6.78.273-9.248-.092zm14.115-3.17c1.45-1.593 2.808-2.732 3.02-2.531.761.722-2.96 5.428-4.293 5.428-.856 0-.383-1.076 1.273-2.897zm-21.199.23c-1-1-.803-5.535.214-4.907.485.3 1.097 1.676 1.362 3.06.465 2.434-.204 3.22-1.576 1.848zm180.347-3.306c-1.114-2.185-2.883-9.048-3.93-15.25-3.089-18.309-5.889-24.441-19.527-42.766-9.267-12.453-12.797-19.587-13.3-26.885l-.388-5.626 3.365 7.528c3.56 7.965 6.255 12.257 16.304 25.972 3.425 4.675 7.465 10.965 8.977 13.978 5.247 10.452 9.45 25.377 9.53 33.834.023 2.579.413 6.6.865 8.938.452 2.338.667 4.25.477 4.25-.19 0-1.258-1.788-2.373-3.973zm-155.513-1.118c-1.65-.506-7.285-.635-12.522-.287-8.083.537-9.726.387-10.87-.992-1.154-1.39-.942-2.429 1.466-7.189 2.858-5.649 5.067-8.23 4.12-4.816-.286 1.031-.803 3.558-1.15 5.614l-.63 3.74 6.029-.63c6.367-.666 13.634 1.232 16.1 4.204.661.796 1.034 1.409.83 1.361-.206-.047-1.723-.5-3.373-1.005zm12.394-11.072c3.734-6.235 12.494-22.024 19.469-35.087 13.194-24.713 21.508-39.02 27.222-46.843 1.846-2.527 4.65-8.254 6.234-12.728 3.565-10.075 7.143-15.346 12.841-18.918 2.422-1.519 4.607-3.66 4.856-4.76.25-1.1 1.169-6.276 2.043-11.5 1.541-9.217 4.617-19.94 6.597-23 .727-1.125.847-.874.477 1-.27 1.374-2.136 11.724-4.144 23-4.64 26.059-11.196 52.917-11.426 46.815-.052-1.376 3.497-20.517 5.481-29.566.272-1.237.074-2.25-.44-2.25-2.07 0-8.61 10.734-12.362 20.29-2.657 6.77-6.412 13.66-11.277 20.696-4.011 5.802-11.56 18.64-16.775 28.531-17.224 32.665-21.14 39.577-26.19 46.231-8.79 11.582-10.107 10.616-2.606-1.911zm363.555 4.695c-1.782-4.265-1.77-15.592.023-21.032 1.313-3.986 1.32-3.99 1.631-1 .407 3.899.488 25.496.096 25.498-.166.001-.953-1.558-1.75-3.466zm-208.45-4.524c2.896-2.256 8-4.26 8-3.14 0 1.007-7.386 5.138-9.135 5.11-.777-.013-.289-.86 1.136-1.97zm18.146-14.258c-2.203-5.637-7.442-21.42-11.643-35.073-4.2-13.653-9.885-30.303-12.633-37-8.094-19.724-9.715-24.324-11.334-32.16-1.48-7.162-2.071-15.386-1.033-14.347.277.276 1.87 5.373 3.542 11.325 1.672 5.953 6.674 20.314 11.117 31.914 4.443 11.6 9.619 26.041 11.502 32.091 1.884 6.05 5.88 18.468 8.879 27.594 5.017 15.266 7.55 25.906 6.17 25.906-.308 0-2.363-4.612-4.567-10.25zM9.542 345.538c5.874-24.658 20.271-62.158 34.967-91.073 8.065-15.867 19.371-36.425 20.033-36.425.466 0-2.896 9.493-5.312 15-1.086 2.475-6.935 14.625-12.998 27-11.954 24.398-15.161 32.1-23.726 56.957-6.282 18.232-15.168 37.796-12.964 28.541zm379.822-14.416c-2.27-1.03-4.397-2.31-4.727-2.845-.67-1.083 14.666 2.256 17.226 3.751 3.175 1.855-8.241 1.028-12.499-.906zm16.188-7.596c.223-4.392.632-17.66.91-29.486.459-19.6 2.252-36.146 4.101-37.85.388-.358.374 8.35-.03 19.35-.403 11-.671 24.725-.595 30.5.088 6.762-.419 12.592-1.424 16.374-2.548 9.58-3.407 9.902-2.962 1.112zm-26.5.014c-.035-.55-.713-4.69-1.507-9.2-.794-4.509-2.376-17.559-3.517-29-1.14-11.44-3.168-28.675-4.504-38.3-2.389-17.204-3.544-29-2.84-29 2.115 0 5.961 21.93 8.77 50 1.402 14.025 2.764 26.625 3.025 28 1.463 7.693 2.456 23.957 1.595 26.11-.526 1.314-.986 1.94-1.021 1.39zm11.131-24.212c-5.786-9.04-7.256-15.826-1.613-7.446 3.645 5.413 6.044 10.868 5.165 11.747-.268.268-1.866-1.667-3.552-4.3zm4.307-8.467c-4.75-3.736-8.412-10.812-13.055-25.22-2.463-7.645-4.307-14.071-4.098-14.28.387-.388.793.52 9.127 20.422 3.322 7.933 6.033 12.717 9.21 16.25 4.65 5.172 3.943 6.861-1.184 2.828zM61.808 279.38c1.425-2.66 10.832-11.363 16.183-14.968 7.157-4.823 7.515-4.915 4.683-1.202-4.593 6.021-23.117 20.377-20.866 16.17zm44.183-1.798c-2.499-1.386-2.498-1.387 1.417-1.715 3.454-.29 4.065-.74 5.174-3.828l1.257-3.5.076 3.316c.15 6.56-2.703 8.623-7.924 5.727zm31.5-.006-3-1.374 2.652-.081c2.481-.076 2.689-.451 3.234-5.832 1.497-14.771 2.806-48.754 2.223-57.719-.524-8.06-.405-9.724.621-8.69.946.952 1.27 6.682 1.27 22.47v21.19l7.3 14.5c6.571 13.054 6.947 14.1 3.77 10.5-4.29-4.864-8.98-13.47-10.544-19.351-.637-2.393-1.34-4.169-1.564-3.945-.223.223-.46 6.414-.526 13.757-.116 12.982-.464 16.087-1.793 15.993-.354-.024-1.993-.663-3.643-1.418zm-4.165-7.537c.332-4.125.906-13.462 1.276-20.75l.67-13.25-2.89-.045c-1.59-.025-4.241-.703-5.891-1.507-2.928-1.427-2.86-1.451 2.852-1.017l5.853.446-.567-15.688c-.513-14.207-.435-15.311.821-11.689.803 2.317 1.41 8.21 1.442 14 .07 12.6-2.593 55.543-3.496 56.377-.371.343-.403-2.752-.07-6.877zm20.337-10.25c-1.965-2.887-3.855-6.6-4.201-8.25l-.63-3 2.117 2.5c2.842 3.36 8.298 14 7.178 14-.491 0-2.5-2.362-4.464-5.25zm-39.56 3.25c-.22-2.982 3.864-32.775 6.1-44.5 1.812-9.503 2.356-11.168 2.614-8 .18 2.2-.413 8.95-1.318 15-1.894 12.672-7.23 39.73-7.395 37.5zm288.915-6.466c-.866-1.045-.914-1.534-.15-1.534.747 0 1.123-3.019 1.123-9.027 0-5.873 1.027-14.344 2.942-24.25 1.617-8.372 3.25-17.856 3.627-21.075.677-5.767 2.347-6.21 2.444-.648.034 1.943 1.28 3.248 5.583 5.854 3.649 2.208 6.37 3.195 7.972 2.888 3.06-.584 3.196 1.037.182 2.163-2.686 1.003-6.034-.121-10.496-3.524l-3.254-2.483-.01 2.801c-.007 1.54-1.137 8.201-2.514 14.801-1.376 6.6-2.788 15.713-3.138 20.25-.609 7.904-.548 8.25 1.454 8.25 1.15 0 2.368.45 2.708 1 .349.565-.467 1-1.872 1-1.79 0-2.579.61-2.809 2.172-.402 2.735-2.135 3.358-3.792 1.362zm-5.809-7.284c-.395-.962-.718-5.8-.718-10.75 0-8.03.539-10.7 5-24.773 4.31-13.6 5.041-15.235 5.302-11.867.172 2.238-1.446 10.769-3.79 19.973-2.32 9.11-4.183 18.902-4.302 22.614-.116 3.6-.337 6.548-.492 6.55-.154.002-.604-.784-1-1.747zm-315.352-3c1.952-3.647 15.553-14.164 16.759-12.958.646.646-10.792 10.911-14.563 13.071-3.215 1.841-3.241 1.84-2.196-.113zm334.46-8.25c.236-5.922 1.021-9.157 3.736-15.381 6.47-14.833 4.292-.748-3.152 20.381-.615 1.746-.79.238-.583-5zm-30.416-.38c-13.131-9.73-16.322-17.016-10.91-24.915 1.35-1.97 2.552-3.486 2.671-3.367.12.12-.224 2.176-.762 4.57-1.458 6.49.318 10.466 8.531 19.092 7.092 7.449 10.146 11.008 9.432 10.992-.205-.004-4.237-2.872-8.962-6.372zm-291.41-7.335c-2.75-1.443-9.44-4.324-14.866-6.404-9.351-3.583-13.634-6.115-13.634-8.059 0-.477 1.012-.226 2.25.56 1.237.784 4.275 1.744 6.75 2.132 2.475.388 10.085 3.39 16.911 6.67 7.177 3.45 13.211 5.756 14.307 5.47 1.545-.404 1.677-.233.717.925-1.789 2.155-6.866 1.627-12.435-1.294zm67.998-7.52c1.65-1.245 4.221-3.39 5.715-4.765l2.717-2.5-1.58-9c-.869-4.95-2.831-12.825-4.36-17.5-1.53-4.675-2.636-8.655-2.458-8.844.177-.189 1.92 2.063 3.873 5.004 4.138 6.232 7.444 17.923 7.831 27.697l.264 6.643-4.5 2.152c-2.475 1.183-5.85 2.427-7.5 2.765l-3 .614zm193.797-3.019c-1.95-2.141-4.295-6.033-4.295-7.128 0-.892 10.043-12.815 17.413-20.674 3.898-4.156 9.053-9.665 11.457-12.244 4.726-5.07 10.22-7.342 14.195-5.871 2.04.755 1.79.97-2.33 2.008-5.235 1.318-7.164 3.027-2.673 2.367 1.626-.238 3.574.08 4.33.707 1.055.875 1.51.786 1.96-.385.649-1.692 6.648-2.166 6.648-.526 0 .55-1.125 1-2.5 1-1.963 0-2.5.51-2.5 2.367 0 1.669 1.226 3.18 4.157 5.118l4.156 2.751 1.794-2.368c.987-1.302 1.95-3.718 2.14-5.368l.345-3 1.197 2.798c1.474 3.444-.448 8.914-3.754 10.683-1.88 1.007-2.648.621-6.452-3.238-2.375-2.409-4.844-5.362-5.486-6.561-.7-1.307-2.125-2.182-3.556-2.182-4.25 0-8.249 4.689-14.25 16.708-5.669 11.355-10.726 18.292-13.334 18.292-.814 0-.465-.895.93-2.38 2.19-2.332 10.578-20.488 9.816-21.25-.39-.39-15.807 16.906-18.515 20.771-1.283 1.833-1.258 2.49.221 5.592 2.039 4.274 1.625 5.02-1.114 2.013zM66.991 207.812c0-2.509.892-7.421 1.983-10.916 1.944-6.229 5.707-13.499 6.551-12.655.433.433-7.314 26.912-8.104 27.703-.237.236-.43-1.623-.43-4.132zm363.611-1.952c1.001-1.62 12.61-6.964 22.762-10.479 10.473-3.625 14.705-5.716 27.864-13.762 8.42-5.149 12.148-9 11.417-11.793-.257-.984-.06-1.536.44-1.228.498.308.906 2.186.906 4.173 0 2.96-.778 4.349-4.31 7.69-6.013 5.692-25.785 15.924-37.99 19.662-5.61 1.718-12.77 3.906-15.912 4.863-3.141.956-5.47 1.35-5.177.874zm-4.111-.982c-3.172-1.747-8.541-7.09-10.086-10.038-3.123-5.962-1.102-5.539 4.262.893 3.121 3.744 6.341 7.595 7.155 8.557 1.702 2.014 1.456 2.123-1.331.588zm-307.75-4c-1.513-.552-2.75-1.353-2.75-1.779 0-.426-2.634-2.4-5.853-4.387-3.22-1.987-6.462-4.346-7.205-5.241-1.242-1.497-1.03-1.495 2.603.017 2.175.905 5.653 2.818 7.728 4.25l3.774 2.607 2.29-2.152c3.168-2.976 3.993-2.691 2.207.761-1.471 2.845-1.43 2.962 1.725 4.983 3.122 2 3.146 2.067.73 2.007-1.374-.034-3.737-.514-5.25-1.066zm12.053-2.588c-.829-.962-2.67-3.746-4.094-6.185l-2.588-4.436 2.147-1.862c1.5-1.3 3.357-1.772 6.157-1.564 3.284.243 4.423.912 6.292 3.695 3.304 4.918 2.802 5.998-1.052 2.262-3.275-3.174-9.853-5.29-10.938-3.52-.29.473 1.378 3.054 3.707 5.734 3.8 4.374 4.456 4.755 6.4 3.715 2.64-1.413 2.848-.016.337 2.256-2.355 2.131-4.479 2.1-6.368-.095zm221.197-6.38c-13.23-9.525-17.37-13.435-27.033-25.534-5.638-7.06-13.675-16.368-17.86-20.686l-7.607-7.85 4.392 2.193c6.308 3.15 12.738 9.537 24.586 24.426 7.035 8.84 12.849 14.982 17.932 18.943 6.825 5.318 13.88 12.765 11.89 12.553-.44-.047-3.275-1.868-6.3-4.045zm-208-1.185c0-.248 3.037-3.005 6.75-6.128 3.712-3.123 7.535-6.888 8.495-8.367 1.733-2.672 1.744-2.674 1.75-.344.008 3.7-3.102 8.019-7.993 11.102-4.338 2.734-9.002 4.67-9.002 3.737zm-56.514-5.074c-2.742-1.864-6.336-4.84-7.986-6.613l-3-3.223 6.5 3.223c3.575 1.772 8.024 4.368 9.887 5.768 2.78 2.089 3.718 2.338 5.236 1.39 2.803-1.751 3.397-1.388 1.377.844-2.622 2.897-6.34 2.467-12.014-1.39zm-23.66.641c-2.418-.533-4.349-3.936-6.706-11.819-1.14-3.813-3.157-8.52-4.481-10.46-3.212-4.704-5.64-12.098-5.64-17.176 0-2.273-.495-6.982-1.102-10.465-2.484-14.266 2.845-28.672 17.74-47.956C72.662 76.72 78.685 72.183 87.24 70.63c5.358-.972 4.633.446-1.998 3.91-16.883 8.82-32.28 31.36-36.916 54.04-1.38 6.751-1.335 7.441 1.088 16.764 1.615 6.216 3.95 12.083 6.473 16.267 2.17 3.599 4.243 8.43 4.605 10.736.362 2.306 1.102 5.925 1.643 8.042l.985 3.848 5.679-6.275c5.294-5.85 13.246-11.922 15.613-11.922.567 0-2.548 3.6-6.922 8s-7.266 8-6.427 8c.84 0 2.173-.562 2.962-1.25.79-.687.374-.037-.923 1.445-2.527 2.89-6.57 4.656-9.286 4.057zm49.463-4.277c-2.467-2.328-3.59-3.975-2.712-3.975.825 0 3.395 1.789 5.712 3.975 2.466 2.329 3.59 3.975 2.71 3.975-.824 0-3.394-1.789-5.71-3.975zm323.361 1.976c-7.66-1.285-15.425-5.689-22.493-12.756-3.565-3.565-6.134-5.63-5.709-4.588 1.352 3.313 1.884 10.393.78 10.393-.567 0-1.96 1.575-3.096 3.5-1.259 2.134-2.84 3.5-4.053 3.5-2.136 0-2.206.111 4.775-7.5 1.671-1.821 1.706-2.31.394-5.48-.793-1.913-1.777-5.604-2.188-8.2-.721-4.566-.677-4.686 1.347-3.64 1.151.595 5.243 4.108 9.093 7.807 8.31 7.982 12.848 10.492 25.398 14.043 7.328 2.074 8.87 2.8 7 3.301-2.86.766-4.816.7-11.248-.38zm-333.9-1.021c1.303-1.387 1.747-5.93.579-5.93-.37 0-1.607.788-2.75 1.75-2.067 1.74-2.068 1.737-.231-.437 1.962-2.322 1.517-4.313-.966-4.313-.825 0-1.222-.45-.882-1 1.019-1.648 3.052-1.144 5.854 1.452 3.394 3.146 3.359 5.866-.104 8.063-1.513.96-2.188 1.146-1.5.415zm-3.667-.213c.23-.155 1.317-.943 2.417-1.75 1.85-1.357 1.897-1.336.627.283-.754.963-1.842 1.75-2.416 1.75-.575 0-.857-.127-.628-.283zm44.917-4.77c3.025-2.73 6.96-5.974 8.744-7.206 2.448-1.691 3.77-3.835 5.389-8.74 2.785-8.442 6.104-15.007 8.831-17.471l2.18-1.97-2.102 5.47c-1.156 3.009-3.689 8.735-5.629 12.724-1.94 3.99-3.25 7.702-2.91 8.25.338.548.156.996-.406.996-.561 0-3.13 2.05-5.708 4.556-4.243 4.124-11.085 8.511-13.1 8.4-.434-.023 1.686-2.277 4.71-5.008zm228.35.35c-3.181-7.614-3.816-14.575-2-21.934.922-3.734 2.007-7.121 2.413-7.528.405-.407.594 4.301.42 10.463-.174 6.161.095 13.79.599 16.952.503 3.163.735 5.75.515 5.75-.22 0-1.096-1.667-1.947-3.704zm142.311-10.019c-5.88-13.934-7.685-21.028-7.562-29.738.116-8.16 1.626-14.882 1.807-8.04.236 8.945 3.31 24.426 7.103 35.77 2.213 6.618 3.843 12.212 3.622 12.432-.22.22-2.457-4.47-4.97-10.424zm11.866 2.075c-6.593-14.27-8.81-22.722-9.142-34.853-.333-12.165-.211-11.916 4.14 8.5 1.466 6.875 4.13 17.338 5.922 23.25 1.792 5.913 3.113 10.75 2.935 10.75-.177 0-1.912-3.441-3.855-7.647zm-431.527 2.42c0-.857.738-1.842 1.641-2.189 1.43-.548 1.466-.4.283 1.143a89.913 89.913 0 0 0-1.641 2.19c-.156.23-.283-.285-.283-1.143zm305.235-2.389c-.68-2.264-1.235-6.437-1.235-9.275 0-4.428-.319-5.28-2.25-6.019-2.511-.96-6.349-4.824-5.568-5.606.278-.277 2.56 1.067 5.074 2.985 4.522 3.453 4.576 3.566 5.26 10.856.895 9.558.357 12.522-1.281 7.06zm130.183-3.717c-3.64-7.666-4.317-10.742-8.91-40.48-1.683-10.898-4.234-22.083-4.419-19.378-.049.72-.54 1.031-1.09.691-.568-.351-1 .506-1 1.99 0 5.396-3.834 10.09-12.078 14.786-5.952 3.39-12.921 14.036-12.921 19.738 0 3.17-6.803 5.183-25.136 7.435-6.399.786-13.316 2.131-15.372 2.99-4.538 1.896-4.492 1.894-4.492.175 0-3.271 12.83-6.859 31.146-8.71l11.647-1.176 1.15-5.842c1.322-6.72 4.142-10.573 10.437-14.263 7.283-4.268 14.542-14.277 14.594-20.123.01-1.1-1.774-4.362-3.963-7.25-4.058-5.352-3.34-7.358.985-2.754 1.29 1.373 2.57 2.271 2.845 1.996.275-.275-.555-1.623-1.845-2.996-2.933-3.122-.56-3.514 3.23-.532 5.23 4.113 7.025 11.007 11.734 45.054 1.104 7.985 3.33 19.232 4.948 24.993 1.617 5.76 2.759 10.656 2.536 10.878-.222.222-2.034-3.028-4.026-7.222zM455.18 171c-1.203-1.121-2.188-2.555-2.188-3.187 0-.631 1.35.145 3 1.726s3 3.015 3 3.187c0 .92-1.889.066-3.812-1.726zm-352.564-1.76c-.47-.761-3.557-1.212-8.433-1.231-5.968-.024-7.277-.271-5.845-1.104 1.015-.59 4.404-1.305 7.529-1.588 4.421-.401 5.975-.164 6.998 1.07.724.872 1.13 2.14.904 2.82-.317.952-.58.96-1.153.033zm386.873-5.565c-.915-1.396-1.482-3.347-1.26-4.337.291-1.307.864-.732 2.095 2.105 1.996 4.598 1.53 5.842-.835 2.232zm-44.969-2.918c-2.808-1.59-5.373-4.514-8.757-9.984-4.815-7.78-5.04-10.088-.488-4.984 13.274 14.884 13.84 15.272 18.633 12.794 1.658-.858 6.518-2.031 10.8-2.608 4.28-.576 10.594-1.44 14.029-1.92 7.381-1.031 11.862-3.867 13.151-8.324l.923-3.192.09 4.115c.105 4.76-2.372 8.56-6.625 10.164-1.531.577-9.647 1.607-18.034 2.288-13.995 1.137-17.347 1.92-14 3.27.687.278-.325.533-2.25.568-1.925.034-5.287-.95-7.472-2.187zm-364.9-1.747c-2.483-2.951-2.885-4.332-4.148-14.238-.334-2.622-1.514-6.815-2.62-9.317-1.547-3.497-1.841-5.519-1.27-8.733l.745-4.183.829 3.81c.456 2.095 1.317 4.72 1.912 5.833 1.025 1.915 1.184 1.932 2.968.317 1.037-.938 2.589-4.126 3.449-7.083.86-2.957 1.663-5.376 1.785-5.376.236 0-.15 33.27-.45 38.75-.098 1.787-.284 3.25-.414 3.25s-1.384-1.364-2.786-3.03zm1.09-9.707c-.23-1.52-.425-.514-.432 2.236-.008 2.75.18 3.994.418 2.764.237-1.23.243-3.48.013-5zm-.99-15.014c-.399-1.666-.455-1.666-1.18 0-.42.963-.42 2.538 0 3.5.725 1.667.781 1.667 1.18 0 .23-.962.23-2.537 0-3.5zm61.966 20.25c1.423-3.85 4.077-11.95 5.897-18 3.23-10.732 3.312-10.876 3.36-5.931.058 6.038-2.133 13.887-5.983 21.431-4.597 9.008-6.105 10.16-3.274 2.5zm278.178 3.739c1.185-2.214 4.993-5.707 5.581-5.119.635.635-4.413 6.88-5.56 6.88-.61 0-.618-.646-.021-1.761zm-79.297-1.489c-3.955-6.049-5.669-11.79-5.373-18.002l.298-6.248 3.566 13.25c1.961 7.288 3.434 13.25 3.273 13.25-.161 0-.955-1.012-1.764-2.25zm73.425 1.683c0-1.901 2.756-4.957 6.767-7.5 5.363-3.401 9.2-4.057 5.233-.895-5.458 4.351-12 8.928-12 8.395zm-85.59-5.803c-9.585-12.022-16.483-24.844-18.442-34.283-1.14-5.49-.799-9.584.487-5.847 3.634 10.558 6.912 17.547 14.126 30.113 4.642 8.085 8.322 14.8 8.179 14.924-.143.123-2.1-2.085-4.35-4.907zm73.625 1.655c-.071-4.453 8.605-11.838 15.984-13.604 2.272-.544 2.503-1.054 2.362-5.229-.106-3.166.169-4.302.872-3.598.565.565 1.077 2.517 1.137 4.337.125 3.779 1.071 4.766 4.61 4.81 1.983.024 2.19.23 1 1-.825.532-2.526.975-3.78.984-2.911.02-13.913 4.63-17.203 7.21-1.385 1.085-3.064 2.948-3.732 4.14l-1.214 2.165-.036-2.215zM155.59 149.54c.345-1.65 2.631-10.875 5.08-20.5 3.362-13.209 4.5-19.633 4.637-26.2.212-10.052 1.467-10.139 2.622-.18.44 3.784.887 5.53.994 3.88l.195-3 1.02 2.5c1.328 3.258.578 11.566-1.444 16l-1.596 3.5.459-7 .46-7-1.866 6c-1.026 3.3-3.56 11.85-5.632 19-3.617 12.483-6.3 19.558-4.929 13zm291.4.535c0-1.684 7.49-8.668 10-9.324 1.897-.496 1.52.21-2.093 3.919-4.853 4.982-7.906 7.07-7.906 5.405zm-66.5-2.573c-15.338-3.24-21.002-6.583-51.794-30.576-3.963-3.088-9.23-6.63-11.705-7.872-2.475-1.242-7.597-4.54-11.382-7.329-6.84-5.038-6.9-5.06-9.75-3.424-3.632 2.084-3.74.57-.161-2.245 3.51-2.76 5.737-2.169 14.704 3.905 3.899 2.642 9.709 6.327 12.91 8.191 3.203 1.864 11.978 8.244 19.5 14.18 14.437 11.39 21.222 15.777 30.096 19.458 6.764 2.807 7.906 2.828 5.488.105-1.88-2.118-1.88-2.131.095-1.01 2.864 1.629 8.956 7.042 8.437 7.5-.24.211-3.137-.186-6.437-.883zm59.05-2.324c2.663-4.59 9.082-9.942 13.33-11.115 1.93-.533 3.621-.856 3.759-.718.23.23-12.117 10.2-16.961 13.695l-2.079 1.5zm-47.55-1.593c0-.922.45-2.516 1-3.543 1.194-2.232-1.504-7.21-7.132-13.161-3.377-3.571-3.474-3.84-1.384-3.84 3.841 0 7.212 3.558 8.515 8.992.857 3.57 1.688 5.007 2.898 5.007.933 0 4.15 1.564 7.15 3.475 5.943 3.786 5.038 4.455-2.536 1.874-4.779-1.628-4.872-1.62-6.678.61-1.482 1.83-1.832 1.942-1.832.586zm-222-2.05c0-1.835 6.013-8.672 10-11.37 2.475-1.675 9-4.44 14.5-6.146 27.133-8.413 34.679-12.157 44.703-22.181 5.936-5.936 6.128-6.446 4.251-11.298-.685-1.772-.47-1.724 1.887.425 4.2 3.827 3.517 6.688-3.09 12.957-11.76 11.16-27.802 19.647-42.968 22.732-9.688 1.972-18.506 6.07-24.601 11.436-2.575 2.266-4.681 3.816-4.681 3.445zm207.921-4.134c-2.307-2.51-2.318-2.579-.226-1.491 2.32 1.207 3.794 2.975 3.077 3.693-.237.236-1.52-.755-2.85-2.202zm88.08 1.748c0-.61.502-1.109 1.116-1.109.614 0 3.314-1.613 6-3.585 5.56-4.082 6.478-3.34 1.634 1.32-3.414 3.284-8.75 5.342-8.75 3.374zm-340.502-2.472c-.852-1.3-2.233-5.687-3.07-9.75-3.206-15.57-12.384-37.322-20.868-49.459-2.471-3.535-4.124-6.428-3.672-6.428 1.457 0 10.657 10.356 13.468 15.16 4.643 7.931 9.437 21.061 13.243 36.264 2.389 9.542 4.104 14.576 4.966 14.576.724 0 1.595.45 1.935 1 1.387 2.245-4.517.904-6.002-1.363zm248.156 1.556c-1.314-2.038.06-5.754 3.345-9.039 2.524-2.523 3-2.703 3-1.134 0 1.027 1 2.567 2.223 3.424 1.553 1.087 1.764 1.556.7 1.556-.837 0-2.087-.562-2.776-1.25-1.004-1-1.634-.751-3.155 1.25-1.046 1.375-2.035 3.4-2.198 4.5-.22 1.488-.511 1.666-1.139.693zm58.98-3.08c-.448-2.803-1.71-5.342-3.586-7.218-3.702-3.702-6.568-3.755-7.886-.145l-1.004 2.75-.08-3.55c-.043-1.952.462-4.09 1.122-4.75 3.198-3.198 10.99.71 13.597 6.82l1.703 3.993 4.926-3.506c5.454-3.883 11.322-4.72 13.626-1.944 1.136 1.369.968 1.48-1.35.899-1.993-.5-4.238.225-9.087 2.937-3.542 1.98-7.086 3.601-7.875 3.601-.789 0-1.88.999-2.425 2.219-.89 1.995-1.06 1.783-1.681-2.106zm27.392 2.42c-1.883-2.27-3.613-16.346-2.185-17.774.878-.878 1.159-.61 1.159 1.107 0 1.246.508 3.216 1.13 4.377 1.333 2.492 2.815 13.757 1.809 13.757-.382 0-1.243-.66-1.913-1.468zm-17.157-1.227c1.207-2.32 2.976-3.794 3.693-3.077.237.237-.754 1.52-2.202 2.85-2.509 2.308-2.578 2.319-1.49.227zm-63.375-1.312c-2.673-2.954-1.242-3.419 1.51-.49 1.29 1.373 1.886 2.496 1.325 2.496-.56 0-1.836-.903-2.835-2.006zm-85.607-1.786c-1.987-1.506-5.924-3.82-8.75-5.143-2.825-1.324-5.137-2.965-5.137-3.648 0-1.027 11.913-20.664 13.499-22.249.985-.985-2.729 10.49-5.09 15.73l-2.433 5.397 2.262 1.556c2.872 1.975 7.565 6.913 8.847 9.309 1.264 2.362 1.12 2.319-3.198-.952zm-157.335.685c-.272-.766-2.988-8.593-6.035-17.393-6.625-19.132-14.513-35.62-21.288-44.5-5.827-7.636-9.353-10.978-9.911-9.392-.215.61-1.082 1.96-1.928 3-1.5 1.844-1.526 1.841-1.03-.108 1.856-7.299 3.507-9.968 6.674-10.789 2.065-.534 3.624-.453 4.302.225.752.752.492 1.069-.886 1.08-4.596.036-4.91 1.63-1.112 5.638l3.644 3.846.154-4c.294-7.61-.336-11.038-3.673-20-5.986-16.077-6.381-20.727-2.425-28.545 2.632-5.201 10.123-11.707 14.406-12.51 10.02-1.88 22.42 1.824 30.478 9.104 7.006 6.33 7.03 8.172.044 3.428-7.503-5.095-15.918-8.636-22.642-9.528-6.082-.807-11.58 1.613-16.086 7.078-6.33 7.68-6.668 14.685-1.275 26.394 4.9 10.636 5.967 17.938 3.656 25.004l-1.644 5.026 3.596 4.71c4.11 5.384 10.529 17.939 15.513 30.34l3.416 8.5.75-17.5c.805-18.749 1.55-23.07 2.846-16.5 1.182 5.995.998 15.728-.527 27.89-.86 6.85-1.037 11.86-.48 13.5 1.122 3.295 2.965 16.389 2.389 16.964-.237.237-.654-.195-.926-.962zm356.781-10.376c0-.863 2.175-3.131 4.833-5.041 2.659-1.91 4.834-3.24 4.834-2.954 0 1.19-5.099 8.478-5.931 8.478-.498 0-1.542.245-2.32.543-.85.326-1.416-.084-1.416-1.026zm-6.107-.017c.207-.55 1.401-3.17 2.654-5.823 1.253-2.652 2.031-5.465 1.73-6.25-.301-.785-.16-1.427.314-1.427 1.058 0 2.076 2.5 2.076 5.097 0 1.063-1.609 3.613-3.575 5.668-1.966 2.054-3.406 3.285-3.2 2.735zm-344.82-7.5c.36-3.025.706-13.375.768-23 .107-16.635.183-17.277 1.53-13 1.855 5.891 1.806 19.16-.115 30.891-1.683 10.28-3.233 13.907-2.183 5.11zm312.03-.103c-.375-.606.25-3.194 1.39-5.75s2.813-7.347 3.717-10.647c1.286-4.687 2.63-6.945 6.145-10.323 2.474-2.377 4.704-4.118 4.955-3.867.25.25-.691 2.145-2.092 4.21-1.402 2.066-3.487 6.956-4.633 10.868-1.147 3.912-3.422 8.803-5.056 10.87-1.633 2.068-2.694 4.205-2.357 4.75.337.546.163.992-.387.992s-1.307-.496-1.682-1.103zm-181.412-7.897c-5.212-3.788-12.974-8.968-17.25-11.512-4.276-2.543-7.774-4.782-7.774-4.975 0-.953 8.275 2.089 14.427 5.303 6.732 3.516 17.65 12.59 19.653 16.333.544 1.018.862 1.826.705 1.794-.157-.031-4.55-3.156-9.761-6.943zm216.476-2c-1.555-.668-1.067-.875 2.19-.93 2.306-.038 4.47.38 4.81.93.75 1.215-4.172 1.215-7 0zm-.25-3.119c-1.788-.516-3.25-1.15-3.25-1.41 0-.259 3.712-.437 8.25-.395 8.017.074 8.151.114 4.75 1.424-4.118 1.586-5.404 1.636-9.75.381zm-206.25-6.77c-7.064-2.288-16.754-7.191-25.067-12.683-7.891-5.213-11.6-6.728-14.615-5.971-2.084.522-1.953.077 1.668-5.7 2.161-3.446 4.564-8.738 5.34-11.761l1.41-5.496.706 5.105c.795 5.753-.732 10.617-4.343 13.835l-2.177 1.94 5.22 1.336c2.872.735 7.502 2.761 10.29 4.503 2.787 1.741 10.693 6.22 17.568 9.954 12.782 6.941 13.707 8.082 4 4.938zm205.5.89c-2.834-.722-2.768-.77 1.19-.882 2.306-.066 4.47.331 4.81.881.698 1.13-1.563 1.13-6 0zm-5-4.924c-3.512-.56-3.723-.736-1.728-1.432 2.52-.88 7.888-.004 8.775 1.432.616.996-.814.996-7.047 0zm14.208-4.177c-2.636-1.043-9.11-2.426-14.388-3.075-7.597-.934-9.098-1.366-7.207-2.077 1.313-.494 5.425-.904 9.139-.911 7.193-.014 13.8 2.353 17.27 6.188 2.147 2.372 1.451 2.354-4.814-.125zm-15.484.362c-2.981-.208-5.022-.78-4.691-1.315.653-1.056 6.75-1.245 10.217-.316 2.336.626 3.199 2.51 1 2.184-.688-.102-3.624-.35-6.526-.553zm-296.168-1.29c-6.406-1.346-17.477-6.913-25.535-12.84-5.253-3.863-7.85-5.136-10.5-5.147-2.641-.012-3.146-.258-2.021-.985 3.65-2.359 8.497-1.07 17.522 4.655 12.506 7.935 18.269 10.36 26.187 11.023 7.29.61 16.004-1.085 23.636-4.597 3.217-1.48 3.647-1.931 1.905-1.997-1.238-.046-2.25.393-2.25.975 0 .583-.48.763-1.065.401-.707-.437-.538-1.241.5-2.388.86-.951 1.565-2.256 1.565-2.9 0-1.51 4.66-1.531 5.59-.026.498.806-.077.949-1.941.481-1.543-.387-2.65-.247-2.65.335 0 .55 1.112 1.279 2.47 1.62 1.739.436 4.023-.278 7.73-2.418l5.261-3.038-2.869-1.09c-4.507-1.715-2.395-2.23 2.318-.568l4.222 1.49 1.793-4.229c.987-2.326 3.458-8.52 5.492-13.763 7.285-18.781 12.466-24.485 6.582-7.245-4.126 12.09-6.75 17.643-10.367 21.941l-2.465 2.93 2.256 8.713c2.066 7.98 2.104 8.576.453 7.082-.992-.897-2.556-3.602-3.475-6.01-.92-2.407-2.009-4.377-2.42-4.377-.412 0-4.288 1.762-8.614 3.914-15.061 7.495-28.697 10.29-39.31 8.059zm35.444-15.972c-1.63-.7-1.688-.872-.31-.93.93-.038 1.97.38 2.31.93.71 1.15.676 1.15-2 0zm3-2c-.34-.55-.168-1 .382-1s1.278.45 1.618 1c.34.55.168 1-.382 1s-1.278-.45-1.618-1zm-90.5-4.948c-3.8-2.02-6.678-4.874-9.618-9.538-1.706-2.707-1.298-2.538 4.362 1.804 3.435 2.635 8.61 5.865 11.5 7.179l5.256 2.388-4 .013c-2.2.007-5.575-.823-7.5-1.846zm13.597-4.552c.834-4.96 5.72-13.805 6.214-11.244.31 1.614-3.363 10.294-5.818 13.744-.791 1.112-.894.466-.396-2.5zm100.482-2.816c-.09-4.356 1.36-7.684 3.349-7.684.747 0 1.631.712 1.965 1.582.86 2.24.78 2.422-.788 1.82-.948-.363-1.883.848-2.92 3.782l-1.527 4.316-.08-3.816zm4.005-10.966c-.116-2.458 3.033-9.497 3.591-8.027.249.655-.439 3.13-1.527 5.5-1.089 2.37-2.018 3.507-2.064 2.527zM117.307 42.79c-3.814-4.03-5.316-6.887-5.316-10.113 0-2.879 2.383-5.65 4.821-5.606 1.527.027 1.52.122-.071 1.05-2.494 1.452-2.176 4.515 1.208 11.67 1.626 3.437 2.84 6.25 2.696 6.25-.144 0-1.646-1.463-3.338-3.25zm38.132 1.334c.311-.504.124-2.079-.416-3.5-1.272-3.344.286-3.375 1.807-.037 1.556 3.414 1.463 4.453-.398 4.453-.858 0-1.304-.412-.993-.916zm-.583-16.753c-.289-6.453-.103-7.95.885-7.127 1.391 1.159 1.59 10.118.294 13.296-.546 1.34-.935-.695-1.18-6.169z"/></svg>