<svg xmlns="http://www.w3.org/2000/svg" width="164.353" height="196.414"><path d="M25.858 196.129c-5.624-.42-10.274-1.787-15.323-4.504-7.05-3.794-8.74-5.342-9.136-8.36-.12-.92-.517-2.66-.881-3.867-.789-2.61-.672-5.194.32-7.11 1.245-2.402 8.328-8.735 11.641-10.407 4.622-2.333 11.825-4.784 20.474-6.966 6.597-1.664 8.646-2.585 9.682-4.353.434-.741 1.514-1.839 2.4-2.44.885-.6 1.554-1.246 1.486-1.437-.111-.315-4.835-7.731-10.033-15.752-2.993-4.618-5.153-9.13-5.543-11.581-.565-3.54.501-13.559 2.617-24.602 1.387-7.24 2.201-14.05 2.53-21.158.173-3.735.492-7.011.794-8.16 1.354-5.144 4.424-8.991 8.957-11.226 2.355-1.161 2.724-1.249 4.96-1.182 3.142.095 3.855-.073 3.855-.91 0-1.125 1-2.846 1.934-3.33.684-.353.937-.772 1.107-1.825.12-.752.494-1.843.829-2.425.335-.582.61-1.518.611-2.08.003-1.542.566-3.257 1.28-3.904.508-.459.639-.986.639-2.565 0-1.502.156-2.185.64-2.8.823-1.047.82-1.073-.356-3.353-1.078-2.09-1.543-4.614-.977-5.297.254-.305.251-.743-.008-1.589-.301-.98-.248-1.502.331-3.267.468-1.424.69-2.904.69-4.596 0-3.857.658-5.604 2.993-7.94 1.358-1.36 2.363-2.074 3.247-2.311.956-.256 1.389-.59 1.71-1.319.468-1.063 1.817-1.921 3.018-1.921.418 0 1.79-.36 3.05-.8 3.24-1.132 4.372-1.07 5.675.312.731.775 1.518 1.217 2.598 1.458 2.363.527 5.912 2.363 7.733 4 2.605 2.343 3.515 4.553 4.04 9.817.293 2.928.653 4.836 1.105 5.858.93 2.102.888 4.451-.113 6.335-.432.81-.95 2.092-1.15 2.847-.419 1.573-1.123 2.493-1.909 2.493-.463 0-.575.503-.764 3.426-.154 2.372-.467 4.118-1.019 5.68-.438 1.24-.828 2.417-.865 2.617-.094.495 4.484 4.274 6.524 5.384 1.572.855 1.803.892 4.463.703 3.619-.257 5.924.177 9.132 1.716 3.346 1.605 5.822 4.178 7.878 8.183 2.006 3.909 2.862 6.448 4.249 12.61 1.426 6.336 4.358 16.168 7.68 25.76 2.32 6.696 2.434 7.16 2.342 9.46l-.097 2.42-1.883 2.145c-1.036 1.18-2.207 2.227-2.603 2.326-.396.1-1.418-.057-2.273-.347-.854-.29-3.205-.884-5.226-1.321-2.02-.437-4.83-1.295-6.244-1.908-2.491-1.078-7.848-4.099-9.426-5.315-1.162-.896-1.449-.312-1.412 2.867.03 2.508.198 3.252 1.65 7.274 3.844 10.654 5.81 19.089 6.22 26.699.089 1.64.002 1.597 5.037 2.466 2.625.453 3.717.475 8 .162 9.41-.69 13.01-.782 15.58-.402 1.375.203 4.816.486 7.647.63l5.148.26 2.692 1.319c3.473 1.702 6.782 4.214 7.474 5.672.835 1.758 1.22 4.825 1.023 8.154-.256 4.351-.857 6.11-2.53 7.4-.745.576-2.578 2.288-4.074 3.805-4.282 4.343-8.267 6.734-13.28 7.97-2.832.697-12.968 2.265-14.649 2.265-.588 0-1.345.202-1.682.448-.602.44-.6.476.098 1.876.392.784.714 1.914.715 2.51 0 .598.288 1.518.638 2.046.716 1.082.83 2.402.256 2.976-.523.522-2.091.482-6.04-.154-2.883-.464-6.313-.539-25.256-.55-23.6-.015-26.168.11-39.04 1.892-3.08.426-7.328.922-9.44 1.102-4.368.372-19.123.366-24.16-.01zm26.033-74.537c1.785-6.9 2.17-12.6 1.134-16.8-.174-.704-1.104-2.864-2.067-4.8-1.454-2.923-1.825-4.025-2.185-6.493-.239-1.635-.496-3.034-.571-3.11-.076-.076-.317 1.47-.536 3.436-.562 5.062-1.827 12.243-2.938 16.685-.523 2.09-.953 4.178-.956 4.64-.003.463 1.4 4.48 3.12 8.928l3.126 8.087.378-3.127c.208-1.72.881-5.07 1.495-7.446zm64.344-23.92c-.535-2.424-1.36-4.359-3.065-7.19-1.03-1.71-2.115-3.618-2.412-4.24-.296-.622-.62-1.13-.72-1.129-.099 0-.185 1.26-.19 2.8-.013 3.262-.47 4.83-1.796 6.156-.526.525-.856 1.118-.734 1.316.31.502 2.74 1.547 5.58 2.402 3.286.988 3.579.978 3.337-.115z"/></svg>