<svg xmlns="http://www.w3.org/2000/svg" width="56.471" height="51.874" viewBox="0 0 14.941 13.725" fill='currentColor'><path fill-rule="evenodd" d="M11.648 10.08v-.01.01-.01.01c-.015-.01-.015-.023-.044-.013.029-.01.029.004.044.013M8.673 4.138c0-.008.01-.015.01-.027 0 .012-.01.02-.01.027.016.004.023.024.052.024-.03 0-.036-.02-.052-.024m0 0zm-.084.046c.037 0 .055-.032.084-.042 0 .01-.01.02-.01.025 0-.005.01-.015.01-.025-.03.01-.047.042-.084.042m6.344 7.933c-.01-.03-.02-.074-.047-.103a.428.428 0 0 0-.25-.156c-.071-.017-.137-.037-.184-.09-.012-.021-.025-.042-.051-.049a2.878 2.878 0 0 1-.32-.276c-.076-.095-.154-.197-.241-.288-.008-.013-.019-.029-.026-.048a.147.147 0 0 0-.037-.085c-.055-.052-.095-.107-.152-.155a.454.454 0 0 0-.102-.09.261.261 0 0 1-.09-.111c-.063-.096-.12-.201-.185-.307a.891.891 0 0 0-.218-.27c-.066-.046-.118-.106-.183-.148a2.604 2.604 0 0 0-.44-.273c-.045-.022-.082-.048-.136-.058a.322.322 0 0 1-.18-.182c-.035-.134-.071-.264-.084-.394-.01-.135-.024-.259-.038-.379-.015-.019 0-.033 0-.052a.474.474 0 0 0 0-.197c-.015-.01-.015-.038-.015-.058a.136.136 0 0 0-.026-.127c-.017-.025-.017-.05-.017-.077.007-.011.007-.022.007-.036.01-.033.01-.078-.02-.11-.006-.004-.006-.011-.013-.018a.465.465 0 0 0 .062-.095.69.69 0 0 0 .073-.121c.045-.148.09-.3.106-.456.012-.114.028-.226.028-.342v-.112c0-.05 0-.099-.028-.151a1.205 1.205 0 0 0-.15-.324c-.007-.015-.007-.028-.007-.036a.182.182 0 0 0-.058-.131c-.062-.05-.062-.12-.082-.183.055-.032.099-.072.146-.11.007 0 .02-.007.02-.007.048-.008.07-.039.077-.087.02-.06.037-.128.066-.18.048-.096.104-.184.152-.277.064-.145.123-.3.187-.447.057-.132.094-.265.13-.401a.163.163 0 0 0-.014-.092c-.007-.022-.007-.043-.007-.064v-.066c0-.01 0-.038.007-.055.04-.084.076-.18.112-.274.022-.039.037-.08.056-.126.018-.032.023-.067.033-.092.053-.162.062-.332.053-.493.02-.016.048-.025.048-.061 0-.04-.039-.044-.056-.05 0-.093-.038-.173-.07-.249a2.553 2.553 0 0 0-.23-.363.431.431 0 0 0-.278-.164c-.048-.01-.108-.019-.17-.035 0-.065-.055-.084-.108-.095a.438.438 0 0 1-.178-.095.1.1 0 0 0-.086-.049c-.013 0-.026 0-.037-.021-.047-.04-.066-.096-.085-.15-.007-.025 0-.037.019-.055a.15.15 0 0 1 .04-.044c.026-.06.056-.12.082-.186.04-.064.064-.126.091-.19 0-.012.02-.023.027-.029a.14.14 0 0 0 .084-.103c.014-.087.035-.18.055-.27 0-.022 0-.048-.012-.06-.03-.03-.036-.074-.043-.104 0-.011-.012-.018-.022-.024-.02-.037-.034-.071-.062-.104a.88.88 0 0 1-.079-.102A1.13 1.13 0 0 1 11.616.5c.048-.086.017-.124-.097-.124-.007-.026.013-.058-.023-.078-.026-.007-.055-.013-.079-.025-.02-.066-.05-.083-.121-.056-.062-.049-.13-.087-.182-.142-.01-.008-.016-.008-.016-.021-.026-.02-.044-.022-.08 0-.02.012-.028.012-.043.004-.068-.026-.136-.032-.2-.046-.063-.008-.085.02-.073.08v.007c-.036.01-.063.01-.099-.017a.788.788 0 0 1-.065-.04c-.038-.01-.052-.03-.087-.038-.047-.016-.085.022-.068.062 0 .016 0 .027.015.05-.022-.007-.042-.007-.053-.007-.043-.016-.085-.027-.128-.043-.041 0-.068.016-.097.05-.023.035-.013.066-.004.1.014.025.033.051.05.075l-.069.038c-.012.004-.023 0-.037 0-.036 0-.062.015-.083.026-.017.013-.036.022-.043.033-.034.022-.073.043-.1.083a.04.04 0 0 1-.015.033.25.25 0 0 0-.078.105c-.014.042-.033.095-.047.143 0 .03-.012.044-.019.068 0-.007-.01-.007-.01-.007a.396.396 0 0 0-.193-.1 1.997 1.997 0 0 0-.67 0 .38.38 0 0 0-.13.056c-.029.02-.047.055-.067.084a.338.338 0 0 0-.04.062c-.028.052-.057.102-.086.153-.026.08-.054.164-.047.25.02.133.04.257.047.38.022.12.029.236.063.35.01.009.01.022.01.027-.09.083-.166.165-.258.245-.12.108-.26.18-.399.258-.115.068-.235.13-.362.193-.051.032-.118.068-.168.116-.128.104-.254.215-.392.325-.072.065-.143.136-.216.197-.007.007-.028.007-.033.015-.108.042-.218.072-.337.112a2.71 2.71 0 0 0-.133.065c-.094.05-.18.124-.264.181-.04.03-.063.03-.105 0l-.133-.074a3.13 3.13 0 0 0-.381-.161c-.057-.02-.127-.028-.175-.06a1.06 1.06 0 0 1-.15-.115 1.828 1.828 0 0 0-.308-.196.443.443 0 0 1-.161-.127c-.036-.045-.084-.092-.12-.132-.055-.052-.116-.095-.171-.146a.89.89 0 0 0-.256-.153c-.022-.012-.05-.029-.08-.04-.072-.014-.143-.047-.215-.05-.094-.017-.199-.012-.294-.017-.018 0-.027.006-.05.008-.01-.084-.013-.159-.025-.24A.905.905 0 0 0 3.25 1.9a.15.15 0 0 1-.028-.127c.02-.05.02-.099.02-.147 0-.037 0-.073-.02-.1-.01-.035-.037-.071-.056-.111l-.234-.324a.243.243 0 0 0-.065-.058.47.47 0 0 0-.303-.066c-.028 0-.057.004-.072 0a2.405 2.405 0 0 0-.396-.03.876.876 0 0 0-.362.096.561.561 0 0 0-.207.163c-.1.098-.188.201-.263.318-.029.054-.058.1-.067.148a.347.347 0 0 0-.057.13c-.037.078-.076.142-.083.22-.01.029-.01.045.007.063.039.057.062.121.104.177a.18.18 0 0 0 .052.044c.015.008.015.012.025.031a.757.757 0 0 1 .1.146.89.89 0 0 0 .11.145.763.763 0 0 0-.136.135c-.02.042-.048.069-.074.105a.249.249 0 0 0-.048.128c0 .04-.014.08-.014.109 0 .027-.015.039-.027.058-.066.059-.155.08-.209.147 0 .008-.007.008-.007.008-.048.023-.084.046-.121.068-.036.022-.046.048-.046.092.01.01.01.027.01.05-.078.059-.153.118-.222.163a1.286 1.286 0 0 0-.21.199 1.454 1.454 0 0 0-.204.354c-.026.063-.064.124-.1.183-.02.055-.056.102-.045.167.01.057.01.106.025.168.014.07.056.119.127.14.059.01.117.028.172.04.043.006.084.023.118.031.061.012.118.004.173-.014.088-.029.184-.042.275-.029.02.004.048.004.074.004a.403.403 0 0 0 .144-.042c.036-.024.073-.043.096-.065a.379.379 0 0 0 .15-.161c.016-.016.024-.04.03-.057.012.005.021.005.021.005a.436.436 0 0 1 .193.177c.034.066.08.139.118.213.01.01.016.025.01.034-.022.061.007.105.038.155.02.018.047.057.07.08.032.028.042.06.025.095-.019.035-.01.068.017.097.073.077.135.166.208.24.08.101.163.198.244.289.043.052.098.104.146.157.032.047.07.098.104.149.04.045.086.088.143.077.012-.004.029.011.029.015.019.01.037.026.053.035.083.05.153.11.247.137 0 .036-.008.064-.008.095.02.089.027.167.034.253.007.038.007.086.017.122.026.05.02.095.02.152v.025c-.012.149-.02.282 0 .419v.048c0 .063-.02.126-.02.184-.01.05 0 .094.045.127.01.007.017.018.017.037-.007.068-.017.15-.017.226 0 .134 0 .27-.01.407-.01.132 0 .26 0 .391 0 .028.01.047.01.065.017.145.036.284.027.423 0 .09.01.182.045.269.039.107.063.227.116.325.019.044.05.087.064.126.013.012.013.019.013.038.01.045.02.095.02.149.003.058.003.11.017.166.039.246.104.485.22.712.04.059.067.125.093.182.029.085.065.173.1.25.033.12.06.241.079.37.016.104.036.21.047.32 0 .072 0 .154.01.23 0 .035-.01.067-.03.104-.027.021-.046.055-.063.079-.062.11-.114.21-.189.322-.007.024-.026.04-.046.064-.018.037-.043.054-.076.056-.03.004-.05 0-.065 0-.041.01-.08.01-.107.04a.113.113 0 0 1-.078.047.398.398 0 0 1-.062.026.353.353 0 0 0-.063.052c-.036.05-.026.099 0 .146.011.02.022.043.022.068.008.036.036.052.06.052h.199c.007 0 .029-.016.044-.016h.036c.04 0 .069.016.09.016.082.01.157 0 .225-.042.04-.025.082-.047.12-.075.1-.07.22-.099.342-.118.082-.02.18-.03.269-.052.103-.023.205-.04.309-.082.068-.025.096-.081.128-.149.01-.019.01-.043.01-.067a.304.304 0 0 0-.048-.22c-.025-.032-.057-.068-.064-.11a2.869 2.869 0 0 1-.071-.224c-.03-.087-.046-.175-.068-.252-.037-.235-.086-.467-.13-.696-.029-.13-.04-.262-.029-.389.01-.12.01-.234 0-.357-.018-.154-.046-.302-.071-.453a.77.77 0 0 0-.055-.207c-.055-.143-.117-.28-.18-.427v-.043c.021-.096.028-.188.043-.28.01-.04.03-.085.043-.124.087-.123.149-.263.21-.398.093-.23.16-.445.198-.69.01-.048.022-.1.058-.14.036-.028.036-.067.036-.11.023-.114.055-.237.08-.36.007-.005.007-.013.007-.02.032-.052.055-.106.084-.149a.412.412 0 0 0 .058-.208c0-.02.002-.039.014-.05.035-.068.064-.143.1-.209.02-.035.026-.073.046-.109 0-.006.008-.014.017-.019a.81.81 0 0 0 .203-.24c.066-.095.133-.184.188-.29.012-.02.031-.037.048-.038.048 0 .075-.02.113-.041.026-.011.048-.032.056-.036a.086.086 0 0 0 .065-.071c.022-.093.058-.176.076-.268 0-.043 0-.095.018-.138.015-.034.05-.074.077-.113.143-.156.264-.325.365-.507.007-.017.017-.02.017-.028.012.008.026.016.026.028.058.015.084.048.09.097.01.06.045.093.103.126.063.034.114.072.176.11a.309.309 0 0 0 .117.025c.03 0 .066.01.1.014a.291.291 0 0 0-.1.218c0 .03.014.056.05.073.043.026.092.06.13.088.104.043.208.07.327.068a.623.623 0 0 0 .38-.156.572.572 0 0 0 .107-.117.266.266 0 0 0 .1-.251c0-.11-.016-.223-.034-.34 0-.033-.03-.054-.047-.077a.71.71 0 0 0-.234-.126 1.66 1.66 0 0 1-.3-.118c-.078-.038-.159-.083-.243-.124-.007-.004-.036-.017-.05-.012-.03.007-.059-.016-.093-.04-.043-.028-.08-.062-.136-.055l-.007-.007a.263.263 0 0 1 .064-.061c.052-.042.085-.091.16-.137.191-.096.379-.21.56-.343.052-.047.116-.093.181-.149a1.64 1.64 0 0 0 .321-.377.073.073 0 0 0 .029-.03c.014.019.014.03 0 .046-.052.153-.1.316-.12.483v.183c.011.033.02.067.029.1.029.07.048.133.062.199.012.025.029.058.069.06.008.01.025.02.04.02.054.02.111.03.163.06a.626.626 0 0 0 .2.028c.063-.012.127-.02.195-.029.161-.039.312-.081.456-.13.007-.004.014-.009.043-.012a.494.494 0 0 0-.029.147c-.014.112-.024.218-.036.331a2.585 2.585 0 0 1-.036.312c-.036.132-.052.271-.08.402a.459.459 0 0 0 .013.295c.015.06.031.123.067.18.03.052.065.076.127.064a.528.528 0 0 0 .108-.025c.02.073.03.14.049.215.017.086.01.153.029.232v.033c-.012.053-.012.124-.029.183-.012.017-.012.022-.012.027-.007.057-.017.112-.017.172 0 .169.01.347.01.53 0 .02-.01.032-.01.046-.026.061-.063.126-.087.184-.012.03-.026.058-.041.091-.017.032-.026.07-.036.104-.02.068-.043.147-.072.219-.01.026 0 .067 0 .097 0 .018.01.032 0 .047-.019.051-.038.105-.067.15-.066.107-.13.22-.187.342a.698.698 0 0 0-.072.295c0 .072 0 .133-.024.192-.01.014-.01.023-.01.029a.433.433 0 0 0 .017.216c.045.149.109.295.151.44.049.15.105.299.146.448.007.028.02.058.027.08.035.14.058.283.1.406.026.088.049.17.068.262.023.11.039.22.066.33.011.023.011.047 0 .072 0 .02-.006.051-.006.063.017.082.036.163.065.241 0 .013.007.023.007.045 0 .048.012.1.012.15 0 .115-.012.216-.012.322 0 .043-.007.091-.046.113-.082.104-.183.193-.261.287-.052.058-.1.113-.156.167-.015.01-.029.026-.043.026-.03.01-.031.026-.046.055-.007.01-.007.02-.007.033-.048.029-.091.048-.14.077a.154.154 0 0 1-.095.026c-.056 0-.085.024-.111.061a.093.093 0 0 0-.024.029.09.09 0 0 1-.064.052.052.052 0 0 0-.046.053c-.01.107.02.168.134.164a.406.406 0 0 1 .139 0c.02.004.044-.015.058-.015.029 0 .05.019.067.007a.18.18 0 0 1 .082.008c.033.004.054.013.067.013h.14a.353.353 0 0 0 .23-.103c.029 0 .067.007.105.017.067.01.144.01.206-.027.029-.014.07-.014.097-.014.046.007.082.014.129.017a.34.34 0 0 0 .205.014c.08-.024.174-.052.251-.081l.02-.001c.056-.008.066-.008.073-.058.02-.051.013-.11.013-.161 0-.11-.03-.22-.106-.326a.129.129 0 0 1-.015-.034c-.039-.108-.039-.217-.039-.321 0-.087.013-.171.013-.255 0-.039 0-.084.008-.124a.243.243 0 0 0 .018-.155v-.107c.007-.055.015-.113 0-.171-.018-.01-.018-.023-.018-.036.018-.065.018-.136.033-.2.014-.108.027-.22.043-.33 0-.14.007-.273-.022-.408a2.426 2.426 0 0 0-.108-.477c-.043-.098-.084-.198-.135-.298a1.776 1.776 0 0 0-.156-.333c.084-.082.163-.155.257-.223.044.055.08.107.113.151.093.14.19.273.3.402.026.025.062.053.072.085.036.08.09.149.136.223a.385.385 0 0 0 .087.096c.058.037.118.086.173.12.115.066.218.124.334.182.072.03.143.077.201.135.12.119.243.23.38.316.194.158.393.301.618.423.02.014.038.023.038.036.056.06.101.113.145.165.027.045.062.09.119.1.006.004.02.02.02.02.053.077.096.146.15.214.061.103.115.207.171.323.01.016.01.033.01.058 0 .168.014.345 0 .518-.01.076-.01.153-.046.23a.221.221 0 0 1-.13.094.19.19 0 0 0-.076.022c-.026.023-.045.03-.07.023h-.046c-.022 0-.05.014-.055.03-.036.05-.058.181.027.234.016.018.035.022.06.034.014 0 .039.01.058.02.026.029.062.038.102.038h.047c.037.026.083.026.13.02.013 0 .042-.02.056-.01.044.01.077-.01.113-.017.029-.003.048-.008.071-.008.058 0 .1-.015.134-.052.028-.029.056-.068.083-.1.007-.006.02-.023.029-.025a.177.177 0 0 0 .116-.112c.007-.012.019-.022.019-.029.063-.092.127-.185.198-.281.072-.11.153-.22.236-.333a.169.169 0 0 1 .09-.089c.034-.022.06-.045.096-.06a.408.408 0 0 0 .18-.224.582.582 0 0 0 .011-.242"/></svg>