<svg xmlns="http://www.w3.org/2000/svg" width="63.716" height="47.478" viewBox="0 0 16.858 12.562" fill='currentColor'><path fill-rule="evenodd" d="M16.815 12.028c0-.01 0-.017-.008-.02a.332.332 0 0 1-.06-.153c0-.006-.002-.019-.009-.024-.02-.057-.045-.115-.062-.173a1.535 1.535 0 0 1-.044-.114c-.041-.068-.072-.13-.11-.203a.262.262 0 0 0-.07-.09c-.076-.078-.16-.144-.235-.214-.008-.013-.016-.02-.024-.037-.016-.066-.032-.119-.047-.17a.302.302 0 0 0-.212-.212c-.143-.05-.287-.073-.429-.122-.02 0-.037-.01-.056-.013-.152-.07-.312-.081-.468-.11a.313.313 0 0 1-.124-.049c-.02-.016-.038-.033-.063-.05-.073-.035-.148-.075-.22-.108a3.652 3.652 0 0 0-.643-.252c-.113-.03-.226-.07-.342-.098a.383.383 0 0 0-.092-.032c-.048-.01-.095-.036-.142-.02-.01.01-.018 0-.025 0-.075-.019-.151-.03-.223-.043-.1-.01-.193-.021-.29-.042-.092-.019-.184-.036-.277-.058-.035-.01-.06-.022-.087-.031.016-.052.035-.1.046-.14a.736.736 0 0 0 .044-.252c0-.02.013-.036.034-.046.075-.052.154-.104.226-.169.014-.005.022-.015.033-.015.067.003.13-.01.198-.023a.711.711 0 0 0 .245-.07c.064-.034.107-.082.107-.154 0-.068-.017-.139-.091-.162.015-.006.031-.018.04-.02.033-.026.067-.048.093-.074.055-.05.062-.107.03-.165-.021-.041-.048-.072-.072-.106 0-.006.008-.006.012-.006.065-.054.076-.109.035-.182 0-.014-.004-.024-.011-.03-.02-.055-.053-.09-.112-.084 0 0-.01 0-.011-.006 0-.01-.004-.014-.004-.022-.015-.06-.032-.076-.092-.083-.007 0-.024-.01-.033-.01-.062 0-.122-.013-.178-.01-.04 0-.079.02-.13.027-.026 0-.054 0-.081.016a.857.857 0 0 0-.237.081c-.066.035-.143.049-.21.106-.034.022-.061.048-.101.072-.012-.022-.02-.024-.025-.041-.133-.17-.22-.366-.321-.563-.057-.095-.112-.198-.181-.294-.1-.162-.218-.305-.33-.457a1.376 1.376 0 0 0-.19-.214c-.05-.034-.089-.076-.125-.11-.035-.038-.066-.078-.109-.108-.016-.021-.025-.036-.025-.064v-.274c0-.075-.01-.14-.027-.212-.06-.184-.106-.372-.157-.56-.04-.13-.05-.274-.119-.4-.013-.017-.013-.038-.018-.053a2.407 2.407 0 0 0-.103-.197c-.047-.12-.099-.234-.15-.354-.016-.04-.037-.087-.092-.109-.006 0-.007-.008-.015-.008-.058-.064-.125-.117-.19-.178-.05-.05-.097-.111-.148-.164a.106.106 0 0 0-.036-.033c-.066-.034-.137-.077-.204-.117-.106-.077-.218-.145-.313-.235a.42.42 0 0 0-.103-.053c-.03-.005-.06-.01-.088-.028-.142-.056-.28-.112-.415-.167-.05-.02-.098-.028-.14-.04-.01-.004-.016-.016-.023-.021 0 0 .011-.015.013-.015a.2.2 0 0 0 .11-.116c.007-.02.016-.033.026-.053.036-.067.052-.144.112-.2.01-.01.01-.027.013-.042.036-.108.068-.22.1-.32.062-.17.088-.35.062-.534-.006-.047-.01-.104-.006-.152 0-.057.006-.108.022-.163a.272.272 0 0 0-.017-.132A1.328 1.328 0 0 1 8.951.9a2.204 2.204 0 0 0-.017-.223C8.927.589 8.888.526 8.86.44a.665.665 0 0 0-.145-.182.629.629 0 0 0-.234-.12 2.665 2.665 0 0 0-.223-.084.751.751 0 0 0-.259-.051c-.11-.008-.217 0-.324.024-.13.026-.267.05-.387.111-.062.028-.119.074-.18.12a1.06 1.06 0 0 0-.307.318.762.762 0 0 0-.097.357v.03a.592.592 0 0 0 .013.257c0 .016.007.04.013.052-.026.02-.043.036-.068.043a.496.496 0 0 0-.179.165c-.056.086-.1.17-.095.265.007.16.039.32.128.463.032.063.07.12.13.167.048.034.1.073.147.105.098.059.192.086.302.035h.014c.01.04.01.068-.014.103a.306.306 0 0 0-.043.063c-.008.034-.023.037-.047.046-.056.016-.103.03-.154.039-.023 0-.058 0-.086-.008-.071-.03-.152-.056-.217-.095-.05-.02-.097-.037-.136-.013-.034-.02-.05-.031-.072-.036a.424.424 0 0 0-.134-.031 2.92 2.92 0 0 0-.269-.035c-.111-.013-.213-.023-.325-.013-.053.004-.118.004-.173.007-.026.007-.049 0-.072-.017a.145.145 0 0 0-.066-.05c-.046-.023-.1-.035-.148-.054-.015-.012-.033-.018-.041-.03a.196.196 0 0 0-.142-.068 4.737 4.737 0 0 1-.597-.188c-.015-.008-.027-.016-.031-.026l-.14-.157a.092.092 0 0 0-.05-.034 4.84 4.84 0 0 1-.552-.22c-.099-.04-.188-.086-.284-.132a3.922 3.922 0 0 0-.518-.242c-.111-.044-.223-.079-.336-.128-.052-.02-.103-.049-.158-.04-.017.005-.025-.008-.035-.008-.05-.03-.11-.055-.164-.077A1.763 1.763 0 0 1 1.62.78C1.562.734 1.513.729 1.45.765c-.07.033-.15.063-.22.111-.09.058-.197.084-.287.12a.777.777 0 0 0-.164.072.082.082 0 0 0-.04.025.12.12 0 0 1-.07.048c-.132.03-.25.067-.37.125-.025.014-.048.03-.057.058-.01.02-.012.043-.022.054-.022.058-.05.117-.075.17-.025.037-.06.078-.093.126-.062.097-.07.193-.022.287.022.06.06.111.095.167.004.024.024.029.044.042.073.024.138.046.204.066.014.006.03.013.038.02.018.067.064.084.117.102.031 0 .073.007.095-.006a.277.277 0 0 1 .125-.024c.023 0 .048.003.072 0 .082-.006.13-.056.13-.14a.24.24 0 0 0-.056-.157c.012-.024.017-.034.035-.046a.807.807 0 0 1 .093-.038c.018.026.03.058.054.084.014.034.04.051.077.051a.465.465 0 0 1 .088-.017c.026.06.053.116.08.18.042.09.093.165.153.242.054.077.113.14.175.216.108.131.211.26.335.38.058.067.128.125.19.195a4.572 4.572 0 0 1 .268.25c.081.076.18.141.267.207.028.021.06.04.092.067l.225.113c.098.057.19.109.281.16.065.028.128.062.186.075.161.081.317.177.49.24.103.043.2.095.307.146.173.091.36.161.554.237.122.057.255.104.381.159.123.053.254.108.38.165.04.015.083.036.128.054-.003.059-.01.118-.01.164 0 .147.01.292.013.434.01.08.01.16.028.232a.58.58 0 0 1 0 .251 3.91 3.91 0 0 0-.057.54.774.774 0 0 0 .016.213c.007.018.007.02 0 .042l-.062.134c-.057-.02-.115-.04-.18-.053a1.143 1.143 0 0 0-.334-.034c-.046 0-.082.003-.119 0-.062 0-.135-.01-.197-.02a1.767 1.767 0 0 0-.311-.027c-.076.004-.148 0-.22.004-.082.01-.176.022-.254.046-.12.04-.23.098-.343.132-.04.018-.08.033-.114.06-.07.056-.137.112-.209.173-.033.026-.056.052-.087.086-.01.01-.028.034-.028.057a.659.659 0 0 0-.049.187c-.008.038-.008.086-.008.12 0 .042-.008.09 0 .143.057.25.108.505.19.748a.367.367 0 0 0 .096.187c.106.136.21.27.31.396a.488.488 0 0 1 .031.074c.03.073.042.159.076.23.051.114.11.232.163.348.04.07.067.143.11.215.113.182.228.375.361.541.074.106.154.197.25.284.064.048.12.103.18.157.044.028.085.058.137.07.075.017.143.052.234.079-.076.058-.134.097-.193.145-.03.026-.069.034-.113.034a.75.75 0 0 0-.214.05c-.038.017-.078.038-.118.055-.073.043-.14.072-.212.116-.052.031-.076.066-.076.133 0 .004-.008.026-.008.044-.007.096.032.138.095.173.085.033.164.065.256.095.212.053.424.087.64.087.118 0 .232-.01.35-.014h.016c.168-.03.339-.048.503-.083.116-.026.234-.047.35-.052.132 0 .271.006.41.006.12.01.24 0 .347-.028.059-.006.118-.026.175-.04.037-.015.057-.023.06-.074 0-.022.005-.042 0-.07-.007-.053-.003-.127-.027-.185-.025-.06-.036-.108-.025-.163 0-.029-.011-.058-.014-.084-.004-.023-.013-.048-.013-.081.072-.006.14-.014.213-.032.107-.023.2-.05.293-.094.251-.13.503-.252.752-.379a.236.236 0 0 1 .094-.023c.051 0 .1.004.15.01.075.014.15.014.227.02.115.004.236.004.358.004h.318c.055 0 .113-.004.167.032.01.006.025.006.033.016.098.034.198.055.3.096.101.043.222.072.33.11.143.034.282.07.416.107.163.052.327.07.489.099h.037c.025.003.043 0 .062.006.2.074.404.12.608.168.185.038.365.081.553.13.063.018.126.035.195.047.051.012.104.024.156.034.204.036.41.09.617.124.086.022.167.03.248.044.087.02.177.043.256.043.05 0 .099.01.147.01.092.012.176.019.266.019a.277.277 0 0 1 .118 0c-.022.02-.041.044-.05.052-.019.035-.043.064-.048.093-.007.077-.007.157-.012.231 0 .032.012.066.041.084.045.025.087.054.144.058.04.025.088.025.132.025.142 0 .291 0 .431-.008.115-.002.228-.02.345-.026h.123c.095-.017.188-.024.286-.043a.63.63 0 0 0 .135-.015c.095-.018.18-.057.28-.062.078-.02.117-.1.112-.159-.008-.074-.026-.148-.042-.22"/></svg>