<svg xmlns="http://www.w3.org/2000/svg" viewBox="0 0 535.946 605.414" fill="currentColor"><path d="M504.231 604.56c-7.072-1.395-13.513-4.788-18.77-9.886-2.75-2.667-6.8-5.79-9-6.938l-4-2.089 4.5.601c4.359.583 8.821 2.804 15.912 7.922 5.198 3.753 12.33 5.472 26.364 6.358 7.027.443 13.065 1.094 13.417 1.446.352.352-.672.64-2.276.64-1.605 0-6.067.668-9.917 1.483-7.714 1.634-9.972 1.699-16.23.464zm-488.27-7.574c-3.98-.766-11.936-3.46-12.395-4.198-.23-.37 5.207-.535 12.083-.365 12.852.317 16.313-.998 5.593-2.125-3.18-.334-7.58-1.268-9.78-2.075-3.845-1.41-3.438-1.47 10.5-1.54 7.974-.039 18.248-.73 22.83-1.537 9.576-1.686 35.034-3.195 33.93-2.012-.406.435-2.431 1.12-4.5 1.521-3.25.63-2.877.74 2.74.809 3.574.044 9.087-.54 12.25-1.295 3.162-.756 5.75-1.166 5.75-.912 0 .255-3.038 1.886-6.75 3.626-6.073 2.846-8.056 3.235-19.75 3.876-8.001.439-17.325 1.706-24.246 3.296-11.193 2.572-23.491 3.848-28.255 2.931zm517.822-2.929c-.416-5.103-2.504-5.46-12.136-2.07-3.952 1.391-8.61 2.804-10.352 3.14-3.676.708-10.596-.919-12.218-2.873-.918-1.106-.24-1.262 3.809-.873 3.382.325 7.222-.224 12.25-1.753 4.03-1.224 9.462-2.29 12.074-2.37 2.612-.079 4.75-.355 4.75-.613 0-.259-3.719-4.084-8.265-8.5-4.547-4.417-9.415-9.57-10.819-11.453l-2.552-3.422-7.431 1.137c-13.421 2.055-16.097 2.284-15.504 1.325 1.11-1.797 9.989-4.117 15.75-4.117 3.202 0 5.822-.241 5.822-.536 0-.294-.787-1.74-1.75-3.21-2.751-4.208-.088-2.127 12.892 10.073 12.998 12.218 15.866 16.346 15.843 22.809-.021 5.978-1.731 8.593-2.163 3.306zM0 585.115c-.047-2.987 3.496-8.21 6.667-9.83 1.537-.785 6.663-2.6 11.39-4.034 4.729-1.434 9.875-3.612 11.436-4.84l2.84-2.234-1.78 3.015c-2.47 4.178-6.79 6.847-15.8 9.759-8.561 2.767-11.605 4.554-13.466 7.905-1.172 2.11-1.257 2.127-1.287.259zm478.002-3.565c-6.837-3.99-7.933-4.935-5.718-4.935 4.137 0 8.785 2.35 12.623 6.38 1.896 1.99 3.02 3.59 2.5 3.555-.52-.036-4.752-2.286-9.405-5zm-11.366 1.011c-1.092-1.56-1.219-3.03-.525-6.115.501-2.234.623-5.022.269-6.196-.536-1.78-.417-1.919.719-.835.894.854 1.363 3.69 1.364 8.25.001 3.822-.085 6.95-.193 6.95-.107 0-.843-.925-1.634-2.054zm-17.207-3.803c-1.793-1.093-4.41-4.464-6.404-8.246-6.205-11.77-10.475-17.3-24.714-32.008-20.28-20.946-33.96-39.992-45.429-63.242l-5.992-12.147 4.867 5.136c2.677 2.825 8.38 11.15 12.672 18.5 11.82 20.237 21.4 32.806 38.006 49.864 16.13 16.567 19.564 21.209 24.424 33.015 2.109 5.123 3.97 8.06 5.848 9.224 1.584.982 2.117 1.717 1.254 1.73-.825.013-2.864-.809-4.532-1.826zm9.251-2.204c-1.183-4.576 1.178-10.117 6.641-15.585 4.483-4.488 6.262-5.487 13.922-7.82 4.83-1.471 14.205-3.52 20.835-4.553 6.629-1.032 12.763-2.463 13.63-3.18 1.322-1.09 1.503-1.057 1.115.199-.715 2.312-8.431 5.664-18.362 7.976-15.036 3.502-21.995 5.875-26.241 8.951-5.155 3.734-9.325 9.188-10.198 13.336-.671 3.195-.689 3.203-1.342.676zm-356.719.686c0-1.732 4.174-11.115 10.827-24.342 8.244-16.39 21.1-38.238 37.362-63.497 5.21-8.093 12.361-19.956 15.892-26.364 7.021-12.742 13.795-20.566 19.41-22.42l3.555-1.172L184.03 434c-2.736-2.994-7.773-9.369-11.192-14.165-3.42-4.797-9.55-12.687-13.624-17.534-10.249-12.196-13.139-16.75-14.186-22.353-.496-2.658-.752-4.983-.569-5.167.184-.183 1.218 1.616 2.298 4 1.08 2.383 5.597 8.557 10.04 13.72 4.441 5.162 11.911 14.91 16.6 21.663 12.26 17.657 13.531 18.847 40.8 38.2 3.293 2.337 5.474 4.25 4.847 4.25-2.094 0-12.699-5.818-21.13-11.593l-8.34-5.71-5.658 6.02c-3.112 3.31-8.857 11.425-12.767 18.033-3.91 6.607-12.435 20.054-18.945 29.881-13.981 21.108-27.794 44.203-32.035 53.562-1.668 3.682-6.265 12.12-10.216 18.75-6.353 10.661-7.993 13.058-7.993 11.682zm-26.5-3.195c-8.791-1.787-14.07-3.508-19.745-6.435-6.6-3.405-8.668-3.996-14-4.001-8.646-.008-13.596-1.514-14.309-4.353-.73-2.91 2.366-11.063 11.882-31.284 4.177-8.879 10.088-22.535 13.134-30.348 5.193-13.32 5.539-14.745 5.543-22.858.006-11.575 3.26-33.086 6.474-42.789 2.856-8.624 20.223-43.877 24.237-49.198 3.556-4.713 7.25-6.669 17.14-9.075 6.014-1.462 14.121-4.82 26.644-11.038 9.9-4.915 19.125-9.216 20.5-9.557l2.5-.62-2.5 2.082c-11.138 9.276-27.47 17.692-43.41 22.371-9.131 2.68-12.5 4.162-15.022 6.607-3.259 3.158-20.492 34.734-24.596 45.066-3.58 9.01-4.723 13.699-7.436 30.5-1.421 8.8-2.854 16.9-3.184 18-1.438 4.792 1.256-.231 4.684-8.734 6.865-17.028 19.355-43.766 20.445-43.766.909 0-6.57 20.077-12.334 33.109-5.309 12.004-19.147 47.039-19.147 48.476 0 .313-3.614 9.057-8.032 19.43-10.119 23.758-12.313 30.04-10.964 31.388.564.564 4.507 1.328 8.761 1.697 6.415.556 8.77 1.288 13.794 4.288 4.293 2.563 8.953 4.23 15.993 5.723 8.49 1.8 23.029 6.28 24.365 7.506 1.284 1.179-11.058-.082-21.417-2.187zm411.5-15.352c2.727-1.961 8.972-3.174 12.724-2.47 3.322.623 3.47.776 1.47 1.516-3.76 1.39-15.938 2.21-14.194.954zm26.31-20.009c-1.545-2.83-5.012-8.165-7.703-11.857-5.603-7.687-15.677-28.056-21.124-42.712-3.994-10.749-6.49-18.5-5.956-18.5 1.202 0 10.023 16.24 13.424 24.711 6.674 16.629 9.452 22.323 15.262 31.289 4.737 7.308 10.424 20.697 9.278 21.842-.204.205-1.636-1.943-3.181-4.773zm-21.952-25.32c-16.555-17.127-32.845-42.17-34.964-53.75-.578-3.157-.085-2.716 5.035 4.5 3.122 4.4 7.986 11.826 10.809 16.5 2.823 4.676 9.211 14.565 14.197 21.978 12.913 19.197 12.777 18.899 4.923 10.773zm-126.367-42.17c-11.272-7.4-17.522-20.216-18.566-38.08-.514-8.777-.488-8.915 1.045-5.586.864 1.877 2.462 6.903 3.551 11.168 3.553 13.915 8.119 23.205 14.828 30.169 4.963 5.15 4.667 5.955-.858 2.329zm107.27-12.985c-8.824-9.655-16.32-22.409-23.06-39.235-4.17-10.412-7.719-15.248-15.467-21.074-7.617-5.729-20.02-18.179-24.675-24.772l-3.44-4.872 4.44 3.067c2.443 1.687 8.266 6.636 12.941 10.996 4.675 4.36 11.1 9.835 14.279 12.165 7.788 5.71 11.766 11.499 17.16 24.978 2.498 6.241 8.777 18.729 13.954 27.75 5.177 9.021 9.276 16.403 9.11 16.403-.166 0-2.525-2.433-5.243-5.406zm-239.023 3.37c-3.022-1.215-10.29-6.393-7.738-5.513 9.737 3.355 17.986 3.034 19.424-.755 1.628-4.287 5.004-24.412 6.577-39.196 2.286-21.498 3.994-31.313 6.421-36.892 1.17-2.69 2.341-4.679 2.6-4.42.26.26.04 2.912-.49 5.892-.53 2.98-2.115 15.545-3.52 27.92-2.648 23.298-5.84 44.172-7.597 49.661-.556 1.739-1.701 3.426-2.545 3.75-2.28.875-10.541.594-13.132-.447zm62.762-11.074c0-2.543 14.07-14.802 23.441-20.425 13.768-8.262 18.914-13.298 26.29-25.73 7.001-11.798 13.51-18.453 22.987-23.504 3.334-1.777 6.34-3.231 6.679-3.231.339 0-2.93 3.124-7.264 6.943-8.71 7.676-12.44 12.375-19.973 25.165-6.512 11.057-12.775 16.732-29.718 26.926-7.414 4.462-15.496 9.65-17.96 11.532-2.465 1.881-4.482 2.927-4.482 2.324zm-6.75-5.945c-9.32-11.88-26.56-40.65-28.732-47.945-1.37-4.603 8.73 7.944 15.698 19.5 4.343 7.202 18.72 34.5 18.17 34.5-.213 0-2.525-2.725-5.137-6.055zm83.75-27.536c8.839-3.54 17.126-4.798 24.5-3.721l6 .876-10.5 2.332c-5.775 1.282-14.1 2.508-18.5 2.724l-8 .392zm-19.338-6.147c-.924-1.495 9.519-3.272 18.755-3.192l8.083.07-4 1.527c-4.825 1.84-21.947 3.037-22.838 1.595zm-223.442-7.711c-8.64-2.092-7.377-2.79 4.28-2.366 7.794.283 11.875.885 14 2.067 2.997 1.666 2.992 1.667-5 1.622-4.4-.024-10.376-.62-13.28-1.323zm4.78-8.42c0-1.606 6.957-2.018 11.249-.667l4.251 1.338-7.75.099c-4.262.054-7.75-.293-7.75-.77zm68.232-20.817c-10.907-21.609-25.688-59.58-28.547-73.33-1.818-8.748-2.72-14.984-2.169-14.984 1.02 0 5.436 11.877 13.941 37.5 5.112 15.4 12.758 36.03 16.992 45.843 4.233 9.814 7.485 18.056 7.226 18.315-.259.259-3.608-5.746-7.443-13.344zm222.784-2.564c.019-10.155 1.498-13.493 2.483-5.605.607 4.856-.716 13.855-2.037 13.855-.254 0-.455-3.713-.446-8.25zm5.33 3.382c.273-2.402 1.866-7.127 3.541-10.5 3.233-6.508 11.904-18.175 12.824-17.255.679.679-5.91 14.689-8.85 18.819-1.19 1.67-3.478 5.347-5.086 8.17l-2.923 5.134zm-285.323-5.132c2.073-4.118 12.074-18.059 17.847-24.879 6.004-7.093 7.015-10.047 7.225-21.121.078-4.125.442-8.85.81-10.5.57-2.562.845-1.949 1.881 4.192 1.336 7.916 1.553 15.366.586 20.197-.39 1.956-4.114 7.186-9.876 13.875-10.907 12.661-20.37 22.003-18.473 18.236zm95.977 1.208c0-1.142 14.329-3.97 16.411-3.24 1.23.432.137 1.124-3.667 2.323-5.638 1.777-12.744 2.289-12.744.917zm24-2.195c5.791-3.045 13.043-4.723 15.049-3.484 1.384.856-14.263 6.388-18.049 6.381-1.979-.004-1.353-.608 3-2.897zm119-3.98c0-1.884 9.384-8.973 13.806-10.429l4.694-1.545-3.647 3.22c-4.272 3.772-14.853 10.008-14.853 8.754zm14.723-3.824c1.772-1.49 5.507-3.96 8.3-5.487 4.53-2.478 4.961-2.561 4.002-.77-.59 1.106-2.743 3.143-4.782 4.528-2.193 1.491-3.038 2.52-2.07 2.52.901 0 3.504-1.56 5.785-3.465 2.33-1.947 5.766-3.73 7.844-4.07 2.034-.333 6.623-1.897 10.198-3.475 6.917-3.053 12-4.586 12-3.62 0 .784-7.59 4.63-9.134 4.63-1.455 0-16.262 7.497-20.02 10.136-2.84 1.994-7.345 2.482-8.322.902-.38-.616-1.505-.616-3.124 0-3.985 1.515-4.144 1.085-.677-1.83zm-17.723.29c0-2.271 4.965-7.666 10.444-11.349 7.939-5.336 15.76-8.864 22.556-10.173 3.025-.582 7.586-1.716 10.135-2.518 5.868-1.848 14.86-1.866 21.882-.045 2.998.778 5.745 1.233 6.104 1.01.359-.22.96-2.039 1.335-4.039.576-3.072 5.068-11.385 6.152-11.385.189 0-.107 1.183-.657 2.63-.55 1.446-1.249 5.609-1.553 9.25-.847 10.136-2.8 11.132-13.437 6.854-3.597-1.446-8.639-3.191-11.205-3.877-4.111-1.1-4.891-1.045-6.558.464-1.04.942-5.727 3.258-10.414 5.148-13.095 5.28-28.978 13.35-32.034 16.273-1.512 1.447-2.75 2.238-2.75 1.757zm-125.25-6.374c-.412-1.857-.721-4.782-.686-6.5.062-3.066.082-3.078 1.047-.661.54 1.355.85 4.28.686 6.5l-.297 4.036zm110.053-6.035c-3.719-2.36-5.333-4.397-8.515-10.755-2.16-4.314-4.167-8.764-4.46-9.888-.356-1.36-2.004-2.483-4.931-3.359-9.57-2.864-16.169-7.175-25.192-16.46-15.492-15.94-25.557-29.39-36.044-48.167-4.817-8.626-10.692-22-10.646-24.234.008-.4 2.531 3.998 5.606 9.773 13.948 26.198 22.763 38.277 40.511 55.508 11.58 11.244 28.948 24.305 29.706 22.34.186-.482-.192-4.018-.84-7.857-.987-5.854-1.908-7.91-5.707-12.736-5.27-6.695-8.569-13.584-11.3-23.599-1.814-6.653-5.085-25.805-4.516-26.437.681-.756 5.052 11.36 8.07 22.372 3.852 14.056 5.615 17.873 11.506 24.909 5.013 5.987 5.648 7.516 6.984 16.82 1.622 11.295 6.71 24.153 11.808 29.837 4.986 5.56 4.463 6.056-2.04 1.933zm-42.886-1.49c2.76-3.326 10.411-5.84 18.926-6.22 8.622-.384 8.643-.379 5.157 1.228-4.975 2.294-25.348 6.516-24.083 4.992zm-88.915-9.35c.003-1.535 11.705-5.477 17.498-5.895l6-.433-5 2.057c-4.968 2.045-15.28 5.02-17.394 5.02-.608 0-1.105-.337-1.104-.75zm19.393-.42c-.484-.783-.18-.962.916-.541.914.35 4.492-.706 8.087-2.388 4.965-2.324 7.557-2.947 11.275-2.71l4.827.309-9.019 3.25c-9.372 3.377-14.847 4.084-16.086 2.08zm55.037-2.266c10.186-5.05 25.517-5.55 39.568-1.29 4.252 1.29 3.34 1.405-16.5 2.083-11.55.395-22.575.928-24.5 1.185-3.394.453-3.35.394 1.432-1.978zm120.639-7.071c-.04-1.654-.49-4.466-1-6.25-1.034-3.602-.475-4.145 1.537-1.493 1.5 1.976 1.671 5.774.392 8.75-.738 1.719-.869 1.577-.93-1.007zm-176.393-9.175c-1.049-3.032-1.665-7.18-1.485-10l.307-4.818 1.828 7.129c1.006 3.92 1.674 8.42 1.486 10-.31 2.598-.513 2.38-2.136-2.31zm190.322-1.301-9.5-2.75 5-.669c3.39-.452 6.772-.156 10.5.921 9.22 2.664 9.96 2.759 11.506 1.476.949-.787 1.494-.851 1.494-.175 0 1.722-4.234 4.19-6.972 4.064-1.39-.064-6.803-1.354-12.028-2.867zm25.502-3.967c1.484-2.914 1.673-5.244 1.221-15-.746-16.089-3.487-24.081-12.823-37.384-2.866-4.083-6.673-11.656-9.459-18.818-6.884-17.697-9.214-20.477-30.94-36.919-17.684-13.381-26.598-20.71-26.326-21.647.124-.43-3.126-3.378-7.224-6.55-13.736-10.63-46.647-25.915-66.06-30.679-16.374-4.018-26.8-9.277-29.91-15.089-.85-1.59-.437-1.527 3.273.498 5.902 3.222 19.544 8.021 30.246 10.64 12.521 3.064 47.56 19.027 58.918 26.841 4.886 3.362 12.105 10.976 12.96 13.671.343 1.082 3.094 3.01 6.364 4.462 7.26 3.222 31.957 21.78 39.328 29.551 6.943 7.32 10.02 12.548 14.796 25.143 2.067 5.453 5.88 12.95 8.474 16.658 10.05 14.379 14.208 26.878 13.16 39.572-.79 9.574-1.926 13.122-5.156 16.103l-2.598 2.397zm-51.347-2.05c-.74-2.475-2.7-7.609-4.355-11.408-2.17-4.98-2.858-7.844-2.466-10.26.502-3.097.246-3.506-3.345-5.338-8.345-4.258-14.35-5.992-23.825-6.884-12-1.13-17.34-3.574-34.16-15.641-6.327-4.54-13.46-9.234-15.85-10.431-5.67-2.84-4.862-3.437 1.926-1.425 7.064 2.094 11.576 4.438 21.92 11.387 13.394 8.996 16.1 10.1 27.103 11.056 10.691.928 16.826 3.308 23.394 9.075 1.964 1.724 3.703 2.962 3.865 2.752.163-.211 2.02-5.285 4.126-11.275 2.623-7.457 3.981-13.233 4.307-18.315.714-11.126 2.716-7.742 2.665 4.506-.034 8.222-.53 11.142-3.25 19.16-3.62 10.671-3.873 13.952-1.655 21.58.854 2.94 1.417 7.734 1.25 10.653l-.305 5.308zm13.961-8.3c-.216-10.826 4.036-15.012 17.456-17.184 4.755-.77 8.755-1.539 8.89-1.708.133-.17.746-1.208 1.36-2.308 1.051-1.882 1.12-1.847 1.148.595.044 3.756-2.472 5.5-11.479 7.963-4.395 1.201-9.193 3.035-10.663 4.075-2.4 1.7-4.997 6.906-6.167 12.367-.236 1.1-.48-.61-.545-3.8zm-262.61-3.95c-.91-3.988-2.753-12.65-4.097-19.25-2.937-14.428-13.853-51.538-16.667-56.662-3.066-5.583-6.584-7.565-17.403-9.8-5.81-1.2-12.833-3.502-17.15-5.62-7.71-3.784-21.51-12.773-29.37-19.132-32.811-26.546-32.016-25.642-36.323-41.286-1.438-5.225-5.176-16.925-8.306-26l-5.69-16.5-.329-21.5c-.3-19.621.302-32.861 1.442-31.721 1.446 1.446 2.622 14.723 2.81 31.72l.216 19.5 4.222 12c2.322 6.6 5.81 17.622 7.75 24.494 4.892 17.318 6.64 20.12 19.09 30.626 5.789 4.884 13.062 11.065 16.162 13.736 7.192 6.195 21.761 15.913 30.137 20.103 3.575 1.789 12.025 5.4 18.778 8.024 14.224 5.53 16.449 7.045 19.627 13.366 2.586 5.143 11.691 37.05 14.683 51.45 1.904 9.165 3.732 29.702 2.644 29.702-.314 0-1.316-3.263-2.225-7.25zm58.199 1.411c-2.769-1.11 16.782-7.396 21.726-6.986 2.153.178 4.1.887 4.326 1.575.257.784-.168 1.03-1.138.657-.852-.327-5.052.541-9.334 1.93-9.527 3.088-13.241 3.762-15.58 2.824zm26.952-3.17c6.008-3.041 17.351-5.254 17.336-3.381-.009 1.109-12.937 5.137-18.993 5.917l-4.5.58zm-42.596-1.737c-5.343-11.64-18.577-51.424-22.99-69.109-4.845-19.421-6.02-26.723-7.987-49.645-1.038-12.1-2.395-23.3-3.014-24.89-1.572-4.034-.699-4.302 1.94-.596 3.962 5.564 5.094 11.616 5.983 31.986.921 21.128 2.339 29.85 9.1 55.995 4.046 15.642 13.584 45.752 17.07 53.882 2.051 4.787 1.962 6.874-.102 2.377zm36.703-12.254c-.405-1.375-.729-4.525-.72-7 .014-3.547.234-4.129 1.039-2.746.562.965.886 4.115.72 7-.238 4.128-.46 4.713-1.04 2.746zm-23.165-15.689c-1.881-.51-.102-1.302 13.507-6.008 2.754-.953 5.697-1.319 7.32-.911 2.736.686 3.084 2.604.623 3.425-.791.263-1.045-.014-.629-.688.98-1.585.337-1.453-6.553 1.346-6.665 2.709-11.327 3.635-14.268 2.836zm24.901-3.146c7.75-3.66 10.232-4.218 14.5-3.264l3.5.782-4.5 1.208c-2.475.664-6.492 1.86-8.928 2.658-2.435.798-5.81 1.45-7.5 1.45-2.74 0-2.425-.306 2.928-2.834zm112.511-12.29c-26.448-19.77-44.499-41.185-46.674-55.375-.586-3.82-.342-3.59 5.404 5.094 8.434 12.746 15.007 20.367 34.631 40.156 9.409 9.487 16.887 17.242 16.618 17.233-.27-.009-4.76-3.208-9.979-7.109zm-42.427-2.206c-3.094-4.65-9.204-16.04-13.578-25.312-4.374-9.272-9.553-19.961-11.51-23.755-4.47-8.668-2.064-6.8 4.9 3.803 9.643 14.681 27.885 51.647 26.28 53.252-.256.256-2.998-3.338-6.092-7.988zm-73.742 1.58c-.61-1.512-1.271-5.224-1.47-8.25-.36-5.466-.354-5.48 1.08-2.385 1.59 3.43 3.19 13.386 2.152 13.386-.36 0-1.152-1.238-1.762-2.75zm-24.034-24.776c7.231-3.285 11.823-4.461 17.442-4.468 3.418-.004 4.75.389 4.75 1.4 0 .843-.703 1.23-1.75.964-.962-.244-5.542.698-10.176 2.094-4.634 1.395-10.034 2.51-12 2.479l-3.574-.058zm19.964 1.965c-.993-.993 14.938-6.448 18.68-6.396 2.738.037 2.438.332-2.952 2.902-6.143 2.93-14.448 4.774-15.728 3.494zm-1.661-18.358c-1.345-6.27-1.457-15.749-.195-16.528 2.134-1.32 4.125 17.255 2.18 20.327-.61.962-1.21-.19-1.985-3.799zm-20.027-18.497c1.054-1.053 11.8-4.803 16.105-5.62 5.218-.989 7.811-.476 7.811 1.546 0 1.045.9 1.024 4.66-.107 2.562-.771 5.824-1.365 7.25-1.318 2.31.075 2.15.287-1.487 1.962-5.17 2.382-13.05 3.055-12.631 1.079.314-1.483-.094-1.428-9.76 1.32-4.94 1.404-12.981 2.17-11.948 1.138zm18.363-19.162c-.383-3.069-.439-7.464-.123-9.766.531-3.875.333-4.352-2.663-6.405-1.78-1.22-4.794-3.848-6.699-5.841l-3.462-3.624 7.225 3.607c7.218 3.604 10.666 4.402 11.712 2.71.718-1.163 15.454-6.545 16.114-5.885.883.883-17.511 12.735-18.923 12.193-1.102-.423-1.262 1.261-.855 9.035.335 6.4.149 9.555-.564 9.555-.586 0-1.378-2.511-1.762-5.58zm-46.744-3.811c-1.148-7.986-.813-14.51 1.305-25.418 1.508-7.77 1.734-10.807.916-12.336-1.622-3.03-.339-3.42 1.586-.481 2.708 4.131 2.864 9.691.599 21.265-1.17 5.973-2.48 13.335-2.914 16.36l-.788 5.5zm-88.122-13.915c-4.115-5.396-6.671-12.315-8.126-21.997-.753-5.014-1.215-9.271-1.027-9.46.886-.886 4.992 9.76 7.603 19.714 1.594 6.076 3.38 11.947 3.97 13.047 1.634 3.054.395 2.386-2.42-1.304zm-35.61-6.23c-2.293-2.764-.64-14.038 3.516-23.965 2.072-4.95 4.122-10.125 4.555-11.5.633-2.012.803-1.566.872 2.281.048 2.647-1.253 9.29-2.914 14.88-4.159 14-3.997 15.534 1.04 9.839l3.98-4.5-2.068 4.966c-3.221 7.742-6.655 10.8-8.98 8zm162.627-10.355c-9.562-10.322-12.982-15.67-12.352-19.317l.397-2.293 1.068 2.5c.588 1.375 4.286 5.875 8.22 10 6.094 6.392 13.202 17.328 11.953 18.393-.211.18-4.39-3.998-9.286-9.283zm12.425 8.336c-.081-7.34 11.537-20.575 23.098-26.313 4.027-1.998 7.815-4.623 8.418-5.833 1.067-2.142 1.125-2.116 2.19 1 .6 1.76 1.346 5.9 1.655 9.2.54 5.753.504 5.876-.865 3-.786-1.65-1.459-4.8-1.496-7-.066-3.932-.097-3.965-1.795-1.912-.95 1.149-4.977 4.212-8.95 6.808-8.559 5.594-18.103 14.717-20.51 19.606-1.284 2.607-1.728 2.975-1.745 1.444zm12.977.081c0-1.563 8.577-8.052 15.336-11.602 7.26-3.813 7.715-3.932 6.2-1.62-.899 1.371-3.33 3.616-5.403 4.988-4.587 3.036-16.133 8.929-16.133 8.234zm-34.411-6.83c-3.624-3.554-6.589-7.022-6.589-7.709 0-1.592 7.556 4.617 11.405 9.373 4.961 6.13 2.137 5.153-4.816-1.665zm-7.222-15.034c.224-2.66.943-5.36 1.598-6 .919-.898 1.026-.25.47 2.837-1.194 6.639-2.532 8.685-2.068 3.163zm-30.867 2.182c-32.34-2.743-45.196-5.109-53.101-9.773-1.954-1.152-3.968-1.839-4.475-1.525-.508.314-.924.035-.924-.62 0-.795 1.076-.995 3.25-.603 18.791 3.386 26.742 4.644 32.943 5.211 4.019.368 14.887 1.748 24.15 3.067 9.264 1.319 18.264 2.438 20 2.488l3.157.09-3 .818c-4.633 1.263-13.2 1.593-22 .847zm-69.1-11.427c-2.695-1.42-8.833-5.245-13.64-8.5-4.806-3.255-9.167-5.918-9.69-5.918-.524 0-1.273-.52-1.666-1.157-1.09-1.764 5.896-.361 11.352 2.28 2.526 1.223 7.05 4.226 10.055 6.673 3.005 2.448 7.04 5.52 8.966 6.827 4.944 3.355 1.1 3.209-5.378-.205zm-31.283-12.945c-.136-15.126-1.594-28.286-3.69-33.3-1.443-3.456-1.434-3.49.459-1.777 6.435 5.823 8.705 22.736 5.249 39.104l-1.9 9zm134.883-4.597c0-14.15-.966-18.791-7.058-33.901-4.055-10.058-4.15-10.561-3.76-19.897.357-8.546.795-10.396 4.066-17.16C218.63 14.25 231.957 1.988 241.99.13c3.868-.717 23.395 1.707 28.971 3.596 4.593 1.556 10.866 6.14 13.158 9.615 2.73 4.14 2.22 5.878-.704 2.402-3.685-4.38-11.889-7.865-22.596-9.602-17.987-2.917-23.627-1.64-33.345 7.55-6.706 6.343-10.715 12.503-13.435 20.643-2.924 8.751-2.66 15.115 1.052 25.282 7.746 21.217 7.982 22.085 7.972 29.344-.009 6.784-2.177 20.064-3.491 21.379-.336.335-.61-4.996-.61-11.847zm56.5 8.124c1.1-.473 3.006-.892 4.235-.93 1.228-.039 3.549-1.308 5.156-2.82 2.505-2.359 3.38-4.745 6.136-16.75 5.107-22.246 4.574-20.85 5.444-14.257 1.328 10.057-2.644 28.216-7.219 33.007-2.362 2.473-3.286 2.742-9.189 2.68-4.593-.05-5.963-.329-4.563-.93zm-50.681-34.25c-6.304-5.826-8.062-9.194-6.956-13.329.905-3.385 3.231-4.995 5.751-3.98 1.767.71 1.743.814-.364 1.626-3.55 1.37-2.752 4.978 2.75 12.433 4.284 5.803 5.792 8.5 4.75 8.5-.137-.001-2.806-2.364-5.931-5.25zm69.69-15.995c.567-5.29.218-8.319-1.907-16.55-1.431-5.54-2.6-10.44-2.6-10.89.002-.448 1.621 1.867 3.598 5.146 5.128 8.504 6.211 14.552 3.914 21.854-2.545 8.092-3.844 8.283-3.004.44zm-219.509.17c-7.7-2.288-15.475-3.329-22.883-3.063-6.448.23-9.67-1.55-11.73-6.48-.796-1.905-1.884-3.193-2.417-2.864-1.563.966-1.162-.303 2.276-7.21 4.372-8.786 8.767-13.678 15.048-16.751 9.96-4.873 28.932-7.042 35.206-4.025l3 1.443-3.31-.58c-4.89-.858-26.536 4.246-33.494 7.896-4.276 2.243-7.369 4.99-11.748 10.433l-5.943 7.389 2.96 3.167c3.154 3.375 6.276 4.058 23.535 5.15 6.967.442 24.091 5.645 22.806 6.93-1.137 1.138-6.65.543-13.306-1.434zm19.5-2.19-3-1.145 2.78-.545c2.765-.543 2.75-.568-2.766-4.866-3.05-2.377-5.311-4.698-5.026-5.16.593-.959-7.29-5.02-9.744-5.02-.894 0-1.904-.45-2.244-1-.963-1.558 8.202-1.205 11.382.44 1.53.791 4.727 3.063 7.103 5.048 2.376 1.985 4.927 3.377 5.668 3.092.741-.284 1.347-.08 1.347.452 0 .533-.787.97-1.75.974-1.345.004-1.087.535 1.113 2.295 5.328 4.264 1.954 8.035-4.863 5.434zm-12.56-4.412c-4.092-2.021-9.915-4.472-12.94-5.446l-5.5-1.77 6-.032c3.883-.02 7.412.64 10 1.869 4.305 2.045 12.689 8.956 10.94 9.018-.583.02-4.408-1.617-8.5-3.638zm19.176-8.095c-.064-.7-2.979-2.639-6.478-4.31-5.574-2.663-14.488-9.918-12.185-9.918 1.461 0 17.2 8.876 18.486 10.425.674.813 1.016 2.288.76 3.277-.257.988-.519 1.225-.583.526zM77.08 23.115c1.175-1.197 17.882-1.528 17.882-.355 0 1.363-4.124 1.943-11.682 1.641-4.773-.19-6.853-.622-6.2-1.286zm26.526-9.25c.707-3.79 1.002-3.69-4.927-1.67-7.785 2.653-8.995 1.205-1.995-2.387 7.986-4.1 10.278-4.167 10.278-.304 0 1.589-.891 3.951-1.981 5.25l-1.981 2.36z"/></svg>