<svg xmlns="http://www.w3.org/2000/svg" width="54.411" height="59.578" viewBox="0 0 14.396 15.763"><path d="M0 1.488S.353.605 1.866.088c0 0 .984-.277 1.829.152 0 0 1.022.416 1.426 1.248 0 0 .492.669.693 1.917 0 0 .631-.332.816-.39 0 0 .227-.151.816-.227l.344-.185.029-.124-.05-.039s-.088-.005-.17-.093c0 0-.022-.098-.02-.115 0 0-.007-.053-.037-.104 0 0-.055-.056-.056-.152 0 0 .019-.045-.02-.121 0 0-.059-.098-.041-.19l-.003-.098s.01-.041.029-.07c0 0 .025-.033.003-.056 0 0-.032-.063-.032-.085l.004-.057.037-.024s-.041-.051-.053-.083c0 0-.013-.189.021-.325 0 0 .104-.363.363-.312 0 0 .078-.22.455-.218 0 0 .37-.007.577.265 0 0 .1.086.106.228 0 0 .064.015.108.046 0 0 .041-.018.063.032 0 0 .13.047.245.132 0 0 .169.152.145.48 0 0-.05.315-.088.403 0 0-.025.114-.069.2 0 0-.14.157-.088.462 0 0 .05.095.233.152 0 0 .029.028-.006.028 0 0-.146.003-.24-.019 0 0-.28-.145-.344-.198 0 0-.224-.095-.229-.438 0 0-.048.149-.007.215 0 0 .066.081.054.144 0 0-.003.035.012.044 0 0 .07.085.07.126 0 0 .011.047.056.053 0 0 .05.045.075.086 0 0 .052.079.177.071l.126-.015s.256 0 .363.054c0 0 .271.032.323.034 0 0 .252.045.293.089l.125.029s.1.007.152.037c0 0 .372.063.401.082 0 0 .055.025.104-.007l.377-.003s.063.054.156.054c0 0 .235-.032.292-.054 0 0 .729-.044.792-.024 0 0 .047-.027.091-.013 0 0 .152 0 .205-.022 0 0 .114-.066.199-.05 0 0 .17.012.183.006.013-.007.152-.038.17-.038 0 0 .092-.02.092-.047 0 0 .078-.105.098-.12 0 0 .103-.047.152.044 0 0 .061.01.068-.063 0 0 .016-.233 0-.306 0 0 .01-.135.032-.161 0 0 .04-.18.044-.208 0 0 .02-.165.06-.18 0 0 .028-.029.05-.019l.018.003s-.018-.22.02-.226c0 0 .02-.01.024 0v.02s.086.021.096.071c0 0 .05-.003.063.05l.044.092s.057.01.06.125c0 0 .013.232-.028.338 0 0 .12.34-.003.783l-.152.223s-.044.13-.124.19c0 0-.074.056-.172.214 0 0-.174.23-.284.332 0 0-.183.12-.296.14 0 0-.09.039-.127.064 0 0-.18.08-.391.12l-.936.202-1.01.23s-.296.076-.41.177c0 0-.129.293-.122.455 0 0-.025.103-.039.152 0 0-.006.169-.006.242 0 0 .016.223-.028.345 0 0-.045.06-.016.363 0 0 .028.18.02.224 0 0-.017.205.05.363 0 0 .05.189.028.37 0 0-.014.245.028.342 0 0 .078.407.07.505 0 0 .02.105.037.126l.01.218s-.176-.034-.256-.031c0 0-1.028-.022-1.359.314 0 0-.062.073-.088.215 0 0-.035.33-.082.429 0 0-.063.202-.053.305 0 0 .017.178-.02.272 0 0-.09.176.016.337 0 0 .109.12.133.137 0 0 .02.052 0 .147l-.05.637-.076.487-.135.516s-.086.46-.086.517l-.054.281s-.015.051.015.095l.137.39s.041.155-.032.265c0 0-.047.095-.025.19 0 0 .016.063-.08.088l-.005.21.015.096s.284.592-.05.825c0 0-.18.272-.694.237 0 0-.096 0-.125-.139 0 0-.11-.12-.066-.315 0 0-.039-.287.034-.485 0 0 .041-.282.034-.326 0 0-.029-.16-.002-.257 0 0 .013-.146-.085-.15 0 0-.047-.006-.076-.068 0 0-.287-.65-.262-1.331l-.063-2.83s.007-.433-.018-.494c0 0-.041-.258-.02-.325l.004-.211s-.06-.16-.06-.204l.022-.347-.646-.171s-.142-.091-.212-.174l-.003.25.105.271.006.032.046.066s.039.069.01.17l-.141.369s-.138.158-.138.25c0 0-.086.557-.083.695 0 0-.018.063-.081.131l-.492.608s-.132.083-.228.073c0 0-.085-.042-.132-.12l.02-.805-.036-.098.013-.44-.07.053-.094-.06.025-.187s.089-.107.17-.151l.026-.14s-.57-.064-.68-.197v-.107l.2-1.652s.157-.678.16-.7l.029-.338.114-.36.05-.532s-.208.094-.47.072c0 0-.365.025-.634-.224 0 0-.374-.27-.47-.615 0 0-.088-.015-.128-.044 0 0-.161.012-.2-.04 0 0-.11.008-.16-.06 0 0-.026-.07-.04-.136 0 0-.018-.07-.042-.09 0 0-.022-.162.02-.26 0 0 .03-.078-.106-.161l-.703-.48z"/></svg>