<svg width="40" height="40" viewBox="0 0 40 40" fill="none" xmlns="http://www.w3.org/2000/svg">
<path d="M35.0001 26.4501C35.0642 26.3211 35.0973 26.1789 35.0969 26.0348C35.0964 25.8907 35.0624 25.7487 34.9976 25.6201L33.8001 23.8751C33.7776 23.8426 33.7651 23.8051 33.7651 23.7626C33.7651 23.7201 33.7776 23.6826 33.8001 23.6501L35.0001 21.9001C35.0642 21.7711 35.0973 21.6289 35.0969 21.4848C35.0964 21.3407 35.0624 21.1988 34.9976 21.0701C34.9478 20.9346 34.8693 20.8115 34.7675 20.7092C34.6657 20.6069 34.5429 20.5279 34.4076 20.4776L32.3501 19.7251C32.3121 19.7121 32.2782 19.6894 32.2519 19.6591C32.2255 19.6288 32.2077 19.592 32.2001 19.5526V17.4501C32.1921 17.3013 32.1499 17.1565 32.0766 17.0268C32.0033 16.8971 31.9009 16.7861 31.7776 16.7026C31.6075 16.5863 31.4061 16.5244 31.2001 16.5251H30.7751L28.6501 17.0751C28.5932 17.098 28.5295 17.098 28.4726 17.0751L27.1001 15.4501C26.9999 15.3412 26.8782 15.2542 26.7426 15.1947C26.607 15.1352 26.4606 15.1045 26.3126 15.1045C26.1646 15.1045 26.0181 15.1352 25.8826 15.1947C25.747 15.2542 25.6253 15.3412 25.5251 15.4501L24.1501 17.0751C24.0932 17.098 24.0295 17.098 23.9726 17.0751H23.9751L21.7251 16.5001H21.4551C21.2467 16.4995 21.043 16.5613 20.8701 16.6776C20.7478 16.7614 20.6464 16.8722 20.5736 17.0013C20.5008 17.1305 20.4585 17.2746 20.4501 17.4226V19.5251C20.4429 19.5646 20.4255 19.6015 20.3997 19.6322C20.3738 19.663 20.3403 19.6863 20.3026 19.7001L18.2501 20.4501C18.0153 20.4885 17.8017 20.6086 17.6471 20.7894C17.4924 20.9701 17.4067 21.1997 17.4051 21.4376C17.4051 21.5876 17.4401 21.7301 17.5026 21.8551L18.7001 23.6001C18.7226 23.6326 18.7351 23.6701 18.7351 23.7126C18.7351 23.7551 18.7226 23.7926 18.7001 23.8251L17.5001 25.5751C17.436 25.7041 17.4029 25.8463 17.4033 25.9904C17.4038 26.1345 17.4377 26.2765 17.5026 26.4051C17.5524 26.5406 17.6309 26.6637 17.7327 26.766C17.8345 26.8683 17.9573 26.9473 18.0926 26.9976L20.1501 27.7501C20.1881 27.7631 20.222 27.7858 20.2483 27.8161C20.2747 27.8464 20.2925 27.8832 20.3001 27.9226V30.0251C20.308 30.1739 20.3503 30.3187 20.4236 30.4484C20.4969 30.5781 20.5993 30.6891 20.7226 30.7726C20.8955 30.8889 21.0992 30.9507 21.3076 30.9501H21.7276L22.5026 30.7751V40.0001L26.3276 35.0001L30.0026 40.0001V30.7751L30.7776 30.9751H31.0726C31.281 30.9757 31.4847 30.9139 31.6576 30.7976C31.7799 30.7138 31.8813 30.603 31.9541 30.4739C32.0269 30.3447 32.0692 30.2006 32.0776 30.0526V27.9501C32.0848 27.9106 32.1022 27.8737 32.128 27.843C32.1539 27.8123 32.1874 27.7889 32.2251 27.7751L34.2776 27.0251C34.4342 26.9942 34.5814 26.9266 34.7069 26.828C34.8325 26.7294 34.9329 26.6025 35.0001 26.4576V26.4501Z" fill="#FDFDFD"/>
<path d="M0 2.5V32.5H20L19.725 32.375C19.3689 32.1312 19.0734 31.809 18.8611 31.4333C18.6488 31.0576 18.5252 30.6383 18.5 30.2075V30H2.5V5H37.5V30H33.925V30.2C33.9007 30.6303 33.7787 31.0493 33.5681 31.4253C33.3576 31.8014 33.0641 32.1244 32.71 32.37L32.5 32.5H40V2.5H0Z" fill="#FDFDFD"/>
<path d="M18.575 17.275C18.5832 16.8274 18.6976 16.3882 18.9089 15.9935C19.1201 15.5989 19.4221 15.26 19.79 15.005C19.8595 14.9868 19.9322 14.9851 20.0025 15H7.5V17.5H18.575V17.275ZM16.05 20H7.5V22.5H15.9C15.7279 22.1813 15.6281 21.8285 15.6078 21.4669C15.5875 21.1052 15.6471 20.7435 15.7825 20.4075C15.8223 20.245 15.9168 20.1012 16.05 20ZM7.5 10H32.5V12.5H7.5V10Z" fill="#FDFDFD"/>
</svg>
