<svg xmlns="http://www.w3.org/2000/svg" xmlns:xlink="http://www.w3.org/1999/xlink" width="400" height="400" viewBox="0 0 105.833 105.833"><defs><linearGradient id="a"><stop offset="0" stop-color="#ff0"/><stop offset="1" stop-color="#ff0" stop-opacity="0"/></linearGradient><linearGradient xlink:href="#a" id="b" x1="16.41" x2="12.658" y1="387.79" y2="110.736" gradientUnits="userSpaceOnUse"/></defs><g stroke-width="2.592" transform="matrix(.38578 0 0 .38578 47.504 -55.42)"><circle cx="14.029" cy="280.826" r="137.168" fill="url(#b)" paint-order="stroke fill markers"/><path d="M14.03 153.228A127.598 127.598 0 0 0-113.57 280.826 127.598 127.598 0 0 0 14.029 408.424a127.598 127.598 0 0 0 127.599-127.598A127.598 127.598 0 0 0 14.029 153.228Zm0 10.32a117.278 117.278 0 0 1 0 234.556 58.64 58.64 0 0 1 0-117.278 58.64 58.64 0 0 0 0-117.278Zm-15.963 22.094c.325.004.677.023 1.06.052 2.998.23 5.07.728 6.314 1.947 1.264 1.032 1.984 2.454 2 4.03.11.715.136 1.375-.015 1.976a2.68 2.68 0 0 1-1.014 1.487c-.175.15-.378.243-.584.3 1.057-.149 2-.136 2.832.078.982.123 1.733.225 2.305.94.288.36.381.945.252 1.365-.13.42-.37.72-.66 1.008-.544.545-1.303.92-2.42 1.391-.583.245-1.524.54-2.297.811.616.32 1.5.624 1.893.982.41.373.764.837.799 1.46.034.621-.336 1.178-.76 1.518l.078-.072-3.101 3.101c1.437-.334 3.12-.822 4.196-.923 1.89-.177 3.318-.078 4.277.849.35.288.668.614.799 1.104.137.513-.055 1.117-.368 1.483-.626.73-1.533 1.041-2.843 1.399l-.032.01-.033.006c-2.263.453-4.75.905-7.46 1.357-2.398.436-6.103 1.442-11.047 3.014l-.02.008-.019.004c-4.944 1.348-8.135 2.397-9.298 2.979l.065-.036c-.85.51-1.891.54-2.994.28-1.104-.26-2.33-.808-3.734-1.627l-.04-.025-.04-.028c-.644-.468-1.148-.876-1.53-1.26-.384-.382-.71-.69-.8-1.324-.045-.317.063-.753.303-1.022s.516-.377.76-.44c.489-.13.97-.109 1.588-.047l-.096-.006c2.394 0 5.27-.33 8.61-.997l.007-.001h.005c1.834-.344 4.941-1.148 7.439-1.731-.493-.51-.937-1.146-1.352-1.976l-.03-.062-.021-.063a27.686 27.686 0 0 1-1.053-4.206l-.011-.077v-.08c0-.445.054-.878.33-1.292.185-.277.545-.346.872-.455-.232-.083-.528-.157-.716-.251a2.243 2.243 0 0 1-.582-.392c-.188-.178-.413-.488-.413-.91 0-.42.244-.753.448-.929.203-.175.4-.27.613-.357.415-.17.911-.291 1.544-.408 2.45-.669 5.353-1.562 8.708-2.68 1.682-.67 3.151-1.137 4.454-1.382-.377-.031-.718-.142-1.08-.307-.748-.34-1.599-.91-2.645-1.723a148.618 148.618 0 0 1-5.447-4.427l-.03-.024-.025-.025c-.395-.395-.7-.753-.854-1.273-.153-.52.101-1.3.55-1.621.45-.322.918-.4 1.466-.45.275-.025.572-.035.897-.03zm-5.995 13.942-.037.011.08-.02-.043.01zm27.687-12.513c.124.001.25.009.379.018v-.002c.502.034 1.083.146 1.768.316 1.453.245 2.66.708 3.565 1.474.62.525 1.007 1.229 1.277 1.99 3.86-1.275 6.717-2.183 7.893-2.424 1.588-.52 3.238-.217 4.56.822.417.284.78.614.98 1.098.205.498.137 1.122-.112 1.57-.499.897-1.41 1.417-2.724 2.014l-.034.014-.035.013c-2.498.909-6.08 1.31-10.621 1.365l-.597 5.951c-.102 1.02.075 1.596.153 1.7.04.051.02.043.097.058.07.014.262.002.512-.06 1.496-.646 2.67-1.286 3.466-1.884l.038-.028.041-.026c1.353-.812 2.958-.807 4.317-.015 1.224.502 2.496 1.317 3.858 2.447.76.514 1.397 1.105 1.397 2.026 0 .47-.223.91-.509 1.219-.285.309-.632.534-1.037.736-.81.406-2.36 2.441-4.023 5.83.572.565 1.168 1.103 1.374 1.723.142.425.155.965-.086 1.411-.24.446-.645.715-1.058.88l-.06.023-.063.018c-.99.248-2.472.47-4.512.697l-.014.002c-1.623.204-5.216.888-10.077 1.892-.252 1.137-.36 2.27-.426 3.404 2.574-.408 5.029-.854 7.1-1.42 1.307-.355 2.442-.52 3.446-.454.982.066 1.866.385 2.512 1.007.27.173.522.343.722.588.24.292.442.76.347 1.239-.096.478-.41.793-.712 1.002-.293.203-.62.34-.999.468-1.207.48-2.809.936-4.856 1.39l-.044.01-.044.007c-1.651.206-4.506.531-8.017.923a46.761 46.761 0 0 0-.203 3.06c3.174-.562 6.05-1.072 8.206-1.463 1.414-.354 2.625-.516 3.676-.45.994.062 1.865.368 2.52.96.353.218.699.461.865.961.178.533-.081 1.167-.4 1.487-.64.639-1.496.908-2.793 1.262-2.493.68-6.593 1.09-12.157 1.327-.107 1.832-.1 3.156-.013 4.037 3.832-.603 7.133-1.207 9.299-1.798 1.316-.359 2.44-.503 3.431-.361.974.14 1.844.637 2.342 1.433.227.313.413.67.443 1.094.032.443-.14.908-.408 1.23-.537.644-1.29.915-2.28 1.162-1.855.464-3.928.808-6.216 1.037-1.728.192-3.82.255-6.001.287.38 1.778.971 3.232 1.864 4.205 1.073 1.17 2.504 1.857 4.468 2.064 4.18.44 8.831.222 13.949-.668 2.511-.437 4.42-1.118 5.728-1.973 1.305-.853 2.016-1.831 2.298-3.044.671-3.133 1.116-5.702 1.336-7.68v.013c.058-.584.101-.963.2-1.31.025-.088.05-.173.117-.301.069-.128.168-.402.656-.523.244-.061.544-.004.723.097.178.1.265.21.325.293.12.164.145.26.176.351.122.366.154.702.213 1.26.057.547.115 1.267.17 2.152.443 3.306 1.122 5.694 1.91 7.074 1.003 1.753 1.2 3.569.326 5.026-.904 1.506-2.833 2.715-5.832 4.099l-.03.013-.027.012c-3.066 1.179-6.983 1.856-11.77 2.087-4.59.457-8.648.236-12.167-.703l-.008-.004-.01-.002c-3.314-.947-5.992-2.639-7.927-5.058l-.018-.024-.017-.025c-1.76-2.513-2.543-6.194-2.543-11.036 0-4.977.112-9.73.338-14.258.223-4.44-.15-7.612-.933-9.374-.27-.61-.506-1.205-.15-1.915.177-.356.545-.624.877-.723.331-.1.635-.09.943-.052 1.163.145 2.662.84 4.746 1.972 2.115-.426 5.477-1.166 9.86-2.158.547-2.496.899-4.551.899-5.634v-.067l.009-.067c.04-.287.011-.458-.014-.527-.026-.07-.021-.066-.096-.107-.15-.084-.774-.188-1.8.017l-.046.008-.047.006c-2.14.214-3.333.789-3.727 1.313l.03-.043c-.382.573-1.176.937-1.862.84-.685-.099-1.266-.454-1.9-.961l-.085-.066-.066-.085c-.558-.698-.884-1.52-.884-2.373 0-.852.31-1.687.836-2.476.691-1.036 1.075-3.11.857-6.168v-.003c-.218-3.265-1-5.402-2.09-6.493l-.027-.027-.024-.027c-.378-.442-.657-.817-.816-1.293a1.533 1.533 0 0 1-.055-.846c.075-.322.306-.633.559-.802.38-.253.733-.307 1.105-.303zm-18.12 15.34c-3.307.87-6.066 1.142-8.334.798.292.183.576.353.91.603.988.742 1.727 1.555 2.154 2.48.427.925.502 1.962.22 2.948l-.005.019-.006.02c-.124.37-.314.606-.465.91 1.117-.278 1.723-.369 2.943-.684 1.704-3.14 2.439-5.455 2.582-7.095zM.295 218.44c.638.035 1.27.202 1.874.501 1.618.696 2.83 1.392 3.65 2.212.47.47.788 1.11.788 1.778 0 .668-.28 1.283-.7 1.842-.093.124-.38.93-.488 2.213-.107 1.283-.109 3.054.003 5.284.224 4.487.449 8.3.673 11.44.46 3.01.46 5.925-.008 8.727l-.001.006-.003.008c-.468 2.573-1.29 4.47-2.677 5.605-.31.3-.678.555-1.132.64-.472.088-.977-.037-1.36-.277-.768-.48-1.236-1.274-1.721-2.367l-.018-.042-.016-.045c-.603-1.808-1.761-3.17-3.617-4.202a11.973 11.973 0 0 1-1.266-.785c-.326-.24-.635-.326-.804-1.003-.085-.339.113-.915.392-1.13.28-.214.492-.238.683-.263.383-.051.752-.02 1.241.04 1.684.211 2.888.302 3.719.313.01-.012-.02.02.006-.02.083-.132.202-.415.299-.83.195-.828.314-2.16.314-3.924 0-3.59-.113-7.407-.338-11.45-.224-4.03-.622-6.669-.947-7.48l-.012-.027-.008-.025c-.195-.586-.427-.961-.615-1.149-.188-.188-.295-.228-.507-.228-.636 0-2.415.242-4.501.568a113.557 113.557 0 0 0-.232 4.406c.79-.194 1.636-.458 2.28-.458 1.015 0 1.974.3 2.542 1.058.221.294.4.601.485.973.086.372.038.834-.177 1.192-.43.717-1.14.914-1.931 1.046-1.136.19-2.274.249-3.412.285-.249 1.36-.431 2.312-.602 3.203.731-.182 1.504-.327 2.147-.585.722-.289 1.51-.355 2.214-.09.693.259 1.228.802 1.639 1.473.43.602.669 1.434.319 2.134-.36.718-1.033 1.06-1.823 1.323l-.07.026-.075.011c-1.245.208-3.057.277-5.085.303-.666 5.416-1.498 9.346-2.674 11.698l-.01.02-.01.018c-.312.561-.616 1.004-1.004 1.35-.389.345-.989.616-1.588.467-.598-.15-.963-.583-1.228-1.038-.266-.456-.465-.999-.647-1.668-.712-2.608-.749-4.868.045-6.72l-.018.041c.646-1.722 1.201-3.924 1.645-6.588l.007-.037.008-.037a49.936 49.936 0 0 0 1.327-8.298l.004-.031.004-.031c.436-3.05.145-5.094-.526-6.1l-.032-.051-.028-.052c-.367-.734-.608-1.294-.608-1.952 0-.328.096-.746.407-1.056.31-.31.727-.408 1.056-.408.783 0 1.568.133 2.335.389l-.07-.023c.701.176 1.844.199 3.354-.017a13.303 13.303 0 0 0 4.104-1.263c.756-.482 1.569-.767 2.388-.834a4.66 4.66 0 0 1 .638-.009zm5.8 25.27-.006-.034.008.078c-.001-.013-.001-.031-.003-.045zm3.525 56.207c-.519.007-.98.082-1.407.246-.57.219-1.12.849-1.148 1.506-.028.658.244 1.185.617 1.745l.014.021.016.021c1.147 1.53 1.835 3.455 2.035 5.854l.004.048.007.045c.374 2.057.645 5.06.854 8.56-2.836.553-5.609 1.045-8.27 1.426-2.672.202-4.515.043-5.253-.252-1.145-.458-2.484-.788-4.013-1.008-.435-.072-.89-.075-1.335.147-.446.223-.764.7-.862 1.144-.197.886.069 1.736.52 2.866l.017.036.017.036c.944 1.888 1.377 4.697 1.17 8.408-.21 3.563-.628 7.449-1.26 11.656l-.003.02-.003.021c-.416 3.955-1.248 7.914-2.5 11.877-1.22 3.866-3.464 7.548-6.77 11.06l-.007.01-.01.01c-1.708 1.922-2.671 3.047-3.091 3.971-.105.231-.3.474-.093 1.04.105.282.418.561.678.644.26.082.444.057.591.03.587-.103.942-.357 1.558-.75 2.37-1.508 4.426-3.132 6.171-4.874 2.027-1.808 3.966-4.526 5.893-8.163 2.202-3.75 3.6-8.53 4.244-14.33.22-1.983.27-4.72.439-6.927.19.223.364.463.62.633l.071.049.081.036c1.673.716 3.503.83 5.367.365h.004c1.653-.368 3.636-.967 5.728-1.638.323 1.748.883 3.308 1.874 4.498l.028.032.031.031c1.664 1.665 4.783 2.286 9.521 2.501l.023.001h.022c4.724 0 8.42-.523 11.15-1.658 1.441-.556 2.49-1.129 3.16-1.947.336-.41.569-.918.592-1.458.024-.54-.161-1.061-.456-1.504l.06.103c-.568-1.137-1.088-2.864-1.502-5.138v-.001a15.29 15.29 0 0 0-.182-1.48 3.453 3.453 0 0 0-.144-.554c-.066-.179-.096-.399-.482-.657a1.142 1.142 0 0 0-.815-.145 1.044 1.044 0 0 0-.541.321c-.205.22-.257.38-.324.553-.135.347-.233.754-.344 1.309-.411 2.056-.932 3.56-1.47 4.457l-.018.031-.017.034c-.261.522-.995 1.157-2.313 1.734-1.302.366-3.668.593-6.99.593-1.654 0-2.95-.107-3.85-.296-.874-.184-1.286-.47-1.377-.575-.41-.702-.54-1.49-.626-2.3 5.48-1.884 9.582-3.259 11.525-3.841l.04-.014.04-.016c.565-.227 1.031-.45 1.417-.702.387-.252.727-.52.933-1 .205-.478.062-1.164-.248-1.53-.294-.348-.655-.536-1.067-.717-1.777-.998-3.902-.834-5.98.32l.076-.04c-1.561.694-4.22 1.532-7.225 2.406-.019-1.686.148-2.997.496-3.577.259-.432.376-.979.28-1.484-.097-.506-.363-.94-.709-1.32-.218-.24-.71-.429-1-.648 5.43-.95 10.196-1.771 12.49-2.124 1.443-.207 2.586-.278 3.38-.23.794.046 1.188.26 1.205.276l.047.047.055.041c.127.096.18.12.106.597-.073.476-.387 1.272-.987 2.272-.327.494-.56.89-.691 1.328-.068.225-.128.479-.042.825.087.346.445.726.774.836.658.22 1.02.008 1.492-.18.471-.19 1.016-.471 1.674-.855l.01-.007.01-.006c2.702-1.664 5.072-2.788 7.073-3.388l-.022.005c.628-.172 1.147-.358 1.585-.603.437-.245.842-.56 1.043-1.094.2-.535.032-1.168-.26-1.572-.291-.403-.676-.702-1.16-1.004a62.367 62.367 0 0 0-5.158-2.902c-1.703-1.147-3.744-1.127-5.43.077l.083-.052c-.462.264-2.239.826-4.96 1.402-2.455.519-6.011 1.13-10.117 1.782v-6.805c4.302.125 8.214-.16 11.642-.966l.02-.005.018-.005c1.957-.544 3.29-1.045 4.165-1.775.438-.365.822-.88.822-1.527 0-.648-.384-1.164-.822-1.53-1.596-1.33-3.9-1.387-6.576-.505h-.002c-1.969.537-5.137 1.089-8.758 1.64.097-.676.162-1.589.285-1.773.266-.4.29-1.067.066-1.48-.223-.415-.54-.657-.905-.89-.73-.464-1.754-.864-3.168-1.299l-.041-.011-.044-.01c-1.036-.218-1.896-.377-2.642-.426a6.887 6.887 0 0 0-.54-.015zm-1.418 23c.208.11.397.25.572.706.2.519.334 1.342.334 2.433v.048l.003.048c.183 1.823.249 3.17.272 4.33-3.259 1.305-6.089 2.188-8.365 2.567h-.005l-.009.003c-1.084.197-1.825.389-2.43.937.227-3.36.53-6.379.647-10.23zm13.97 21.996a3.91 3.91 0 0 0-.529.066c-.667.131-1.32.44-1.913.891-.978.587-1.933.965-2.87 1.153l-.022.004-.02.006c-.79.198-1.695.396-2.682.596a7.501 7.501 0 0 1-2.703-.534c-.929-.653-2.05-1.07-3.311-1.298-.36-.137-.755-.246-1.217-.092-.492.164-.84.66-.944 1.071-.206.824-.006 1.61.33 2.73l.018.058.024.057c.655 1.475.467 4.363-.981 8.5l-.008.022-.006.019c-1.19 3.966-3.9 6.898-8.366 8.928l-.008.004-.008.005c-1.123.534-1.996.976-2.638 1.34a9.776 9.776 0 0 0-.805.495c-.22.155-.393.262-.592.561-.1.15-.249.408-.18.799.07.39.402.677.61.771.415.189.608.13.867.114.507-.034 1.164-.165 2.055-.373 3.963-.664 7.424-2.338 10.301-4.99 3.107-2.673 5.19-7.333 6.492-13.822 3.059-.522 5.414-.854 6.203-.854h.09c.011.022-.008-.02.014.069.095.38.108 1.32-.095 2.64l-.006.037-.004.034c-.214 2.78-.32 5.766-.32 8.962v.035l.003.033c.229 3.195 1.687 5.769 4.24 7.399 2.86 1.902 7.188 2.383 13.001 1.738h.009c5.765-.43 9.483-1.252 11.363-3.131.821-.822 1.39-1.671 1.605-2.603.207-.9.02-1.845-.48-2.64-.492-.994-1.178-3.868-1.807-8.267-.16-1.18-.312-2.043-.48-2.658-.086-.308-.151-.543-.337-.826a1.071 1.071 0 0 0-.556-.468c-.333-.13-.827-.01-1.046.165-.436.35-.43.593-.513.872a7.96 7.96 0 0 0-.21.993c-.127.789-.24 1.864-.347 3.254-.206 2.57-.673 4.554-1.336 5.926-.659 1.366-1.456 2.104-2.443 2.437-2.22.602-4.767.91-7.646.91-2.61 0-4.629-.504-6.12-1.426-1.031-.748-1.803-2.827-1.808-6.478.208-3.656 1.128-6.019 2.526-7.242l.024-.023.023-.02c.903-.904 1.506-1.64 1.689-2.554.091-.457.016-1.008-.277-1.418-.29-.406-.708-.636-1.142-.782a19.053 19.053 0 0 0-3.14-.94 3.668 3.668 0 0 0-1.57-.254z"/></g></svg>