<?xml version="1.0" encoding="UTF-8" standalone="no"?>
<!-- Created with Inkscape (http://www.inkscape.org/) -->

<svg
   version="1.1"
   id="svg2"
   width="453.8208"
   height="383.71866"
   viewBox="0 0 453.8208 383.71866"
   sodipodi:docname="ill_combat.svg"
   inkscape:version="1.1.2 (0a00cf5339, 2022-02-04)"
   xmlns:inkscape="http://www.inkscape.org/namespaces/inkscape"
   xmlns:sodipodi="http://sodipodi.sourceforge.net/DTD/sodipodi-0.dtd"
   xmlns="http://www.w3.org/2000/svg"
   xmlns:svg="http://www.w3.org/2000/svg">
  <defs
     id="defs6" />
  <sodipodi:namedview
     id="namedview4"
     pagecolor="#ffffff"
     bordercolor="#666666"
     borderopacity="1.0"
     inkscape:pageshadow="2"
     inkscape:pageopacity="0.0"
     inkscape:pagecheckerboard="0"
     showgrid="false"
     fit-margin-top="0"
     fit-margin-left="0"
     fit-margin-right="0"
     fit-margin-bottom="0"
     inkscape:zoom="0.38100027"
     inkscape:cx="-334.64543"
     inkscape:cy="93.175786"
     inkscape:window-width="1920"
     inkscape:window-height="1029"
     inkscape:window-x="0"
     inkscape:window-y="27"
     inkscape:window-maximized="1"
     inkscape:current-layer="g8" />
  <g
     inkscape:groupmode="layer"
     inkscape:label="Image"
     id="g8"
     transform="translate(-282.14548,-324.12586)">
    <path
       style="fill:#000000"
       d="m 563,705.82238 c -27.64473,-2.8886 -29.45012,-3.26848 -17.14955,-3.60847 6.39707,-0.17682 18.93349,0.68295 32.82193,2.251 12.35931,1.3954 23.67661,2.27524 25.14955,1.95521 2.07298,-0.45042 2.33916,-0.34113 1.17807,0.48368 -2.24636,1.59577 -20.9997,1.11291 -42,-1.08142 z m 44.695,-6.43135 c -2.08237,-2.78389 -8.7874,-6.34613 -16.695,-8.8697 -5.16552,-1.64848 -21.28874,-9.56592 -20.69313,-10.16153 0.15017,-0.15017 4.75505,1.34197 10.23308,3.31586 5.47803,1.97389 11.90825,4.27913 14.28938,5.12277 5.27527,1.86903 11.51385,6.2695 13.77007,9.71293 2.17059,3.31274 1.4441,4.01936 -0.9044,0.87967 z M 533.23663,696.5 c 0,-2.2 0.34352,-5.35 0.76337,-7 0.72393,-2.84501 0.76337,-2.79335 0.76337,1 0,2.2 -0.34352,5.35 -0.76337,7 -0.72393,2.84501 -0.76337,2.79335 -0.76337,-1 z m 10.15563,-7.53491 c -2.25925,-1.11833 -5.09657,-3.08589 -6.30515,-4.37237 -2.0871,-2.22162 -1.91146,-2.1948 3.49866,0.53412 3.13284,1.58024 7.10182,2.87316 8.81996,2.87316 3.32863,0 9.75537,-2.98185 13.15872,-6.10532 3.87694,-3.55812 3.85112,-1.90459 -0.0324,2.07246 -6.95981,7.12749 -12.11709,8.4742 -19.13983,4.99795 z M 535.75924,671.5 c -0.9886,-10.63295 -4.71509,-27.78594 -6.4551,-29.71275 -0.85069,-0.94202 -1.28775,-2.38759 -0.97124,-3.21238 0.3165,-0.8248 -0.70833,-7.47906 -2.27739,-14.78725 -4.0437,-18.83416 -2.95843,-18.64315 2.60558,0.45861 1.5614,5.36043 3.18607,9.74793 3.61038,9.75 0.4243,0.002 3.5743,-2.17185 7,-4.83093 3.42569,-2.65909 8.47853,-6.33202 11.22853,-8.16206 2.75,-1.83004 5.18474,-3.47666 5.41054,-3.65916 0.904,-0.73066 -3.70649,-4.75624 -8.66054,-7.56182 -2.8875,-1.63525 -5.25,-3.50574 -5.25,-4.15664 0,-1.13945 -5.24092,-2.09781 -27.31952,-4.99566 -4.85074,-0.63667 -8.48824,-1.48886 -8.08334,-1.89377 1.16067,-1.16067 11.03487,-0.85176 21.40286,0.66957 5.225,0.76668 14,1.76709 19.5,2.22313 l 10,0.82916 -6.41417,0.52097 -6.41417,0.52098 5.99799,4.1973 c 3.29889,2.30851 6.57787,4.89601 7.28661,5.75 1.82672,2.20106 3.04121,1.92422 3.05905,-0.6973 0.008,-1.2375 0.43661,-2.91626 0.95153,-3.73058 0.59138,-0.93524 0.86198,9.37789 0.73468,28 -0.19813,28.98519 -0.16288,29.5562 2.09786,33.98058 l 2.29938,4.5 -2.59649,-2.86053 c -1.42806,-1.57329 -2.86005,-4.17836 -3.18219,-5.78906 -0.32214,-1.61069 -0.86344,-2.77473 -1.20289,-2.58674 -3.81123,2.11063 -8.85002,3.71461 -14.73963,4.69201 l -7.12244,1.18199 -0.92252,4.18117 -0.92253,4.18116 z M 543.45,662.92924 C 544.04178,662.35039 543.60129,662 542.28179,662 c -1.16502,0 -2.83002,-0.27314 -3.7,-0.60699 -1.14905,-0.44093 -1.58179,-9e-4 -1.58179,1.60841 0,1.91478 0.37316,2.12324 2.75,1.53623 1.5125,-0.37355 3.1775,-1.09733 3.7,-1.60841 z m 16.15699,-5.51103 C 559.27314,656.54823 559,654.22849 559,652.26322 c 0,-3.32179 -0.12313,-3.46507 -1.75,-2.03649 -0.9625,0.84519 -2.80268,1.85801 -4.08929,2.25072 -1.2866,0.3927 -4.4366,1.67695 -7,2.85389 l -4.66071,2.13989 4.5,0.61419 c 2.475,0.33781 6.68564,0.68178 9.35699,0.76439 4.05264,0.12532 4.75647,-0.11176 4.25,-1.4316 z M 543.5,652.03658 c 4.84987,-2.31576 5.49696,-2.88139 3.37573,-2.95076 -1.44335,-0.0472 -4.55105,-0.76562 -6.90599,-1.5965 -2.35495,-0.83087 -4.4812,-1.31119 -4.72501,-1.06738 -0.65857,0.65857 0.82229,8.58615 1.59317,8.52882 0.36415,-0.0271 3.3621,-1.33846 6.6621,-2.91418 z M 559.07115,639.75 c 0.0391,-3.4375 0.38722,-9.7202 0.77353,-13.96156 0.69992,-7.68444 0.69527,-7.7053 -1.32115,-5.93186 -1.11294,0.97883 -7.09302,5.99455 -13.28906,11.14603 -6.19604,5.15149 -10.90193,9.72993 -10.45753,10.17433 1.34578,1.34578 15.43511,4.70921 19.97306,4.768 L 559,646 l 0.0711,-6.25 z m 1.78516,-44.83526 c -0.97445,-3.25243 -0.96438,-4.93431 0.0494,-8.25 0.70036,-2.29061 1.69141,-8.88399 2.20233,-14.65196 0.51092,-5.76797 1.35842,-12.04266 1.88334,-13.94377 0.52492,-1.9011 0.8064,-3.60455 0.62552,-3.78543 -0.72142,-0.72142 -6.61868,13.94253 -10.12773,25.18328 C 551.87228,591.05311 548.30714,597 544.97813,597 543.40374,597 538,591.14127 538,589.43432 c 0,-0.7448 2.24898,-3.45783 4.99773,-6.02897 6.97087,-6.52043 7.65419,-9.5855 5.45313,-24.4604 -1.66692,-11.26513 -1.83778,-11.74193 -4.83939,-13.50525 -6.43684,-3.78135 -23.56192,-22.44077 -27.01892,-29.4397 -0.40749,-0.825 0.30498,-0.15749 1.58328,1.48336 9.18209,11.78635 16.72736,20.09474 21.77954,23.9823 3.24099,2.49389 6.1519,4.53434 6.46867,4.53434 0.31678,0 0.57531,-4.6125 0.57452,-10.25 -8e-4,-5.6375 0.52257,-15.0875 1.16303,-21 1.27756,-11.79392 0.10401,-28.25185 -2.66738,-37.40747 -2.27907,-7.52918 -5.79063,-45.39429 -5.17875,-55.84253 0.79895,-13.64294 2.21754,-15.60305 2.42991,-3.35749 0.28863,16.64309 3.22281,48.74926 5.24835,57.42812 3.7601,16.11101 4.46962,27.49315 2.6511,42.52858 -2.02913,16.77667 -2.05818,24.58004 -0.13892,37.31366 2.77373,18.4028 1.6527,23.32123 -6.67998,29.30766 -2.65425,1.90689 -4.82592,3.79643 -4.82592,4.19896 0,1.28884 4.57515,5.08051 6.13031,5.08051 2.22017,0 5.26595,-6.1788 8.87294,-18 3.82835,-12.54668 7.71001,-21.20829 17.14012,-38.24681 8.56706,-15.47914 11.37686,-23.31175 12.8258,-35.75319 2.56234,-22.0017 3.08837,-18.39344 -4.24801,-29.13873 -6.25937,-9.16784 -21.33641,-35.21772 -27.87578,-48.16337 -3.37778,-6.6868 -7.85806,-19.06728 -7.82502,-21.62305 0.0112,-0.86617 1.97789,2.70015 4.37042,7.92515 6.55331,14.31168 26.06525,49.58661 31.70592,57.32001 9.97587,13.67697 10.02123,13.90518 6.92017,34.81083 -1.82501,12.30321 -2.42532,14.265 -7.52901,24.60472 -3.05024,6.17957 -5.46629,11.35457 -5.36901,11.5 0.0973,0.14544 -0.76795,2.11646 -1.92275,4.38005 -1.15479,2.26358 -2.58096,6.08858 -3.16927,8.5 -1.35991,5.57419 -6.23301,40.4809 -6.16131,44.13439 0.0758,3.862 -0.58331,3.42399 -2.00921,-1.33526 z m -60.29694,-9.52013 C 494.96819,569.64514 494.76767,567.6089 494.61197,525 l -0.14435,-39.5 -3.72832,-5.4785 c -2.05057,-3.01317 -4.65952,-8.27676 -5.79765,-11.69685 -3.42873,-10.30333 -5.1859,-12.10812 -18.64528,-19.1506 -9.70727,-5.07923 -14.1133,-8.15394 -21.96942,-15.33119 C 438.92213,428.90509 432.475,423.68736 430,422.24791 c -2.475,-1.43946 -7.98466,-4.82562 -12.2437,-7.5248 -4.25903,-2.69918 -12.6907,-6.84619 -18.73704,-9.21556 -6.04635,-2.36938 -12.35012,-5.44961 -14.00839,-6.84495 -1.65828,-1.39535 -6.69047,-6.95276 -11.18266,-12.3498 -4.49219,-5.39704 -10.56625,-12.13643 -13.49791,-14.97642 -2.93167,-2.84 -5.3303,-5.81681 -5.3303,-6.61514 0,-0.79834 0.92265,-2.62448 2.05033,-4.05809 1.60795,-2.04418 1.8237,-3.03 1,-4.56912 C 357.47265,355.01463 357,352.92201 357,351.44377 c 0,-2.54004 -0.12012,-2.60795 -2.1863,-1.23607 -1.20246,0.79841 -3.66135,3.2382 -5.46418,5.42176 l -3.27788,3.97011 4.16435,2.70022 c 7.85484,5.09317 1.49773,2.69938 -10.31132,-3.88276 -6.49579,-3.62063 -15.07426,-7.8528 -19.06327,-9.40481 -5.50549,-2.14203 -6.67246,-2.905 -4.84405,-3.16703 2.03665,-0.29187 2.58614,-1.19467 3.55766,-5.84519 0.63194,-3.025 1.32358,-6.10264 1.53699,-6.83921 0.26826,-0.92591 -1.92658,-1.94046 -7.112,-3.28748 -9.49879,-2.4675 -10.64623,-3.01447 -5,-2.38342 2.475,0.27661 11.14223,1.16653 19.2605,1.97758 15.50145,1.54867 30.18227,3.85504 35.2395,5.53616 2.92926,0.97374 2.912,0.98701 -0.73168,0.56266 -4.32311,-0.50348 -4.95217,0.0995 -3.96282,3.79883 l 0.72042,2.69377 4.12591,-3.03423 c 3.55067,-2.61119 4.73393,-2.95831 8.48704,-2.48972 15.21141,1.89918 29.97361,6.9759 51.10796,17.576 9.76076,4.89559 21.01076,9.98445 25,11.30859 9.42276,3.12767 25.33159,6.36972 39.75317,8.10128 14.98804,1.79957 20.4745,3.54772 28.71323,9.14884 3.73272,2.53771 8.81177,5.46867 11.28677,6.51325 l 4.5,1.89924 -4.5,-0.59275 c -2.71076,-0.35706 -7.58541,-2.40154 -12.25992,-5.14192 -9.71024,-5.69253 -14.55485,-7.16767 -27.66143,-8.4226 -9.44394,-0.90425 -32.27056,-5.3778 -41.07865,-8.05058 -1.925,-0.58413 -12.5,-5.53499 -23.5,-11.00191 -12.50559,-6.21518 -25.9064,-11.97333 -35.76214,-15.36651 l -15.76213,-5.42666 -5.73787,4.01939 c -3.15582,2.21066 -5.72268,4.33034 -5.70412,4.71039 0.0186,0.38006 0.4029,2.64666 0.8541,5.03691 1.00293,5.31308 1.92703,4.6089 5.22259,-3.97972 l 2.44278,-6.36618 -0.62177,5 c -0.80868,6.50301 -2.45106,10.31382 -6.36743,14.77432 -3.70501,4.21977 -3.48296,5.0625 2.95786,11.22568 2.29911,2.2 7.5591,8.17725 11.68886,13.28278 4.12976,5.10552 8.9218,10.35901 10.64896,11.6744 1.72717,1.31539 7.86531,4.22217 13.64031,6.4595 5.775,2.23733 12.975,5.61523 16,7.50644 3.025,1.89122 7.975,4.87409 11,6.6286 6.34974,3.68287 10.47632,6.92959 21.25286,16.72135 5.41048,4.91606 10.84883,8.62029 18,12.26036 14.85763,7.56278 17.00274,9.95768 21.69089,24.21657 1.22062,3.7125 2.57803,6.75 3.01646,6.75 0.43843,0 1.38031,1.4625 2.09307,3.25 0.71275,1.7875 2.21226,4.6 3.33225,6.25 1.87271,2.75895 1.88381,2.87948 0.13817,1.5 -1.75577,-1.38748 -1.8309,-1.34997 -1.00148,0.5 0.49317,1.1 0.96063,17.75 1.03879,37 0.14313,35.25099 0.59321,41.23947 4.37513,58.21231 1.07085,4.80584 1.811,8.87388 1.64479,9.04009 -0.16621,0.16622 -1.52591,-3.14479 -3.02156,-7.35779 z M 350.4261,350.07503 c 4.67251,-4.74384 4.83175,-5.09505 4.32968,-9.5494 -0.28668,-2.54343 -0.68925,-4.79243 -0.89459,-4.99777 -0.20534,-0.20535 -3.10367,-0.68226 -6.44073,-1.0598 l -6.06738,-0.68645 -2.0586,6.3592 c -1.13223,3.49755 -2.35982,7.34907 -2.72797,8.55891 -0.55509,1.82417 -0.0204,2.54223 3.13206,4.20581 2.09079,1.10334 4.26835,2.02597 4.83902,2.05027 0.57068,0.0243 3.22051,-2.17204 5.88851,-4.88077 z m -19.54441,-9.76601 c 0.235,-8.32453 -2.66565,-5.14612 -4.42574,4.84953 -0.53756,3.05284 -0.33891,3.71943 1.19992,4.02629 2.10178,0.41912 3.03598,-2.1513 3.22582,-8.87582 z m 5.70969,-3.15514 C 337.14189,333.71122 336.97691,333 335.62781,333 c -1.31854,0 -1.62203,1.09245 -1.5974,5.75 0.034,6.43098 1.41502,5.57026 2.56097,-1.59612 z M 326.5,333 c 0.33992,-0.55 0.14148,-1 -0.44098,-1 -0.58246,0 -1.05902,0.45 -1.05902,1 0,0.55 0.19844,1 0.44098,1 0.24254,0 0.7191,-0.45 1.05902,-1 z m 203.40567,238.25 c -4.53564,-4.76734 -9.09323,-10.50432 -5.75956,-7.25 3.15936,3.08416 11.11164,12 10.70314,12 -0.23344,0 -2.45805,-2.1375 -4.94358,-4.75 z m 2.40784,-3 c -3.22972,-3.06477 -6.8629,-7.85672 -10.23551,-13.5 -3.3985,-5.68661 -1.75314,-4.48385 2.05197,1.5 1.83616,2.8875 5.31965,7.3875 7.74109,10 4.8028,5.18175 5.07047,6.39166 0.44245,2 z m 1.25306,-6.7349 c -4.61644,-4.74997 -8.8719,-11.36706 -9.97778,-15.5151 -0.36658,-1.375 0.52168,-0.11379 1.9739,2.80268 1.45222,2.91648 5.11818,7.97898 8.14657,11.25 6.40289,6.91588 6.28926,8.08041 -0.14269,1.46242 z m 1.78143,-9.94271 c -3.94204,-4.08519 -8.78299,-10.1843 -10.75767,-13.55358 -5.29321,-9.03148 -4.3631,-8.73342 1.50156,0.48119 2.8004,4.4 8.08784,10.80986 11.74987,14.24414 3.66203,3.43427 6.21169,6.24677 5.66591,6.25 -0.54578,0.003 -4.21763,-3.33656 -8.15967,-7.42175 z M 538.43515,547.75 C 530.61334,539.66592 527.42687,536 528.22187,536 c 0.29251,0 4.45601,4.275 9.25221,9.5 4.79621,5.225 8.55286,9.5 8.34812,9.5 -0.20474,0 -3.52891,-3.2625 -7.38705,-7.25 z m -52.80647,-5.77944 c -2.4694,-2.93472 -2.89807,-4.39179 -4.11011,-13.97056 -0.31317,-2.475 -2.13927,-7.2 -4.05801,-10.5 -1.91873,-3.3 -5.0147,-9.15 -6.87993,-13 l -3.39133,-7 -0.59492,-20 c -0.39486,-13.27433 -0.2637,-19.49557 0.39003,-18.5 0.54173,0.825 0.99186,2.85297 1.00028,4.5066 0.008,1.65363 0.48252,4.57863 1.05356,6.5 0.57104,1.92137 1.02353,8.28138 1.00554,14.13336 -0.0383,12.44502 0.81487,15.39202 8.12058,28.0506 4.7457,8.22289 5.2271,9.64777 5.83181,17.26139 0.45766,5.76208 1.31282,9.40659 2.79775,11.92335 2.60761,4.41958 2.21952,4.61783 -1.16525,0.59526 z m 45.3214,-27.62862 c -8.9614,-6.47166 -17.80156,-14.19267 -19.14308,-16.71959 -0.6197,-1.16729 1.78532,0.57765 5.34449,3.87765 4.39433,4.07434 8.3772,6.723 12.40987,8.25274 5.09407,1.93236 4.13231,2.43471 -1.21846,0.63643 -1.01359,-0.34065 0.7446,1.26801 3.9071,3.57481 5.05257,3.68546 6.51418,5.03602 5.45008,5.03602 -0.16495,0 -3.20245,-2.09613 -6.75,-4.65806 z m 150.71151,0.0398 c -3.58847,-1.9447 -2.98482,-2.70744 0.96332,-1.21718 5.59269,2.111 9.82829,0.39565 14.70345,-5.95466 2.41091,-3.14042 5.37206,-7.50986 6.58033,-9.70986 1.35214,-2.46195 2.01456,-3.11287 1.72276,-1.69285 -0.37324,1.81634 -0.19505,2.07556 0.83762,1.21852 1.66311,-1.38026 5.60993,-10.48696 5.95737,-13.74572 0.14486,-1.35862 0.69621,-2.7649 1.22524,-3.12508 2.30422,-1.56879 5.6973,-14.93741 5.62309,-22.15487 -0.0663,-6.44786 -2.01201,-21.46972 -3.14944,-24.3151 -1.92412,-4.81334 -1.15071,-4.4124 1.57232,0.8151 4.10968,7.88948 5.62272,22.29327 3.57152,34 -1.81362,10.35079 -8.92469,25.97053 -18.16912,39.90916 -4.44479,6.70179 -14.77987,9.58104 -21.43846,5.97254 z M 703,504.66617 c 0,-0.51989 -1.125,0.71252 -2.5,2.73869 -1.375,2.02618 -2.5,3.9764 -2.5,4.33383 0,0.35743 1.125,-0.87498 2.5,-2.73869 1.375,-1.86371 2.5,-3.81393 2.5,-4.33383 z M 513.5,511 c -0.85325,-1.65 -1.32636,-3 -1.05136,-3 0.275,0 1.19811,1.35 2.05136,3 0.85325,1.65 1.32636,3 1.05136,3 -0.275,0 -1.19811,-1.35 -2.05136,-3 z m 159.88433,1.23469 c -0.61361,-0.40408 -2.1786,-2.75969 -3.47776,-5.23469 -1.91533,-3.64889 -2.3663,-6.04715 -2.38433,-12.68008 -0.0189,-6.9396 0.16195,-7.84949 1.19232,-6 0.66802,1.19904 1.23052,4.34553 1.25,6.99218 0.0462,6.27006 2.73192,14.3619 5.3832,16.21893 1.43265,1.00346 1.63063,1.46412 0.62475,1.45366 -0.80988,-0.008 -1.97456,-0.34592 -2.58818,-0.75 z m -75.86135,-3.27188 c 0.23565,-0.38128 1.92328,-0.93582 3.75029,-1.2323 4.12014,-0.66861 34.08838,-11.8666 40.63299,-15.18301 2.64836,-1.34202 7.46537,-4.03806 10.70447,-5.9912 3.2391,-1.95314 7.01427,-3.50746 8.38927,-3.45405 2.21004,0.0858 2.26577,0.17254 0.4805,0.74743 -1.11073,0.35768 -5.83573,3.2001 -10.5,6.3165 -8.02671,5.36299 -20.45551,10.93622 -34.9805,15.68569 -6.78278,2.21788 -19.21917,4.31177 -18.47702,3.11094 z m -68.99159,-5.47117 c -9.67843,-6.0763 -18.05496,-12.7329 -19.55878,-15.54282 -0.53587,-1.00127 1.48871,0.52728 4.49905,3.39679 3.01035,2.8695 9.76073,7.86958 15.00085,11.11128 8.55584,5.2929 10.3099,6.54311 9.18008,6.54311 -0.19107,0 -4.29561,-2.47876 -9.1212,-5.50836 z M 676,503.10765 c 0,-1.5144 -0.39947,-1.98569 -1.25,-1.47471 -0.95331,0.57273 -0.98547,0.40872 -0.1355,-0.69098 1.62933,-2.10807 2.5884,-13.17324 1.06483,-12.28541 -0.64863,0.37798 -0.44191,-0.17761 0.45938,-1.23466 0.90128,-1.05704 1.95841,-3.49689 2.34917,-5.42189 0.39076,-1.925 3.32218,-9.125 6.51427,-16 3.19209,-6.875 6.07314,-13.175 6.40233,-14 0.32919,-0.825 0.34054,0.3 0.0252,2.5 -0.31532,2.2 -2.16208,7.825 -4.1039,12.5 -5.22796,12.58651 -8.23491,22.30831 -9.36541,30.27939 C 676.94711,504.42381 676,507.23961 676,503.10765 Z m -150.6602,-6.9463 c -2.66189,-2.11126 -8.02034,-6.94876 -11.90767,-10.75 -7.10321,-6.94591 -4.66296,-5.12831 5.56787,4.14718 3.025,2.74252 7.075,6.20881 9,7.70285 1.925,1.49404 3.20291,2.72143 2.8398,2.72753 -0.36311,0.006 -2.83811,-1.7163 -5.5,-3.82756 z M 612,497 c 1.375,-0.44035 3.625,-0.79225 5,-0.78201 2.2456,0.0167 2.19472,0.0963 -0.5,0.78201 -1.65,0.41985 -3.9,0.77176 -5,0.78201 -1.5672,0.0146 -1.45899,-0.15463 0.5,-0.78201 z m -36.96484,-3.95561 c -1.72309,-2.17558 -3.3028,-4.83786 -3.51047,-5.91617 -0.20766,-1.07831 -3.98723,-7.21161 -8.39905,-13.62955 -7.36382,-10.71227 -12.20768,-20.74997 -10.72752,-22.23012 0.33103,-0.33104 0.60224,0.0356 0.60267,0.81478 0.002,4.15605 18.12788,34.12133 19.69286,32.55635 0.27452,-0.27452 -0.83096,-2.44325 -2.45663,-4.8194 C 567.11679,475.25962 563.69357,469 564.31968,469 c 0.20407,0 2.69266,3.7125 5.5302,8.25 2.83754,4.5375 5.94462,9.35582 6.90464,10.70737 0.96001,1.35156 1.18298,2.1125 0.49548,1.69099 -1.84366,-1.13037 -1.52188,0.19054 0.75,3.07877 1.1,1.39842 2,2.9319 2,3.40773 0,1.9028 -1.99233,0.66263 -4.96484,-3.09047 z m 1.60127,-0.89364 c -0.92656,-1.02383 -1.42832,-2.5295 -1.11503,-3.34592 0.31329,-0.81642 -0.0733,-2.01798 -0.85911,-2.67014 -1.11751,-0.92745 -1.5457,-0.88089 -1.96576,0.21375 -0.5519,1.43824 4.23276,9.0556 5.12661,8.16175 0.27386,-0.27386 -0.26016,-1.33561 -1.18671,-2.35944 z M 599,493.02994 c 0,-1.47901 32.00008,-7.62762 34.56833,-6.64209 0.75219,0.28864 1.63359,0.0945 1.95866,-0.43152 0.32508,-0.52598 1.10449,-0.95633 1.73203,-0.95633 0.80647,0 0.82901,0.31197 0.0769,1.06409 -0.58525,0.58525 -3.48775,1.27228 -6.45,1.52674 -5.49743,0.47223 -23.23603,3.7888 -28.8019,5.38507 -1.6962,0.48647 -3.08401,0.51078 -3.08401,0.054 z m 74,-0.47092 c 0,-0.79254 0.40803,-1.69316 0.90674,-2.00138 0.49871,-0.30822 0.67122,0.34022 0.38337,1.44098 C 673.6795,494.33361 673,494.62877 673,492.55902 Z M 625,490.5 c 1.925,-0.74131 4.175,-1.34784 5,-1.34784 0.825,0 -0.075,0.60653 -2,1.34784 -1.925,0.74131 -4.175,1.34784 -5,1.34784 -0.825,0 0.075,-0.60653 2,-1.34784 z m 81.67712,-6.88848 C 705.46883,477.87969 705.88078,461.45576 707.41984,454 l 1.34176,-6.5 -0.003,9.5 c -0.002,5.225 -0.28641,14.225 -0.63239,20 -0.53292,8.89529 -0.75433,9.90572 -1.44875,6.61152 z M 672.53834,483.25 C 675.89019,478.03749 677,476.5572 677,477.29893 677,478.25948 671.88664,486 671.2521,486 c -0.26516,0 0.31364,-1.2375 1.28624,-2.75 z M 648,480.1525 c 8.24869,-5.14994 14,-8.34858 14,-7.78621 0,0.65599 -16.72839,10.64251 -17.78068,10.61471 -0.39563,-0.0104 1.30568,-1.28328 3.78068,-2.8285 z m 25.04067,-2.5596 c 1.87909,-2.61659 3.84822,-5.02423 4.37586,-5.35033 0.52763,-0.32609 -0.57811,1.54795 -2.4572,4.16453 -1.87909,2.61659 -3.84822,5.02423 -4.37586,5.35033 -0.52763,0.32609 0.57811,-1.54795 2.4572,-4.16453 z M 667.53306,479 c 0.68524,-2.40974 3.82024,-6.61753 10.43067,-14 2.2163,-2.47515 2.80269,-2.81526 2.00259,-1.16153 -0.62226,1.28616 -2.59593,3.98616 -4.38593,6 -1.78999,2.01384 -4.49287,5.46153 -6.00638,7.66153 -2.0596,2.99377 -2.57301,3.37111 -2.04095,1.5 z M 656,466.72131 c 0.77929,-0.82159 23.28467,-9.72674 24.45659,-9.67722 0.57388,0.0242 -3.87574,2.04484 -9.88804,4.4902 -11.4721,4.66601 -15.40129,6.06497 -14.56855,5.18702 z m -28.25,-8.42704 c 1.2375,-0.23836 3.2625,-0.23836 4.5,0 1.2375,0.23835 0.225,0.43337 -2.25,0.43337 -2.475,0 -3.4875,-0.19502 -2.25,-0.43337 z M 640.5,458 c -4.21218,-0.57774 -3.49268,-0.71055 4.56634,-0.8429 10.80777,-0.17749 20.01682,-1.63162 24.27355,-3.83286 1.58413,-0.81919 2.57915,-1.00226 2.21116,-0.40684 -0.90536,1.46491 0.40383,1.36262 5.47921,-0.42808 2.35495,-0.83087 4.45949,-1.3329 4.67678,-1.11562 0.74751,0.74752 -6.23125,2.74695 -18.09456,5.18414 C 651.45677,459.0551 649.21321,459.19509 640.5,458 Z m 74.04271,0.0691 c -0.31644,-0.512 -0.11799,-1.21356 0.44098,-1.55902 0.55897,-0.34546 1.01631,0.0734 1.01631,0.9309 0,1.75653 -0.60006,2.01516 -1.45729,0.62812 z M 618.75,457.33772 c 0.6875,-0.27741 1.8125,-0.27741 2.5,0 0.6875,0.27741 0.125,0.50439 -1.25,0.50439 -1.375,0 -1.9375,-0.22698 -1.25,-0.50439 z m -4.9375,-1.02083 c 0.72187,-0.28887 1.58438,-0.25335 1.91667,0.0789 0.33229,0.33229 -0.25834,0.56864 -1.3125,0.52522 -1.16495,-0.048 -1.4019,-0.28494 -0.60417,-0.60416 z m 12.9375,-0.0226 c 1.2375,-0.23836 3.2625,-0.23836 4.5,0 1.2375,0.23835 0.225,0.43337 -2.25,0.43337 -2.475,0 -3.4875,-0.19502 -2.25,-0.43337 z M 604.5,453.9099 c -2.75,-1.06431 -3.875,-1.69834 -2.5,-1.40895 1.375,0.28939 4.40213,0.80481 6.72696,1.14538 2.32483,0.34057 3.98577,1.00948 3.69099,1.48646 -0.75156,1.21604 -2.19031,0.99384 -7.91795,-1.22289 z m 13.25,1.42784 c 0.6875,-0.27741 1.8125,-0.27741 2.5,0 0.6875,0.27741 0.125,0.50439 -1.25,0.50439 -1.375,0 -1.9375,-0.22698 -1.25,-0.50439 z M 485.34391,444.75 c -5.60215,-5.86184 -12.3994,-15.06383 -15.32746,-20.75 -2.02624,-3.93487 -0.56384,-2.09038 4.76595,6.0112 2.70966,4.11884 7.73199,10.5263 11.16072,14.2388 3.42874,3.7125 6.04053,6.75 5.80398,6.75 -0.23655,0 -3.11798,-2.8125 -6.40319,-6.25 z m 154.93626,5.51373 c 2.6291,-0.20668 6.6791,-0.20418 9,0.006 2.32091,0.20972 0.16983,0.37882 -4.78017,0.37577 -4.95,-0.003 -6.84892,-0.17464 -4.21983,-0.38131 z m -89.20122,-1.84706 c 0.048,-1.16495 0.28494,-1.4019 0.60416,-0.60417 0.28887,0.72187 0.25335,1.58438 -0.0789,1.91667 -0.33229,0.33229 -0.56864,-0.25834 -0.52522,-1.3125 z m 80.19008,0.89034 c 0.97297,-0.25354 2.32297,-0.23687 3,0.0371 0.67703,0.27393 -0.11903,0.48137 -1.76903,0.46099 -1.65,-0.0204 -2.20394,-0.2445 -1.23097,-0.49804 z m 23.48097,0.0307 c 0.6875,-0.27741 1.8125,-0.27741 2.5,0 0.6875,0.27741 0.125,0.50439 -1.25,0.50439 -1.375,0 -1.9375,-0.22698 -1.25,-0.50439 z m -27.9375,-1.02083 c 0.72187,-0.28887 1.58438,-0.25335 1.91667,0.0789 0.33229,0.33229 -0.25834,0.56864 -1.3125,0.52522 -1.16495,-0.048 -1.4019,-0.28494 -0.60417,-0.60416 z m 33.45653,-0.01 c 0.97297,-0.25354 2.32297,-0.23687 3,0.0371 0.67703,0.27393 -0.11903,0.48137 -1.76903,0.46099 -1.65,-0.0204 -2.20394,-0.2445 -1.23097,-0.49804 z M 667,447 c 1.59401,-0.51049 -1.59814,-0.83676 -8.80845,-0.90032 -11.86025,-0.10454 -24.64631,-1.64094 -27.19155,-3.2674 -1.11055,-0.70966 -0.85092,-0.82421 1,-0.44121 14.15879,2.92977 41.54769,3.32013 49.93255,0.71167 1.96664,-0.6118 3.02338,-0.65867 2.47444,-0.10973 -1.05265,1.05265 -16.00658,5.0269 -18.40699,4.89196 -0.825,-0.0464 -0.375,-0.44462 1,-0.88497 z m 46,0.62244 c 0,-0.20765 0.7875,-0.99515 1.75,-1.75 1.58606,-1.24387 1.62143,-1.2085 0.37756,0.37756 C 713.82119,447.91575 713,448.44548 713,447.62244 Z m -242.5618,-2.49703 c -4.20906,-2.56672 -10.80185,-10.47461 -14.48584,-17.37541 -4.11209,-7.7027 -3.13792,-7.32647 1.48133,0.57209 3.95042,6.75492 9.19614,12.88187 14.06631,16.42933 3.6883,2.68658 3.08118,2.90042 -1.0618,0.37399 z m 33.53554,-11.23635 C 491.98227,420.18652 487.18976,413.86007 482.46804,405.5 c -3.99266,-7.06923 -2.72947,-5.54297 5.37966,6.5 3.88859,5.775 10.49364,14.325 14.67788,19 8.12337,9.07615 13.87111,16 13.28219,16 -0.19816,0 -5.52348,-5.89992 -11.83403,-13.11094 z M 689.73763,440 c -0.3924,-2.475 -0.65854,-7.2 -0.59143,-10.5 0.0671,-3.3 -0.20658,-7.40921 -0.60821,-9.13158 -0.49608,-2.12742 -0.32426,-3.38248 0.53583,-3.91404 0.90406,-0.55875 1.07713,-0.29014 0.60531,0.93942 -0.3744,0.97566 0.24151,3.49049 1.42117,5.8028 1.79338,3.51532 1.9317,4.65071 0.99805,8.19216 -0.59612,2.26118 -1.21063,6.13624 -1.36556,8.61124 l -0.2817,4.5 z m 18.37999,-1.62427 C 708.05293,435.55738 708.675,431.3383 709.5,429 c 0.825,-2.3383 1.5,-4.85832 1.5,-5.60005 0,-1.67625 -4.33142,-3.96562 -11.23015,-5.93569 l -5.26985,-1.50492 6.14389,0.49391 6.14388,0.4939 -1.88981,-4.97357 C 703.85857,409.23811 703.22484,407 703.48968,407 c 0.26484,0 1.79902,2.5875 3.40929,5.75 1.61027,3.1625 3.86675,6.31631 5.0144,7.00847 2.62215,1.58145 2.61404,4.50017 -0.0284,10.24153 -1.13913,2.475 -2.42632,6.525 -2.86042,9 l -0.78928,4.5 -0.11762,-5.12427 z M 647.25,438.31067 c 0.9625,-0.25152 2.5375,-0.25152 3.5,0 0.9625,0.25153 0.175,0.45733 -1.75,0.45733 -1.925,0 -2.7125,-0.2058 -1.75,-0.45733 z m 17.01903,-0.004 c 0.97297,-0.25354 2.32297,-0.23687 3,0.0371 0.67703,0.27393 -0.11903,0.48137 -1.76903,0.46099 -1.65,-0.0204 -2.20394,-0.2445 -1.23097,-0.49804 z m -21.45653,-0.99012 c 0.72187,-0.28887 1.58438,-0.25335 1.91667,0.0789 0.33229,0.33229 -0.25834,0.56864 -1.3125,0.52522 -1.16495,-0.048 -1.4019,-0.28494 -0.60417,-0.60416 z M 671.5,437 c 1.65,-0.41985 4.125,-0.76337 5.5,-0.76337 2.23001,0 2.17601,0.0824 -0.5,0.76337 -1.65,0.41985 -4.125,0.76337 -5.5,0.76337 -2.23001,0 -2.17601,-0.0824 0.5,-0.76337 z m -91.69656,-1.749 c -0.85492,-3.12294 0.54943,-3.62259 3.3424,-1.18918 2.21101,1.92638 2.22176,1.98709 0.17678,0.99832 -1.78136,-0.8613 -2.24342,-0.73516 -2.54044,0.69354 -0.29453,1.41671 -0.47927,1.32183 -0.97874,-0.50268 z m 59.00906,1.06589 c 0.72187,-0.28887 1.58438,-0.25335 1.91667,0.0789 0.33229,0.33229 -0.25834,0.56864 -1.3125,0.52522 -1.16495,-0.048 -1.4019,-0.28494 -0.60417,-0.60416 z m 13.9375,-0.0491 c 2.3375,-0.21053 6.1625,-0.21053 8.5,0 2.3375,0.21054 0.425,0.3828 -4.25,0.3828 -4.675,0 -6.5875,-0.17226 -4.25,-0.3828 z m -8.48097,-0.96078 c 0.97297,-0.25354 2.32297,-0.23687 3,0.0371 0.67703,0.27393 -0.11903,0.48137 -1.76903,0.46099 -1.65,-0.0204 -2.20394,-0.2445 -1.23097,-0.49804 z M 671.5,434.44116 c 3.3,-0.74464 6.9,-1.32741 8,-1.29505 1.1,0.0324 -0.7,0.66808 -4,1.41273 -3.3,0.74464 -6.9,1.32741 -8,1.29505 -1.1,-0.0324 0.7,-0.66808 4,-1.41273 z m 9.3125,0.87573 c 0.72187,-0.28887 1.58438,-0.25335 1.91667,0.0789 0.33229,0.33229 -0.25834,0.56864 -1.3125,0.52522 -1.16495,-0.048 -1.4019,-0.28494 -0.60417,-0.60416 z m -95.22361,-3.39362 c -1.42389,-1.69219 -2.57521,-3.60469 -2.55848,-4.25 0.0167,-0.6453 0.52818,-0.27327 1.13657,0.82673 0.60839,1.1 2.02314,3.0125 3.1439,4.25 1.12076,1.2375 1.77431,2.25 1.45233,2.25 -0.32198,0 -1.75042,-1.38453 -3.17432,-3.07673 z m 53.16111,2.41445 c 0.6875,-0.27741 1.8125,-0.27741 2.5,0 0.6875,0.27741 0.125,0.50439 -1.25,0.50439 -1.375,0 -1.9375,-0.22698 -1.25,-0.50439 z m 19.75,-0.28394 c -1.1,-0.49702 -4.925,-1.3625 -8.5,-1.9233 -3.77789,-0.59263 -4.51077,-0.84146 -1.75,-0.59419 2.6125,0.234 4.75,0.27585 4.75,0.093 0,-0.18284 -5.2875,-3.39032 -11.75,-7.12773 -26.64084,-15.40701 -50.63883,-30.44608 -49.84686,-31.23804 0.30169,-0.30169 1.1219,-0.0838 1.82269,0.48409 0.7008,0.56795 6.44917,3.711 12.77417,6.98457 6.325,3.27356 14.65,7.97865 18.5,10.45574 3.85,2.47709 13.3,8.05415 21,12.39347 11.37918,6.41271 14.76076,7.87525 18.06388,7.81265 3.98044,-0.0754 11.46865,-3.09201 18.43612,-7.42686 3.12852,-1.94642 3.02238,-1.74867 -1,1.86307 -7.65443,6.87301 -17.51375,10.47649 -22.5,8.22352 z m -140.25,-1.54465 c -1.7875,-0.77692 -3.25,-1.67514 -3.25,-1.99604 0,-0.3209 0.869,-0.11839 1.9311,0.45004 1.06211,0.56842 4.32461,1.43164 7.25,1.91828 5.04523,0.83926 5.11309,0.88879 1.3189,0.96255 -2.2,0.0428 -5.4625,-0.55791 -7.25,-1.33483 z m 116.39439,-3.13984 c -7.19346,-2.20947 -5.183,-2.52025 2.3638,-0.36539 3.5705,1.01949 5.59181,1.85433 4.49181,1.85521 -1.1,8.7e-4 -4.18503,-0.66954 -6.85561,-1.48982 z M 441.62778,424.5843 C 436.04137,418.9979 427.87156,408 429.3081,408 c 0.23437,0 1.68559,1.9125 3.22493,4.25 1.53934,2.3375 5.72297,7.2875 9.29695,11 7.72976,8.02935 7.56699,9.1035 -0.2022,1.3343 z M 523,427.8681 c -4.91996,-1.33756 -14.1482,-5.05323 -13.68948,-5.51196 0.21032,-0.21031 2.11367,0.34098 4.22967,1.2251 2.116,0.88412 7.02259,2.44025 10.90354,3.45806 3.88095,1.01782 5.93127,1.83477 4.55627,1.81545 -1.375,-0.0193 -4.075,-0.46331 -6,-0.98665 z M 626,426 c -0.825,-0.53316 -1.05,-0.96937 -0.5,-0.96937 0.55,0 1.675,0.43621 2.5,0.96937 0.825,0.53316 1.05,0.96937 0.5,0.96937 -0.55,0 -1.675,-0.43621 -2.5,-0.96937 z m -43.65059,-8 c 0,-4.675 0.17226,-6.5875 0.3828,-4.25 0.21053,2.3375 0.21053,6.1625 0,8.5 -0.21054,2.3375 -0.3828,0.425 -0.3828,-4.25 z M 621,424 c -0.825,-0.53316 -1.05,-0.96937 -0.5,-0.96937 0.55,0 1.675,0.43621 2.5,0.96937 0.825,0.53316 1.05,0.96937 0.5,0.96937 -0.55,0 -1.675,-0.43621 -2.5,-0.96937 z m -154.5,-6 c -0.85325,-1.65 -1.32636,-3 -1.05136,-3 0.275,0 1.19811,1.35 2.05136,3 0.85325,1.65 1.32636,3 1.05136,3 -0.275,0 -1.19811,-1.35 -2.05136,-3 z M 694,411.09631 c 0,-0.96164 7.81874,-6.94692 11.75,-8.99467 4.12692,-2.14968 2.32144,-0.31407 -4.75,4.82927 -3.85,2.80025 -7,4.67468 -7,4.1654 z m -18.5,-6.49513 c -6.44447,-2.03812 -10.21995,-4.36746 -13.01189,-8.02788 l -2.61528,-3.4288 3.02046,-8.6608 c 1.66125,-4.76344 4.21669,-10.70203 5.67876,-13.19686 3.05536,-5.21357 9.4542,-12.59393 10.2388,-11.80933 0.2917,0.29171 -0.41274,1.5411 -1.56543,2.77643 -4.32496,4.63505 -13.79317,27.44489 -12.75281,30.72277 2.20084,6.93423 22.11943,13.40249 30.94229,10.04804 3.86784,-1.47055 3.0794,-0.13759 -0.90278,1.52628 -4.19784,1.75397 -13.56663,1.77865 -19.03212,0.0501 z m 39.97571,-5.57582 c 3.41295,-2.24968 4.72606,-4.96355 3.27826,-6.77536 -0.67328,-0.84256 -0.65223,-1.25 0.0646,-1.25 3.60112,0 2.25706,6.39243 -1.78337,8.48181 -4.15305,2.14763 -5.09279,1.87257 -1.55946,-0.45645 z m -295.84377,-2.11564 c -0.34757,-1.73785 -0.57707,-4.56597 -0.51,-6.28472 0.0726,-1.8603 0.47185,-0.72505 0.98654,2.80513 0.91997,6.30996 0.58245,8.77452 -0.47654,3.47959 z m 125.70071,-3.82743 c -5.59204,-0.32026 -10.50454,-0.91979 -10.91666,-1.33229 -0.74698,-0.74766 3.78723,-0.97201 25.58401,-1.2659 12.37045,-0.16679 32.7612,-1.91197 33.73664,-2.88741 0.32818,-0.32818 -1.16581,-0.59677 -3.31997,-0.59686 -4.05033,-1.8e-4 -19.41805,-2.66788 -20.26862,-3.51845 -1.83353,-1.83352 26.8183,1.08422 34.45752,3.50897 5.78931,1.83757 5.82309,1.86944 1.89443,1.78698 -2.2,-0.0462 -11.79985,1.11004 -21.33299,2.56936 -17.37676,2.66001 -20.96398,2.81631 -39.83436,1.7356 z M 616.15789,392 c 0,-1.375 0.22698,-1.9375 0.50439,-1.25 0.27741,0.6875 0.27741,1.8125 0,2.5 -0.27741,0.6875 -0.50439,0.125 -0.50439,-1.25 z m -209.57155,-3.5 c 0.62548,-4.43012 3.50122,-10.10613 4.96971,-9.80902 1.29752,0.26252 2.24798,4.0215 2.22737,8.80902 -0.0154,3.58585 -0.11016,3.43055 -0.91479,-1.5 -0.49366,-3.025 -1.04065,-5.9488 -1.21554,-6.49734 -0.44357,-1.39125 -2.72828,3.11197 -4.30823,8.49165 L 406.02158,392.5 Z m 322.01876,-3.43659 c 3.36893,-4.75651 3.89817,-6.27838 4.23086,-12.16605 0.3335,-5.90216 0.0328,-7.36785 -2.446,-11.92221 -1.55444,-2.85602 -4.60909,-6.71879 -6.7881,-8.58395 -4.23119,-3.62174 -4.16699,-4.26319 0.1978,-1.97652 3.48333,1.82488 8.53534,7.20958 10.58839,11.28566 2.01296,3.99651 2.12492,14.42182 0.19437,18.09932 -0.77967,1.48519 -3.30991,4.50034 -5.62276,6.70034 l -4.20518,4 z m -188.54028,-0.0677 c -8.74737,-1.32348 -21.42849,-5.87228 -33.86821,-12.14877 C 499.82302,369.63112 493.59796,367 492.36315,367 c -1.23481,0 -2.56075,-0.5107 -2.94652,-1.1349 -1.49729,-2.42266 9.31173,0.38151 19.58337,5.08049 18.75764,8.58108 31.76651,11.94308 47,12.14661 7.53804,0.10072 8.67391,0.28787 5.5,0.90623 -7.32924,1.42791 -15.94076,1.82856 -21.43518,0.99726 z M 654,374.61912 c -5.225,-1.78957 -13.21289,-5.21965 -17.75086,-7.62241 -6.76463,-3.58172 -9.55665,-4.4794 -15.5,-4.98356 l -7.24914,-0.61491 5.6462,-0.80138 c 3.10541,-0.44075 7.15541,-0.4824 9,-0.0926 3.8169,0.80669 38.91693,17.9121 35.77047,17.43213 -0.22917,-0.035 -4.69167,-1.52775 -9.91667,-3.31732 z m -186.4175,-5.48743 c -1.60463,-0.34743 -3.12338,-1.30669 -3.375,-2.13169 -0.36923,-1.2106 -0.20186,-1.25883 0.8675,-0.25 0.83551,0.78821 4.66833,1.29624 10.375,1.37517 7.8363,0.10838 8.4465,0.23255 4.55,0.92587 -5.2521,0.93454 -8.37989,0.95485 -12.4175,0.0806 z M 573.5,364.65894 c -3.3,-0.69938 -9.825,-2.80715 -14.5,-4.68393 l -8.5,-3.41232 -25.66847,-0.53135 c -14.11765,-0.29224 -25.9248,-0.78848 -26.23809,-1.10276 -0.31329,-0.31429 8.98752,-1.10458 20.66847,-1.7562 23.93362,-1.33514 29.53167,-0.82267 41.06637,3.75941 12.52817,4.97672 15.06796,5.37392 33.12329,5.18024 23.78303,-0.25513 20.87734,1.21186 -6.45157,3.25719 -4.49419,0.33635 -9.90465,0.0517 -13.5,-0.71028 z m -118.16717,-2.23399 c -0.69149,-1.80197 3.07996,-10.41753 5.87228,-13.41473 2.36867,-2.54248 6.39731,-2.56693 14.22439,-0.0863 3.33878,1.05814 8.0955,2.3541 10.5705,2.87991 l 4.5,0.95602 -6.09107,0.12009 c -3.35009,0.0661 -8.30009,-0.55004 -11,-1.36909 -2.69991,-0.81904 -5.8913,-1.49404 -7.09198,-1.5 -2.74834,-0.0136 -9.46868,7.95577 -9.67153,11.46909 -0.16855,2.91932 -0.47134,3.13732 -1.31259,0.94504 z m 8.4848,-0.92495 c 1.6341,-1.375 3.32206,-2.5 3.75104,-2.5 0.42898,0 -0.27692,1.125 -1.56867,2.5 -1.29175,1.375 -2.97971,2.5 -3.75104,2.5 -0.7849,0 -0.0942,-1.1008 1.56867,-2.5 z M 469,361.60699 c 0,-0.21616 0.675,-0.65203 1.5,-0.96862 0.825,-0.31658 1.5,-0.13972 1.5,0.39301 0,0.53274 -0.675,0.96862 -1.5,0.96862 -0.825,0 -1.5,-0.17686 -1.5,-0.39301 z m -185.53732,-6.2872 c -1.33586,-1.33586 -1.56071,-2.82168 -1.09711,-7.25 0.3207,-3.06338 0.8797,-9.48472 1.24223,-14.26965 0.64557,-8.52087 0.71709,-8.71258 3.47649,-9.31865 5.2459,-1.15219 11.66166,0.54393 16.57706,4.38244 9.17569,7.16544 9.64469,7.82092 8.90514,12.44584 -0.92492,5.78409 -3.63648,8.22481 -11.41032,10.27061 -3.66088,0.96341 -8.32571,2.57695 -10.3663,3.58564 -4.55978,2.25396 -5.21329,2.26767 -7.32719,0.15377 z M 297,349.50013 c 7.25636,-1.54239 10.82333,-3.55456 11.9303,-6.73005 0.58834,-1.68769 1.0697,-3.23183 1.0697,-3.43141 0,-0.19959 -2.62926,-3.01676 -5.8428,-6.26037 -6.12923,-6.18659 -11.03586,-8.45257 -16.10675,-7.43839 l -2.71595,0.54319 0.25594,13.65845 c 0.14078,7.51215 0.29051,13.7801 0.33276,13.92877 0.0422,0.14868 1.7643,-0.5839 3.8268,-1.62796 2.0625,-1.04406 5.325,-2.23306 7.25,-2.64223 z m 386.5,3.5027 c 1.65,-1.72861 4.36357,-3.98697 6.03016,-5.01857 3.87279,-2.39722 15.68817,-4.30189 20.92887,-3.37379 3.78508,0.67032 3.47105,0.79872 -4.95903,2.02766 -12.13692,1.76933 -12.16196,1.7771 -19,5.89468 l -6,3.61295 z"
       id="path827"
       sodipodi:nodetypes="ssssssssssssssssssssssssssssssssssssssssscccsscssscsssscccsssssssssssscsssssssssssssssccsssssssssssssssssssssssssssssssssssssssssssscsssssssssssssssscsssssssssssscssssssscsssssscsssscsssssssssssssssssssssssscsssssssssssssssssssssssssssssssssssscsssssssssscsscsssssssssssssssssssssssssssssssssssssssssssscssssssssssssssssssssssssssssssssssssssssssscssssssssssssssssssssssssssssssssscsccsccsssssssssssssssssssssssssssssssssssssssssssssssssssssssssssssssssssccsccssssssssssssssssssssssssssssssssssssssssssssssssssssssscssssscccssssssccsssssssssssssssssssssssssssssssssssssssssssssssssssssssssssssssssssssssssssssssssssssssssssssssssssssssssssssssssssssssscssssssssssssssssssssssssssssssssssssssscssssssssscsssssssssssscsssssssssssssscssssssssssscsssssssssssssssssssssssssssssscssssssssscs" />
  </g>
</svg>
