<svg xmlns="http://www.w3.org/2000/svg" width="559.758" height="732.23"><path d="M496.38 730.266c-2.756-.954-7.08-2.946-9.607-4.427-5.493-3.218-20.38-14.159-21.306-15.656-1.127-1.824 6.382 1.321 19.965 8.362 15.006 7.78 18.171 8.41 32.591 6.502 8.548-1.131 9.871-1.56 9.871-3.194 0-2.462-2.005-6.263-7.384-13.996-4.781-6.874-11.068-18.887-13.217-25.253l-1.363-4.04 3.583 4c5.75 6.421 23.161 33.036 24.471 37.408 1.02 3.4.952 4.379-.445 6.512-2.2 3.356-4.276 4.345-10.722 5.106l-5.423.64 4.25-2.64c5.984-3.716 5.281-3.961-1.352-.472-4.604 2.422-6.784 2.94-12.25 2.914-3.656-.018-8.904-.813-11.661-1.766zm-77.34-12.353c-2.394-.429-6.263-1.9-8.6-3.268-4.268-2.502-15.546-13.86-15.546-15.658 0-1.322 6.222 2.019 13.862 7.443 7.549 5.36 13.555 6.96 21.277 5.67 11.759-1.966 20.727-6.826 28.71-15.56 5.21-5.7 6.151-8.362 6.151-17.39 0-12.378-4.826-23.54-19.663-45.474-10.177-15.046-16.873-26.409-16.048-27.234.732-.732 14.924 15.97 22.42 26.384 7.661 10.648 15.591 26.448 17.716 35.302.866 3.61 1.575 9.445 1.575 12.966v6.402l5.25-5.11c2.887-2.81 6.69-5.831 8.45-6.715 3.692-1.853 9.518-2.096 12.465-.519 1.907 1.021 1.987.882 1.3-2.25-.403-1.835-4.086-11.853-8.184-22.26-9.434-23.957-11.47-31.56-11.544-43.078-.059-9.25 2.117-17.47 5.838-22.06 1.516-1.869 1.55-1.848.934.56-1.37 5.36-1.72 20.967-.613 27.325 1.865 10.709 5.714 22.787 11.588 36.363 6.494 15.007 7.165 17.922 5.5 23.872-1.212 4.325-1.366 4.46-4.458 3.88-4.012-.753-8.354 1.069-15.526 6.515-3.025 2.297-6.76 4.433-8.298 4.746-1.993.405-3.397 1.74-4.875 4.639-3.034 5.946-12.553 14.989-19.439 18.464-10.535 5.319-21.761 7.562-30.241 6.045zm-28.146-13.125c-10.262-3.513-46.844-26.33-70-43.661-5.225-3.91-12.85-8.787-16.944-10.837-6.854-3.43-8.12-3.726-16-3.726-4.706 0-9.831.356-11.39.79-4.48 1.25-2.212-1.127 3.707-3.883 7.116-3.313 16.192-3.288 23.396.066 2.898 1.349 11.695 7.144 19.549 12.878 19.047 13.904 40.51 27.953 55.182 36.12 11.94 6.647 20.41 12.349 20.47 13.78.044 1.092-.778.935-7.97-1.527zm-136.156-.085c-2.01-.736-5.723-2.55-8.25-4.03-2.527-1.481-4.594-2.19-4.594-1.574 0 1.793-4.886-4.518-6.514-8.413-2.168-5.19-1.83-16.04.902-28.889 3.802-17.88 3.88-19.41 1.654-32.233-3.143-18.099-2.625-25.852 2.19-32.765 2.228-3.2 7.145-6.018 9.585-5.495 1.253.269.884.785-1.443 2.022-4.539 2.412-6.52 8.142-6.46 18.678.026 4.708.731 11.17 1.567 14.36 2.19 8.361 1.868 20.204-.985 36.149-2.407 13.449-3.039 25.392-1.615 30.495.605 2.165 1.7 2.645 9.65 4.222 16.211 3.217 17.455 2.017 22.984-22.166 1.547-6.766 8.284-22.534 9.226-21.592.626.626-4.65 29.683-6.374 35.092-4.472 14.04-11.947 19.645-21.523 16.14zm145.835-5.158c-9.25-7.062-13.679-16.455-13.679-29.005 0-5.776-.411-7.729-2.073-9.84-2.223-2.827-1.93-3.243 1.128-1.606 2.837 1.518 4.554 5.554 5.945 13.97 1.344 8.134 2.385 10.628 7.934 19 3.42 5.159 6.44 11 5.688 11-.184 0-2.408-1.583-4.943-3.519zm16.203-9.861c-4.039-1.444-11.194-5.641-10.61-6.225 1.436-1.436 17.728 5.156 17.728 7.173 0 .812-3.496.346-7.118-.948zm-5.382-8.018c-2.2-.696-5.35-1.976-7-2.844-3.245-1.708-9.969-8.432-7.5-7.5.825.311 3.75 1.466 6.5 2.567 2.75 1.1 8.916 3.173 13.702 4.606 4.786 1.432 8.975 3.046 9.309 3.587.877 1.42-10.175 1.113-15.011-.416zm-147.63-25.442c-2.122-1.076-4.17-3.419-5.822-6.66-2.293-4.5-2.548-6.15-2.548-16.5 0-9.892.325-12.217 2.323-16.632 2.343-5.178 6.204-9.557 9.427-10.69 2.33-.819 2.208-.275-.62 2.776-3.39 3.658-5.905 13.555-5.99 23.567-.061 7.138.327 9.33 2.393 13.5 2.132 4.304 2.918 5.023 5.79 5.298 1.829.176 5.348-.37 7.822-1.213 5.338-1.82 5.42-.593.242 3.598-5.061 4.096-9 4.99-13.016 2.956zm111.92-4.081c-3.14-1.593-9.44-5.122-14-7.842-4.56-2.72-12.79-7.338-18.29-10.261-11.292-6.003-20.075-11.702-22.928-14.88-1.613-1.796-.319-1.477 7.918 1.951 23.468 9.767 51.401 26.145 54.515 31.963 1.507 2.815-.285 2.584-7.215-.931zm-2.79-34.675c-4.675-.73-21.775-1.77-38-2.313-47.008-1.573-61.297-5.3-75.485-19.693-3.308-3.357-8.265-7.311-11.015-8.789-2.75-1.477-6.125-3.558-7.5-4.625-2.297-1.782-2.337-1.94-.493-1.961 1.104-.013 6.03 1.084 10.946 2.437 6.443 1.773 9.297 2.163 10.22 1.397 2.632-2.184 7.424-14.269 11.919-30.058 4.868-17.1 9.483-28.266 13.763-33.299 2.543-2.99 2.54-2.963-.947 8.273-1.924 6.2-4.334 13.22-5.354 15.601-1.02 2.38-2.848 8.558-4.06 13.727-4.937 21.038-7.304 27.429-11.652 31.458l-2.464 2.284 5.31 4.008c12.67 9.562 23.263 11.853 60.812 13.155 16.19.561 32.171 1.637 37 2.49 4.675.826 11.725 1.502 15.667 1.503 6.188.001 8.032-.453 13.5-3.328 3.483-1.832 10.187-4.52 14.898-5.975 10.966-3.386 15.52-6.756 21.42-15.85 10.255-15.805 12.047-18.168 15.47-20.407 1.95-1.274 4.895-2.634 6.545-3.02 2.909-.683 2.862-.582-1.535 3.334-2.897 2.58-6.485 7.598-9.936 13.893-2.97 5.42-6.76 11.612-8.423 13.76-3.952 5.11-12.597 10.622-21.757 13.874-4.044 1.435-10.422 4.21-14.174 6.165-7.654 3.99-10.31 4.2-24.675 1.96zm-49.133-18.914c-5.523-3-16.754-23.952-21.437-39.99-1.924-6.59-2.769-12.212-3.155-21-.29-6.6-.279-11.77.025-11.49.304.28 1.698 6.13 3.099 13 3.258 15.984 6.676 26.348 12.2 36.99 6.357 12.25 12.288 19.96 15.4 20.019l2.5.048-2.36 1.967c-2.771 2.309-2.851 2.314-6.272.456zm26.633-6.974c2.2-1.93 8.26-5.592 13.469-8.14 11.05-5.407 22.796-12.52 39.531-23.937 6.6-4.503 14.649-9.672 17.886-11.485 5.597-3.136 5.808-3.179 4.297-.876-3.483 5.313-11.503 11.01-38.683 27.485-21.004 12.73-32.736 18.95-37.5 19.876l-3 .584zm-9.667-1.03c1.832-2.33 2.167-4.053 2.167-11.153 0-9.8-1.145-13.09-7.491-21.533-2.48-3.299-4.509-6.688-4.509-7.53 0-3.455 4.238-8.24 9.638-10.881 5.381-2.633 5.749-2.676 13.199-1.542 11.793 1.795 14.706 1.495 33.84-3.49 14.655-3.817 19.867-4.727 29.323-5.118 6.325-.26 11.205-.164 10.844.216-.36.38-7.642 2.219-16.181 4.088-8.54 1.869-20.17 4.814-25.845 6.544-6.806 2.075-13.552 3.362-19.818 3.78l-9.5.633-1.155 14.025c-.636 7.714-1.811 15.59-2.613 17.5l-1.457 3.475-.736-5.613c-.858-6.548.654-17.742 3.358-24.858 1.03-2.71 1.624-5.174 1.32-5.477-1.221-1.223-8.97-.393-12.87 1.378-5.96 2.707-6.458 5.348-1.889 10.028 2.436 2.494 4.31 5.836 5.604 9.993 4.856 15.603 3.145 25.069-4.98 27.552l-2.417.738zm109.667-1.467c-1.65-.427-4.125-1.252-5.5-1.834-2.142-.906-1.625-1.067 3.616-1.121 3.364-.035 12.1-1.191 19.412-2.569 7.312-1.378 13.473-2.327 13.691-2.109.909.909-6.332 5.015-11.9 6.748-6.135 1.91-13.973 2.269-19.319.885zm-164.114-5.847c2.173-2.454 12.025-6.41 14.865-5.97 2.824.438-7.973 6.722-12.868 7.49l-3.883.61zm-12.386-2.544c0-1.525 8.561-5.974 18.295-9.508 5.888-2.137 10.705-3.692 10.705-3.455 0 1.36-6.444 5.917-12.5 8.84-6.353 3.068-16.5 5.603-16.5 4.123zm211.01-5.378c.006-1.512 1.58-7.245 3.5-12.74 1.92-5.494 3.49-10.825 3.49-11.847 0-2.682-7.73-24.159-11.11-30.87-5.062-10.047-11.322-15.564-21.893-19.294-4.33-1.527-4.48-1.51-6.195.718l-1.758 2.283-.022-3.097c-.015-2.182-.687-3.445-2.272-4.276l-2.25-1.179 2.263.436c2.948.568 3.352-.311 7.074-15.384 5.67-22.966 8.405-42.417 12.654-90 1.4-15.675 2.987-32.088 3.527-36.473.54-4.386.986-12.71.99-18.5.01-12.787 1.468-26.292 3.412-31.598l1.44-3.929.07 3.11c.038 1.712.359 5.218.712 7.792l.641 4.681 2.109-1.935c1.16-1.064 5.483-4.078 9.608-6.699 4.931-3.133 12.555-9.864 22.26-19.654 15.346-15.482 19.12-20.901 21.6-31.024.637-2.6 3.861-10.133 7.164-16.738 3.304-6.605 7.45-16.177 9.213-21.271 2.876-8.308 3.209-10.445 3.23-20.762.023-11.437-1.795-20.023-5.898-27.853-1.14-2.176-1.323-1.657-1.923 5.475-.977 11.613-3.95 22.76-10.317 38.687-8.311 20.787-11.286 24.691-18.815 24.691-5.166 0-13.43-8.268-16.491-16.5-3.01-8.094-4.946-19.325-4.988-28.95-.021-4.847-.393-7.579-.952-7-.505.523-3.244 7.683-6.088 15.912-5.932 17.166-7.749 21.05-12.243 26.168-3.317 3.778-9.694 7.312-13.252 7.345-1.635.015-1.452-.323 1-1.852 7.505-4.677 10.824-10.316 18.344-31.168 7.897-21.9 8.203-22.933 9.097-30.726l.772-6.729 1.362 3.25c1.928 4.597 2.925 4.036 2.925-1.646 0-4.297-.408-5.255-3.334-7.824-3.422-3.004-6.307-3.944-20.166-6.57-4.4-.833-10.025-2.467-12.5-3.63l-4.5-2.116 6 .526c30.437 2.666 32.036 3.062 35.541 8.809 1.074 1.76 2.25 4.768 2.61 6.682.362 1.915 4.391 11.072 8.954 20.35 8.974 18.248 14.65 32.113 14.166 34.604-.45 2.31-9.175-10.362-13.336-19.37-1.935-4.188-4.834-12.627-6.441-18.754-1.608-6.127-3.447-11.628-4.087-12.225-.874-.814-1.017-.453-.573 1.442.326 1.39 1.065 10.433 1.643 20.094.578 9.662 1.74 20.224 2.58 23.473 3.143 12.141 8.882 20.405 14.17 20.405 5.395 0 7.937-4.358 17.787-30.5 2.9-7.7 5.931-15.575 6.733-17.5 1.243-2.982 1.27-4.758.181-12-.703-4.675-2.032-10.75-2.954-13.5-1.847-5.507-5.416-11.891-6.206-11.101-.277.277-4.163-2.537-8.636-6.253-4.472-3.716-10.154-8.306-12.626-10.201-2.472-1.895-8.997-8-14.5-13.57-9.568-9.681-9.832-10.063-6.039-8.717 6.132 2.175 11.862 5.857 15.667 10.069 1.906 2.11 7.048 6.608 11.427 9.995 4.379 3.387 9.015 7.873 10.302 9.969a456.256 456.256 0 0 0 2.99 4.815c.355.553 2.25 2.199 4.208 3.657 1.966 1.463 5.068 5.478 6.925 8.963 1.85 3.471 5.747 9.811 8.66 14.089 7.131 10.472 8.772 16.422 8.069 29.248-.645 11.755-2.543 18.047-12.2 40.458-3.656 8.48-7.756 18.818-9.112 22.973-1.356 4.154-3.203 8.678-4.104 10.053-.9 1.375-8.424 9.279-16.719 17.563-12.158 12.145-17.328 16.51-26.685 22.527l-11.604 7.463-.613 13.5c-.336 7.425-1.53 21.375-2.654 31-1.123 9.625-3.176 31-4.563 47.5-3.869 46.03-7.706 68.038-14.056 80.62-1.313 2.602-1.292 2.624 3.13 3.23 13.112 1.797 22.072 11.146 29.858 31.15 1.926 4.95 4.426 10.783 5.555 12.962 2.48 4.787 2.694 12.468.52 18.631-1.437 4.072-10.099 18.907-11.04 18.907-.235 0-.423-1.237-.418-2.75zm-114.01-.957c0-.332 1.083-2.024 2.407-3.76 2.272-2.978 14.204-10.255 15.194-9.265.857.858-11.424 11.475-14.523 12.555-1.693.59-3.078.802-3.078.47zm-151.75-1.324c-3.143-1.263-2.845-3.421 1.853-13.447 5.441-11.612 8.722-21.455 16.365-49.098 3.509-12.692 8.034-27.092 10.056-32 2.203-5.346 4.039-11.866 4.58-16.262.497-4.036 2.006-9.644 3.355-12.462 1.348-2.817 2.29-5.285 2.091-5.483-.938-.938-17.646 6.767-32.08 14.795-27.412 15.244-35.172 18.012-55.97 19.962-21.485 2.014-34.933 4.839-55 11.552-10.45 3.496-21.765 7.058-25.144 7.916-6.589 1.671-24.872 2.15-25.784.675-.3-.486 9.01-3.251 20.69-6.145 11.681-2.894 26.188-7.01 32.238-9.147 14.23-5.027 25.57-7.278 49.27-9.781 25.488-2.693 29.573-4.118 57.252-19.976 15.48-8.868 25.784-12.86 36.82-14.266 7.006-.892 9.678-1.751 14.006-4.502 11.513-7.32 24.375-23.125 36.25-44.546 2.97-5.36 5.539-9.337 5.706-8.837.588 1.756-4.938 16.475-8.407 22.394-6.825 11.645-19.571 26.061-29.145 32.963-2.337 1.685-4.125 3.187-3.973 3.339.588.588 20.072-4.674 24.404-6.59 6.01-2.659 6.218-2.578 2.754 1.07-6.211 6.542-18.149 10.435-27.541 8.981-3.631-.562-5.526-.275-8.966 1.357-3.871 1.837-4.555 2.688-6.085 7.57-.947 3.024-1.75 8.548-1.784 12.274-.156 17.33 10.469 31.234 38.585 50.495 3.54 2.425-2.668.35-10.454-3.494-12.519-6.181-25.617-20.07-29.949-31.757-.92-2.485-1.954-4.519-2.295-4.519-.826 0-6.89 19.782-11.954 39-5.785 21.951-10.265 34.788-16.01 45.875l-4.987 9.625 2.112 1.75c2.29 1.898.926 2.24-2.859.72zm214.161-43.166c.262-1.267.755-5.58 1.096-9.586.803-9.428 2.94-16.489 6.035-19.95l2.474-2.767-1.007 2.813c-.554 1.547-1.292 7.397-1.64 13-.698 11.236-2.116 15.946-5.317 17.66-1.907 1.02-2.07.904-1.64-1.17zm-129.041-3.243c-1.721-.75-3.362-1.744-3.646-2.21-.283-.468 4.847-.935 11.402-1.04 12.37-.196 13.938.512 7.284 3.292-4.2 1.755-10.954 1.736-15.04-.042zm-.148-13.03c-5.643-1.761-10.433-5.52-14.41-11.31-3.23-4.7-3.232-4.712-.563-2.97 1.474.963 6.858 4.281 11.966 7.375 5.107 3.093 10.173 6.244 11.257 7 1.863 1.299 1.808 1.372-1 1.308-1.634-.036-4.897-.668-7.25-1.402zm-6.276-13.214c-11.91-5.87-24.649-22.397-28.418-36.868-3.156-12.119-1.568-11.167 5.565 3.334 7.39 15.022 7.87 15.62 25.407 31.612 5.749 5.243 5.13 5.709-2.554 1.922zM57.96 496.13c-2.696-2.697-5.303-11.949-2.958-10.5.72.446.906.03.53-1.19-2.037-6.629-2.834-18.228-2.217-32.3.78-17.798 1.682-20.971 3.528-12.42 2.038 9.442 2.437 31.636.724 40.344-1.426 7.252-1.027 10 1.45 10 .483 0 .886-6.187.896-13.75.01-7.562.673-18.025 1.474-23.25 2.161-14.098 2.863-28.149 2.054-41.104l-.72-11.535-3.31-1.782c-2.045-1.101-4.364-3.749-6.07-6.93-1.519-2.832-3.652-6.43-4.74-7.995l-1.98-2.846 3.172 1.64c1.745.902 5.254 4.32 7.798 7.596 2.543 3.276 4.796 5.956 5.005 5.956.209 0 1.6-.894 3.09-1.988 2.95-2.165 11.065-4.012 17.628-4.012 2.28 0 6.476-.604 9.326-1.343 2.849-.74 4.949-.97 4.666-.512-1.194 1.93-9.377 5.823-15.411 7.33-3.575.894-7.917 2.072-9.65 2.62l-3.149.994-.078 16.706c-.043 9.188-.763 25.705-1.6 36.705-.836 11-1.521 24.417-1.522 29.816-.001 9.32-.896 13.247-3.4 14.92-1.684 1.123-2.436.93-4.536-1.17zm367.435-3.612c-12.52-4.68-16.674-5.054-30.104-2.707-9.819 1.717-16.248 2.09-36.818 2.138-14.74.035-24.545-.308-24-.84 2.154-2.097 19.113-4.292 39.422-5.101 11.825-.471 24.363-1.327 27.862-1.902 7.757-1.273 15.253-.227 27.14 3.788 4.674 1.58 10.69 3.2 13.369 3.6 6.56.982 4.722 2.657-3.529 3.214-5.104.344-7.708-.083-13.342-2.19zm-6.003-11.464c-.953-3.002-1.257-20.99-.355-20.99 1.095 0 3.858 9.71 3.858 13.557 0 4.438-1.09 9.443-2.058 9.443-.444 0-1.094-.904-1.445-2.01zM12.225 468.729c-5.405-4.954-5.608-10.623-.91-25.496 1.968-6.233 3.586-12.758 3.594-14.5.012-2.414.247-2.811.985-1.669 1.458 2.257 1.195 12.107-.605 22.667-1.305 7.657-1.375 9.968-.373 12.386 1.406 3.394 4.78 4.658 7.933 2.972 2.867-1.535 4.045-4.99 4.045-11.866 0-9.212 1.97-22.286 4.011-26.63l1.893-4.029-.327 20.582c-.354 22.31-.677 23.789-5.89 26.968-5.01 3.055-10.04 2.57-14.356-1.385zm390.805-10.365c-2.075-.411-1.77-.749 2.5-2.758 2.675-1.259 6.119-3.626 7.652-5.26 2.619-2.79 2.739-3.3 1.971-8.376-.782-5.178-.298-12.29 1.238-18.156.547-2.089.363-2.75-.766-2.75-.817 0-2.017-.64-2.667-1.422-.955-1.151-.755-1.486 1.05-1.75 1.226-.18 2.396-.833 2.599-1.45.262-.8-.872-.884-3.922-.294-6.897 1.333-14.4 1.092-15.726-.505-.962-1.16-.824-1.328.752-.916 1.062.278 5.433-.897 9.712-2.61 5.944-2.38 8.392-2.912 10.369-2.253 2.178.726 3.357.255 7.435-2.969 2.666-2.107 5.222-3.83 5.68-3.83 1.336 0-7.966 14.852-10.35 16.526-2.013 1.413-2.163 2.352-2.163 13.49 0 11.4.098 11.97 2.05 11.977 1.127.004 2.498.455 3.046 1.003.662.661 2.311.325 4.912-1 2.153-1.098 4.82-1.997 5.925-1.997 1.665 0 1.462.387-1.178 2.25-1.754 1.238-4.775 4.357-6.714 6.93-3.79 5.03-7.03 6.778-8.892 4.795-.868-.925-.84-1.338.112-1.687.694-.254 1.73-1.338 2.304-2.409.715-1.336-.41-.838-3.588 1.587-2.547 1.944-5.158 3.54-5.804 3.548-.645.008-2.073.18-3.173.384-1.1.204-3.064.16-4.364-.098zm-170.136-21.646c0-1.222 4.55-9.78 9.771-18.375 2.739-4.508 7.096-13.053 9.684-18.988 4.09-9.379 10.057-20.29 11.095-20.29.599 0-2.633 10.205-6.03 19.044-4.42 11.5-8.886 20.236-14.036 27.455-4.2 5.889-10.484 12.573-10.484 11.154zm-222.5-13.599c-2.61-1.068-5.076-3.941-6.012-7.003l-.749-2.449 3.207 2.699c2.956 2.487 3.901 2.698 12.072 2.698 4.875 0 9.096.376 9.38.836.284.459-1.055 1.584-2.975 2.5-3.652 1.741-11.5 2.12-14.923.719zm244.06-1.305c2.011-6.5 12.394-21.387 13.21-18.938.223.669-.917 4.043-2.535 7.5-4.241 9.064-12.764 18.196-10.674 11.438zm-238.56-4.396c-8.631-2.814-12.004-6.203-11.996-12.054l.004-2.8 1.834 3c2.616 4.28 4.364 5.468 9.302 6.323 4.126.716 14.992-.17 16.953-1.382.535-.331.494-1.337-.1-2.448-.932-1.74-1.275-1.775-4.471-.439-9.395 3.926-21.029-1.46-23.052-10.672-.92-4.188.063-4.678 1.973-.984 2.346 4.536 8.133 7.102 16.013 7.102 6.107 0 6.542-.149 6.57-2.25.029-2.083.11-2.113 1.103-.406.59 1.015 1.161 2.455 1.271 3.202.11.746 1.414 2.483 2.898 3.858 3.139 2.91 3.384 4.677.948 6.842-3.29 2.925-14.338 4.708-19.25 3.108zm27.796-5.448c-2.596-1.453-5.474-6.029-6.23-9.906l-.681-3.5 2.087 2.5c2.752 3.296 7.373 10.988 6.891 11.47-.209.21-1.139-.045-2.067-.564zm372.908-4.906c-1.335-3.728-1.566-10.222-.671-18.843.533-5.138.715-9.756.403-10.26-.314-.508-1.53-.244-2.724.593-2.973 2.082-9.001 1.907-11.779-.342l-2.288-1.853 2.928.421c1.975.285 4.827-.595 8.77-2.706 3.213-1.72 6.825-3 8.027-2.842 1.201.157 3.576-.705 5.276-1.916 1.701-1.21 4.275-2.651 5.72-3.2 2.336-.889 2.064-.284-2.465 5.48-2.908 3.7-6.148 6.743-7.556 7.097-1.79.449-2.279 1.063-1.787 2.245.373.894.9 5.901 1.174 11.126.37 7.101.119 10.384-.998 13-1.017 2.384-1.665 3.022-2.03 2zm-378.253-11.98c-1.995-2.008-2.262-2.022-10-.541-12.858 2.46-15.745 2.15-19.911-2.14-1.956-2.015-4.08-5.41-4.72-7.544-1.014-3.385-.93-4.099.65-5.588.996-.938 1.505-1.157 1.13-.486-.857 1.535 1.32 5.623 5.718 10.734l3.403 3.955 1.39-2.627c.764-1.445 3.557-4.912 6.207-7.705l4.819-5.078 7.181.075 7.182.074-4 1.851c-2.2 1.019-4.517 1.886-5.15 1.926-1.613.104-11.8 11.425-10.631 11.814.526.175 3.392-.815 6.369-2.2 8.683-4.043 13.463-2.939 12.734 2.941l-.322 2.602-2.05-2.063zm63.549-9.896c0-1.157 7.788-4.463 18.15-7.706 4.592-1.437 11.801-4.119 16.02-5.959 14.648-6.39 25.115-9.486 43.762-12.946 28.882-5.36 33.502-7.051 50.568-18.518 5.5-3.696 14.5-9.334 20-12.53 5.5-3.196 13.338-8.047 17.417-10.78 7.713-5.17 19.765-11.15 28.883-14.334 3.045-1.063 8.33-4.325 12.421-7.668 3.917-3.2 8.874-6.71 11.015-7.803 4.581-2.337 31.801-9.443 39.85-10.403l5.587-.666.008 10.345c.01 11.663 2.235 19.955 7.355 27.396 5.883 8.55 12.764 12.565 25.72 15.006 8.632 1.626 13.453 3.296 12.759 4.419-.865 1.399-9.286 1.956-15.154 1.002-12.844-2.088-25.501-11.435-31.564-23.31-2.616-5.127-3.223-7.62-3.588-14.765-.368-7.22-.098-9.365 1.688-13.404 1.17-2.645 2.007-4.929 1.86-5.076-.147-.147-4.765 1.652-10.262 3.998-5.497 2.346-13.298 5.007-17.335 5.915-8.719 1.958-15.78 5.335-22.065 10.55-7.375 6.119-12.174 8.92-19.636 11.457-8.992 3.059-13.626 5.453-25.459 13.156-5.302 3.452-11.62 7.286-14.04 8.52-2.42 1.235-10.488 6.176-17.93 10.98-23.033 14.869-29.513 17.368-57.03 22-18.003 3.031-22.57 4.375-41.267 12.144-9.221 3.832-19.796 7.61-23.5 8.395-7.629 1.617-14.233 1.888-14.233.585zm-89-5.124c-1.742-2.2-2.646-4-2.007-4 1.462 0 7.007 5.479 7.007 6.923 0 2.115-1.881 1.015-5-2.923zm32-5.491c0-.27 1.575-2.555 3.5-5.077 3.753-4.917 4.43-7.003 1.967-6.057-15.711 6.029-31.18 7.001-40.22 2.528-4.906-2.428-5.247-2.473-5.247-.7 0 1.043.708 3.266 1.574 4.94 2.246 4.343 1.2 4.504-2.426.373-3.521-4.01-4.656-7.355-3.737-11.016.836-3.333 4.64-3.304 10.56.08 9.368 5.355 18.403 5.182 33.525-.64 8.805-3.391 12.055-3.252 13.511.58 1.107 2.91.542 4.839-2.707 9.231-2.896 3.918-10.3 8.057-10.3 5.758zm370.425-9.058c-.592-3.155.602-12.442 2.308-17.95.572-1.847.675-1.809 1.344.5 1.766 6.1.212 21-2.19 21-.438 0-1.096-1.598-1.462-3.55zm-396.363-4.95c-.02-.55 1.058-9.776 2.395-20.5 3.01-24.159 6.836-62.585 9.509-95.5 8.707-107.246 11.327-135.388 15.593-167.5C50.695 45.136 57.121 6.56 58.906 2.314c1.291-3.074 6.287-3.09 8.431-.028 1.664 2.376 1.953 7.997.579 11.277-.758 1.81-.95 1.692-2.028-1.25-1.562-4.265-2.6-4.108-3.302.5-.314 2.063-1.713 9.967-3.108 17.565-4.636 25.252-8.503 55.171-14.046 108.685-1.396 13.475-3.446 32.375-4.556 42-1.11 9.625-3.588 40-5.509 67.5-5.416 77.563-5.985 83.55-9.119 95.926-1.39 5.493-7.214 18.33-7.292 16.074zm16.74-14.5c-.984-43.7 2.325-85.256 12.262-154 10.804-74.745 13.643-97.073 15.895-125 1.384-17.162 3.105-31.095 4.067-32.925 1.432-2.724 2.187 27.237 1.069 42.424-1.484 20.156-3.362 34.476-9.135 69.675-5.494 33.495-7.673 50.866-11.959 95.325-4.935 51.192-5.942 63.186-6.985 83.189-1.482 28.424-4.753 41.794-5.214 21.311zm409.687-4.222c-1.331-2.872-3.638-10.534-5.128-17.027-1.49-6.492-3.004-11.455-3.366-11.028-.362.427-1.224 2.801-1.916 5.276-1.543 5.52-5.79 12.359-10.52 16.943-4.026 3.902-3.155 5.605 1.826 3.57 1.713-.7 4.24-1.612 5.615-2.026l2.5-.752-2 2.278c-5.505 6.27-19.926 8.361-28.28 4.1-2.32-1.184-4.22-2.397-4.22-2.694 0-.298 2.022-.238 4.493.133 2.472.37 6.024.386 7.895.035l3.4-.638-1.973-5.224c-2.19-5.798-4.642-8.836-9.6-11.901-1.826-1.128-3.096-2.276-2.822-2.55 1.098-1.098 10.666 2.052 13.107 4.314 3.197 2.963 3.145 2.964 3.899-.041.59-2.35 16.637-26.844 17.21-26.27 1.085 1.084-2.595 10.781-7.105 18.723-5.382 9.479-7.504 14.088-7.504 16.3 0 2.679 12.555-20.373 14.596-26.8 1.058-3.33 1.281-3.56 1.337-1.37.037 1.445 1.658 5.27 3.603 8.5 1.945 3.228 4.452 8.795 5.572 12.37 2.054 6.563 3.767 21 2.49 21-.38 0-1.779-2.35-3.11-5.221zm-25.504-3.636c-.03-1.23-1.954-3.65-1.97-2.474-.008.642-.29 1.885-.626 2.76-.448 1.167-.18 1.428 1 .976.886-.34 1.604-.908 1.596-1.262zm32.42-3.715c-3.12-5.322-7.59-19.839-7.184-23.326.226-1.948 1.066-1.006 4.457 5 4.151 7.352 5.752 11.968 6.639 19.148.617 4.998-.659 4.73-3.912-.822zm-61.405-17.75c0-.295 2.568-1.282 5.707-2.195 14.437-4.197 26.27-13.109 40.32-30.367 2.411-2.96 4.566-4.836 4.79-4.167.937 2.813-6.794 15.665-13.438 22.34-9.386 9.43-18.82 14.077-29.577 14.567-4.291.196-7.802.115-7.802-.179zm-6.543-3.54c-10.389-6.336-15.346-20.52-15.426-44.138-.035-10.236-.314-12.04-2.535-16.42-2.808-5.533-3.345-14.133-1.317-21.08l1.168-4 1.136 5.5 1.136 5.5.754-7.283c1.31-12.643 5.498-23.584 11.758-30.713 3.898-4.44 4.64-3.936 1.955 1.327-1.129 2.214-3.281 7.995-4.783 12.847-2.712 8.765-2.73 9.018-2.766 38.822-.028 22.226.32 31.426 1.338 35.5 1.489 5.955 6.652 17.534 10.145 22.75 2.475 3.696 1.812 4.055-2.563 1.387zm86.353-4.193c-.92-1.955-2.874-9.38-4.34-16.5-1.467-7.12-3.11-13.77-3.65-14.78-1.974-3.69.117-2.734 3.135 1.432 4.65 6.419 7.198 15.923 6.832 25.481l-.303 7.922zm16.688-24.73c-.002-14.036-.363-18.857-1.739-23.215l-1.736-5.5 1.977 2.5c4.437 5.611 6.392 12.909 6.429 24 .03 9.286-.252 11.046-2.447 15.215l-2.482 4.715-.002-17.715zm-7.01 12.73c-.784-3.567.347-14.945 1.485-14.945.427 0 1.058 1.407 1.402 3.125 1.815 9.077-.978 20.512-2.887 11.82zm31.362-22.406c-11.424-8.384-20.12-27.283-22.33-48.533-.37-3.571-.436-6.255-.144-5.963.291.291 2.79 7.489 5.55 15.994 5.295 16.304 9.607 24.784 18.103 35.595 2.753 3.503 4.66 6.357 4.238 6.344-.422-.014-2.86-1.56-5.417-3.437zm-63.85.834c0-.346 2.193-3.608 4.874-7.25 7.525-10.225 9.726-15.422 6.927-16.356-.796-.265-.681-.599.34-.99 7.566-2.904 3.592 13.715-5.174 21.634-3.554 3.21-6.967 4.662-6.967 2.962zm21.607-7.954c-.334-.87-.607-3.66-.607-6.2 0-6.262 2.104-4.193 2.768 2.723.471 4.902-.818 6.977-2.161 3.477zm-15.309-27.419c.969-24.432-4.213-38.658-17.051-46.809-12.461-7.912-27.754-8.115-44.247-.586l-5.5 2.511 3.376-3.486c1.857-1.917 6.132-4.98 9.5-6.808 5.775-3.133 6.693-3.322 16.124-3.322 9.197 0 10.548.26 16.825 3.233 8.215 3.891 18.189 13.4 22.054 21.029 7.093 13.996 7.33 31.47.564 41.64l-2.06 3.098zm59.702 5.884c-6.124-2.425-13.77-12.73-15.494-20.884-.853-4.037-.57-3.884 3.21 1.74 1.532 2.275 6.077 7.765 10.102 12.2 7.079 7.797 7.468 9.037 2.182 6.944zm-2.5-90.513c2.2-1.95 4.815-3.986 5.81-4.526 1.716-.928 1.728-.819.234 2.07-1.533 2.965-6.11 6.128-8.744 6.044-.715-.023.5-1.637 2.7-3.588zm-70.5-14.396c-5.775-2.156-13.772-4.855-17.77-5.996-4.56-1.302-8.568-3.215-10.75-5.13-3.372-2.96-4.469-6.12-2.54-7.312.54-.334.22-1.842-.75-3.54-1.916-3.353-.895-6.242 2.417-6.836 1.789-.322 1.783-.253-.107 1.25-1.993 1.586-1.993 1.597.171 3.437 1.195 1.015 5.02 2.41 8.5 3.1 15.028 2.975 27.96 7.255 26.46 8.754-1.059 1.06-20.045-1.906-26.768-4.181-6.802-2.301-7.863-2.285-7.863.12 0 1.94 4.327 3.827 15.5 6.764 11.363 2.986 20.953 7.32 24.46 11.052 3.238 3.448 1.671 3.236-10.96-1.482zm19.205-7.737c-2.34-3.688-4.72-8.437-5.29-10.555-.825-3.061-1.383-3.702-2.726-3.127-3.237 1.385-13.213 1.676-17.805.52-5.209-1.312-17.933-6.86-17.265-7.528.24-.24 8.495.937 18.345 2.613 15.424 2.626 18.057 2.85 18.973 1.608 1.447-1.963 5.583-4.082 6.39-3.275.361.361-.127 1.095-1.085 1.631-2.443 1.367-2.184 3.43 1.176 9.385 3.387 6.001 5.602 13.37 4.384 14.588-.464.465-2.758-2.173-5.097-5.86zm15.695 1.771c-3.759-1.986-5.145-3.73-10.542-13.267-2.524-4.46-2.844-5.537-1.42-4.774 4.209 2.252 18.844 20.124 16.369 19.988-.444-.024-2.427-.9-4.407-1.947zm2.527-9.53c1.06-.802 1.735-1.588 1.5-1.746-18.387-12.424-18.028-12.233-22.956-12.233-4.535 0-4.732-.106-3.245-1.75 3.328-3.677 14.448-.898 24.454 6.112 4.424 3.098 5.896 3.654 7.806 2.948 1.383-.512 1.974-1.227 1.433-1.735-3.175-2.983-15.337-11.52-17.419-12.226-1.768-.6-.982-.719 2.682-.404 5.409.465 11.508 3.052 17.124 7.263 2.708 2.031 3.251 3.051 3 5.636-.285 2.945-.593 3.177-4.579 3.465-2.542.184-4.021.715-3.652 1.313 1.007 1.63-2.669 4.881-5.48 4.847-2.49-.03-2.516-.092-.668-1.49z"/></svg>