<?xml version="1.0" encoding="UTF-8" standalone="no"?>
<!-- Created with Inkscape (http://www.inkscape.org/) -->

<svg
   version="1.1"
   id="svg2"
   width="637.58521"
   height="465.03525"
   viewBox="0 0 637.58521 465.03525"
   sodipodi:docname="ill_screen.svg"
   inkscape:version="1.1.2 (0a00cf5339, 2022-02-04)"
   xmlns:inkscape="http://www.inkscape.org/namespaces/inkscape"
   xmlns:sodipodi="http://sodipodi.sourceforge.net/DTD/sodipodi-0.dtd"
   xmlns="http://www.w3.org/2000/svg"
   xmlns:svg="http://www.w3.org/2000/svg">
  <defs
     id="defs6" />
  <sodipodi:namedview
     id="namedview4"
     pagecolor="#ffffff"
     bordercolor="#666666"
     borderopacity="1.0"
     inkscape:pageshadow="2"
     inkscape:pageopacity="0.0"
     inkscape:pagecheckerboard="0"
     showgrid="false"
     fit-margin-top="0"
     fit-margin-left="0"
     fit-margin-right="0"
     fit-margin-bottom="0"
     inkscape:zoom="0.85714286"
     inkscape:cx="-130.08333"
     inkscape:cy="105.58333"
     inkscape:window-width="1920"
     inkscape:window-height="1029"
     inkscape:window-x="0"
     inkscape:window-y="27"
     inkscape:window-maximized="1"
     inkscape:current-layer="g8" />
  <g
     inkscape:groupmode="layer"
     inkscape:label="Image"
     id="g8"
     transform="translate(-384.83183,-306.57865)">
    <path
       style="fill:#000000"
       d="m 567.27876,771.24548 c 0.92171,-1.49136 14.15059,-3.76278 25.44597,-4.36911 6.325,-0.33952 32.6136,-1.04435 58.4191,-1.56628 48.44222,-0.97976 156.12458,0.26218 174.03129,2.00717 8.46505,0.82492 9.16265,0.74985 10.79961,-1.16202 1.74101,-2.03341 1.75,-2.03037 1.75,0.59163 0,1.95298 -0.71219,2.90845 -2.75,3.68937 -4.07731,1.56248 -26.01756,1.5706 -59.25,0.0219 -22.88561,-1.0665 -48.55841,-1.21623 -114.5,-0.6678 -46.75,0.38882 -87.11815,1.04567 -89.707,1.45967 -2.58886,0.41401 -4.49639,0.41196 -4.23897,-0.005 z m 4.24626,-5.03631 c -0.35234,-0.89305 -2.13904,-1.91217 -3.97045,-2.26471 -7.943,-1.529 -8.21491,-4.65471 -1.54719,-17.78504 5.70963,-11.24362 9.63903,-15.36735 13.64277,-14.31752 1.41602,0.3713 18.32458,0.8222 37.57458,1.00201 19.25,0.1798 39.27536,0.6165 44.5008,0.97043 l 9.5008,0.64351 -0.30585,-12.31247 c -0.16821,-6.77187 -0.5076,-12.91577 -0.7542,-13.65313 -0.37332,-1.11628 -24.10611,-1.23851 -141.80618,-0.73033 -125.17857,0.54047 -141.50088,0.43796 -142.60769,-0.89567 -0.97202,-1.17122 -1.12518,-9.45606 -0.68898,-37.26967 0.53394,-34.04568 1.33289,-46.10513 2.89265,-43.66201 1.65918,2.59885 2.87942,25.78345 2.62298,49.83679 l -0.27654,25.93845 2.86952,0.76743 c 1.57823,0.42208 100.13346,0.75987 219.01161,0.75064 118.87816,-0.009 218.59438,0.26281 221.59159,0.60455 24.19103,2.7582 5.83872,3.71079 -80.05051,4.15509 -44.825,0.23188 -81.41675,0.63595 -81.31499,0.89795 0.10175,0.26199 0.96231,3.95734 1.91235,8.21189 1.90039,8.51048 2.29977,21.9062 0.97598,32.73554 -0.72839,5.95855 -0.97452,6.5762 -1.65439,4.15145 -0.43928,-1.5667 -1.11241,-6.44488 -1.49583,-10.84039 l -0.69714,-7.99183 -2.61299,0.67505 c -3.88005,1.00238 -59.46278,2.35525 -75.61299,1.8404 -10.6051,-0.33808 -14.36733,-0.12966 -15.51479,0.85951 -2.9834,2.57181 -15.10149,17.02287 -14.6518,17.47255 0.25241,0.25241 3.09315,0.0168 6.31276,-0.52351 15.18145,-2.54786 86.13375,-2.01704 95.85383,0.71713 4.40963,1.24038 -38.18088,2.3929 -73.25084,1.9822 -29.46802,-0.3451 -33.25429,0.10935 -24.67263,2.96136 4.79638,1.59402 5.71904,2.4466 5.23771,4.83986 -0.32498,1.61581 -0.4563,1.64592 -1.01395,0.23249 z m 266.19971,-4.74519 c 0,-1.49624 -53.32972,-3.94192 -89,-4.08149 -22.02913,-0.0862 -28.75004,-1.26481 -15.39846,-2.70036 11.71805,-1.25991 77.07115,-0.88086 89.89846,0.52141 11.63906,1.27237 23.42453,4.14511 20.10485,4.90061 -1.51946,0.3458 -1.61858,0.60643 -0.5,1.31471 0.97476,0.61722 0.41584,0.88803 -1.85485,0.89873 -1.7875,0.008 -3.25,-0.3757 -3.25,-0.85361 z m 6.97367,-4.93441 c -3.60301,-6.86133 -9.59106,-12.99602 -13.83639,-14.17521 -2.00051,-0.55567 -12.63728,-1.02748 -23.63728,-1.04846 -24.876,-0.0475 -65.53332,-1.67805 -71.37286,-2.86246 -3.68428,-0.74726 -4.44078,-0.62896 -4.80423,0.75127 -0.23725,0.901 -1.19446,3.36206 -2.12714,5.469 l -1.69577,3.83081 -0.26946,-10.33081 c -0.33351,-12.7867 1.64324,-29.80046 3.15177,-27.12708 0.55748,0.98795 1.20273,6.97127 1.43389,13.29627 l 0.42029,11.5 50.03437,0.30035 c 55.72087,0.33448 54.53874,0.1932 59.55468,7.11752 2.67805,3.69693 7.09072,16.4992 6.04676,17.54316 -0.23777,0.23778 -1.54215,-1.68119 -2.89863,-4.26436 z m 36.59419,-49.33864 c -6.85256,-0.87877 -8.38772,-1.37151 -7.38795,-2.37127 1.36231,-1.36231 36.57971,-2.32113 86.6952,-2.36033 30.45631,-0.0238 55.60226,-0.27045 55.87986,-0.54805 0.2776,-0.27761 0.931,-4.90881 1.452,-10.29156 0.5209,-5.38275 1.2995,-10.15129 1.7301,-10.59676 0.4305,-0.44547 1.3399,4.85537 2.0207,11.77963 0.9745,9.91 0.9782,12.90252 0.018,14.05994 -1.0532,1.26907 -10.2733,1.45305 -67.34783,1.34387 -36.37016,-0.0696 -69.24702,-0.52653 -73.0597,-1.01547 z m 61.25794,-13.34623 c -0.37081,-0.38144 -122.09581,-1.0128 -270.5,-1.40301 -185.12234,-0.48676 -270.60078,-1.03992 -272.29451,-1.76211 -2.15234,-0.91774 -1.38343,-1.21204 6,-2.29651 6.42535,-0.94375 20.8948,-1.06949 59.96871,-0.52115 28.325,0.3975 160.85,1.06365 294.5,1.48034 133.65,0.41668 244.34997,1.11203 245.99997,1.54522 l 3,0.78761 -3,0.94007 c -3.5264,1.10503 -62.68472,2.24737 -63.67417,1.22954 z m -535.8258,-25.45768 c -1.2196,-0.79789 -1.52241,-3.93229 -1.61991,-16.76772 -0.13716,-18.05841 1.09464,-40.69224 2.40779,-44.24201 0.83582,-2.25945 0.93978,-2.16475 1.67214,1.52319 0.4295,2.16283 1.0642,15.18242 1.41044,28.93242 l 0.62954,25 75,0.69033 c 57.70107,0.5311 273.14903,1.06287 281.5,0.6948 0.825,-0.0364 53.25,-0.41274 116.5,-0.83639 63.25,-0.42365 115.07325,-0.83293 115.16278,-0.90951 0.0895,-0.0766 0.3727,-18.25173 0.62929,-40.38923 0.2565,-22.1375 0.9018,-41.825 1.4338,-43.75 l 0.9674,-3.5 0.9034,5 c 1.1356,6.28572 1.1997,86.03612 0.07,87.16633 -0.4583,0.45852 -97.20835,0.91169 -215.00004,1.00706 -117.79168,0.0954 -251.5167,0.44083 -297.1667,0.76772 -53.62269,0.38397 -83.53092,0.247 -84.5,-0.38699 z m 611.45387,-30.74797 c -0.4586,-3.74338 -0.8617,-78.20695 -0.8956,-165.47459 -0.034,-87.26764 -0.4372,-159.04264 -0.896,-159.5 -0.4588,-0.45736 -22.28302,-0.71244 -48.49824,-0.56685 -43.811,0.2433 -66.39406,-0.60018 -69.66403,-2.60198 -2.94508,-1.80291 12.54469,-2.47281 64.69263,-2.79783 45.31444,-0.28243 57.86334,-0.092 58.48834,0.88776 1.1086,1.7376 1.3943,295.17599 0.3089,317.14456 -0.4864,9.84348 -1.2933,18.30624 -1.7932,18.80616 -0.5453,0.54523 -1.2426,-1.81443 -1.7428,-5.89723 z M 386.1892,591.57072 c -0.80253,-7.05986 -0.74912,-282.96822 0.055,-284.26936 0.58928,-0.95347 417.3198,-0.39795 431.70619,0.57548 5.89913,0.39916 10.52372,1.05252 10.27688,1.45192 -1.17917,1.90794 -30.64014,2.27815 -164.12507,2.06238 -79.26738,-0.12812 -173.46996,0.0981 -209.33907,0.50262 l -65.21657,0.73556 0.26305,135.60179 c 0.24429,125.93135 -0.0686,148.35567 -2.08769,149.60352 -0.42176,0.26065 -1.11149,-2.5581 -1.53274,-6.26391 z m 20.19608,-15.48782 c -0.8017,-10.76342 -1.18229,-251.56159 -0.39884,-252.34504 0.84065,-0.84065 173.90698,-0.77538 181.23829,0.0684 3.3,0.37979 6.9,0.96478 8,1.3 6.37107,1.94151 -13.36517,2.55494 -93.95301,2.92016 -57.54877,0.26081 -88.37654,0.75011 -89.17821,1.41544 -0.95094,0.78921 -1.31627,28.92897 -1.63194,125.70396 -0.22371,68.57792 -0.75849,125.69963 -1.18842,126.93713 -1.42359,4.09766 -2.26615,2.34712 -2.88787,-6 z m 594.85282,-27.25 c -0.4559,-1.65 -1.0049,-52.1404 -1.2201,-112.20089 l -0.39115,-109.20088 -183.70106,-0.35305 c -121.91168,-0.23429 -184.71014,-0.6978 -186.70106,-1.37801 l -3,-1.02498 3,-0.85955 c 3.27136,-0.9373 369.55035,-1.90404 373.29447,-0.98526 l 2.2945,0.56305 -0.3432,111.21979 c -0.2247,72.81117 -0.699,112.2558 -1.3734,114.21978 l -1.0302,3 z"
       id="path827" />
  </g>
</svg>
