<?xml version="1.0" encoding="UTF-8" standalone="no"?>
<!-- Created with Inkscape (http://www.inkscape.org/) -->

<svg
   version="1.1"
   id="svg2"
   width="637.58521"
   height="465.03525"
   viewBox="0 0 637.58521 465.03525"
   sodipodi:docname="screen.svg"
   inkscape:version="1.1.2 (0a00cf5339, 2022-02-04)"
   xmlns:inkscape="http://www.inkscape.org/namespaces/inkscape"
   xmlns:sodipodi="http://sodipodi.sourceforge.net/DTD/sodipodi-0.dtd"
   xmlns="http://www.w3.org/2000/svg"
   xmlns:svg="http://www.w3.org/2000/svg">
  <defs
     id="defs6" />
  <sodipodi:namedview
     id="namedview4"
     pagecolor="#ffffff"
     bordercolor="#666666"
     borderopacity="1.0"
     inkscape:pageshadow="2"
     inkscape:pageopacity="0.0"
     inkscape:pagecheckerboard="0"
     showgrid="false"
     fit-margin-top="0"
     fit-margin-left="0"
     fit-margin-right="0"
     fit-margin-bottom="0"
     inkscape:zoom="0.85714286"
     inkscape:cx="184.91667"
     inkscape:cy="258.41667"
     inkscape:window-width="1920"
     inkscape:window-height="1029"
     inkscape:window-x="0"
     inkscape:window-y="27"
     inkscape:window-maximized="1"
     inkscape:current-layer="g8" />
  <g
     inkscape:groupmode="layer"
     inkscape:label="Image"
     id="g8"
     transform="translate(-384.83183,-306.57865)">
    <path
       style="fill:#000000"
       d="m 567.27876,771.24548 c 0.92171,-1.49136 14.15059,-3.76278 25.44597,-4.36911 6.325,-0.33952 32.6136,-1.04435 58.4191,-1.56628 48.44222,-0.97976 156.12458,0.26218 174.03129,2.00717 8.46505,0.82492 9.16265,0.74985 10.79961,-1.16202 1.74101,-2.03341 1.75,-2.03037 1.75,0.59163 0,1.95298 -0.71219,2.90845 -2.75,3.68937 -4.07731,1.56248 -26.01756,1.5706 -59.25,0.0219 -22.88561,-1.0665 -48.55841,-1.21623 -114.5,-0.6678 -46.75,0.38882 -87.11815,1.04567 -89.707,1.45967 -2.58886,0.41401 -4.49639,0.41196 -4.23897,-0.005 z m 4.24626,-5.03631 c -0.35234,-0.89305 -2.13904,-1.91217 -3.97045,-2.26471 -7.943,-1.529 -8.21491,-4.65471 -1.54719,-17.78504 5.70963,-11.24362 9.63903,-15.36735 13.64277,-14.31752 1.41602,0.3713 18.32458,0.8222 37.57458,1.00201 19.25,0.1798 39.27536,0.6165 44.5008,0.97043 l 9.5008,0.64351 -0.30585,-12.31247 c -0.16821,-6.77187 -0.5076,-12.91577 -0.7542,-13.65313 -0.37332,-1.11628 -24.10611,-1.23851 -141.80618,-0.73033 -125.17857,0.54047 -141.50088,0.43796 -142.60769,-0.89567 -0.97202,-1.17122 -1.12518,-9.45606 -0.68898,-37.26967 0.53394,-34.04568 1.33289,-46.10513 2.89265,-43.66201 1.65918,2.59885 2.87942,25.78345 2.62298,49.83679 l -0.27654,25.93845 2.86952,0.76743 c 1.57823,0.42208 100.13346,0.75987 219.01161,0.75064 118.87816,-0.009 218.59438,0.26281 221.59159,0.60455 24.19103,2.7582 5.83872,3.71079 -80.05051,4.15509 -44.825,0.23188 -81.41675,0.63595 -81.31499,0.89795 0.10175,0.26199 0.96231,3.95734 1.91235,8.21189 1.90039,8.51048 2.29977,21.9062 0.97598,32.73554 -0.72839,5.95855 -0.97452,6.5762 -1.65439,4.15145 -0.43928,-1.5667 -1.11241,-6.44488 -1.49583,-10.84039 l -0.69714,-7.99183 -2.61299,0.67505 c -3.88005,1.00238 -59.46278,2.35525 -75.61299,1.8404 -10.6051,-0.33808 -14.36733,-0.12966 -15.51479,0.85951 -2.9834,2.57181 -15.10149,17.02287 -14.6518,17.47255 0.25241,0.25241 3.09315,0.0168 6.31276,-0.52351 15.18145,-2.54786 86.13375,-2.01704 95.85383,0.71713 4.40963,1.24038 -38.18088,2.3929 -73.25084,1.9822 -29.46802,-0.3451 -33.25429,0.10935 -24.67263,2.96136 4.79638,1.59402 5.71904,2.4466 5.23771,4.83986 -0.32498,1.61581 -0.4563,1.64592 -1.01395,0.23249 z m 266.19971,-4.74519 c 0,-1.49624 -53.32972,-3.94192 -89,-4.08149 -22.02913,-0.0862 -28.75004,-1.26481 -15.39846,-2.70036 11.71805,-1.25991 77.07115,-0.88086 89.89846,0.52141 11.63906,1.27237 23.42453,4.14511 20.10485,4.90061 -1.51946,0.3458 -1.61858,0.60643 -0.5,1.31471 0.97476,0.61722 0.41584,0.88803 -1.85485,0.89873 -1.7875,0.008 -3.25,-0.3757 -3.25,-0.85361 z m 6.97367,-4.93441 c -3.60301,-6.86133 -9.59106,-12.99602 -13.83639,-14.17521 -2.00051,-0.55567 -12.63728,-1.02748 -23.63728,-1.04846 -24.876,-0.0475 -65.53332,-1.67805 -71.37286,-2.86246 -3.68428,-0.74726 -4.44078,-0.62896 -4.80423,0.75127 -0.23725,0.901 -1.19446,3.36206 -2.12714,5.469 l -1.69577,3.83081 -0.26946,-10.33081 c -0.33351,-12.7867 1.64324,-29.80046 3.15177,-27.12708 0.55748,0.98795 1.20273,6.97127 1.43389,13.29627 l 0.42029,11.5 50.03437,0.30035 c 55.72087,0.33448 54.53874,0.1932 59.55468,7.11752 2.67805,3.69693 7.09072,16.4992 6.04676,17.54316 -0.23777,0.23778 -1.54215,-1.68119 -2.89863,-4.26436 z m 36.59419,-49.33864 c -6.85256,-0.87877 -8.38772,-1.37151 -7.38795,-2.37127 1.36231,-1.36231 36.57971,-2.32113 86.6952,-2.36033 30.45631,-0.0238 55.60226,-0.27045 55.87986,-0.54805 0.2776,-0.27761 0.931,-4.90881 1.452,-10.29156 0.5209,-5.38275 1.2995,-10.15129 1.7301,-10.59676 0.4305,-0.44547 1.3399,4.85537 2.0207,11.77963 0.9745,9.91 0.9782,12.90252 0.018,14.05994 -1.0532,1.26907 -10.2733,1.45305 -67.34783,1.34387 -36.37016,-0.0696 -69.24702,-0.52653 -73.0597,-1.01547 z m 61.25794,-13.34623 c -0.37081,-0.38144 -122.09581,-1.0128 -270.5,-1.40301 -185.12234,-0.48676 -270.60078,-1.03992 -272.29451,-1.76211 -2.15234,-0.91774 -1.38343,-1.21204 6,-2.29651 6.42535,-0.94375 20.8948,-1.06949 59.96871,-0.52115 28.325,0.3975 160.85,1.06365 294.5,1.48034 133.65,0.41668 244.34997,1.11203 245.99997,1.54522 l 3,0.78761 -3,0.94007 c -3.5264,1.10503 -62.68472,2.24737 -63.67417,1.22954 z m -535.8258,-25.45768 c -1.2196,-0.79789 -1.52241,-3.93229 -1.61991,-16.76772 -0.13716,-18.05841 1.09464,-40.69224 2.40779,-44.24201 0.83582,-2.25945 0.93978,-2.16475 1.67214,1.52319 0.4295,2.16283 1.0642,15.18242 1.41044,28.93242 l 0.62954,25 75,0.69033 c 57.70107,0.5311 273.14903,1.06287 281.5,0.6948 0.825,-0.0364 53.25,-0.41274 116.5,-0.83639 63.25,-0.42365 115.07325,-0.83293 115.16278,-0.90951 0.0895,-0.0766 0.3727,-18.25173 0.62929,-40.38923 0.2565,-22.1375 0.9018,-41.825 1.4338,-43.75 l 0.9674,-3.5 0.9034,5 c 1.1356,6.28572 1.1997,86.03612 0.07,87.16633 -0.4583,0.45852 -97.20835,0.91169 -215.00004,1.00706 -117.79168,0.0954 -251.5167,0.44083 -297.1667,0.76772 -53.62269,0.38397 -83.53092,0.247 -84.5,-0.38699 z m 611.45387,-30.74797 c -0.4586,-3.74338 -0.8617,-78.20695 -0.8956,-165.47459 -0.034,-87.26764 -0.4372,-159.04264 -0.896,-159.5 -0.4588,-0.45736 -22.28302,-0.71244 -48.49824,-0.56685 -43.811,0.2433 -66.39406,-0.60018 -69.66403,-2.60198 -2.94508,-1.80291 12.54469,-2.47281 64.69263,-2.79783 45.31444,-0.28243 57.86334,-0.092 58.48834,0.88776 1.1086,1.7376 1.3943,295.17599 0.3089,317.14456 -0.4864,9.84348 -1.2933,18.30624 -1.7932,18.80616 -0.5453,0.54523 -1.2426,-1.81443 -1.7428,-5.89723 z M 386.1892,591.57072 c -0.80253,-7.05986 -0.74912,-282.96822 0.055,-284.26936 0.58928,-0.95347 417.3198,-0.39795 431.70619,0.57548 5.89913,0.39916 10.52372,1.05252 10.27688,1.45192 -1.17917,1.90794 -30.64014,2.27815 -164.12507,2.06238 -79.26738,-0.12812 -173.46996,0.0981 -209.33907,0.50262 l -65.21657,0.73556 0.26305,135.60179 c 0.24429,125.93135 -0.0686,148.35567 -2.08769,149.60352 -0.42176,0.26065 -1.11149,-2.5581 -1.53274,-6.26391 z m 20.19608,-15.48782 c -0.8017,-10.76342 -1.18229,-251.56159 -0.39884,-252.34504 0.84065,-0.84065 173.90698,-0.77538 181.23829,0.0684 3.3,0.37979 6.9,0.96478 8,1.3 6.37107,1.94151 -13.36517,2.55494 -93.95301,2.92016 -57.54877,0.26081 -88.37654,0.75011 -89.17821,1.41544 -0.95094,0.78921 -1.31627,28.92897 -1.63194,125.70396 -0.22371,68.57792 -0.75849,125.69963 -1.18842,126.93713 -1.42359,4.09766 -2.26615,2.34712 -2.88787,-6 z m 594.85282,-27.25 c -0.4559,-1.65 -1.0049,-52.1404 -1.2201,-112.20089 l -0.39115,-109.20088 -183.70106,-0.35305 c -121.91168,-0.23429 -184.71014,-0.6978 -186.70106,-1.37801 l -3,-1.02498 3,-0.85955 c 3.27136,-0.9373 369.55035,-1.90404 373.29447,-0.98526 l 2.2945,0.56305 -0.3432,111.21979 c -0.2247,72.81117 -0.699,112.2558 -1.3734,114.21978 l -1.0302,3 z"
       id="path827" />
    <path
       style="fill:#000000;stroke-width:0.999999"
       d="m 689.08516,644.44557 c -1.07147,-0.3705 -2.75168,-1.14457 -3.73381,-1.72014 -2.13437,-1.25082 -7.91994,-5.50233 -8.27956,-6.0842 -0.43805,-0.70878 2.4801,0.51355 7.75835,3.24972 5.83158,3.02299 7.0617,3.2684 12.66551,2.5267 3.32152,-0.4396 3.8358,-0.60604 3.8358,-1.24134 0,-0.95656 -0.77927,-2.43367 -2.8694,-5.43883 -1.85804,-2.6715 -4.30124,-7.33974 -5.13622,-9.81388 l -0.52973,-1.56966 1.39219,1.55444 c 2.23476,2.49519 9.00092,12.83788 9.50991,14.5368 0.39598,1.32163 0.36996,1.70184 -0.17316,2.53075 -0.85455,1.30421 -1.6614,1.68847 -4.16658,1.98428 l -2.10742,0.24886 1.6516,-1.02581 c 2.32527,-1.44419 2.05241,-1.53967 -0.52523,-0.18373 -1.78949,0.94129 -2.63653,1.14278 -4.76047,1.13237 -1.42101,-0.007 -3.46032,-0.31583 -4.53178,-0.68633 z m -30.05517,-4.80054 c -0.93044,-0.16652 -2.43434,-0.73797 -3.34199,-1.2699 -1.65903,-0.97226 -6.04169,-5.38613 -6.04169,-6.08474 0,-0.51386 2.41807,0.78445 5.38675,2.89227 2.93362,2.08295 5.26786,2.70496 8.26862,2.20342 4.56955,-0.76373 8.05486,-2.65273 11.15675,-6.04665 2.02469,-2.21534 2.39059,-3.24973 2.39059,-6.75811 0,-4.81002 -1.87546,-9.14732 -7.64117,-17.67146 -3.95502,-5.84717 -6.55706,-10.2628 -6.23655,-10.58333 0.28463,-0.28462 5.79968,6.20575 8.71242,10.25317 2.97762,4.1376 6.05914,10.27781 6.88484,13.71867 0.33667,1.40293 0.61212,3.67033 0.61212,5.03865 v 2.48787 l 2.0402,-1.98554 c 1.12211,-1.09204 2.59986,-2.26647 3.28389,-2.60984 1.43459,-0.72015 3.6986,-0.81432 4.84371,-0.20148 0.74118,0.39667 0.77245,0.34257 0.50539,-0.87437 -0.15656,-0.71346 -1.58772,-4.60634 -3.18035,-8.65084 -3.66601,-9.30986 -4.45768,-12.26397 -4.4862,-16.74019 -0.0229,-3.59489 0.82254,-6.78953 2.2687,-8.57267 0.5892,-0.72648 0.60244,-0.71855 0.3631,0.21755 -0.53245,2.08257 -0.66856,8.1478 -0.2383,10.61854 0.7247,4.16153 2.22047,8.85515 4.50331,14.13103 2.52337,5.83179 2.78435,6.96477 2.13695,9.27706 -0.47054,1.68061 -0.53058,1.73286 -1.73208,1.50746 -1.5592,-0.29251 -3.24632,0.41553 -6.03361,2.53214 -1.17555,0.89268 -2.62672,1.72256 -3.22484,1.84417 -0.7743,0.15744 -1.31986,0.67661 -1.8944,1.80281 -1.17888,2.31078 -4.87819,5.82475 -7.55398,7.17548 -4.09413,2.0667 -8.45667,2.93863 -11.75218,2.34883 z m -10.93812,-5.10046 c -3.988,-1.36523 -18.20404,-10.23215 -27.2027,-16.96709 -2.03049,-1.51969 -4.99348,-3.41467 -6.58443,-4.21107 -2.66369,-1.33338 -3.15581,-1.44799 -6.21776,-1.44799 -1.82882,0 -3.82069,0.13817 -4.42637,0.30703 -1.74126,0.48548 -0.85979,-0.43803 1.44032,-1.509 2.76558,-1.28771 6.29261,-1.27785 9.09201,0.0255 1.12613,0.52428 4.54476,2.77625 7.59697,5.00437 7.4018,5.40335 15.74239,10.86291 21.44434,14.03697 4.63967,2.58274 7.93157,4.79871 7.95449,5.35466 0.0175,0.42467 -0.30191,0.36346 -3.09687,-0.59333 z m -52.91152,-0.0326 c -0.78138,-0.28609 -2.22409,-0.99099 -3.20603,-1.56645 -0.98194,-0.57545 -1.78535,-0.85062 -1.78535,-0.61147 0,0.69685 -1.89877,-1.75563 -2.53128,-3.26941 -0.84268,-2.01682 -0.71101,-6.23361 0.35053,-11.22636 1.4774,-6.9486 1.50789,-7.54299 0.64259,-12.52615 -1.22133,-7.03341 -1.01994,-10.04654 0.85102,-12.73277 0.86605,-1.24343 2.77657,-2.33868 3.72496,-2.13541 0.48689,0.10436 0.34361,0.30511 -0.56084,0.78576 -1.76382,0.93736 -2.53397,3.1638 -2.51069,7.25829 0.0104,1.82969 0.28456,4.34078 0.60923,5.58018 0.85127,3.24964 0.72584,7.85168 -0.38286,14.0481 -0.93514,5.22634 -1.18086,9.86777 -0.62738,11.85057 0.23494,0.84163 0.66067,1.02793 3.75021,1.64096 6.29951,1.25 6.78277,0.78391 8.93149,-8.61385 0.60119,-2.62939 3.21932,-8.75706 3.58523,-8.39115 0.24358,0.24358 -1.80719,11.53517 -2.4768,13.63739 -1.73789,5.456 -4.64279,7.63424 -8.36403,6.27177 z m 56.67273,-2.00453 c -3.59423,-2.74439 -5.31565,-6.39456 -5.31565,-11.27156 0,-2.24467 -0.15983,-3.00361 -0.80542,-3.82434 -0.86389,-1.09825 -0.75028,-1.25993 0.43834,-0.6238 1.10242,0.59 1.76975,2.15826 2.31013,5.42902 0.52222,3.1608 0.92694,4.12997 3.08336,7.38359 1.3286,2.00462 2.50246,4.27473 2.21043,4.27473 -0.0716,0 -0.93609,-0.61544 -1.92119,-1.36764 z m 6.29691,-3.83222 c -1.56957,-0.56088 -4.35018,-2.19209 -4.12336,-2.41891 0.55817,-0.55817 6.88937,2.00356 6.88937,2.78757 0,0.31537 -1.35855,0.1343 -2.76601,-0.36866 z m -2.09161,-3.11596 c -0.85494,-0.27038 -2.07907,-0.7677 -2.72027,-1.10514 -1.26114,-0.66369 -3.87401,-3.27654 -2.91458,-2.91455 0.3206,0.12096 1.45729,0.56992 2.52597,0.99769 1.06867,0.42777 3.46474,1.23316 5.32459,1.78976 1.85984,0.5566 3.48775,1.18387 3.61758,1.39392 0.34097,0.55171 -3.95399,0.43267 -5.83329,-0.16168 z m -57.37022,-9.88712 c -0.82494,-0.418 -1.62094,-1.32836 -2.26279,-2.58789 -0.8911,-1.74866 -0.99016,-2.39014 -0.99016,-6.41206 0,-3.84433 0.12616,-4.74781 0.90257,-6.46353 0.91062,-2.01229 2.41125,-3.71382 3.6636,-4.15408 0.90528,-0.31826 0.85812,-0.10704 -0.24085,1.07878 -1.31714,1.42122 -2.29485,5.26747 -2.32802,9.15833 -0.0237,2.77388 0.12733,3.62533 0.93028,5.24623 0.82852,1.67252 1.1337,1.95175 2.25017,2.05886 0.71041,0.0682 2.07814,-0.14407 3.0394,-0.4716 2.07448,-0.70685 2.10656,-0.23048 0.0942,1.3983 -1.9669,1.59194 -3.49754,1.93951 -5.05836,1.14866 z m 43.49286,-1.58587 c -1.22048,-0.61902 -3.66873,-1.99039 -5.44054,-3.0475 -1.77182,-1.0571 -4.97023,-2.85153 -7.10759,-3.98764 -4.38828,-2.33255 -7.80134,-4.54746 -8.9102,-5.78228 -0.62685,-0.69806 -0.12367,-0.5741 3.07735,0.75813 9.11981,3.79556 19.97489,10.16013 21.18499,12.42121 0.58546,1.09395 -0.11073,1.0041 -2.80401,-0.36192 z m -1.08413,-13.47496 c -1.81675,-0.28348 -8.46198,-0.68801 -14.76718,-0.89894 -18.26794,-0.61114 -23.82071,-2.0598 -29.33403,-7.65294 -1.28573,-1.30435 -3.21206,-2.84121 -4.28074,-3.41525 -1.06868,-0.57404 -2.38024,-1.38285 -2.91458,-1.79737 -0.89268,-0.69251 -0.90823,-0.75437 -0.19157,-0.76232 0.42897,-0.005 2.34322,0.42146 4.25387,0.94714 2.50381,0.68887 3.61281,0.84051 3.97125,0.54303 1.02283,-0.84888 2.88507,-5.54515 4.63187,-11.68089 1.89182,-6.6451 3.68537,-10.98437 5.34859,-12.94022 0.9882,-1.16207 0.98701,-1.15169 -0.36813,3.21496 -0.74774,2.40943 -1.68396,5.13766 -2.08049,6.06272 -0.39653,0.92507 -1.10663,3.32558 -1.578,5.33447 -1.91828,8.17533 -2.83813,10.65884 -4.52782,12.2248 l -0.95772,0.88758 2.06399,1.55766 c 4.92359,3.71575 9.03987,4.60618 23.63185,5.11203 6.2918,0.21812 12.50206,0.63601 14.37857,0.96755 1.81675,0.32098 4.5565,0.58384 6.08833,0.58414 2.40469,3.8e-4 3.12135,-0.17624 5.24624,-1.29347 1.3536,-0.71171 3.95887,-1.75651 5.78949,-2.32179 4.26152,-1.31592 6.03119,-2.6254 8.32435,-6.15962 3.98506,-6.1418 4.68135,-7.06027 6.01183,-7.93011 0.75752,-0.49525 1.90193,-1.02356 2.54314,-1.17401 1.13032,-0.26521 1.11216,-0.22574 -0.59647,1.29592 -1.12583,1.00265 -2.52034,2.95251 -3.86126,5.39898 -1.15443,2.10623 -2.62734,4.51256 -3.27313,5.3474 -1.53576,1.98533 -4.8955,4.12763 -8.45511,5.39133 -1.57165,0.55794 -4.05029,1.63614 -5.50809,2.396 -2.97438,1.55035 -4.00661,1.63229 -9.58905,0.76122 z m -19.09374,-7.3504 c -2.14601,-1.16599 -6.51044,-9.30776 -8.33037,-15.54017 -0.74789,-2.56115 -1.07616,-4.74594 -1.22619,-8.16081 -0.11268,-2.56483 -0.1083,-4.57423 0.01,-4.46535 0.11804,0.10889 0.65991,2.38226 1.20416,5.05194 1.26636,6.21174 2.59466,10.23912 4.7411,14.3749 2.47063,4.76043 4.77544,7.75622 5.98508,7.77942 l 0.97152,0.0187 -0.91742,0.76429 c -1.07703,0.89725 -1.1081,0.89951 -2.43761,0.17715 z m 10.35001,-2.7101 c 0.85495,-0.74966 3.2103,-2.17317 5.23412,-3.16333 4.29407,-2.10089 8.85893,-4.865 15.36222,-9.30211 2.56482,-1.74995 5.6926,-3.75838 6.95061,-4.46318 2.17511,-1.21861 2.25702,-1.23529 1.67011,-0.3402 -1.35371,2.06456 -4.47019,4.27884 -15.03279,10.6809 -8.16244,4.9473 -12.72158,7.36379 -14.57288,7.72408 l -1.16583,0.22688 z m -3.75683,-0.40013 c 0.71206,-0.90524 0.84226,-1.57519 0.84226,-4.33402 0,-3.80849 -0.44479,-5.087 -2.91115,-8.368 -0.9637,-1.28199 -1.75217,-2.59896 -1.75217,-2.92659 0,-1.34225 1.64705,-3.20154 3.74558,-4.22826 2.09106,-1.02306 2.23382,-1.03973 5.12898,-0.59909 4.58308,0.69754 5.71506,0.58081 13.15064,-1.3562 5.69532,-1.48366 7.72048,-1.83713 11.39526,-1.98892 2.45796,-0.10152 4.35439,-0.0639 4.21428,0.0836 -0.14011,0.14752 -2.96992,0.86248 -6.28847,1.5888 -3.31855,0.72631 -7.83809,1.87074 -10.04343,2.54317 -2.64485,0.80644 -5.26633,1.30639 -7.70149,1.46879 l -3.6918,0.24621 -0.44896,5.45024 c -0.24693,2.99762 -0.7038,6.05793 -1.01527,6.80067 l -0.56632,1.35044 -0.28586,-2.1815 c -0.33342,-2.54447 0.25422,-6.8948 1.30486,-9.65986 0.40011,-1.05299 0.63109,-2.01092 0.51329,-2.12872 -0.47497,-0.47497 -3.48626,-0.15242 -5.00187,0.53575 -2.31626,1.05173 -2.50957,2.07827 -0.73382,3.8968 0.94655,0.96935 1.67478,2.26811 2.17755,3.88349 1.88716,6.06348 1.2224,9.7419 -1.93494,10.70684 l -0.93942,0.2871 z m 42.61784,-0.56993 c -0.64121,-0.16592 -1.60302,-0.48668 -2.13736,-0.71282 -0.83251,-0.35232 -0.63142,-0.41467 1.40537,-0.43578 1.30729,-0.0136 4.70185,-0.46274 7.54347,-0.9982 2.84162,-0.53545 5.23587,-0.90428 5.32054,-0.81961 0.35319,0.3532 -2.46078,1.94885 -4.62439,2.62224 -2.38428,0.74207 -5.43017,0.8817 -7.50763,0.34417 z m -63.77634,-2.27247 c 0.84453,-0.95353 4.67308,-2.4909 5.77686,-2.3197 1.09712,0.17015 -3.09852,2.6121 -5.00067,2.91049 l -1.50912,0.23675 z m -4.81334,-0.98848 c 0,-0.59273 3.32692,-2.32174 7.10949,-3.69481 2.28811,-0.83059 4.16021,-1.43479 4.16021,-1.34267 0,0.52813 -2.50416,2.29918 -4.85763,3.43552 -2.46872,1.19199 -6.41207,2.17717 -6.41207,1.60196 z m 82.00064,-2.08984 c 0.002,-0.58777 0.61422,-2.81563 1.36014,-4.95079 0.74592,-2.13516 1.35622,-4.207 1.35622,-4.60409 0,-1.0423 -3.00386,-9.3884 -4.31755,-11.99616 -1.96704,-3.90465 -4.39969,-6.04857 -8.50785,-7.49801 -1.68256,-0.59364 -1.74116,-0.58686 -2.40744,0.27891 l -0.68289,0.88736 -0.009,-1.20359 c -0.006,-0.84795 -0.26701,-1.33898 -0.88302,-1.66175 l -0.87437,-0.45814 0.87946,0.1694 c 1.14555,0.22066 1.30267,-0.12104 2.74889,-5.97825 2.20373,-8.92515 3.2665,-16.48385 4.91753,-34.97491 0.5439,-6.09146 1.16067,-12.46979 1.3706,-14.17407 0.20993,-1.70428 0.38312,-4.93946 0.38487,-7.18929 0.004,-4.96885 0.57057,-10.21709 1.32586,-12.27908 l 0.55924,-1.52677 0.0274,1.20874 c 0.0151,0.66481 0.13958,2.02731 0.27671,3.02778 l 0.24933,1.81903 0.81935,-0.75178 c 0.45064,-0.41349 2.13091,-1.58503 3.73392,-2.60343 1.9164,-1.21748 4.87897,-3.83333 8.65037,-7.63797 5.9638,-6.01636 7.43003,-8.12227 8.39389,-12.05595 0.24767,-1.01079 1.50061,-3.93792 2.78432,-6.50474 1.2837,-2.56682 2.89474,-6.28655 3.58008,-8.26607 1.1178,-3.22862 1.247,-4.05918 1.25506,-8.06814 0.009,-4.44464 -0.69756,-7.78122 -2.29194,-10.82421 -0.4431,-0.84568 -0.51394,-0.64396 -0.74711,2.12755 -0.37969,4.51307 -1.53487,8.84463 -4.00952,15.03441 -3.22963,8.07814 -4.38567,9.59526 -7.31159,9.59526 -2.00738,0 -5.21867,-3.21305 -6.40854,-6.41206 -1.17002,-3.14566 -1.92202,-7.51013 -1.93843,-11.25026 -0.008,-1.8837 -0.1527,-2.94537 -0.37007,-2.72027 -0.19608,0.20305 -1.26061,2.9855 -2.36562,6.18322 -2.30531,6.67119 -3.01126,8.18012 -4.75767,10.16917 -1.28915,1.46826 -3.76734,2.84179 -5.15003,2.85439 -0.63531,0.006 -0.56435,-0.12558 0.38861,-0.71945 2.91663,-1.81759 4.20648,-4.00917 7.12861,-12.11224 3.06902,-8.51039 3.18795,-8.91206 3.53524,-11.94068 l 0.29983,-2.61465 0.52966,1.26298 c 0.74917,1.78639 1.13649,1.56834 1.13649,-0.63981 0,-1.67001 -0.1585,-2.04196 -1.29554,-3.04029 -1.33,-1.16775 -2.4509,-1.53295 -7.8368,-2.55327 -1.70988,-0.32392 -3.89581,-0.95887 -4.85762,-1.41101 l -1.74875,-0.82206 2.33166,0.20426 c 11.82814,1.03615 12.44943,1.19014 13.81171,3.42342 0.4174,0.68426 0.8739,1.85287 1.01444,2.59689 0.14054,0.74403 1.70619,4.30249 3.47923,7.90768 3.48765,7.09157 5.69346,12.4798 5.50519,13.44776 -0.17464,0.89786 -3.56535,-4.02668 -5.1826,-7.52701 -0.75201,-1.62763 -1.87837,-4.90733 -2.50303,-7.28823 -0.62465,-2.3809 -1.33942,-4.51876 -1.58837,-4.75081 -0.33936,-0.3163 -0.39503,-0.17604 -0.22245,0.56039 0.12661,0.54026 0.41397,4.05421 0.63858,7.80877 0.2246,3.75457 0.67571,7.85928 1.00246,9.12158 1.22134,4.71837 3.45146,7.92993 5.50657,7.92993 2.09665,0 3.08437,-1.69371 6.91209,-11.8526 1.12745,-2.9923 2.30499,-6.0526 2.61676,-6.80068 0.48295,-1.15882 0.49336,-1.84903 0.0703,-4.66332 -0.2731,-1.81675 -0.78976,-4.17756 -1.14813,-5.24623 -0.71769,-2.14022 -2.10448,-4.62121 -2.4115,-4.31419 -0.10763,0.10764 -1.61784,-0.98581 -3.35601,-2.42989 -1.73816,-1.44408 -3.94621,-3.22797 -4.90678,-3.96421 -0.96057,-0.73625 -3.49625,-3.10919 -5.63485,-5.27321 -3.71825,-3.76245 -3.82091,-3.91066 -2.34665,-3.38779 2.38273,0.84508 4.60967,2.2763 6.08811,3.91276 0.74087,0.82006 2.73926,2.56802 4.44086,3.88437 1.70159,1.31634 3.50318,3.05958 4.00352,3.87387 0.50034,0.81429 1.023,1.65639 1.16148,1.87135 0.13848,0.21495 0.87449,0.85441 1.63559,1.42102 0.76398,0.56876 1.96941,2.12889 2.69118,3.48307 0.71905,1.34908 2.23345,3.8129 3.36533,5.47518 2.77119,4.06975 3.40907,6.38194 3.13568,11.36614 -0.25056,4.56793 -0.98802,7.01337 -4.74127,15.7222 -1.4204,3.29583 -3.01371,7.31324 -3.54068,8.92757 -0.52697,1.61433 -1.24463,3.37241 -1.59481,3.90684 -0.35016,0.53442 -3.27386,3.6058 -6.49711,6.82528 -4.72504,4.71952 -6.73414,6.41552 -10.37014,8.75402 l -4.50972,2.90044 -0.23791,5.24624 c -0.13086,2.88543 -0.59499,8.30654 -1.0314,12.04691 -0.43642,3.74037 -1.23441,12.04691 -1.77332,18.45898 -1.50336,17.88735 -2.9945,26.44021 -5.46213,31.32966 -0.51038,1.01128 -0.50227,1.01965 1.21635,1.25522 5.09529,0.69838 8.57736,4.33123 11.60288,12.10527 0.74863,1.92362 1.72004,4.19025 2.15868,5.03695 0.96367,1.86016 1.0469,4.84532 0.20187,7.2404 -0.55826,1.58227 -3.92408,7.34746 -4.28958,7.34746 -0.0917,0 -0.16493,-0.4809 -0.16278,-1.06867 z m -44.30546,-0.37215 c 0,-0.129 0.42087,-0.78635 0.93526,-1.46075 0.88305,-1.15773 5.52003,-3.98541 5.9047,-3.60075 0.33318,0.33318 -4.43967,4.45932 -5.6438,4.87908 -0.65789,0.22934 -1.19616,0.31143 -1.19616,0.18242 z m -58.97158,-0.51433 c -1.22132,-0.49092 -1.10576,-1.3296 0.72011,-5.22588 2.1146,-4.51245 3.38946,-8.33732 6.35948,-19.07985 1.36364,-4.93226 3.12228,-10.52824 3.9081,-12.43552 0.85589,-2.07735 1.56948,-4.61126 1.77971,-6.31965 0.19302,-1.56852 0.77969,-3.74771 1.3037,-4.84263 0.52401,-1.09493 0.88978,-2.05375 0.81282,-2.13071 -0.36457,-0.36457 -6.85746,2.62969 -12.46705,5.74929 -10.65226,5.92395 -13.668,6.99953 -21.75022,7.75735 -8.34923,0.78284 -13.57546,1.8806 -21.37355,4.48944 -4.06098,1.35859 -8.45808,2.74277 -9.77134,3.07595 -2.56036,0.64957 -9.66553,0.83566 -10.0198,0.26243 -0.11671,-0.18884 3.50162,-1.26342 8.04073,-2.38795 4.5391,-1.12453 10.17654,-2.72414 12.52763,-3.55468 5.52994,-1.95349 9.93672,-2.82835 19.1468,-3.80113 9.90495,-1.04616 11.49223,-1.59996 22.24886,-7.76258 6.01561,-3.44643 10.01984,-4.9979 14.30851,-5.54396 2.72249,-0.34665 3.76113,-0.68052 5.44269,-1.74955 4.47416,-2.84441 9.47263,-8.98678 14.08704,-17.31086 1.15472,-2.08305 2.15269,-3.62852 2.21769,-3.43437 0.22846,0.68229 -1.91891,6.40241 -3.26698,8.70255 -2.65222,4.52532 -7.60565,10.12758 -11.32629,12.80989 -0.90802,0.65462 -1.60269,1.23847 -1.54372,1.29745 0.22838,0.22837 7.79992,-1.81639 9.48345,-2.5611 2.33563,-1.03316 2.41666,-1.00165 1.07036,0.41622 -2.41372,2.54206 -7.05278,4.05474 -10.70281,3.48993 -1.41113,-0.21836 -2.14741,-0.10693 -3.48416,0.5273 -1.50444,0.71378 -1.77019,1.04438 -2.36459,2.94152 -0.36831,1.17554 -0.68034,3.32212 -0.6934,4.77018 -0.0607,6.73425 4.06828,12.13774 14.99456,19.62286 1.37539,0.94222 -1.03699,0.1358 -4.06265,-1.35808 -4.86479,-2.40193 -9.95516,-7.79957 -11.63826,-12.3408 -0.35797,-0.96587 -0.75939,-1.75613 -0.89202,-1.75613 -0.32112,0 -2.67745,7.68731 -4.64559,15.15579 -2.24797,8.53034 -3.98886,13.51889 -6.22127,17.82719 l -1.93828,3.74067 0.82087,0.68007 c 0.89003,0.73736 0.35991,0.87063 -1.11113,0.27935 z m 83.22518,-16.77491 c 0.10164,-0.49211 0.29331,-2.16845 0.42594,-3.7252 0.31213,-3.66378 1.14214,-6.40772 2.34515,-7.75281 l 0.96149,-1.07504 -0.39138,1.09305 c -0.21527,0.60117 -0.50204,2.87454 -0.63728,5.05193 -0.2712,4.36648 -0.82228,6.19688 -2.06609,6.86255 -0.74127,0.39671 -0.80436,0.35175 -0.63783,-0.45448 z m -50.14667,-1.26019 c -0.66898,-0.29113 -1.30653,-0.67776 -1.41678,-0.85916 -0.11024,-0.18141 1.88364,-0.36303 4.43085,-0.4036 4.80716,-0.0766 5.41649,0.1988 2.83062,1.27924 -1.6321,0.68194 -4.25682,0.67454 -5.84469,-0.0165 z m -0.0576,-5.06333 c -2.19283,-0.68474 -4.05424,-2.14573 -5.59992,-4.39528 -1.25489,-1.82634 -1.25584,-1.83131 -0.21875,-1.15425 0.57287,0.37399 2.66537,1.66362 4.65001,2.86584 1.98464,1.20222 3.95337,2.42637 4.37497,2.72034 0.72387,0.50475 0.70224,0.53306 -0.38861,0.5085 -0.63533,-0.0143 -1.9033,-0.25961 -2.8177,-0.54515 z m -2.43871,-5.13538 c -4.6282,-2.28121 -9.57879,-8.70382 -11.0435,-14.32721 -1.22668,-4.70955 -0.6093,-4.33967 2.16255,1.2956 2.87142,5.8377 3.05826,6.07018 9.87333,12.28491 2.2341,2.0373 1.99344,2.21839 -0.99238,0.7467 z m -93.22033,-1.65183 c -1.04785,-1.04785 -2.06075,-4.64313 -1.14943,-4.07991 0.28002,0.17306 0.35201,0.0115 0.20618,-0.46283 -0.79201,-2.57588 -1.10149,-7.08362 -0.86177,-12.55212 0.30319,-6.91626 0.65345,-8.14952 1.37081,-4.82658 0.79219,3.66953 0.94707,12.29413 0.28156,15.67845 -0.55417,2.81814 -0.39928,3.8861 0.56361,3.8861 0.18757,0 0.34417,-2.40453 0.348,-5.34339 0.004,-2.93887 0.26165,-7.00469 0.57291,-9.03519 0.83986,-5.47862 1.11269,-10.93905 0.79812,-15.97352 l -0.28008,-4.48264 -1.28593,-0.69252 c -0.79466,-0.42795 -1.69583,-1.45683 -2.35892,-2.6932 -0.59015,-1.10038 -1.41911,-2.49844 -1.84213,-3.10682 l -0.76914,-1.10613 1.23259,0.6374 c 0.67793,0.35057 2.04146,1.67898 3.03007,2.95203 0.98861,1.27305 1.86393,2.31463 1.94516,2.31463 0.0812,0 0.62151,-0.34772 1.20062,-0.77271 1.14633,-0.84124 4.30013,-1.55895 6.85045,-1.55895 0.88606,0 2.51693,-0.23499 3.62417,-0.52221 1.10723,-0.28721 1.92324,-0.37671 1.81335,-0.19891 -0.46378,0.75041 -3.64376,2.26312 -5.98879,2.84885 -1.38928,0.34701 -3.0767,0.80492 -3.74983,1.01758 l -1.22386,0.38664 -0.0303,6.49199 c -0.0167,3.5706 -0.29643,9.98948 -0.62162,14.26419 -0.3252,4.27471 -0.59146,9.48872 -0.59169,11.5867 -3.9e-4,3.62174 -0.34823,5.14774 -1.32156,5.79765 -0.65432,0.43691 -0.94632,0.36159 -1.76249,-0.45458 z m 142.78897,-1.40324 c -4.86568,-1.81901 -6.47969,-1.96414 -11.69853,-1.05194 -3.8158,0.66697 -6.31427,0.81203 -14.30787,0.83074 -5.72859,0.0134 -9.53847,-0.11986 -9.32664,-0.32626 0.83684,-0.81533 7.42716,-1.66825 15.31962,-1.98268 4.59531,-0.18307 9.46762,-0.51555 10.82735,-0.73884 3.0146,-0.49505 5.92774,-0.0885 10.54696,1.47205 1.81634,0.61362 4.15418,1.24313 5.19521,1.39892 2.54977,0.38158 1.83501,1.03253 -1.37117,1.24875 -1.98359,0.13378 -2.99562,-0.0323 -5.18493,-0.85074 z m -2.33298,-4.45528 c -0.37026,-1.1666 -0.48831,-8.15667 -0.13775,-8.15667 0.42551,0 1.4992,3.77295 1.4992,5.26819 0,1.72488 -0.42378,3.66984 -0.7996,3.66984 -0.17262,0 -0.42545,-0.35161 -0.56185,-0.78136 z M 500.9374,542.80986 c -2.10067,-1.92511 -2.17933,-4.12823 -0.35376,-9.90812 0.76497,-2.42196 1.39354,-4.95764 1.39681,-5.63485 0.005,-0.93791 0.0957,-1.0924 0.38266,-0.64837 0.56662,0.87678 0.4645,4.70475 -0.23499,8.80835 -0.50723,2.97575 -0.53431,3.87394 -0.14511,4.81355 0.54632,1.31893 1.85793,1.81021 3.08278,1.15469 1.11424,-0.59632 1.57203,-1.9391 1.57203,-4.61107 0,-3.57994 0.76522,-8.66058 1.55871,-10.349 l 0.73562,-1.56527 -0.12693,7.99819 c -0.13759,8.67012 -0.26309,9.24463 -2.28935,10.48013 -1.94682,1.18705 -3.90167,0.99844 -5.57847,-0.53823 z m 151.87055,-4.02795 c -0.80636,-0.15989 -0.68749,-0.29101 0.97153,-1.0717 1.03966,-0.48924 2.37789,-1.4091 2.97384,-2.04413 1.01757,-1.08431 1.0642,-1.28249 0.76599,-3.25519 -0.30415,-2.01201 -0.11575,-4.77566 0.48096,-7.05536 0.21251,-0.81187 0.14097,-1.06867 -0.29773,-1.06867 -0.31761,0 -0.78396,-0.24882 -1.03634,-0.55292 -0.37124,-0.44732 -0.29338,-0.5772 0.40774,-0.68007 0.47664,-0.0699 0.93122,-0.32358 1.01017,-0.56365 0.10203,-0.31023 -0.33884,-0.34323 -1.524,-0.11408 -2.68031,0.51824 -5.596,0.4247 -6.1112,-0.19607 -0.37403,-0.45068 -0.32026,-0.51621 0.29217,-0.35606 0.41281,0.10795 2.11118,-0.34854 3.77416,-1.01443 2.30974,-0.92486 3.26108,-1.13155 4.02946,-0.87542 0.8463,0.2821 1.30463,0.0991 2.88931,-1.1535 1.0359,-0.81884 2.02931,-1.48879 2.20759,-1.48879 0.51902,0 -3.0958,5.77205 -4.02206,6.42235 -0.7824,0.54928 -0.84088,0.91391 -0.84088,5.24232 0,4.42992 0.038,4.6521 0.79665,4.65447 0.43816,0.002 0.97085,0.17668 1.18376,0.3896 0.25707,0.25707 0.89822,0.12652 1.90863,-0.38861 0.83684,-0.42665 1.87309,-0.77573 2.30277,-0.77573 0.64689,0 0.56815,0.15036 -0.45793,0.87438 -0.68154,0.4809 -1.85571,1.69282 -2.60926,2.69316 -1.47245,1.95468 -2.73175,2.63369 -3.4552,1.86303 -0.3375,-0.35952 -0.32685,-0.51967 0.0436,-0.65538 0.26962,-0.0988 0.67245,-0.5201 0.89517,-0.93626 0.27792,-0.5193 -0.15947,-0.32583 -1.39436,0.61678 -0.98961,0.7554 -2.0045,1.37583 -2.2553,1.37875 -0.2508,0.003 -0.80574,0.0701 -1.23321,0.14933 -0.42747,0.0792 -1.19067,0.062 -1.696,-0.0382 z m -66.11646,-8.41181 c 0,-0.47495 1.76844,-3.80057 3.79727,-7.14092 1.06407,-1.75191 2.75752,-5.07234 3.76324,-7.37872 1.58933,-3.64479 3.90801,-7.88523 4.31166,-7.88523 0.23257,0 -1.02314,3.96582 -2.34338,7.40092 -1.71751,4.46875 -3.45333,7.86407 -5.45465,10.66945 -1.63238,2.28823 -4.07414,4.88602 -4.07414,4.3345 z m -86.46574,-5.28479 c -1.01399,-0.41502 -1.97253,-1.53158 -2.33638,-2.72155 l -0.29096,-0.95157 1.24634,1.04872 c 1.14875,0.96662 1.51603,1.04873 4.69107,1.04873 1.89461,0 3.53501,0.14605 3.64533,0.32457 0.11033,0.17851 -0.4099,0.6157 -1.15608,0.97152 -1.41935,0.67685 -4.46944,0.82389 -5.79932,0.27958 z m 94.84453,-0.507 c 0.78114,-2.52631 4.81621,-8.3112 5.13342,-7.35955 0.0866,0.25978 -0.35678,1.57118 -0.98527,2.91424 -1.64835,3.52245 -4.96017,7.07152 -4.14815,4.44531 z m -92.70717,-1.70864 c -3.35415,-1.09327 -4.6649,-2.41028 -4.66187,-4.68413 l 0.002,-1.08797 0.71278,1.16583 c 1.01677,1.66301 1.69577,2.12458 3.61473,2.45717 1.60338,0.27791 5.82637,-0.0665 6.58811,-0.53727 0.208,-0.12854 0.192,-0.51964 -0.0389,-0.95108 -0.36215,-0.67669 -0.4951,-0.68976 -1.73732,-0.17072 -3.65093,1.52545 -8.17188,-0.5676 -8.95812,-4.14732 -0.35741,-1.6273 0.0245,-1.81781 0.76669,-0.3825 0.91154,1.76272 3.16037,2.7602 6.22292,2.7602 2.373,0 2.54224,-0.058 2.55327,-0.87438 0.011,-0.80955 0.0427,-0.82125 0.42835,-0.15779 0.2291,0.39412 0.45138,0.95396 0.49396,1.24409 0.0426,0.29012 0.54932,0.96484 1.12609,1.49937 1.21985,1.13051 1.31509,1.81752 0.36859,2.65887 -1.27866,1.13662 -5.57214,1.82972 -7.48074,1.20763 z m 10.80182,-2.11693 c -1.00893,-0.56463 -2.12723,-2.34292 -2.4208,-3.84948 l -0.26503,-1.36013 0.81124,0.97152 c 1.06938,1.28068 2.8653,4.27003 2.67789,4.45743 -0.0812,0.0812 -0.44266,-0.0175 -0.8033,-0.21934 z m 144.91561,-1.90642 c -0.51855,-1.449 -0.60836,-3.97266 -0.26058,-7.32263 0.20731,-1.99695 0.27775,-3.79129 0.15654,-3.98742 -0.122,-0.19739 -0.59459,-0.0945 -1.05857,0.23049 -1.15516,0.8091 -3.49786,0.74106 -4.57722,-0.13295 l -0.8892,-0.72004 1.13761,0.16378 c 0.76772,0.11053 1.87582,-0.23146 3.40806,-1.05181 1.24875,-0.66858 2.65248,-1.16552 3.1194,-1.10434 0.46692,0.0612 1.38972,-0.27381 2.05066,-0.74444 0.66093,-0.47063 1.66108,-1.03035 2.22255,-1.24382 0.90809,-0.34525 0.8023,-0.11001 -0.95771,2.12954 -1.13017,1.43811 -2.38924,2.62075 -2.93632,2.75806 -0.69555,0.17457 -0.8857,0.41344 -0.69453,0.8725 0.14478,0.34767 0.35001,2.29343 0.45606,4.32392 0.14411,2.75936 0.0462,4.03533 -0.38767,5.05193 -0.39533,0.92632 -0.64701,1.17421 -0.78908,0.77723 z M 511.08766,514.1907 c -0.77513,-0.78029 -0.87888,-0.7859 -3.8861,-0.21046 -4.99647,0.95609 -6.11838,0.83549 -7.73759,-0.83175 -0.76016,-0.78272 -1.58545,-2.10181 -1.83398,-2.93132 -0.39412,-1.31548 -0.36188,-1.59297 0.25232,-2.17153 0.3873,-0.36483 0.58496,-0.44987 0.43925,-0.18898 -0.33312,0.59646 0.51327,2.18528 2.22223,4.17148 l 1.32241,1.53696 0.53991,-1.02092 c 0.29695,-0.56151 1.38252,-1.90892 2.41237,-2.99424 l 1.87245,-1.97332 2.79087,0.0288 2.79087,0.0288 -1.55445,0.71958 c -0.85494,0.39577 -1.75548,0.73255 -2.0012,0.7484 -0.62678,0.0404 -4.58562,4.43958 -4.13146,4.59097 0.2044,0.0681 1.31812,-0.31671 2.47493,-0.8552 3.37457,-1.57087 5.23182,-1.14181 4.9488,1.14326 l -0.12524,1.01111 -0.79639,-0.80169 z m 24.69591,-3.84595 c 0,-0.44938 3.02665,-1.73438 7.05307,-2.99447 1.7848,-0.55857 4.58635,-1.60063 6.22566,-2.31569 5.69226,-2.48294 9.76,-3.68629 17.00627,-5.03093 11.22389,-2.08273 13.01921,-2.7402 19.6514,-7.19651 2.13735,-1.43614 5.63484,-3.62728 7.7722,-4.86922 2.13735,-1.24193 5.18311,-3.12716 6.76835,-4.1894 2.99731,-2.00844 7.68111,-4.33276 11.2243,-5.56999 1.18345,-0.41325 3.23694,-1.68087 4.82709,-2.97979 1.52209,-1.24332 3.44826,-2.60792 4.28038,-3.03244 1.78041,-0.90829 12.3583,-3.66963 15.48639,-4.04269 l 2.17108,-0.25893 0.003,4.0201 c 0.003,4.53237 0.86846,7.75492 2.85804,10.64667 2.28609,3.32272 4.96013,4.88281 9.99497,5.83125 3.35439,0.63188 5.22805,1.28081 4.9583,1.71728 -0.33604,0.54372 -3.6085,0.76013 -5.88882,0.38943 -4.99162,-0.81146 -9.91011,-4.44384 -12.26602,-9.05865 -1.01697,-1.99206 -1.25252,-2.9613 -1.39434,-5.73745 -0.14334,-2.80602 -0.0384,-3.63942 0.65596,-5.20914 0.45463,-1.02777 0.77986,-1.91542 0.72273,-1.97255 -0.0571,-0.0571 -1.85171,0.64202 -3.98796,1.55367 -2.13625,0.91164 -5.1677,1.94594 -6.73656,2.29843 -3.38822,0.76127 -6.13239,2.07334 -8.57454,4.09975 -2.86601,2.37812 -4.73112,3.46643 -7.63092,4.45272 -3.49451,1.18856 -5.29528,2.11912 -9.89353,5.11256 -2.06054,1.3414 -4.5158,2.83142 -5.45614,3.31114 -0.94034,0.47973 -4.07578,2.39962 -6.96766,4.26643 -8.95119,5.77824 -11.46902,6.74956 -22.1626,8.54975 -6.99632,1.17778 -8.7711,1.70006 -16.03657,4.71926 -3.5836,1.48919 -7.69315,2.95714 -9.13234,3.26214 -2.96485,0.6283 -5.53129,0.73375 -5.53129,0.22727 z m -34.58629,-1.99091 c -0.67713,-0.85494 -1.02812,-1.55444 -0.77998,-1.55444 0.56831,0 2.72303,2.12888 2.72303,2.69038 0,0.82178 -0.73097,0.39445 -1.94305,-1.13594 z m 12.43552,-2.13399 c 0,-0.10502 0.61206,-0.99279 1.36014,-1.97281 1.45853,-1.91079 1.72184,-2.72153 0.76458,-2.35419 -6.1058,2.34302 -12.11738,2.72099 -15.62979,0.98272 -1.90667,-0.9436 -2.03933,-0.96131 -2.03933,-0.27216 0,0.4054 0.2752,1.26928 0.61157,1.91974 0.87276,1.68774 0.46662,1.75012 -0.94285,0.14482 -1.3682,-1.5583 -1.8092,-2.85821 -1.45219,-4.28063 0.32509,-1.29528 1.80318,-1.28408 4.10411,0.0311 3.64037,2.08074 7.15143,2.01358 13.02774,-0.24919 3.4217,-1.31758 4.68472,-1.26331 5.2508,0.22559 0.43004,1.13109 0.21032,1.88044 -1.05193,3.58757 -1.1257,1.52245 -4.00285,3.13068 -4.00285,2.23745 z m 143.95082,-3.51988 c -0.23003,-1.22614 0.23411,-4.83518 0.89714,-6.97595 0.22224,-0.71754 0.26232,-0.70262 0.52203,0.1943 0.68643,2.37065 0.0827,8.16081 -0.85095,8.16081 -0.17022,0 -0.42592,-0.62062 -0.56822,-1.37916 z m -154.03078,-1.92402 c -0.007,-0.21374 0.41144,-3.79867 0.93077,-7.96651 1.16978,-9.38802 2.65664,-24.321 3.69525,-37.11226 3.38398,-41.67661 4.40214,-52.61306 6.05996,-65.09219 1.64826,-12.40722 4.14555,-27.39843 4.83902,-29.0486 0.50186,-1.19423 2.44322,-1.20056 3.27664,-0.0107 0.64666,0.92324 0.75872,3.1077 0.22483,4.38255 -0.29459,0.70344 -0.36939,0.65732 -0.78792,-0.48576 -0.60694,-1.65767 -1.01048,-1.59657 -1.28325,0.1943 -0.12208,0.80151 -0.66556,3.87314 -1.20772,6.82584 -1.80182,9.81294 -3.3045,21.43998 -5.4586,42.23618 -0.5424,5.23652 -1.33903,12.58125 -1.77028,16.32162 -0.43125,3.74038 -1.39465,15.54441 -2.1409,26.23118 -2.10477,30.14176 -2.3259,32.46789 -3.54372,37.27784 -0.54044,2.13455 -2.8037,7.12292 -2.83408,6.24649 z m 6.5055,-5.63485 c -0.38228,-16.98224 0.90354,-33.13112 4.7651,-59.84595 4.19856,-29.04626 5.30198,-37.72339 6.17714,-48.57625 0.53777,-6.66895 1.20657,-12.08369 1.58033,-12.79474 0.55646,-1.05865 0.84973,10.58459 0.41526,16.48653 -0.5766,7.83264 -1.30618,13.3975 -3.54983,27.07641 -2.13497,13.0163 -2.98185,19.76683 -4.64733,37.04425 -1.91767,19.89352 -2.30903,24.55465 -2.71435,32.32785 -0.57597,11.04603 -1.84715,16.24154 -2.02632,8.2819 z m 159.20838,-1.64064 c -0.51709,-1.1161 -1.41378,-4.09358 -1.99263,-6.61664 -0.57886,-2.52306 -1.16751,-4.4516 -1.30811,-4.28565 -0.1406,0.16594 -0.47562,1.08865 -0.7445,2.05046 -0.5996,2.14488 -2.24976,4.80256 -4.08817,6.58422 -1.56465,1.51636 -1.22617,2.178 0.70957,1.38707 0.66576,-0.27203 1.64766,-0.62623 2.182,-0.7871 l 0.97153,-0.2925 -0.77722,0.88528 c -2.13946,2.43693 -7.74358,3.24943 -10.98979,1.59334 -0.90203,-0.46018 -1.64004,-0.93128 -1.64004,-1.0469 0,-0.11562 0.78577,-0.0924 1.74615,0.0516 0.96039,0.14401 2.34089,0.15028 3.06779,0.0139 l 1.32163,-0.24795 -0.76699,-2.0303 c -0.85112,-2.25297 -1.8037,-3.43383 -3.7308,-4.62484 -0.70953,-0.43852 -1.20285,-0.8845 -1.09628,-0.99107 0.42642,-0.42642 4.14482,0.79752 5.09323,1.67649 1.24261,1.15161 1.22223,1.15182 1.5153,-0.0159 0.22916,-0.91303 6.46537,-10.43172 6.68832,-10.20876 0.42144,0.42143 -1.00859,4.18965 -2.76127,7.27612 -2.09161,3.68336 -2.91627,5.47448 -2.91627,6.33405 0,1.0411 4.8789,-7.91699 5.67209,-10.41445 0.41113,-1.2945 0.49803,-1.38361 0.51968,-0.53284 0.0143,0.56187 0.6444,2.04831 1.40024,3.30318 0.75584,1.25487 1.73015,3.41827 2.16512,4.80756 0.79846,2.55018 1.46387,8.16081 0.96786,8.16081 -0.14755,0 -0.69135,-0.91317 -1.20844,-2.02926 z m -9.91111,-1.41266 c -0.0114,-0.47847 -0.75933,-1.41837 -0.76532,-0.96174 -0.003,0.24969 -0.11285,0.73258 -0.24352,1.07309 -0.17388,0.45313 -0.0697,0.55469 0.38861,0.37882 0.3444,-0.13216 0.62351,-0.35274 0.62023,-0.49017 z m 12.59873,-1.44387 c -1.21208,-2.06828 -2.94939,-7.70946 -2.79169,-9.06487 0.088,-0.7567 0.41414,-0.39088 1.73206,1.94305 1.61334,2.8571 2.23528,4.65095 2.57998,7.44143 0.23993,1.94228 -0.25587,1.83805 -1.52035,-0.31961 z m -23.86247,-6.8981 c 0,-0.11434 0.99806,-0.49802 2.21791,-0.85265 5.61018,-1.63092 10.20882,-5.09435 15.66878,-11.80083 0.93687,-1.15076 1.77435,-1.87945 1.86106,-1.61931 0.36428,1.09286 -2.63978,6.08721 -5.22182,8.68141 -3.6474,3.66458 -7.31366,5.47028 -11.49391,5.66096 -1.66761,0.0761 -3.03202,0.0447 -3.03202,-0.0696 z m -2.54253,-1.37559 c -4.03722,-2.46198 -5.96377,-7.97403 -5.99496,-17.15211 -0.0135,-3.9779 -0.12177,-4.67911 -0.98508,-6.38078 -1.09112,-2.1507 -1.29989,-5.49248 -0.51177,-8.1921 l 0.4538,-1.55444 0.44146,2.13735 0.44146,2.13736 0.29322,-2.83045 c 0.50898,-4.91322 2.13663,-9.16478 4.56929,-11.93544 1.5147,-1.72514 1.80315,-1.5293 0.75979,0.51585 -0.43884,0.86018 -1.2753,3.10678 -1.85881,4.99243 -1.05398,3.40606 -1.06101,3.50463 -1.07512,15.08676 -0.0105,8.6372 0.12426,12.21217 0.52015,13.79566 0.57852,2.31404 2.58506,6.81361 3.94252,8.84088 0.9617,1.43624 0.70402,1.5757 -0.99595,0.53903 z m 33.5575,-1.62911 c -0.35778,-0.75985 -1.11686,-3.64528 -1.68684,-6.41207 -0.56998,-2.76679 -1.20811,-5.35154 -1.41806,-5.74388 -0.76715,-1.43361 0.0455,-1.06224 1.2183,0.55672 1.80682,2.49424 2.79709,6.18769 2.65494,9.9022 l -0.11782,3.07856 z m 6.48507,-9.61031 c -7.8e-4,-5.45457 -0.14098,-7.32809 -0.67565,-9.02157 l -0.67481,-2.13736 0.76834,0.97153 c 1.72435,2.18036 2.48402,5.01626 2.49836,9.32664 0.012,3.60848 -0.098,4.29232 -0.95092,5.91269 l -0.96449,1.83229 -7.8e-4,-6.88422 z m -2.7242,4.9467 c -0.30443,-1.38606 0.13505,-5.80746 0.57726,-5.80746 0.16603,0 0.41117,0.54648 0.54476,1.2144 0.70545,3.52728 -0.38009,7.97104 -1.12202,4.59306 z m 12.18772,-8.70722 c -4.43961,-3.25797 -7.81877,-10.60244 -8.67741,-18.86004 -0.14432,-1.38799 -0.16967,-2.43087 -0.0563,-2.31753 0.11334,0.11334 1.08408,2.91027 2.1572,6.21539 2.05725,6.33619 3.73308,9.63146 7.03462,13.8326 1.06973,1.36119 1.81084,2.47056 1.64694,2.46526 -0.16391,-0.005 -1.11117,-0.60635 -2.10502,-1.33568 z m -24.81279,0.32417 c 0,-0.13416 0.85234,-1.402 1.89407,-2.81742 2.92436,-3.97337 3.77978,-5.99322 2.69175,-6.3559 -0.30913,-0.10304 -0.26454,-0.23272 0.1324,-0.38504 2.94031,-1.1283 1.39584,5.32984 -2.01064,8.40739 -1.38116,1.24779 -2.70758,1.81164 -2.70758,1.15097 z m 8.3967,-3.09104 c -0.12974,-0.33809 -0.23588,-1.42231 -0.23588,-2.40939 0,-2.43339 0.81759,-1.62922 1.07581,1.05816 0.18308,1.90532 -0.31799,2.7114 -0.83993,1.35123 z m -5.94913,-10.655 c 0.37634,-9.49481 -1.63739,-15.02295 -6.62628,-18.1906 -4.84259,-3.07476 -10.7854,-3.15342 -17.19484,-0.2276 l -2.13735,0.97568 1.31212,-1.35465 c 0.72167,-0.74505 2.38297,-1.93556 3.69179,-2.64558 2.24425,-1.21746 2.60084,-1.29093 6.26578,-1.29093 3.57399,0 4.09913,0.10089 6.53847,1.25625 3.19241,1.51204 7.06822,5.20768 8.57032,8.17194 2.75628,5.43925 2.84828,12.22983 0.21924,16.18184 l -0.80098,1.20406 z m 23.2007,2.28635 c -2.37987,-0.94229 -5.35105,-4.94705 -6.02097,-8.1155 -0.33175,-1.569 -0.22199,-1.50956 1.24763,0.67576 0.59485,0.88453 2.36125,3.01796 3.92534,4.74095 2.75095,3.03044 2.90232,3.51217 0.848,2.69879 z m -0.97153,-35.17402 c 0.85495,-0.75785 1.87108,-1.54934 2.25808,-1.75886 0.66651,-0.36085 0.67129,-0.31839 0.0906,0.80459 -0.59559,1.15174 -2.37451,2.38114 -3.39804,2.34835 -0.27778,-0.009 0.19444,-0.63623 1.04938,-1.39408 z m -27.39701,-5.59447 c -2.24422,-0.83816 -5.3518,-1.8868 -6.90572,-2.33033 -1.77188,-0.50574 -3.32952,-1.2491 -4.17756,-1.9937 -1.31026,-1.15042 -1.73651,-2.37784 -0.98669,-2.84126 0.20979,-0.12965 0.0856,-0.71581 -0.29146,-1.37562 -0.74476,-1.30326 -0.34801,-2.4257 0.93909,-2.6568 0.69509,-0.12479 0.69279,-0.098 -0.0417,0.48603 -0.77468,0.61606 -0.77446,0.62044 0.0666,1.33547 0.46412,0.39456 1.95055,0.93657 3.30319,1.20447 5.83979,1.15662 10.86541,2.81954 10.28256,3.40238 -0.41155,0.41156 -7.78965,-0.741 -10.4026,-1.62502 -2.64304,-0.89421 -3.05547,-0.88789 -3.05547,0.0468 0,0.75347 1.6816,1.48726 6.02346,2.62841 4.41567,1.16055 8.1426,2.84461 9.50522,4.29505 1.25855,1.33966 0.6497,1.25733 -4.25899,-0.57593 z m 7.46316,-3.00695 c -0.90913,-1.433 -1.83424,-3.27871 -2.05581,-4.10156 -0.32037,-1.18976 -0.53726,-1.43861 -1.05921,-1.2153 -1.25794,0.53818 -5.13457,0.65131 -6.91927,0.20191 -2.02399,-0.50964 -6.96876,-2.66571 -6.70911,-2.92536 0.093,-0.093 3.30097,0.36409 7.12886,1.01573 5.99378,1.02033 7.01717,1.10703 7.37302,0.62458 0.56249,-0.7626 2.16977,-1.5861 2.48346,-1.27242 0.14021,0.14022 -0.0496,0.42539 -0.42189,0.63371 -0.94909,0.53114 -0.84851,1.33326 0.45732,3.64705 1.31616,2.33212 2.17668,5.19602 1.70344,5.66926 -0.18032,0.18032 -1.07169,-0.8446 -1.98081,-2.2776 z m 6.09921,0.68842 c -1.46052,-0.77194 -1.99915,-1.44984 -4.09663,-5.15588 -0.98085,-1.73305 -1.10526,-2.15158 -0.5515,-1.85522 1.63535,0.87522 7.32252,7.82047 6.36068,7.76776 -0.17239,-0.009 -0.94304,-0.34994 -1.71255,-0.75666 z m 0.98214,-3.70352 c 0.41187,-0.3116 0.67418,-0.61699 0.58292,-0.67866 -7.14539,-4.82779 -7.00604,-4.75354 -8.92093,-4.75354 -1.76243,0 -1.83902,-0.0413 -1.26095,-0.68006 1.29324,-1.42902 5.61456,-0.34911 9.50315,2.37486 1.71891,1.2041 2.29118,1.42027 3.03318,1.14579 0.53771,-0.19891 0.76731,-0.47666 0.55722,-0.67408 -1.23386,-1.15939 -5.96015,-4.4768 -6.7694,-4.75148 -0.68699,-0.23318 -0.38177,-0.27911 1.0421,-0.15683 2.10207,0.18052 4.47237,1.18589 6.65485,2.82267 1.0524,0.78927 1.26334,1.18554 1.16583,2.19012 -0.11106,1.14416 -0.23053,1.23456 -1.77951,1.34643 -0.98798,0.0714 -1.56275,0.27801 -1.41922,0.51025 0.39143,0.63335 -1.0372,1.89682 -2.12964,1.88343 -0.96728,-0.0118 -0.97787,-0.0355 -0.2596,-0.5789 z"
       id="path827-0" />
    <path
       style="fill:#000000;stroke-width:0.999997"
       d="m 914.30546,517.83402 c -0.69484,-0.24027 -1.78443,-0.74224 -2.42132,-1.11549 -1.38411,-0.81114 -5.13597,-3.56818 -5.36918,-3.94552 -0.28407,-0.45963 1.60831,0.33303 5.03118,2.1074 3.78169,1.96037 4.57941,2.11951 8.2134,1.63853 2.15396,-0.28508 2.48746,-0.39301 2.48746,-0.80499 0,-0.62032 -0.50535,-1.5782 -1.86077,-3.527 -1.20491,-1.73243 -2.78929,-4.75972 -3.33076,-6.36416 l -0.34352,-1.01791 0.90281,1.00804 c 1.44921,1.61809 5.83697,8.32518 6.16704,9.4269 0.25679,0.85706 0.23992,1.10362 -0.11229,1.64116 -0.55416,0.84576 -1.07739,1.09494 -2.70197,1.28677 l -1.36663,0.16138 1.07104,-0.66522 c 1.50791,-0.93653 1.33096,-0.99845 -0.3406,-0.11914 -1.16046,0.61041 -1.70975,0.74107 -3.0871,0.73432 -0.9215,-0.005 -2.24397,-0.20481 -2.93879,-0.44507 z m -19.49035,-3.11308 c -0.60337,-0.10799 -1.57863,-0.47857 -2.16723,-0.82352 -1.07586,-0.63049 -3.91795,-3.49282 -3.91795,-3.94586 0,-0.33323 1.56809,0.5087 3.49323,1.87559 1.90241,1.35077 3.41613,1.75413 5.36208,1.42889 2.96329,-0.49527 5.22346,-1.72026 7.23499,-3.92117 1.31299,-1.43661 1.55027,-2.1074 1.55027,-4.38253 0,-3.11923 -1.21621,-5.93191 -4.95519,-11.45969 -2.56477,-3.79181 -4.25216,-6.65528 -4.04431,-6.86314 0.18457,-0.18457 3.761,4.02434 5.64987,6.64904 1.93095,2.68317 3.92927,6.66501 4.46472,8.89636 0.21833,0.90978 0.39695,2.38015 0.39695,3.26749 v 1.61335 l 1.32305,-1.2876 c 0.72767,-0.70817 1.68597,-1.46977 2.12955,-1.69244 0.93031,-0.46701 2.39849,-0.52808 3.14108,-0.13066 0.48064,0.25724 0.50092,0.22215 0.32773,-0.56702 -0.10152,-0.46266 -1.02961,-2.98714 -2.06241,-5.60994 -2.37735,-6.03731 -2.89074,-7.95301 -2.90923,-10.85577 -0.0149,-2.33124 0.5334,-4.40291 1.47122,-5.55925 0.38208,-0.47112 0.39067,-0.46597 0.23546,0.14107 -0.34528,1.35052 -0.43355,5.28373 -0.15453,6.88597 0.46996,2.6987 1.43994,5.74244 2.92033,9.16377 1.63637,3.78183 1.80561,4.51655 1.38578,6.01604 -0.30514,1.08985 -0.34407,1.12374 -1.12323,0.97757 -1.01112,-0.18969 -2.10519,0.26946 -3.91271,1.64205 -0.76232,0.57889 -1.70339,1.11706 -2.09126,1.19592 -0.50212,0.1021 -0.85591,0.43877 -1.22849,1.1691 -0.76449,1.49851 -3.16344,3.77726 -4.89865,4.65319 -2.65498,1.34023 -5.48403,1.90566 -7.62112,1.52319 z m -7.09321,-3.30758 c -2.58616,-0.88533 -11.80506,-6.6354 -17.64056,-11.00291 -1.31674,-0.9855 -3.2382,-2.21437 -4.26991,-2.73082 -1.72736,-0.86468 -2.04649,-0.939 -4.03212,-0.939 -1.18597,0 -2.47767,0.0896 -2.87044,0.1991 -1.12918,0.31483 -0.55756,-0.28405 0.93403,-0.97856 1.79344,-0.83506 4.08066,-0.82867 5.89603,0.0165 0.73028,0.33998 2.94722,1.80035 4.92653,3.24526 4.79996,3.50399 10.20871,7.04444 13.90634,9.10277 3.00876,1.67487 5.14351,3.11189 5.15838,3.47242 0.0113,0.27539 -0.19579,0.2357 -2.00828,-0.38477 z m -34.31236,-0.0211 c -0.50671,-0.18553 -1.44229,-0.64264 -2.07906,-1.01582 -0.63677,-0.37317 -1.15777,-0.55162 -1.15777,-0.39653 0,0.4519 -1.23133,-1.1385 -1.6415,-2.12016 -0.54647,-1.30788 -0.46108,-4.04241 0.22731,-7.28014 0.95807,-4.50606 0.97785,-4.89152 0.41671,-8.12302 -0.79201,-4.56107 -0.66141,-6.51504 0.55188,-8.25702 0.56162,-0.80635 1.80056,-1.5166 2.41558,-1.38478 0.31574,0.0677 0.22282,0.19785 -0.3637,0.50955 -1.14381,0.60786 -1.64324,2.05168 -1.62814,4.7069 0.007,1.18652 0.18453,2.81493 0.39507,3.61866 0.55204,2.10735 0.4707,5.0917 -0.24828,9.10999 -0.60642,3.38921 -0.76577,6.39911 -0.40684,7.68493 0.15235,0.54578 0.42843,0.66659 2.43195,1.06413 4.08514,0.81061 4.39853,0.50836 5.79195,-5.58595 0.38986,-1.70512 2.08768,-5.67883 2.32497,-5.44154 0.15795,0.15796 -1.17194,7.48039 -1.60617,8.84365 -1.127,3.53813 -3.01079,4.95069 -5.42396,4.06715 z m 36.75145,-1.29991 c -2.33081,-1.7797 -3.44712,-4.14678 -3.44712,-7.30944 0,-1.45564 -0.10365,-1.9478 -0.5223,-2.48003 -0.56022,-0.7122 -0.48655,-0.81705 0.28425,-0.40453 0.71491,0.38261 1.14766,1.3996 1.49809,3.52064 0.33865,2.04974 0.60111,2.67823 1.99951,4.78816 0.86158,1.29996 1.62281,2.7721 1.43343,2.7721 -0.0464,0 -0.60704,-0.39911 -1.24586,-0.8869 z m 4.08346,-2.48514 c -1.01785,-0.36372 -2.82103,-1.42154 -2.67394,-1.56863 0.36196,-0.36196 4.46765,1.29928 4.46765,1.8077 0,0.20452 -0.881,0.0871 -1.79371,-0.23907 z m -1.35638,-2.02065 c -0.55442,-0.17534 -1.34825,-0.49785 -1.76406,-0.71667 -0.81783,-0.43039 -2.51224,-2.12479 -1.89006,-1.89004 0.2079,0.0784 0.94503,0.36958 1.63805,0.64698 0.69302,0.27741 2.24684,0.79969 3.45292,1.16064 1.20608,0.36094 2.26176,0.76772 2.34595,0.90393 0.22112,0.35778 -2.5641,0.28058 -3.7828,-0.10484 z m -37.20376,-6.41166 c -0.53496,-0.27106 -1.05116,-0.86142 -1.46739,-1.67821 -0.57786,-1.13398 -0.6421,-1.54997 -0.6421,-4.15813 0,-2.49299 0.0818,-3.07888 0.5853,-4.1915 0.59052,-1.30494 1.56366,-2.40836 2.37579,-2.69386 0.58706,-0.20639 0.55648,-0.0694 -0.15619,0.69957 -0.85414,0.92164 -1.48817,3.41588 -1.50968,5.93905 -0.0154,1.79882 0.0826,2.35097 0.60327,3.4021 0.53728,1.08461 0.73519,1.26568 1.4592,1.33514 0.46069,0.0442 1.34765,-0.0934 1.97101,-0.30582 1.34527,-0.45839 1.36607,-0.14947 0.0611,0.90677 -1.27551,1.03235 -2.26811,1.25775 -3.28028,0.74489 z m 28.20449,-1.02841 c -0.79146,-0.40143 -2.37912,-1.29074 -3.52811,-1.97626 -1.149,-0.68552 -3.22312,-1.84918 -4.60917,-2.58593 -2.84574,-1.51262 -5.05906,-2.94896 -5.77814,-3.74972 -0.4065,-0.45269 -0.0802,-0.3723 1.99562,0.49163 5.91406,2.46137 12.95343,6.5887 13.73816,8.05498 0.37966,0.70941 -0.0718,0.65114 -1.81836,-0.2347 z m -0.70304,-8.73832 c -1.17814,-0.18383 -5.48747,-0.44616 -9.57631,-0.58295 -11.84649,-0.39631 -15.44738,-1.33575 -19.02269,-4.96282 -0.83378,-0.84585 -2.08298,-1.84248 -2.776,-2.21474 -0.69302,-0.37226 -1.54355,-0.89676 -1.89006,-1.16557 -0.57889,-0.44908 -0.58898,-0.4892 -0.12423,-0.49435 0.27818,-0.003 1.51954,0.27331 2.75857,0.61421 1.62369,0.44672 2.34286,0.54505 2.5753,0.35214 0.66329,-0.55048 1.87093,-3.59595 3.0037,-7.57489 1.22682,-4.30925 2.38991,-7.1232 3.46848,-8.39154 0.64084,-0.75359 0.64007,-0.74686 -0.23872,2.08485 -0.4849,1.56248 -1.09203,3.3317 -1.34917,3.93159 -0.25715,0.59989 -0.71763,2.15659 -1.02331,3.45933 -1.24398,5.30158 -1.84049,6.9121 -2.93623,7.9276 l -0.62106,0.57559 1.33846,1.01012 c 3.19288,2.40961 5.86223,2.98704 15.32492,3.31507 4.08014,0.14145 8.1074,0.41245 9.32429,0.62745 1.17814,0.20815 2.95483,0.37861 3.9482,0.3788 1.5594,2.5e-4 2.02415,-0.11429 3.40211,-0.8388 0.87779,-0.46153 2.56727,-1.13907 3.7544,-1.50564 2.76353,-0.85336 3.91114,-1.70254 5.39822,-3.99443 2.58425,-3.98287 3.03579,-4.57848 3.89858,-5.14256 0.49124,-0.32116 1.23338,-0.66376 1.64919,-0.76133 0.733,-0.17198 0.72122,-0.14639 -0.3868,0.84039 -0.73008,0.6502 -1.6344,1.91466 -2.50397,3.50116 -0.74863,1.36586 -1.70379,2.92633 -2.12258,3.46771 -0.99592,1.28746 -3.17466,2.67671 -5.48302,3.4962 -1.01919,0.36182 -2.62655,1.06101 -3.57191,1.55377 -1.92884,1.00538 -2.59823,1.05852 -6.21836,0.49364 z m -12.38202,-4.76663 c -1.39165,-0.75612 -4.22192,-6.03594 -5.40212,-10.07757 -0.485,-1.66087 -0.69788,-3.07768 -0.79517,-5.29217 -0.0731,-1.66326 -0.0702,-2.96632 0.006,-2.89572 0.0765,0.0706 0.42794,1.54487 0.78088,3.27612 0.82121,4.02822 1.6826,6.63992 3.07453,9.32191 1.60217,3.08707 3.09681,5.0298 3.88124,5.04484 l 0.63002,0.0121 -0.59494,0.49563 c -0.69844,0.58185 -0.71858,0.58332 -1.58075,0.11488 z m 6.71183,-1.75746 c 0.55443,-0.48614 2.08184,-1.40927 3.39426,-2.05137 2.78464,-1.3624 5.74488,-3.15488 9.96217,-6.03229 1.66325,-1.13481 3.69157,-2.43725 4.50737,-2.8943 1.41053,-0.79025 1.46365,-0.80107 1.08305,-0.22062 -0.87787,1.33884 -2.89886,2.77477 -9.74855,6.92641 -5.29323,3.20825 -8.24976,4.77531 -9.4503,5.00896 l -0.75603,0.14712 z m -2.43625,-0.25948 c 0.46177,-0.58703 0.5462,-1.02148 0.5462,-2.81055 0,-2.46975 -0.28844,-3.29884 -1.88784,-5.42652 -0.62495,-0.83135 -1.13626,-1.68539 -1.13626,-1.89785 0,-0.87043 1.06809,-2.07616 2.42896,-2.74197 1.35602,-0.66344 1.4486,-0.67425 3.32607,-0.3885 2.97206,0.45234 3.70613,0.37665 8.528,-0.87948 3.69333,-0.96213 5.00662,-1.19135 7.38966,-1.28978 1.59395,-0.0658 2.82376,-0.0414 2.7329,0.0542 -0.0909,0.0957 -1.92595,0.55931 -4.07798,1.03031 -2.15204,0.47101 -5.08289,1.21315 -6.51302,1.64921 -1.71515,0.52297 -3.41514,0.84718 -4.99431,0.95249 l -2.39408,0.15967 -0.29114,3.5344 c -0.16013,1.94391 -0.45641,3.92848 -0.65839,4.41013 l -0.36725,0.87575 -0.18538,-1.41468 c -0.21621,-1.65005 0.16486,-4.47117 0.84619,-6.26428 0.25946,-0.68284 0.40925,-1.30405 0.33286,-1.38044 -0.30801,-0.30801 -2.26079,-0.0988 -3.24364,0.34743 -1.50206,0.68203 -1.62742,1.34772 -0.47587,2.52701 0.61382,0.62861 1.08607,1.47084 1.41211,2.51839 1.22379,3.93208 0.7927,6.31748 -1.25479,6.94323 l -0.6092,0.18618 z m 27.63706,-0.36959 c -0.41582,-0.10759 -1.03954,-0.3156 -1.38605,-0.46225 -0.53987,-0.22848 -0.40947,-0.26891 0.91136,-0.2826 0.84776,-0.009 3.04909,-0.30008 4.89183,-0.64732 1.84275,-0.34723 3.39539,-0.58641 3.4503,-0.5315 0.22904,0.22904 -1.59578,1.2638 -2.99885,1.70048 -1.54617,0.48122 -3.52139,0.57177 -4.86859,0.22319 z m -41.35804,-1.47366 c 0.54767,-0.61835 3.03043,-1.61531 3.74621,-1.50429 0.71147,0.11034 -2.00934,1.69391 -3.24286,1.88741 l -0.97864,0.15353 z m -3.12138,-0.64102 c 0,-0.38437 2.15746,-1.50561 4.6104,-2.39603 1.48381,-0.53862 2.69784,-0.93044 2.69784,-0.8707 0,0.34249 -1.62391,1.49099 -3.1501,2.22789 -1.60093,0.77298 -4.15814,1.41186 -4.15814,1.03884 z m 53.17623,-1.35523 c 10e-4,-0.38116 0.39831,-1.82589 0.88203,-3.21051 0.48372,-1.38462 0.87949,-2.72818 0.87949,-2.98569 0,-0.67592 -1.94796,-6.08824 -2.79987,-7.77934 -1.27559,-2.5321 -2.85313,-3.92241 -5.51721,-4.86235 -1.09112,-0.38496 -1.12912,-0.38057 -1.56119,0.18087 l -0.44285,0.57544 -0.006,-0.78051 c -0.004,-0.54988 -0.17315,-0.86831 -0.57262,-1.07762 l -0.56702,-0.2971 0.57032,0.10986 c 0.74287,0.14309 0.84476,-0.0785 1.78262,-3.87681 1.42908,-5.78783 2.11827,-10.68954 3.18894,-22.68073 0.35271,-3.95022 0.75268,-8.08647 0.88882,-9.19168 0.13613,-1.1052 0.24844,-3.20316 0.24958,-4.66215 0.003,-3.22222 0.37001,-6.62563 0.8598,-7.9628 l 0.36266,-0.99009 0.0178,0.78385 c 0.01,0.43112 0.0905,1.31468 0.17944,1.96347 l 0.16169,1.17962 0.53133,-0.48752 c 0.29224,-0.26814 1.38187,-1.02787 2.4214,-1.68829 1.24276,-0.78952 3.16394,-2.48586 5.60964,-4.95311 3.86744,-3.90153 4.81826,-5.26718 5.44331,-7.81811 0.16061,-0.65548 0.97313,-2.55369 1.8056,-4.21823 0.83246,-1.66455 1.87719,-4.07674 2.32163,-5.36043 0.72487,-2.09371 0.80866,-2.63232 0.81388,-5.23207 0.006,-2.88229 -0.45235,-5.04601 -1.48629,-7.01935 -0.28734,-0.54841 -0.33328,-0.41759 -0.48449,1.37969 -0.24622,2.92666 -0.99534,5.73562 -2.60011,9.7496 -2.09437,5.23856 -2.84405,6.22239 -4.74146,6.22239 -1.30176,0 -3.38423,-2.08362 -4.15585,-4.15813 -0.75874,-2.03992 -1.2464,-4.87021 -1.25704,-7.29563 -0.005,-1.22156 -0.099,-1.91003 -0.23999,-1.76406 -0.12715,0.13168 -0.81748,1.93605 -1.53407,4.00973 -1.49496,4.32617 -1.95276,5.30469 -3.08528,6.59456 -0.83599,0.95214 -2.44306,1.84286 -3.33972,1.85103 -0.41199,0.004 -0.36597,-0.0814 0.25201,-0.46655 1.89139,-1.17868 2.72784,-2.59989 4.6228,-7.85462 1.99022,-5.51886 2.06734,-5.77934 2.29255,-7.74335 l 0.19444,-1.69557 0.34347,0.81903 c 0.48583,1.15845 0.737,1.01704 0.737,-0.41491 0,-1.08298 -0.10278,-1.32418 -0.84014,-1.97158 -0.86248,-0.75727 -1.58937,-0.9941 -5.08205,-1.65576 -1.10883,-0.21006 -2.52637,-0.62182 -3.15009,-0.91502 l -1.13404,-0.5331 1.51204,0.13246 c 7.67038,0.67193 8.07328,0.77179 8.9567,2.22004 0.27068,0.44373 0.56671,1.20156 0.65785,1.68405 0.0911,0.48249 1.10644,2.7901 2.25623,5.12801 2.26169,4.59878 3.69213,8.09297 3.57003,8.72068 -0.11325,0.58225 -2.31207,-2.61124 -3.36084,-4.88116 -0.48766,-1.05549 -1.21809,-3.18233 -1.62318,-4.72631 -0.40507,-1.54398 -0.86859,-2.93035 -1.03003,-3.08083 -0.22007,-0.20512 -0.25617,-0.11416 -0.14426,0.36341 0.0821,0.35035 0.26846,2.62909 0.41411,5.06387 0.14565,2.43478 0.43819,5.09663 0.65008,5.91521 0.79203,3.0598 2.23823,5.14245 3.57094,5.14245 1.35964,0 2.00017,-1.09835 4.48239,-7.68624 0.73113,-1.94047 1.49475,-3.92503 1.69693,-4.41014 0.31318,-0.75148 0.31993,-1.19907 0.0456,-3.0241 -0.17711,-1.17814 -0.51215,-2.70909 -0.74455,-3.40211 -0.46541,-1.3879 -1.36472,-2.99678 -1.56382,-2.79768 -0.0698,0.0698 -1.04915,-0.63929 -2.17633,-1.57575 -1.12717,-0.93647 -2.55906,-2.0933 -3.18197,-2.57074 -0.62292,-0.47744 -2.26727,-2.01626 -3.65412,-3.4196 -2.41123,-2.43989 -2.47781,-2.536 -1.52177,-2.19693 1.54517,0.54802 2.9893,1.47615 3.94805,2.53737 0.48044,0.5318 1.77637,1.66532 2.87983,2.51896 1.10346,0.85362 2.27177,1.98409 2.59623,2.51215 0.32446,0.52805 0.6634,1.07414 0.7532,1.21354 0.0898,0.13939 0.5671,0.55407 1.06066,0.92151 0.49543,0.36883 1.27713,1.38055 1.74519,2.25872 0.46629,0.87486 1.44836,2.47261 2.18237,3.55058 1.79708,2.63917 2.21073,4.13859 2.03344,7.37077 -0.16248,2.96224 -0.64071,4.54807 -3.07464,10.19562 -0.92111,2.1373 -1.95435,4.74253 -2.29608,5.7894 -0.34174,1.04687 -0.80713,2.18696 -1.03421,2.53353 -0.22708,0.34657 -2.12306,2.33831 -4.21329,4.4261 -3.06412,3.06054 -4.36699,4.16037 -6.72488,5.67685 l -2.92449,1.8809 -0.15428,3.40211 c -0.0849,1.87116 -0.38584,5.38667 -0.66885,7.81224 -0.28301,2.42558 -0.8005,7.81225 -1.14997,11.97039 -0.97491,11.59968 -1.94189,17.14609 -3.54211,20.31683 -0.33098,0.6558 -0.32572,0.66123 0.78878,0.81399 3.30422,0.45289 5.56229,2.80874 7.5243,7.85009 0.48548,1.24744 1.11542,2.71732 1.39987,3.26639 0.62493,1.20629 0.6789,3.14212 0.13091,4.6953 -0.36202,1.02608 -2.54471,4.76472 -2.78173,4.76472 -0.0595,0 -0.10695,-0.31186 -0.10556,-0.69302 z m -28.73145,-0.24133 c 0,-0.0837 0.27293,-0.50994 0.6065,-0.94728 0.57265,-0.75077 3.57966,-2.58448 3.82912,-2.33503 0.21606,0.21606 -2.87907,2.8918 -3.65993,3.16401 -0.42663,0.14873 -0.77569,0.20196 -0.77569,0.1183 z m -38.24222,-0.33354 c -0.79201,-0.31835 -0.71707,-0.86222 0.46698,-3.3889 1.37129,-2.92626 2.19802,-5.40664 4.12403,-12.37301 0.88431,-3.1985 2.02476,-6.82741 2.53435,-8.06426 0.55503,-1.34713 1.01779,-2.99033 1.15412,-4.0982 0.12517,-1.01716 0.50562,-2.43033 0.84543,-3.14037 0.33981,-0.71005 0.57701,-1.33183 0.5271,-1.38174 -0.23642,-0.23642 -4.44696,1.70532 -8.0847,3.72833 -6.90784,3.8416 -8.8635,4.5391 -14.10471,5.03053 -5.41435,0.50766 -8.80349,1.21954 -13.86043,2.91134 -2.63349,0.88102 -5.48495,1.77865 -6.33658,1.99471 -1.66035,0.42123 -6.26795,0.54191 -6.49769,0.17018 -0.0757,-0.12246 2.27075,-0.81931 5.21429,-1.54855 2.94355,-0.72924 6.59934,-1.76657 8.12399,-2.30516 3.58609,-1.26681 6.44382,-1.83414 12.41643,-2.46498 6.42321,-0.67842 7.45254,-1.03755 14.42806,-5.03392 3.90104,-2.23496 6.49772,-3.24106 9.27886,-3.59518 1.7655,-0.22479 2.43904,-0.4413 3.52951,-1.13455 2.90143,-1.84456 6.14286,-5.8278 9.13524,-11.22585 0.74882,-1.35083 1.39599,-2.35304 1.43814,-2.22714 0.14815,0.44246 -1.24439,4.15187 -2.11859,5.64348 -1.71993,2.93461 -4.93215,6.56759 -7.34494,8.30703 -0.58883,0.42451 -1.03932,0.80313 -1.00108,0.84138 0.14811,0.14809 5.05814,-1.1779 6.14989,-1.66084 1.51462,-0.66999 1.56716,-0.64955 0.69411,0.26991 -1.56526,1.64849 -4.57363,2.62944 -6.94062,2.26317 -0.9151,-0.1416 -1.39256,-0.0693 -2.25943,0.34195 -0.9756,0.46288 -1.14794,0.67726 -1.5334,1.90753 -0.23884,0.76232 -0.44119,2.15435 -0.44966,3.0934 -0.0394,4.36706 2.63822,7.87114 9.72376,12.72514 0.89192,0.61101 -0.67248,0.0881 -2.63457,-0.8807 -3.15475,-1.55762 -6.45578,-5.05791 -7.54725,-8.00283 -0.23214,-0.62635 -0.49245,-1.13882 -0.57846,-1.13882 -0.20824,0 -1.73629,4.98511 -3.0126,9.82831 -1.45777,5.5318 -2.58672,8.7668 -4.0344,11.56067 l -1.25695,2.42577 0.53232,0.44102 c 0.57718,0.47817 0.2334,0.56459 -0.72055,0.18115 z m 53.97033,-10.87828 c 0.0659,-0.31913 0.19021,-1.40621 0.27622,-2.41574 0.20241,-2.37591 0.74066,-4.15532 1.52079,-5.02759 l 0.62351,-0.69715 -0.2538,0.70883 c -0.1396,0.38985 -0.32557,1.8641 -0.41327,3.27611 -0.17587,2.83159 -0.53323,4.01858 -1.33983,4.45026 -0.4807,0.25726 -0.52161,0.2281 -0.41362,-0.29472 z m -32.51939,-0.81722 c -0.43382,-0.18879 -0.84727,-0.43952 -0.91876,-0.55715 -0.0715,-0.11764 1.22151,-0.23542 2.87334,-0.26173 3.11737,-0.0497 3.51252,0.12892 1.83562,0.82957 -1.0584,0.44223 -2.76049,0.43743 -3.7902,-0.0107 z m -0.0373,-3.2835 c -1.42202,-0.44404 -2.62912,-1.39147 -3.63147,-2.85027 -0.81378,-1.18436 -0.8144,-1.18758 -0.14186,-0.74852 0.3715,0.24253 1.72846,1.07884 3.01547,1.85846 1.28701,0.77962 2.5637,1.57347 2.8371,1.7641 0.46942,0.32732 0.45539,0.34568 -0.25201,0.32976 -0.412,-0.009 -1.23426,-0.16836 -1.82723,-0.35353 z m -1.58147,-3.33022 c -3.00132,-1.47933 -6.21171,-5.6443 -7.16155,-9.29098 -0.79549,-3.05408 -0.39512,-2.81422 1.40238,0.84017 1.86207,3.78567 1.98324,3.93643 6.40271,7.96659 1.44878,1.32116 1.29272,1.43859 -0.64354,0.48422 z m -60.45204,-1.07118 c -0.67952,-0.67952 -1.33637,-3.01101 -0.74539,-2.64577 0.18159,0.11223 0.22827,0.007 0.13371,-0.30013 -0.51361,-1.67043 -0.7143,-4.59363 -0.55885,-8.13987 0.19662,-4.4851 0.42375,-5.28485 0.88895,-3.12997 0.51373,2.37964 0.61416,7.97257 0.18259,10.16725 -0.35937,1.82752 -0.25893,2.52008 0.36549,2.52008 0.12164,0 0.22319,-1.55931 0.22567,-3.46511 0.003,-1.90582 0.16968,-4.54244 0.37153,-5.85919 0.54464,-3.55281 0.72156,-7.09382 0.51757,-10.3586 l -0.18163,-2.90693 -0.83391,-0.44909 c -0.51532,-0.27752 -1.09972,-0.94473 -1.52972,-1.7465 -0.38271,-0.71358 -0.92027,-1.6202 -1.1946,-2.01473 l -0.49877,-0.71731 0.79931,0.41335 c 0.43963,0.22734 1.32386,1.08879 1.96496,1.91435 0.6411,0.82555 1.20873,1.501 1.26141,1.501 0.0527,0 0.40304,-0.22549 0.77858,-0.50109 0.74338,-0.54553 2.78858,-1.01096 4.44242,-1.01096 0.5746,0 1.63219,-0.15238 2.35022,-0.33864 0.71803,-0.18625 1.2472,-0.24429 1.17593,-0.12899 -0.30075,0.48663 -2.36292,1.4676 -3.88364,1.84744 -0.90093,0.22503 -1.9952,0.52198 -2.43171,0.65988 l -0.79366,0.25073 -0.0196,4.20996 c -0.0108,2.31549 -0.19224,6.47804 -0.40312,9.25013 -0.21088,2.77208 -0.38355,6.15329 -0.3837,7.5138 -2.5e-4,2.34865 -0.22582,3.33824 -0.85701,3.7597 -0.42432,0.28333 -0.61368,0.23448 -1.14295,-0.29479 z m 92.59659,-0.90998 c -3.15533,-1.17961 -4.20199,-1.27372 -7.58633,-0.68217 -2.47449,0.43252 -4.09472,0.52659 -9.27845,0.53872 -3.71491,0.009 -6.18556,-0.0777 -6.04819,-0.21157 0.54268,-0.52873 4.81641,-1.08184 9.93455,-1.28574 2.97999,-0.11872 6.13962,-0.33433 7.02138,-0.47913 1.95493,-0.32103 3.84406,-0.0574 6.83955,0.9546 1.17787,0.39793 2.69393,0.80615 3.36902,0.90718 1.65349,0.24745 1.18998,0.66958 -0.88918,0.8098 -1.28633,0.0867 -1.94262,-0.0209 -3.36235,-0.55169 z m -1.51291,-2.88919 c -0.24011,-0.75652 -0.31666,-5.28948 -0.0893,-5.28948 0.27594,0 0.97221,2.4467 0.97221,3.41634 0,1.11856 -0.27481,2.37984 -0.51853,2.37984 -0.11194,0 -0.2759,-0.22801 -0.36435,-0.5067 z M 792.2944,451.92477 c -1.36225,-1.24841 -1.41326,-2.6771 -0.22941,-6.42528 0.49608,-1.5706 0.90369,-3.21495 0.90581,-3.65412 0.003,-0.60822 0.0621,-0.7084 0.24815,-0.42045 0.36745,0.56857 0.30123,3.05096 -0.15238,5.71208 -0.32893,1.92973 -0.3465,2.5122 -0.0941,3.12152 0.35429,0.85531 1.20485,1.1739 1.99914,0.7488 0.72257,-0.3867 1.01944,-1.25748 1.01944,-2.99021 0,-2.32154 0.49624,-5.61626 1.0108,-6.71118 l 0.47704,-1.01505 -0.0823,5.18671 c -0.0892,5.62244 -0.17061,5.99501 -1.48461,6.79621 -1.26249,0.76978 -2.53018,0.64747 -3.61756,-0.34903 z m 98.48586,-2.61207 c -0.52291,-0.10369 -0.44583,-0.18872 0.63002,-0.69498 0.67421,-0.31727 1.54203,-0.91378 1.9285,-1.32559 0.65988,-0.70316 0.69011,-0.83168 0.49673,-2.11095 -0.19724,-1.30476 -0.0751,-3.09694 0.31189,-4.5753 0.13781,-0.52648 0.0914,-0.69301 -0.19307,-0.69301 -0.20596,0 -0.50839,-0.16136 -0.67205,-0.35856 -0.24074,-0.29008 -0.19025,-0.37431 0.26441,-0.44102 0.3091,-0.0453 0.60389,-0.20984 0.65508,-0.36552 0.0662,-0.20118 -0.21973,-0.22258 -0.98829,-0.074 -1.73814,0.33607 -3.62892,0.27542 -3.96302,-0.12715 -0.24256,-0.29225 -0.20769,-0.33475 0.18947,-0.23089 0.2677,0.07 1.36906,-0.22603 2.44748,-0.65785 1.49784,-0.59976 2.11477,-0.73379 2.61305,-0.5677 0.54881,0.18294 0.84603,0.0643 1.87368,-0.74802 0.67176,-0.53101 1.31597,-0.96546 1.43159,-0.96546 0.33657,0 -2.00759,3.74309 -2.60825,4.1648 -0.50738,0.3562 -0.5453,0.59266 -0.5453,3.39957 0,2.87274 0.0246,3.01682 0.51662,3.01835 0.28414,10e-4 0.62958,0.11458 0.76765,0.25265 0.1667,0.16671 0.58248,0.082 1.23772,-0.252 0.54267,-0.27668 1.21467,-0.50305 1.49331,-0.50305 0.4195,0 0.36844,0.0975 -0.29696,0.56702 -0.44197,0.31186 -1.2034,1.09777 -1.69207,1.74647 -0.95486,1.26759 -1.7715,1.70791 -2.24065,1.20815 -0.21886,-0.23314 -0.21195,-0.337 0.0283,-0.425 0.17484,-0.0641 0.43607,-0.33728 0.5805,-0.60715 0.18023,-0.33676 -0.10341,-0.2113 -0.90422,0.39997 -0.64175,0.48987 -1.29989,0.89221 -1.46253,0.8941 -0.16264,0.002 -0.52251,0.0455 -0.79972,0.0968 -0.27721,0.0514 -0.77213,0.0402 -1.09983,-0.0248 z m -42.87557,-5.45494 c 0,-0.308 1.14681,-2.46461 2.46248,-4.63078 0.69003,-1.13609 1.78821,-3.28934 2.4404,-4.785 1.03066,-2.36359 2.53429,-5.11345 2.79605,-5.11345 0.15082,0 -0.66349,2.57177 -1.51965,4.79939 -1.11378,2.89792 -2.23943,5.09973 -3.53726,6.91898 -1.05857,1.48388 -2.64202,3.16851 -2.64202,2.81086 z m -56.07178,-3.42711 c -0.65756,-0.26913 -1.27916,-0.99321 -1.51511,-1.76488 l -0.18869,-0.61708 0.80824,0.68008 c 0.74495,0.62683 0.98312,0.68008 3.04209,0.68008 1.22863,0 2.2924,0.0947 2.36394,0.21048 0.0716,0.11576 -0.26581,0.39927 -0.7497,0.63002 -0.92043,0.43892 -2.89837,0.53428 -3.76077,0.1813 z m 61.50531,-0.32878 c 0.50655,-1.63828 3.12324,-5.38969 3.32894,-4.77256 0.0562,0.16846 -0.23136,1.01888 -0.63893,1.88984 -1.06893,2.28426 -3.2166,4.58578 -2.69001,2.88272 z m -60.11927,-1.10803 c -2.17511,-0.70897 -3.02512,-1.56303 -3.02315,-3.03759 l 0.001,-0.70553 0.46222,0.75602 c 0.65936,1.07844 1.09969,1.37776 2.3441,1.59344 1.03977,0.18022 3.77832,-0.0431 4.2723,-0.34841 0.13488,-0.0834 0.12451,-0.33698 -0.0252,-0.61676 -0.23485,-0.43883 -0.32106,-0.4473 -1.12663,-0.11071 -2.36757,0.98923 -5.29934,-0.36808 -5.80921,-2.68948 -0.23177,-1.05528 0.0159,-1.17882 0.49719,-0.24805 0.59112,1.1431 2.04945,1.78995 4.03547,1.78995 1.53886,0 1.64861,-0.0376 1.65576,-0.56702 0.007,-0.52498 0.0277,-0.53257 0.27778,-0.10232 0.14857,0.25558 0.29272,0.61863 0.32033,0.80677 0.0276,0.18814 0.35622,0.62569 0.73025,0.97232 0.79106,0.73312 0.85282,1.17864 0.23903,1.72424 -0.8292,0.73708 -3.61346,1.18655 -4.85116,0.78313 z m 7.00483,-1.3728 c -0.65428,-0.36615 -1.37948,-1.51935 -1.56986,-2.49633 l -0.17186,-0.88202 0.52607,0.63001 c 0.69348,0.8305 1.85811,2.76905 1.73658,2.89058 -0.0527,0.0527 -0.28706,-0.0113 -0.52093,-0.14224 z m 93.97568,-1.23628 c -0.33627,-0.93966 -0.39451,-2.57622 -0.16898,-4.74862 0.13443,-1.295 0.18011,-2.4586 0.10151,-2.58579 -0.0791,-0.128 -0.38558,-0.0613 -0.68647,0.14947 -0.7491,0.52469 -2.26831,0.48057 -2.96826,-0.0862 l -0.57663,-0.46694 0.73772,0.10621 c 0.49786,0.0717 1.21644,-0.1501 2.21008,-0.68208 0.8098,-0.43357 1.72009,-0.75583 2.02289,-0.71615 0.30279,0.0397 0.90121,-0.17757 1.32982,-0.48276 0.4286,-0.3052 1.07719,-0.66817 1.44129,-0.8066 0.58888,-0.22389 0.52028,-0.0713 -0.62106,1.38097 -0.7329,0.9326 -1.54939,1.69952 -1.90416,1.78857 -0.45106,0.1132 -0.57437,0.26811 -0.45039,0.5658 0.0939,0.22546 0.22697,1.48726 0.29574,2.804 0.0935,1.78941 0.03,2.61685 -0.25139,3.2761 -0.25637,0.60071 -0.41958,0.76146 -0.51171,0.50403 z m -95.32276,-3.01911 c -0.50266,-0.506 -0.56994,-0.50964 -2.52008,-0.13648 -3.24014,0.62001 -3.96768,0.54181 -5.01772,-0.53937 -0.49295,-0.50759 -1.02814,-1.363 -1.18931,-1.90092 -0.25558,-0.85307 -0.23467,-1.03302 0.16363,-1.40821 0.25116,-0.23659 0.37934,-0.29173 0.28485,-0.12255 -0.21603,0.3868 0.33285,1.41712 1.44108,2.70514 l 0.85757,0.9967 0.35012,-0.66205 c 0.19257,-0.36413 0.89654,-1.23791 1.56439,-1.94172 l 1.21425,-1.27967 1.80984,0.0187 1.80984,0.0187 -1.00804,0.46664 c -0.55441,0.25665 -1.1384,0.47505 -1.29775,0.48532 -0.40645,0.0262 -2.97371,2.87901 -2.67919,2.97718 0.13255,0.0442 0.85478,-0.20538 1.60496,-0.55458 2.18836,-1.01869 3.39276,-0.74045 3.20922,0.74139 l -0.0812,0.65569 -0.51645,-0.51989 z m 16.01494,-2.49404 c 0,-0.29142 1.96274,-1.12472 4.57381,-1.94187 1.15742,-0.36222 2.97419,-1.03799 4.03725,-1.50169 3.69135,-1.61015 6.32922,-2.39051 11.02832,-3.26249 7.27854,-1.35062 8.44277,-1.77698 12.74365,-4.66683 1.38604,-0.93132 3.65412,-2.35224 5.04016,-3.15762 1.38604,-0.80537 3.36118,-2.02792 4.38918,-2.71676 1.94371,-1.30245 4.98109,-2.80974 7.2788,-3.61206 0.76745,-0.26799 2.09911,-1.09002 3.1303,-1.93235 0.98705,-0.80628 2.23614,-1.6912 2.77576,-1.9665 1.15457,-0.58901 8.01418,-2.3797 10.0427,-2.62162 l 1.40791,-0.16791 0.002,2.60697 c 0.002,2.93918 0.56318,5.02896 1.8534,6.90421 1.48249,2.15474 3.21657,3.16644 6.48159,3.78149 2.17527,0.40976 3.39032,0.83058 3.21539,1.11363 -0.21792,0.35259 -2.34006,0.49293 -3.81882,0.25254 -3.23699,-0.52622 -6.42656,-2.88177 -7.95433,-5.87441 -0.65949,-1.29182 -0.81225,-1.92036 -0.90421,-3.72065 -0.093,-1.81966 -0.0249,-2.36011 0.42538,-3.37805 0.29482,-0.6665 0.50572,-1.24213 0.46868,-1.27917 -0.037,-0.037 -1.20081,0.41634 -2.58614,1.00753 -1.38532,0.59118 -3.35118,1.26191 -4.36856,1.4905 -2.19721,0.49367 -3.97677,1.34453 -5.56046,2.65863 -1.85857,1.54217 -3.06807,2.24793 -4.94855,2.88752 -2.26614,0.77077 -3.43391,1.37422 -6.41581,3.31542 -1.33623,0.86988 -2.92843,1.83614 -3.53823,2.14723 -0.60979,0.3111 -2.64308,1.55612 -4.51842,2.76672 -5.80472,3.7471 -7.4375,4.37699 -14.37213,5.54439 -4.53701,0.76377 -5.68793,1.10246 -10.39948,3.06037 -2.32392,0.96572 -4.9889,1.91766 -5.92219,2.11545 -1.92267,0.40744 -3.58697,0.47583 -3.58697,0.14738 z m -22.42871,-1.29108 c -0.43911,-0.55441 -0.66672,-1.00803 -0.50581,-1.00803 0.36855,0 1.76585,1.38055 1.76585,1.74468 0,0.53291 -0.47402,0.25579 -1.26004,-0.73665 z m 8.06426,-1.38386 c 0,-0.0681 0.39691,-0.64381 0.88203,-1.27934 0.94583,-1.23912 1.11658,-1.76487 0.49582,-1.52665 -3.95953,1.51941 -7.85795,1.76452 -10.1357,0.63728 -1.23645,-0.61192 -1.32247,-0.6234 -1.32247,-0.1765 0,0.2629 0.17846,0.82311 0.39659,1.24493 0.56597,1.09447 0.3026,1.13492 -0.61142,0.0939 -0.88726,-1.01053 -1.17324,-1.85351 -0.94173,-2.77593 0.21082,-0.83997 1.16934,-0.8327 2.66146,0.0202 2.36073,1.34933 4.6376,1.30578 8.4483,-0.16159 2.21892,-0.85444 3.03797,-0.81924 3.40507,0.14629 0.27887,0.73349 0.13639,1.21944 -0.68216,2.32649 -0.73,0.98728 -2.59579,2.0302 -2.59579,1.45095 z m 93.35002,-2.28259 c -0.14917,-0.79513 0.15182,-3.13554 0.58179,-4.5238 0.14412,-0.46532 0.17011,-0.45564 0.33852,0.126 0.44514,1.53733 0.0536,5.29217 -0.55182,5.29217 -0.11039,0 -0.27621,-0.40247 -0.36849,-0.89437 z m -99.88673,-1.2477 c -0.005,-0.13861 0.26681,-2.46338 0.60359,-5.16616 0.75858,-6.088 1.72279,-15.77182 2.39631,-24.06677 2.19447,-27.02668 2.85473,-34.11881 3.9298,-42.21134 1.06887,-8.04591 2.68833,-17.76749 3.13804,-18.8376 0.32544,-0.77444 1.58439,-0.77855 2.12485,-0.007 0.41935,0.59871 0.49202,2.0153 0.1458,2.84202 -0.19104,0.45617 -0.23955,0.42626 -0.51096,-0.31501 -0.39359,-1.07497 -0.65528,-1.03535 -0.83217,0.126 -0.0792,0.51977 -0.4316,2.51168 -0.78319,4.42646 -1.16845,6.36355 -2.14292,13.90352 -3.53982,27.38955 -0.35174,3.39581 -0.86834,8.15876 -1.148,10.58434 -0.27966,2.42558 -0.90441,10.08032 -1.38834,17.01054 -1.36491,19.5465 -1.50831,21.05496 -2.29805,24.17414 -0.35047,1.38423 -1.81816,4.61911 -1.83786,4.05076 z m 4.21872,-3.65412 c -0.2479,-11.01273 0.58593,-21.48505 3.0901,-38.80923 2.7227,-18.83608 3.43826,-24.46307 4.00578,-31.501 0.34874,-4.32472 0.78245,-7.8361 1.02483,-8.2972 0.36085,-0.68652 0.55103,6.86395 0.26929,10.69127 -0.37392,5.07936 -0.84704,8.68809 -2.30202,17.55867 -1.3845,8.44088 -1.93368,12.8185 -3.01372,24.02266 -1.24359,12.90066 -1.49738,15.92333 -1.76022,20.96414 -0.37351,7.16319 -1.19785,10.5324 -1.31404,5.37069 z m 103.24434,-1.06393 c -0.33533,-0.72377 -0.91682,-2.65463 -1.2922,-4.29079 -0.37538,-1.63617 -0.75711,-2.8868 -0.84829,-2.77919 -0.0912,0.10761 -0.30843,0.70598 -0.48279,1.3297 -0.38884,1.39092 -1.45894,3.11439 -2.65112,4.26977 -1.01466,0.98334 -0.79516,1.4124 0.46014,0.89949 0.43174,-0.1764 1.06849,-0.4061 1.415,-0.51042 l 0.63002,-0.18968 -0.50402,0.57409 c -1.3874,1.58031 -5.0216,2.10721 -7.12672,1.03326 -0.58495,-0.29842 -1.06354,-0.60392 -1.06354,-0.6789 0,-0.075 0.50956,-0.0599 1.13236,0.0335 0.62279,0.0934 1.51803,0.0975 1.98941,0.009 l 0.85706,-0.16079 -0.49738,-1.31662 c -0.55194,-1.46102 -1.16967,-2.22679 -2.41937,-2.99914 -0.46012,-0.28437 -0.78003,-0.57358 -0.71092,-0.64269 0.27652,-0.27653 2.68785,0.51718 3.30288,1.08718 0.80582,0.7468 0.7926,0.74693 0.98265,-0.0103 0.14861,-0.59208 4.1927,-6.76481 4.33728,-6.62023 0.2733,0.27329 -0.65405,2.71693 -1.79064,4.71846 -1.35638,2.38861 -1.89116,3.55012 -1.89116,4.10754 0,0.67514 3.1639,-5.13405 3.67827,-6.75362 0.26661,-0.83946 0.32296,-0.89725 0.337,-0.34554 0.009,0.36437 0.41789,1.3283 0.90804,2.14207 0.49015,0.81376 1.12198,2.21669 1.40405,3.11763 0.51779,1.65375 0.9493,5.29217 0.62764,5.29217 -0.0957,0 -0.44833,-0.59218 -0.78365,-1.31595 z m -6.42722,-0.91609 c -0.007,-0.31028 -0.49241,-0.91979 -0.4963,-0.62367 -0.002,0.16192 -0.0732,0.47507 -0.15791,0.69588 -0.11276,0.29385 -0.0452,0.35971 0.252,0.24566 0.22334,-0.0857 0.40434,-0.22875 0.40221,-0.31787 z m 8.1701,-0.93633 c -0.78602,-1.34125 -1.91264,-4.99947 -1.81037,-5.87843 0.0571,-0.49071 0.26856,-0.25348 1.12321,1.26004 1.04623,1.85278 1.44955,3.01607 1.67308,4.82566 0.15559,1.25954 -0.16593,1.19194 -0.98592,-0.20727 z m -15.47447,-4.47331 c 0,-0.0742 0.64723,-0.32296 1.43828,-0.55294 3.63812,-1.05762 6.62028,-3.30361 10.16098,-7.65266 0.60755,-0.74626 1.15064,-1.2188 1.20687,-1.0501 0.23623,0.7087 -1.71186,3.94746 -3.38627,5.62977 -2.36529,2.37642 -4.74281,3.54739 -7.45364,3.67105 -1.08142,0.0494 -1.96622,0.029 -1.96622,-0.0451 z m -1.64884,-0.8921 c -2.61808,-1.59655 -3.86742,-5.17104 -3.88765,-11.12289 -0.009,-2.57961 -0.079,-3.03434 -0.63881,-4.13784 -0.70757,-1.3947 -0.84296,-3.5618 -0.33187,-5.31246 l 0.29428,-1.00803 0.28628,1.38604 0.28628,1.38604 0.19015,-1.8355 c 0.33006,-3.18616 1.38557,-5.94323 2.96312,-7.73996 0.98226,-1.11873 1.16931,-0.99173 0.49271,0.33452 -0.28458,0.55781 -0.82701,2.0147 -1.20541,3.23752 -0.68349,2.20878 -0.68805,2.2727 -0.6972,9.78354 -0.007,5.6011 0.0806,7.91942 0.33731,8.94629 0.37516,1.50062 1.67637,4.41853 2.55667,5.73318 0.62364,0.93138 0.45654,1.02182 -0.64586,0.34955 z m 21.76155,-1.05645 c -0.23201,-0.49275 -0.72427,-2.36391 -1.09389,-4.15813 -0.36962,-1.79423 -0.78344,-3.4704 -0.91959,-3.72483 -0.49749,-0.92967 0.0295,-0.68884 0.79005,0.36103 1.17169,1.61748 1.81387,4.01263 1.72169,6.42143 l -0.0764,1.9964 z m 4.20548,-6.23215 c -5.1e-4,-3.53721 -0.0914,-4.75216 -0.43815,-5.85035 l -0.43761,-1.38605 0.49826,0.63002 c 1.11821,1.41393 1.61085,3.25297 1.62015,6.04819 0.008,2.34005 -0.0635,2.78351 -0.61666,3.8343 l -0.62546,1.18821 -5e-4,-4.46432 z m -1.76661,3.20787 c -0.19742,-0.89884 0.0876,-3.76606 0.37435,-3.76606 0.10766,0 0.26663,0.35439 0.35326,0.78752 0.45748,2.28739 -0.24648,5.16911 -0.72761,2.97854 z m 7.90356,-5.64651 c -2.87902,-2.11275 -5.07036,-6.87553 -5.62717,-12.23046 -0.0936,-0.90009 -0.11003,-1.57639 -0.0365,-1.50289 0.0735,0.0735 0.70301,1.88727 1.39891,4.03059 1.3341,4.10893 2.42085,6.24587 4.56185,8.97024 0.6937,0.88272 1.1743,1.60213 1.06802,1.59869 -0.1063,-0.003 -0.72058,-0.39321 -1.36508,-0.86617 z m -16.09073,0.21022 c 0,-0.087 0.55273,-0.90918 1.22827,-1.82706 1.89641,-2.57667 2.45113,-3.88651 1.74556,-4.12171 -0.20046,-0.0668 -0.17155,-0.15091 0.0859,-0.24969 1.90675,-0.73168 0.90518,3.45633 -1.30387,5.45207 -0.89566,0.80918 -1.75582,1.17482 -1.75582,0.74639 z m 5.44513,-2.00449 c -0.0841,-0.21925 -0.15296,-0.92235 -0.15296,-1.56246 0,-1.57802 0.53019,-1.05653 0.69765,0.6862 0.11872,1.23557 -0.20622,1.75831 -0.54469,0.87626 z m -3.85792,-6.90962 c 0.24405,-6.15725 -1.06182,-9.74216 -4.29705,-11.79634 -3.14035,-1.99394 -6.99417,-2.04495 -11.1506,-0.1476 l -1.38604,0.63272 0.85089,-0.87847 c 0.46799,-0.48316 1.54532,-1.25518 2.39407,-1.71562 1.45536,-0.78951 1.68661,-0.83715 4.06327,-0.83715 2.31768,0 2.65822,0.0654 4.2401,0.81466 2.07023,0.98053 4.58364,3.3771 5.55773,5.29938 1.78741,3.52728 1.84707,7.93087 0.14217,10.49369 l -0.51942,0.78082 z m 15.04532,1.48267 c -1.54331,-0.61106 -3.47008,-3.20809 -3.90451,-5.26279 -0.21514,-1.01747 -0.14396,-0.97893 0.80907,0.43822 0.38575,0.57361 1.53123,1.95711 2.54552,3.07444 1.78395,1.9652 1.88211,2.27759 0.54992,1.75013 z m -0.63003,-22.80985 c 0.55443,-0.49145 1.21337,-1.00472 1.46434,-1.14059 0.43222,-0.23401 0.43532,-0.20647 0.0588,0.52176 -0.38623,0.74689 -1.53984,1.54414 -2.20358,1.52287 -0.18014,-0.006 0.12609,-0.41258 0.68051,-0.90404 z m -17.76656,-3.62793 c -1.45535,-0.54354 -3.47057,-1.22356 -4.47826,-1.51119 -1.14904,-0.32796 -2.15915,-0.81002 -2.70909,-1.29288 -0.84968,-0.74603 -1.1261,-1.542 -0.63985,-1.84252 0.13604,-0.0841 0.0555,-0.46419 -0.18901,-0.89207 -0.48297,-0.84514 -0.22568,-1.57303 0.60899,-1.72289 0.45075,-0.0809 0.44926,-0.0636 -0.0271,0.31518 -0.50236,0.39951 -0.50222,0.40235 0.0432,0.86603 0.30098,0.25587 1.26491,0.60735 2.14208,0.78108 3.78701,0.75006 7.04606,1.82844 6.66809,2.2064 -0.26689,0.26689 -5.05148,-0.48053 -6.74594,-1.0538 -1.71397,-0.57989 -1.98143,-0.57579 -1.98143,0.0303 0,0.48861 1.0905,0.96446 3.90613,1.70448 2.8635,0.7526 5.28036,1.84469 6.164,2.78528 0.81615,0.86875 0.42132,0.81536 -2.7619,-0.37348 z m 4.83975,-1.94996 c -0.58956,-0.92928 -1.18948,-2.1262 -1.33316,-2.65981 -0.20776,-0.77154 -0.34841,-0.93291 -0.68688,-0.7881 -0.81576,0.349 -3.3297,0.42236 -4.48705,0.13093 -1.31253,-0.33049 -4.51914,-1.72867 -4.35076,-1.89705 0.0603,-0.0603 2.14063,0.23611 4.62296,0.65869 3.88688,0.66167 4.55053,0.71789 4.7813,0.40503 0.36476,-0.49454 1.40706,-1.02856 1.61049,-0.82515 0.0909,0.0909 -0.0322,0.27586 -0.27359,0.41095 -0.61548,0.34444 -0.55025,0.8646 0.29656,2.36506 0.85351,1.51235 1.41155,3.36955 1.10466,3.67644 -0.11694,0.11693 -0.69498,-0.54771 -1.28453,-1.47699 z m 3.95525,0.44643 c -0.94713,-0.5006 -1.29642,-0.9402 -2.65661,-3.34352 -0.63606,-1.12386 -0.71674,-1.39527 -0.35763,-1.20308 1.0605,0.56757 4.74854,5.07146 4.1248,5.03728 -0.11179,-0.006 -0.61154,-0.22693 -1.11056,-0.49068 z m 0.6369,-2.40168 c 0.2671,-0.20207 0.4372,-0.40011 0.37802,-0.4401 -4.63368,-3.13076 -4.54332,-3.08261 -5.7851,-3.08261 -1.14291,0 -1.19257,-0.0268 -0.8177,-0.44101 0.83864,-0.92669 3.64096,-0.22639 6.16265,1.54007 1.11469,0.78084 1.4858,0.92102 1.96698,0.74303 0.34869,-0.12899 0.49759,-0.30911 0.36135,-0.43714 -0.80015,-0.75184 -3.86508,-2.90314 -4.38986,-3.08126 -0.44551,-0.15122 -0.24758,-0.181 0.67578,-0.1017 1.36317,0.11706 2.90027,0.76903 4.31558,1.83046 0.68246,0.51183 0.81926,0.7688 0.75602,1.42026 -0.072,0.74197 -0.14949,0.80059 -1.15398,0.87314 -0.6407,0.0463 -1.01343,0.18028 -0.92035,0.33089 0.25384,0.41072 -0.67261,1.23006 -1.38104,1.22138 -0.62727,-0.008 -0.63413,-0.023 -0.16835,-0.37541 z"
       id="path894" />
  </g>
</svg>
